<?xml version="1.0" encoding="utf-8" ?>
<svg baseProfile="full" height="300mm" version="1.1" viewBox="0,0,200,300" width="200mm" xmlns="http://www.w3.org/2000/svg" xmlns:ev="http://www.w3.org/2001/xml-events" xmlns:xlink="http://www.w3.org/1999/xlink"><defs /><rect fill="#222222" height="300" width="200" x="0" y="0" /><text fill="#FFFFFF" style="font-size:12px; font-family:Arial; font-weight:bold;" x="10" y="20">Over 10km Runs</text><text fill="#FFFFFF" style="font-size:4px; font-family:Arial" x="10" y="280">ATHLETE</text><text fill="#FFFFFF" style="font-size:9px; font-family:Arial" x="10" y="290">huanxi</text><text fill="#FFFFFF" style="font-size:4px; font-family:Arial" x="65" y="280">SPECIAL TRACKS</text><rect fill="yellow" height="2.6" width="2.6" x="65" y="283" /><text fill="#FFFFFF" style="font-size:3px; font-family:Arial" x="70" y="285.5">Over 20.0 km</text><rect fill="red" height="2.6" width="2.6" x="65" y="287" /><text fill="#FFFFFF" style="font-size:3px; font-family:Arial" x="70" y="289.5">Over 40.0 km</text><text fill="#FFFFFF" style="font-size:4px; font-family:Arial" x="120" y="280">STATISTICS</text><text fill="#FFFFFF" style="font-size:3px; font-family:Arial" x="120" y="285">Number: 24</text><text fill="#FFFFFF" style="font-size:3px; font-family:Arial" x="120" y="290">Weekly: 1.0</text><text fill="#FFFFFF" style="font-size:3px; font-family:Arial" x="141" y="285">Total: 321.7 km</text><text fill="#FFFFFF" style="font-size:3px; font-family:Arial" x="141" y="290">Avg: 13.4 km</text><text fill="#FFFFFF" style="font-size:3px; font-family:Arial" x="167" y="285">Min: 10.0 km</text><text fill="#FFFFFF" style="font-size:3px; font-family:Arial" x="167" y="290">Max: 23.0 km</text><polyline fill="none" points="47.8313817330054,42.72394375595468 46.398126463755034,43.35827802104177 46.35597189690452,43.821827861575 44.31147540983511,43.919417073295335 43.18384074943606,44.17558837614342 42.69906323181931,44.626936482833116 42.23536299762782,44.700127907563 42.214285714318976,45.15147403955052 41.48711943795206,46.37131994896481 40.738875878218096,47.00563491723733 40.22248243557988,47.78632565621956 40.00117096019676,49.115927870698215 39.11592505854787,50.55529713494616 38.947306791553274,51.213985781570955 39.27400468388805,53.27541390640545 39.13700234191492,53.69013480962167 35.96487119438825,54.251225513449754 34.15222482435638,53.88529709128488 31.949648711946793,54.23902791737055 30.442622950824443,54.665943042055005 29.241217798553407,54.69033814614522 28.440281030430924,54.93428891401709 26.62763466045726,56.05645605472819 22.38056206086185,58.154392544252914 18.18618266977137,51.592120221743244 13.401639344228897,47.61554999141663 12.411007025744766,46.249335916523705 12.21077283367049,45.712604699299845 12.316159250563942,44.858709174564865 14.065573770494666,42.821533861329954 12.32669789227657,44.38296474428353 12.0,45.72480316273868 13.306791569048073,47.68873959180928 18.196721311483998,51.7872859178824 21.885245901648887,57.87385665086913 22.106557377032004,58.19098413413303 22.46487119438825,58.19098413413303 22.46487119438825,58.31295601983584 29.220140515244566,54.787918512825854 30.30562060890952,54.77572097133816 34.07845433260081,53.98287811304181 35.99648711946793,54.3975965696809 39.558548009372316,53.73892540978704 39.17915690864902,51.79948376334505 39.24238875875017,50.652880866437044 40.2330210772343,49.16472033204627 40.50702576112235,47.63994652983092 41.32903981261188,47.06662656429398 42.46721311472356,44.96849608272896 42.256440280994866,42.60195601249143 42.951990632282104,42.37017895797908 46.081967213132884,42.19939557846374 46.67213114752667,41.88222579959984 47.125292740005534,41.967617745671305 48.0,41.68704398016416" stroke="#4dd2ff" stroke-linecap="round" stroke-linejoin="round" stroke-width="0.5"><title>2024-10-01 10.1km</title><desc>1727772525000</desc></polyline><polyline fill="none" points="92.97555813041981,50.922729413250636 92.079163647315,51.208608835317136 92.15233870712109,52.04506633667188 91.79561029042816,52.225062641344266 90.917509572173,52.35211866888858 90.18575897370465,52.26741466776002 90.13087767880643,52.51093848520395 89.64609290735098,52.46858655786491 88.60334830445936,52.722697863137 86.26174638932571,52.690933983933064 86.42639027402038,54.183825825450185 86.28004015429178,54.40616958629107 86.38980274408823,56.60840594203182 85.82269603025634,57.783618771827605 84.81653895729687,58.67296019960486 84.57872001279611,59.255262969614705 84.45981054054573,60.16576622521097 83.57256293989485,61.542093234522326 83.76464747200953,63.818286424655525 83.65488488221308,64.09354362264276 80.80105754814576,64.64405583488406 79.35585011611693,64.32645299087017 76.19102877768455,64.96165770981315 75.00193405512255,65.02517796851316 69.29427938698791,68.0 68.98328538262285,67.90472232041066 68.43447243375704,67.10015177065361 66.61424282001099,63.95591511463863 65.49832315731328,62.336119768551725 61.3181978634675,58.80000835456303 60.43095026281662,57.49775741311896 60.357775202952325,56.95779492640577 60.60474102990702,56.259015784620715 63.220749419531785,53.590906807090505 61.931038989685476,48.94272815216391 61.45540110068396,45.32145189469156 61.29990409850143,42.31421440230042 61.3913729233318,41.38237669120281 61.62919186783256,40.94822217967885 64.62022243911633,41.22353988498071 65.26050421281252,41.445911345785134 68.01371583959553,40.84233056051744 68.96499161759857,40.079907720202755 70.6297242291621,38.163236729364144 72.96217926184181,37.32666760025313 73.83113309758483,36.733652496448485 75.77941906603519,34.71102197624714 76.61178537178785,34.308609118292225 77.59964867972303,33.46141906431876 78.47774939791998,33.42964930301969 79.10888428910403,33.05900137095159 80.29797901166603,32.93192177583842 80.92911390285008,33.334339960965735 81.24010790721513,33.35551982228935 82.41090886481106,32.7942520392171 84.81653895729687,32.0 85.10923919669585,32.11649067867984 85.82269603025634,34.319198950295686 86.07880873972317,34.76397092058323 86.34406833170215,34.91222782133991" stroke="#4dd2ff" stroke-linecap="round" stroke-linejoin="round" stroke-width="0.5"><title>2024-08-31 10.2km</title><desc>1725103873000</desc></polyline><polyline fill="none" points="141.1939880293794,49.853233480185736 141.1939880293794,50.67959980942396 139.24455454217969,50.838515659248515 139.25370681210188,52.68192178944446 139.079813684104,52.96796464297222 135.48297161620576,52.97855880764109 135.31823075813008,53.11628285020561 135.27246940869372,53.9108410768531 134.87892180326162,54.14391033983702 133.28642684192164,54.17569247163192 131.41021151386667,54.55707729648566 131.53834329236997,56.209728727953916 131.44682059343904,56.67585644032806 130.87022759014508,57.80938557921036 129.98245741060236,58.646282352128765 129.6804325041012,59.313676223719085 129.57060526538407,60.15056090683356 128.71029189543333,61.40057866756979 128.64622600621078,62.05736164751579 128.8933372932952,63.879383068793686 128.81096686428646,64.05946485038294 126.42222442221828,64.58911534443905 125.89139276836067,64.63148726760119 124.35381142637925,64.32429043410957 121.2878010122804,64.98105497593497 120.06139684666414,65.04461261503457 114.24055319471518,68.0 113.25210804631934,66.65472653491452 110.75353836553404,62.45990400719893 106.23231703840429,58.5827208079354 105.48183090722887,57.32207549895975 105.47267863730667,56.750012929478544 105.71978992439108,56.19913489207829 108.30073003424332,53.60361261491926 107.01941224921029,48.910320297094586 106.51603740511928,45.350481179120834 106.40621016640216,41.63159064946376 106.76314869220369,40.83693869106355 109.44476377085084,41.13360946526518 110.45151345903287,41.377302682900336 112.98669221939053,40.81574788913713 113.63650338177104,40.38133549843769 115.63169821846532,38.13507664741337 116.97708189272089,37.774823075087625 118.86244949063985,36.768225600812 120.77527389826719,34.75500144200487 121.6813486177125,34.28877555615327 122.66064149618614,33.451682928032824 123.46604124677833,33.43049062220962 124.21652737807017,33.049028379165975 125.33310430496931,32.91127778105147 126.0103722770582,33.27154819088173 126.35815853293752,33.303336696568294 129.662127964315,32.0105962991729 130.16550280846423,32.0 131.15394795686007,34.659637226184714 132.0051090568886,35.083477516353014 132.92033604619792,36.43975484435941 133.17659960314631,36.471542382198095 133.8630198451574,38.060906896229426 135.70262609358178,41.21837238830631 135.73923517321236,42.29909360582678 135.61110339470906,42.61695065186359 134.6318105161772,43.273852137688664 134.20165383117273,43.36920846038265 133.75319260644028,44.38633713367017 133.67997444729554,47.57539489390183 132.4078089321847,50.61603340162401 131.25462292565499,52.34290701948339 131.16310022672405,52.628950804406486 131.31868881493574,54.19688055408187 131.39190697408048,54.408761141690775 131.6481705310871,54.41935515975638 133.66166990750935,54.16509842879168 134.71418094518594,54.19688055408187 136.27921909687575,53.69895947598707 136.8832689098199,53.67777129217575" stroke="#4dd2ff" stroke-linecap="round" stroke-linejoin="round" stroke-width="0.5"><title>2024-08-13 13.6km</title><desc>1723550326000</desc></polyline><polyline fill="none" points="187.91446362057468,50.73895174257632 186.42961168580223,50.92993164456129 185.678019965766,50.86627171609143 185.90716378286015,52.69117425179866 185.80634050333174,53.062516787002096 184.44064335344592,53.02007770706405 183.85403518169187,53.25349243294477 183.48740507435286,53.2110534307576 183.31325577327516,53.752149415064196 182.78164211765397,53.97495282773161 181.92922711803112,54.017391519024386 181.0034860970336,54.293242591418675 178.25376029184554,54.51604484789277 178.35458357137395,56.637947243121744 177.33718502346892,58.64310532647505 176.73224534629844,58.929553333844524 176.5214330345625,60.160209895409935 175.6231892716023,61.518158903039875 175.54069749743212,62.122864880482666 175.82483583060093,64.11730886631267 172.60765663860366,64.66895685243071 171.5810923379613,64.37191599167272 170.4078759944532,64.41435045214894 168.03394604934147,65.01903963799123 166.74157492094673,65.10390801510948 162.63531771855196,67.28924494371313 161.10463702032575,68.0 160.81133293447783,67.97878350127576 157.51166196831036,62.72756735180883 156.2101250871783,61.42267869132047 152.83712809951976,58.5900593128099 152.11303363752086,57.30633755493909 152.08553637942532,56.839525724855775 152.3330117019359,56.234789110618294 154.97274847485824,53.57178439895506 153.62538283038884,48.871574267264805 153.03877465857659,43.73611373247695 153.0662719166139,41.465395559913304 153.5153937981231,40.84995874976448 155.5685223992914,41.23195443896839 156.2009593344992,41.189510542673816 156.95255105453543,41.465395559913304 159.75727137585636,40.87118076920888 160.82966443983605,39.90557450919732 162.26868761121295,38.186561006790726 164.1201696533244,37.62416154519451 165.24755723349517,37.008702052808076 167.1631995443604,35.034962611338415 168.39141040400136,34.2815360848399 169.39964319922728,33.453821790608345 170.20622943539638,33.453821790608345 170.80200335982954,33.11424479366542 171.95688819803763,32.933844063984 172.25935803656466,32.99751494542579 172.60765663860366,33.3583158720794 172.88262921903515,33.390151187966694 175.51320023933658,32.307744991077925 176.56726179801626,32.0 176.86056588386418,32.07428335690929 177.7771411522408,34.589274338199175 178.19876577571267,34.95006975388242 178.70288217335474,35.08802061212191 179.1153410440893,35.58676449915947 180.93016007554252,38.600400181894656 180.97598883893806,38.929348097604816 182.32335448346566,40.99851279526774 182.38751475227764,42.515874134252954 181.29679018288152,43.35412722025649 180.93016007554252,43.40718098619982 180.71934776380658,43.683060133917024 180.32522039843025,44.79718003306334 180.2885573876556,45.96434048943047 180.49020394665422,46.972332185505365 180.39854641986312,47.65139478085621 179.05118077533552,50.69651171686564 177.8504671737319,52.56385650670563 178.0521137327887,54.4842159832624 179.64695469971048,54.22958471641323" stroke="#4dd2ff" stroke-linecap="round" stroke-linejoin="round" stroke-width="0.5"><title>2024-06-17 13.1km</title><desc>1718625363000</desc></polyline><polyline fill="none" points="46.56500080169644,93.5697310665928 44.3514556917944,93.71796116807673 42.77819222526159,94.2155892501105 40.32682821928756,94.33205505330261 39.43958079919685,94.53322295176622 39.43043391860556,96.57664325003861 38.82673979771789,97.78361877286079 37.9120517357951,98.7258969506147 37.54617651103763,100.14459182217979 36.64978221029742,101.53150617388746 36.85101358394604,103.76535226515261 36.74125101650134,104.08295682125754 34.01548059191555,104.62288234252628 32.90870803699363,104.31586621316819 31.701319795218296,104.3582133193122 29.387158998579253,104.96165771018423 27.98768626380479,105.06752478642738 22.371501563466154,108.0 22.078801383671816,107.90472232040338 18.55725234525744,102.30435882411984 14.23077781230677,98.63061078107421 13.471586720901541,97.4448200393308 13.434999198361766,96.74604416791408 13.69111185579095,96.20607778073463 16.279679070983548,93.59090680832014 15.063143948616926,89.29214287873765 14.50518423091853,85.39557284896 14.35883414093405,82.17655708513485 14.459449827729259,81.350609350382 14.715562485100236,80.90586554587935 16.16991650359705,81.0011679497984 16.855932550039142,81.21295075694798 17.42303914844524,81.13882682350959 18.420049135922454,81.43532224038063 21.06349763495382,80.84233056146331 22.106242025562096,79.99519372719078 23.59718356654048,78.24795221606473 25.234475197386928,77.6973003237872 26.341247752308846,77.14664551607711 26.963235634437297,76.70188373535348 28.198064518044703,75.2828691489558 29.661565417132806,74.31919895060855 30.58540035970509,73.50377873115212 31.509235302219167,73.44023922475753 32.09463566186605,73.10136120163952 33.29287702299189,72.92133180273231 34.23500572680496,73.36610975157237 35.5430096553755,72.76248207429308 38.07669558690395,72.0 39.0462649326073,74.58394440021948 39.24749630619772,74.81691983836936 39.86948418832617,75.07107426659059" stroke="#4dd2ff" stroke-linecap="round" stroke-linejoin="round" stroke-width="0.5"><title>2023-03-05 10.0km</title><desc>1678018074000</desc></polyline><polyline fill="none" points="94.1160202776664,92.60323049545696 94.22587979672244,92.94234421825968 93.10897468629992,92.91055235368549 93.10897468629992,93.60997113314806 92.9075655680499,93.67355442562257 89.96882343309699,93.74773488448409 89.7491043949849,93.9066928326647 88.45825504604727,94.20341368678783 85.13500459433999,94.4895365669363 85.14415955427103,96.63013465782569 84.56739707919769,97.79578838417365 83.55119652790017,98.84486558449862 83.2857026901329,100.1694429166455 82.3976715777535,101.54698547474254 82.60823565593455,103.95234303560574 82.48922117694747,104.090093108789 79.67864848091267,104.65168767602881 78.44272889150307,104.3126120730376 77.35328866081545,104.39738107722951 74.92722428147681,104.98016611403727 73.8377840508474,105.02255035317648 68.09762417979073,108.0 67.75889066269156,107.86225509639189 64.42648525116965,102.45827284773986 60.206048727210145,98.87665563773771 59.308862654841505,97.66862679342012 59.10745353659149,96.87386333384347 59.391257294104435,96.19566038608173 61.332108797563706,94.26699661698513 62.15605519054225,93.66295721290953 61.6250675151241,92.48665989821893 60.764501282479614,89.29681382633862 60.1968937672209,85.386204753544 60.087034248164855,81.71921294918138 60.1968937672209,81.23168408055062 60.44407768518431,80.8925322167488 61.615912555134855,80.95612327537674 62.62295814655954,81.21048712141783 63.218030541494954,81.15749470475566 63.95958229515236,81.44365343439131 66.72438019153196,80.81834259926109 67.61241130396957,80.18242942348297 69.41593840857968,78.1368823644807 71.12791591393761,77.6069413378791 72.36383550340543,76.92861288715358 74.49694116518367,74.76641144990572 75.27511275856523,74.38484182807588 76.47441250830889,73.42031238060008 77.09694978297921,73.44151092605898 77.84765649656765,73.07053575726604 79.08357608603546,72.90094666833465 79.93498735874891,73.33551815562532 82.83710965397768,72.19078935711877 83.78007052600151,72.0 84.08218420337653,72.49817147458816 84.44838260026881,73.74888935001218" stroke="#4dd2ff" stroke-linecap="round" stroke-linejoin="round" stroke-width="0.5"><title>2023-02-25 10.2km</title><desc>1677328998000</desc></polyline><polyline fill="none" points="140.90687378268922,92.61989679884573 140.78782426432008,92.9909115383125 139.6980632880004,92.9591103267012 139.73469390906394,93.51032995368587 139.53322549333097,93.69053573757265 136.73098298284458,93.76473802855617 135.29323110659607,94.20995066467731 131.74921851989347,94.53855877090245 131.82247976202052,96.5949859608736 131.24554748041555,97.79278309144138 130.18325946998084,98.820969644672 129.89021450153086,100.22013504779898 129.0293949068291,101.56628402735805 129.21254801208852,103.88755519752158 129.09349849371938,104.1313386670372 126.2454677069909,104.67189997804235 125.34801749116741,104.38572080972517 124.13004934124183,104.37512156616867 121.62085179926362,104.98987591000332 120.35709537292132,105.04287180431129 114.81671393901343,108.0 114.44125007319963,107.9364067281058 110.97965638386086,102.43544184578786 106.61145482346183,98.74677095475636 105.79642350506037,97.51718497135153 105.75979288399685,96.71158628651756 106.00704957614653,96.20278390767635 108.59866601554677,93.58453237304639 107.29827896819916,88.83547097532573 106.75797730765771,84.33002285486873 106.75797730765771,81.40402745301253 107.1883871050668,80.83154047599965 110.79650327860145,81.46763692283275 113.40643502853345,80.83154047599965 114.23978165740846,80.17423673244048 116.03468208893901,78.14929105703777 117.79295189934783,77.61919406278321 119.13912722299574,76.86645169415715 120.7417168939719,75.12770204079425 123.02197305444861,73.4419353258927 123.90110795968212,73.42073053930653 124.4230943096918,73.10265822227666 125.66853542538593,72.89060947109829 126.67587750428356,73.32530894625233 130.05505229631672,72.0 130.51293505937792,72.05301268179028 131.44701589620672,74.61879421050253 131.86826803832082,74.95806637373607 132.39941204356728,75.11709981971217 132.7107723224908,75.53058564243838 135.7053255934734,80.39687233604491 136.071631803934,81.25560520558793 135.96173994080164,82.67620946797251 134.96355551719898,83.34409880479507 134.54230337508488,83.45011259137391 134.13936654350255,84.30882028536143 133.89210985141108,85.68697832781618 134.12105123297079,86.95910802772414 134.05694764613872,87.46795555727294 132.61003811459523,90.74360202074604 131.4561735515017,92.51389234489034 131.65764196729288,94.30535312487336 134.02947468037019,93.91314245202375 136.04415883816546,93.98734458446415 136.6760370513075,93.75413770451996 138.0771583065507,93.72233672591392" stroke="#4dd2ff" stroke-linecap="round" stroke-linejoin="round" stroke-width="0.5"><title>2023-02-18 13.3km</title><desc>1676724828000</desc></polyline><polyline fill="none" points="169.7867378166411,83.47920520944172 169.57347563328221,82.98548266047146 169.07586387218907,84.17864445512532 170.6397865503095,84.30207478476223 169.75119411968626,83.84949672556832 169.57347563328221,81.46316767242388 168.9692327803932,81.7100299517042 169.68010672484525,85.53637600768707 167.47639749664813,83.35577462863876 169.0047764775809,83.72606625783374 169.6090193304699,83.02662622919888 168.6493395054713,83.27348755398998 169.7867378166411,82.28604135068599 170.39098066976294,82.86205192899797 168.93368908320554,82.61519035301171 169.14695126656443,83.19120046251919 170.17771848617122,83.84949672556832 170.07108739460818,82.69747756182915 170.56869915570132,82.73862115983502 170.07108739460818,82.86205192899797 169.7867378166411,84.26093134575058 170.604242852889,83.19120046251919 170.56869915570132,83.64377925838926 170.14217478921637,83.35577462863876 170.78196133929305,84.71350894437637 168.11618404695764,83.72606625783374 166.26791179087013,83.80835324060172 165.5214941489976,84.30207478476223 165.770300029777,86.89410300104646 162.03821182064712,87.47010701493127 162.35810509556904,91.25525583559647 161.89603703166358,91.33754128604778 162.8201731594745,95.04036922403611 161.2207067841664,96.35692209750414 159.62124040885828,95.86321527225664 158.09286142815836,96.89177047795965 157.9862303363625,97.83803895636811 160.29657065635547,99.3191503904527 160.97190090361983,100.55340577475727 160.54537653690204,101.49966568488162 158.62601688620634,101.17053205432603 159.47906561987475,102.32249858952127 158.02177403355017,101.82879904771107 158.554929491831,100.10084590455517 158.41275470308028,100.67683110598591 157.5241622722242,99.93627855347586 158.02177403355017,100.26541318860836 157.5241622722242,101.37624060476082 158.1639488225337,101.54080736992182 158.5193857946433,101.08824860467575 157.9862303363625,100.96482339905924 158.5904731892515,100.96482339905924 157.87959924456663,100.75911463919329 158.44829840026796,101.12939033159637 157.950686638942,101.33509890301502 157.950686638942,99.44257609828492 157.9151429417543,101.37624060476082 158.1639488225337,100.92368165552034 159.1236286475323,101.78765739192022 158.8037353726104,101.54080736992182 159.15917234472,101.99336562861572 158.73264797823504,102.73391441389685 159.69232780323364,104.46185630591935 158.9459101613611,103.88587649568217 158.30612361128442,106.51892036010395 159.7989588950295,106.14864960269188 160.4032017479185,108.0 162.28701770096086,107.91771794017404 162.0737555178348,107.30060195716214 162.8201731594745,107.17717864763108 162.50027988455258,105.77837850595824 164.34855214040726,104.09158366493648 164.0997462598607,103.51560332725057 164.3130084432196,104.13272508617956 167.04987312993035,103.76245214388473 170.8530487336684,104.29729072964983 172.23925292561762,101.86994069919456 176.68221507943235,98.1671752994589 177.6063512074761,97.50890234546387 177.74852599622682,97.87918101393734 177.78406969364733,97.34433393954532 181.0540898386389,96.68605964601738 181.80050748074427,98.1671752994589 181.48061420558952,96.68605964601738 182.47583772800863,94.58780318379286 182.2981192418374,93.14781695880811 174.5495932456106,89.362685854343 174.1586125760805,84.05521408791537 173.58991342037916,84.34321821958292 172.13262183382176,80.31114170938963 172.4525151089765,83.89064020640217 170.4620680641383,83.97292715552612 170.17771848617122,82.82090834350674 169.11140756937675,83.06776979376446 169.6090193304699,83.15005691041006 170.4620680641383,85.12494268541923 171.10185461421497,89.40382877425873 170.10663109179586,85.53637600768707 169.75119411968626,86.81181664645555 170.21326218359172,87.09981881448766 170.2488058807794,84.79579572606599 170.6397865503095,86.19466845263378 169.82228151406161,83.68492276026518 169.53793193609454,84.9603692391538 170.17771848617122,83.68492276026518 169.2535823583603,83.35577462863876 169.395757147111,83.93178368313238 168.8270579916425,82.45061588534736 169.57347563328221,82.45061588534736 167.22759161610156,81.33973647630773 166.55226136860438,81.79231734463247 167.08541682735085,81.05173020536313 167.3697664050851,81.46316767242388 166.83661094657145,80.72257993018138 167.83183446899056,81.05173020536313 167.29867901070975,80.51686087218695 169.07586387218907,82.32718499057228 168.6493395054713,82.49175950852805 168.6137958082836,81.95689208031399 169.07586387218907,82.08032308807014 168.4005336246919,81.95689208031399 169.18249496398494,81.7100299517042 169.92891260562465,83.02662622919888 168.75597059726715,82.28604135068599 169.36021344992332,82.69747756182915 168.75597059726715,82.36832862644223 169.53793193609454,82.28604135068599 168.9692327803932,82.20375405819505 169.32466975273564,83.84949672556832 168.47162101906724,81.79231734463247 169.36021344992332,81.95689208031399 168.9692327803932,81.83346103489748 169.32466975273564,83.06776979376446 169.7867378166411,82.94433908746578 168.50716471648775,81.95689208031399 168.9692327803932,82.90319551029825 169.4313008445315,82.53290312748868 169.32466975273564,84.01407062378712 169.6445630278904,82.45061588534736 169.46684454148635,82.86205192899797 168.93368908320554,82.36832862644223 169.2180386611726,81.9980357537861 168.68488320265897,82.53290312748868 169.71565042226575,78.2128002710233 168.75597059726715,82.61519035301171 169.2180386611726,82.40947225800483 168.29390253312886,82.1626104057068 170.78196133929305,83.39691815988044 167.68965968023986,83.31463109338074 170.31989327515475,83.47920520944172 168.29390253312886,83.27348755398998 169.0047764775809,83.39691815988044 168.4005336246919,83.06776979376446 168.93368908320554,82.86205192899797 169.46684454148635,83.6026357524679 169.46684454148635,82.20375405819505 169.11140756937675,82.77976475373725 170.74641764210537,84.21978790257708 168.8270579916425,83.64377925838926 168.89814538601786,82.57404674237478 170.49761176132597,82.82090834350674 169.11140756937675,82.49175950852805 169.50238823890686,82.08032308807014 169.04032017476857,83.68492276026518 166.55226136860438,85.0837993301102 167.04987312993035,83.52034872802324 169.28912605554797,82.45061588534736 168.72042689984664,82.03917942297994 169.11140756937675,82.6563339595159 168.8270579916425,81.91574840273825 168.68488320265897,83.23234401026275 168.5782521108631,82.40947225800483 168.9692327803932,82.69747756182915 170.42652436695062,84.79579572606599 168.86260168883018,82.6563339595159 169.2535823583603,82.40947225800483 168.54270841390826,82.08032308807014 169.92891260562465,83.10891335425549 169.7867378166411,82.6563339595159 171.0663109170273,81.75117365029291 168.47162101906724,80.96944266158971 169.07586387218907,81.33973647630773 166.9076983409468,81.17516148940194 170.2488058807794,82.45061588534736 170.56869915570132,81.83346103489748 166.69443615782075,81.21630524238572 169.6445630278904,83.72606625783374 170.07108739460818,83.52034872802324 169.32466975273564,83.68492276026518 169.71565042226575,83.35577462863876 168.89814538601786,83.47920520944172 168.68488320265897,81.79231734463247 169.28912605554797,81.95689208031399 167.9740092579741,82.1214667489985 171.42174788936973,82.1626104057068 170.07108739460818,83.31463109338074 170.07108739460818,82.73862115983502 169.68010672484525,83.10891335425549 170.10663109179586,84.17864445512532 169.6445630278904,84.09635754788178 170.17771848617122,83.15005691041006 171.03076721983962,83.27348755398998 169.68010672484525,83.89064020640217 170.21326218359172,82.98548266047146 170.6397865503095,83.5614922424138 167.68965968023986,82.28604135068599 161.4695126649458,77.71907129127067 160.15439586737193,77.38991830300074 160.08330847276375,78.2128002710233 157.66633706120774,76.7316115227004 161.8604933344759,85.41294605497387 170.35543697257526,82.77976475373725 172.0970781368669,78.08936808272847 171.49283528374508,78.70652864809381 172.34588401741348,84.38436165024177 168.75597059726715,83.64377925838926 168.32944623031653,75.8675822467485 168.5782521108631,74.83897355850786 168.86260168883018,75.78529364810674 168.89814538601786,74.88011795619968 168.6493395054713,75.5384277512785 167.6185722858645,72.0 169.50238823890686,83.39691815988044 168.3649899275042,82.82090834350674 169.50238823890686,82.94433908746578 168.6493395054713,82.28604135068599 169.89336890843697,83.35577462863876 167.7607470746152,81.95689208031399 166.26791179087013,81.79231734463247 169.36021344992332,82.90319551029825 167.6185722858645,81.54545511567267 171.208485705778,83.68492276026518 171.59946637554094,84.50779191692709 171.10185461421497,84.42550507656415 173.05675796186551,87.09981881448766 173.41219493420795,85.53637600768707 172.70132098952308,84.8780824910209 167.68965968023986,83.89064020640217 173.90980669553392,82.45061588534736 173.30556384241208,82.53290312748868 173.19893275084905,83.47920520944172 172.4525151089765,83.47920520944172 173.34110753959976,82.6563339595159 170.95967982546426,83.15005691041006" stroke="#4dd2ff" stroke-linecap="round" stroke-linejoin="round" stroke-width="0.5"><title>2023-01-02 10.3km</title><desc>1672630426000</desc></polyline><polyline fill="none" points="47.404678020160645,132.54114082467277 47.551243729831185,132.594158663509 47.57872480037622,132.91226513007132 46.44284055067692,132.85924745308148 46.21383162937127,133.58028554902558 43.41076243238058,133.74994084654463 41.89014319481794,134.20588808998582 40.516089666925836,134.20588808998582 38.6382165121031,134.48157615314267 38.775621864944696,136.50680072074465 37.74050154053839,138.5637948108415 37.09927656088257,138.91369182709605 36.71454157301923,140.54652903811802 36.46721193799749,140.54652903811802 35.85346802888671,141.47956738808716 35.734383389761206,141.9248782015784 35.935911240580026,143.85453640959895 35.81682660145452,144.09839177256072 33.02291776135098,144.61790781746822 31.859552441048436,144.29983707692736 31.30993102991488,144.3210418231247 28.332815052825026,144.93597758747637 27.050365093396977,145.03139832923625 24.916001946723554,146.29306436872866 21.425905985815916,148.0 20.738879221782554,147.23665335873375 17.789244315237738,142.55043065477366 13.41059373965254,138.78645668436366 12.51287876808783,137.51409671393048 12.42127519956557,136.83549837814644 12.705246261961292,136.22051481961535 15.325108321907464,133.61209593834792 14.042658362479415,128.88284479679714 13.566319806152023,125.40469352011132 13.447235167084727,121.56586737014732 13.804489084286615,120.86595564286108 16.497633999038953,121.14167900589382 17.56023539393209,121.43861104221287 20.006050673604477,120.88716515820124 20.793841362989042,120.29329709539161 22.708355945185758,118.15110202100186 25.51142514217645,117.06938281785551 27.72823150048498,114.87409460707568 28.680908613139763,114.37564107967046 29.789311792352237,113.44235997523356 30.604583552281838,113.43175446007808 31.26412924565375,113.06056074934168 32.33589099737583,112.89087175518944 33.11452132993145,113.29388266480964 33.49009596084943,113.33630477510451 36.93439013749594,112.0 37.264162984211,112.07423960397136 37.484011548629496,112.77421041135676" stroke="#4dd2ff" stroke-linecap="round" stroke-linejoin="round" stroke-width="0.5"><title>2022-12-04 10.0km</title><desc>1670153265000</desc></polyline><polyline fill="none" points="94.0726389514748,133.57397474787285 90.18635672342498,133.72216125753766 88.59526705835015,134.21964299611136 85.18448289117077,134.50542930190568 85.34907837375067,136.25188411155978 85.23934805201134,136.72818488026678 84.7364174107206,137.78662322567834 83.77627709560329,138.71804006213642 83.51109548471868,139.33192387253075 83.45623032387812,140.093981494545 82.56009936303599,141.42756890238525 82.45951323478948,142.18961117541767 82.66982968477532,143.7665975982527 82.54181097610854,144.11585981478856 79.81684131978545,144.59212458445108 78.58237520023249,144.29578231730557 77.35705327423057,144.35928430275817 75.04357232438633,144.94138403006946 73.92798072012374,144.97313483063772 68.24943657038966,148.0 67.97511076612864,147.95766682846443 67.5361894792295,147.37558397364046 64.37229853589088,142.32720154656272 60.22997889050748,138.7815454518568 59.370424703578465,137.54318335978314 59.26069438183913,136.91870457714685 59.49844341230346,136.22013064944622 62.058817586046644,133.71157651385147 62.09539435990155,133.52105094325816 60.860928240465,129.16003691662627 60.348853405739646,125.46573392328719 60.19340211653616,121.78188565395976 60.49516050139209,120.96676366341126 60.65975598397199,120.83973108941427 61.9125104903942,120.96676366341126 64.30828918155748,121.42196244591469 66.85037496837322,120.7973868635745 67.89281302480958,120.00342943674332 69.49304688337725,118.15083853157557 71.15729009639472,117.62152078175131 72.55635169841116,116.89105786181608 74.65951619832776,114.69963831026689 75.25388877437217,114.43497098710213 76.48835489380872,113.4504026297509 77.32962069381028,113.4080553945023 77.94228165678214,113.06927689140866 79.10359422845067,112.89988722588168 79.88999486755347,113.38688177040603 83.59339322603773,112.0 83.9774493520963,112.06352170676837 84.06889128684998,112.2223258038066 84.93758966721362,114.61494484013383 85.94345094973687,115.15486453007179 88.73242996050976,119.73877561395057 89.47310963214841,121.1361401873437 89.51883059955435,122.25825269032066 89.25364898872795,122.7346175444618 87.90945254749386,123.53913989896682 87.40652190620312,125.22226522007986 87.57111738878302,127.43463379869354 86.1811999802012,130.57844503711385 84.92844547377899,132.51549353954033 85.24849224544596,136.6223404534685 84.67240805638721,137.79720755475137 83.72141193470452,138.6757031141169 83.37393258255906,140.1363178654501 82.55095516960137,141.33231322583015 82.44122484786203,141.91442988730705 82.64239710429683,143.7348464295501 82.52352258912288,144.10527612849546 79.67967841756763,144.62387549157575 78.55494261981221,144.30636598425917 77.58565811114386,144.35928430275817 74.95213038963266,144.96255123152514 73.83653878531186,145.02605281006254 68.88038592040539,147.66133414558863 67.99339915305609,147.96825012297631 67.34416141617112,147.1109997814783 64.46374047064455,142.35895314477966 59.855066957941744,138.41109679859073 59.26069438183913,137.26798978196166 59.3795688971295,136.4424046807544 62.06796177953947,133.64806802908424 60.860928240465,129.23413334204088 60.312276631826535,125.38104922162165 60.14768114918843,122.32176813027763 60.248267277434934,121.44313443381543 60.55916985566728,120.9138334431118 63.26585112512112,121.1573122334521 64.21684724680381,121.43254844037438 66.88695174228633,120.8714892474527 67.99339915305609,119.90815413813834 69.33759559429018,118.29904701868509 71.184722676815,117.64269354348653 72.59292847238248,116.85929848801607 74.35775781353004,114.98547826252616 75.49163780472009,114.30793043266749 76.43348973296816,113.47157624091778 77.24732295254944,113.46098943588731 77.94228165678214,113.1010374229736 79.04872906761011,112.94223466813855 79.31391067849472,112.96340838279866 79.81684131978545,113.41864220492425 80.11859970446676,113.33394769129518" stroke="#ff2700" stroke-linecap="round" stroke-linejoin="round" stroke-width="0.5"><title>2022-11-20 21.0km</title><desc>1668939405000</desc></polyline><polyline fill="none" points="140.48972997284727,132.97413607258204 140.10522161703557,133.037719753258 140.1235315387603,133.59937391337007 139.90381247823825,133.6841516367058 137.56929746060632,133.70534605675493 135.4361915817135,134.235205156132 133.08336664235685,134.34117665254598 131.60941794491373,137.64743317937973 130.60237225104356,138.7177052739862 130.26363869948545,140.13765325754503 129.49462198774563,141.388039185862 129.3664525358472,141.97084105812974 129.6136364788399,143.76161186406534 129.48546702694148,144.13247770980524 126.72066884918604,144.66228377064544 125.59460866416339,144.3126120727975 125.0910858171992,144.32320820212772 121.9783991270233,144.99076217523543 120.88895878545009,145.02255035298003 116.1100692198961,147.52318994242523 114.87414950464154,148.0 111.3586445369292,142.35230960900662 107.06496789661469,138.6965118739099 106.1769366938388,137.34012529823667 106.20440157636767,136.55595625140995 106.37834583263611,136.19566038552875 108.9966646367102,133.56758224935038 107.70581515639788,128.80932043661596 107.18398238770897,124.64433821955754 107.12905262259301,121.43305497647088 107.57764570444124,120.82894111882342 110.15934466512408,121.11510075152182 111.04737586789997,121.39066113593435 113.69315955456113,120.85013815562706 114.69105028756894,120.06584491951071 116.35725316294702,118.18987631839991 118.00514611654216,117.67053440319432 119.52486961829709,116.82262366717623 121.37417171068955,114.88300188850553 122.35375252203085,114.33184593649639 123.36995317676337,113.47330873605097 124.2488294186769,113.39911383075378 124.9079866001266,113.04933713620994 126.06151166767813,112.89034734104644 127.09602224413538,113.32491887256037 128.3227869985276,112.73135730300419 130.62983713363064,112.0 130.96857068518875,112.1695905568995 131.84744692710228,114.6180234296844 132.87280254269717,115.20097514873487 136.33337774535175,120.86073667240271 136.4157723930548,122.46110032490105 136.0037991545978,122.89563190451736 135.31717709061923,123.28776860253856" stroke="#4dd2ff" stroke-linecap="round" stroke-linejoin="round" stroke-width="0.5"><title>2022-10-24 10.8km</title><desc>1666614966000</desc></polyline><polyline fill="none" points="186.9129875349463,133.36425592888554 186.7482952029677,133.58666685806384 183.948525559681,133.7137586042445 183.6282904697582,133.93616878663306 182.46629457204835,134.2115331159075 179.08095219283132,134.50807850193814 179.14499921083916,136.46737499989104 178.50452903093537,137.75943143032055 177.58042205718812,138.61726331673708 177.20528952329187,140.18464159223367 176.35437914147042,141.43429114740138 176.29033212346258,142.06970042276225 176.519071473449,143.80646598907333 176.26288340147585,144.16652351729135 173.65525481215445,144.57952914874477 172.42006232240237,144.30419224313664 171.38616046065,144.35714170460415 168.96152335125953,144.91840434067853 167.71718128753128,145.03489243317017 161.98954796494218,148.0 161.76995818899013,147.92587333988922 161.3490777850966,147.27991021105845 158.29312006983673,142.33445314296114 154.10261517879553,138.85025347254123 153.18765777902445,137.49466707477404 153.10531161306426,136.83804856714414 153.37979883298976,136.12847229757608 155.95082912634825,133.55489389729337 154.65158961870475,128.65115068149316 154.20326049276628,125.25122763423133 154.02941858686972,121.8829700328788 154.10261517879553,121.39572877438331 154.42285026871832,120.8555238423287 156.5638505842071,121.19447628435591 157.1585728941136,121.16269953980373 157.98203455389012,121.43809767002676 160.635411013267,120.8978929579389 161.7791077630245,119.94458368289634 163.40773193456698,118.11208687703038 164.81676633021561,117.74134660352138 166.2898477439303,116.97867674361623 168.2661557274405,114.92367734812433 169.27260886714794,114.34106704098667 170.33395945094526,113.46184894545877 171.15742111072177,113.45125591105898 171.75214342057006,113.11227824046364 172.89584017032757,112.92160281530232 173.88399416208267,113.32413941403502 177.39743057725718,112.0 177.9006571471109,112.16949078567268 178.72411880694563,114.56351863422606 178.98945645289496,114.83893423350673 179.74887109472184,115.1884991363695 182.53949116403237,119.75392077973083 183.3172049538116,121.14151503804896 183.38125197176123,122.27487982425373 183.18911091785412,122.74093278989312 182.31075181404594,123.31290403101593 181.88072183617624,123.39764024377655 181.74347822618438,123.58829647025414 181.38664484024048,124.46742899531091 181.20365336030954,125.6007575562835 181.36834569228813,127.54963014496752 179.98676001862623,130.66351386336464 178.82476412085816,132.40046974371944 179.10840091481805,136.55210050306778 178.47708030900685,137.8123842205896 177.53467418719083,138.73375845980627 177.1961399493157,140.18464159223367 176.3635287155048,141.3707500065866 176.2811825495446,142.09088066516415 176.4824731774279,144.02885460943799 175.4119730197126,144.3677315936875 173.65525481215445,144.60070888055634 172.10897680645576,144.3359619232433 170.05032265698537,144.64306833123555 168.80598059331533,144.99253314189264 167.64398469560547,145.0772517072255 162.7672617547796,147.70349304295087 161.8980522249476,148.0 161.31247948907549,147.30108939357888 158.3480175138102,142.45094412651088 153.96537156886188,138.76552983986767 153.16020905703772,137.5264388329888 153.0870124650537,136.80627659879246 153.2883030929952,136.25556094024796 155.90508125640918,133.58666685806384 154.9809742826037,130.3881401470062 154.32220495474758,126.638748586578 153.9928202908486,122.38080113609612 154.02941858686972,121.50165098117577 154.29475623276085,120.95085432826454 154.44114941672888,120.8131547094381 154.85288024664624,120.98263113748544 157.14942332007922,121.1838840372584 158.00033370184246,121.44868989122915 160.6720093092299,120.8978929579389 161.51377011707518,120.25176206976903 163.25218917662278,118.22860497586225 165.10955269820988,117.63542056841106 166.2440998738748,117.01045476608124 168.27530530147487,114.94486311599758 169.2543097191956,114.39403174918698 170.26076285896124,113.52540712925111 171.2214681287296,113.44066287556052 171.78874171659118,113.11227824046364 172.90498974430375,112.94278899091296 173.92059245804558,113.33473246137874 175.3753747236915,112.75211325509736" stroke="#ff2600" stroke-linecap="round" stroke-linejoin="round" stroke-width="0.5"><title>2022-10-14 21.0km</title><desc>1665750451000</desc></polyline><polyline fill="none" points="46.84436572995037,173.66080372886063 44.12694225256564,173.73494054686307 42.415971915004775,174.2433058762399 39.27766803378472,174.51866939297906 39.396612495707814,176.5838725489666 38.353561059979256,178.5643109358425 37.75883875013096,178.90320570798212 37.649043862125836,179.22091855485633 37.39285579021089,179.2950514129334 37.26476175425341,180.18464159223367 36.36810350243468,181.5931438298212 36.57854370441055,183.80646598907333 36.4413000944769,184.12416387270787 33.79707320907619,184.61129874483595 32.31484222144354,184.3359619232433 31.25349163770443,184.3889113685873 29.011846008186694,184.96076366212947 27.584512464527506,185.0666618903124 22.030721047893167,188.0 21.792832123930566,187.9046942844725 21.262156832090113,187.11047659582255 18.489835910731927,182.4827143721559 13.860151467844844,178.543129975973 13.219681287999265,177.43112352926255 13.155634269991424,176.82745791209163 13.41182234196458,176.2237887941228 15.946254339360166,173.7667134526855 16.01945093134418,173.54430290820892 14.738510571594816,168.95830336768995 14.244433575775474,165.36773773867753 14.08889081783127,162.29606409523694 14.162087409757078,161.46987433045433 14.500621647690423,160.8661161228447 16.57757494522957,161.20506853035477 17.15399810706731,161.16269953980373 18.105553802859504,161.43809767002676 20.768079836154357,160.8555238423287 21.618990217975806,160.19880034364178 23.320810981618706,158.21801242679794 25.08667876315303,157.64601317675988 26.422516566875856,156.9257133512874 27.849850110476837,155.3791704064788 30.448329125880264,153.45125591105898 31.262641211680602,153.41947680134763 31.90311139152618,153.08049902720813 33.019359419238754,152.93219590365334 33.87941937503638,153.3559185528211 37.56669769610744,152.0 37.91438150807517,152.10593177339615 38.88423635181971,154.7330052431571 39.79004417761462,155.167313418111 41.921894919127226,158.55697346138913 43.24858314881567,160.91907750929386 43.4315746287466,161.76645602644567" stroke="#4dd2ff" stroke-linecap="round" stroke-linejoin="round" stroke-width="0.5"><title>2022-09-24 10.9km</title><desc>1664023301000</desc></polyline><polyline fill="none" points="93.92583712446503,173.13378583641315 93.34078049880918,173.04913226930512 93.26764842058765,173.66286906955793 90.24180868460098,173.75810376567097 88.71517655195203,174.21311277659697 85.51564813021105,174.4988150915524 85.63448775734287,176.24475662896293 84.73861979926005,177.87427561969525 83.98901599756209,178.53030852448137 83.70562919450458,179.06994539273 83.4405254109879,179.0170399412018 83.62335560651263,179.21808051382686 83.59593107720139,179.90584795524774 82.64521406043787,181.52472875115927 82.84632727550343,183.74668097715767 82.71834613860119,184.09584058324253 79.91190263727913,184.6566096191964 78.76007240545005,184.31803244962794 77.71794029092416,184.34977410607826 75.5788270032499,184.77299526667775 75.19488359265961,184.96344422723632 73.90593071421608,185.05866857671936 68.30218522134237,188.0 68.01879841822665,187.84129718958866 64.62729829119053,182.36061158624216 60.48619436251465,178.83716120469762 59.553760365291964,177.60974505190097 59.4074962088489,176.92196242682985 59.72744905104628,176.1389428246839 62.405911415524315,173.64170579191705 61.391203830367886,170.583566894893 60.522760401596315,165.33478667824966 60.36735473538283,162.27640344593237 60.46791134291561,161.35569606428908 60.723873616661876,160.90063078401 62.05853404401569,161.0276259463135 62.81727935548406,161.26045000764134 63.521175608213525,161.2181183989378 64.45360960543621,161.50385642334004 67.00409083301201,160.84771608726442 68.28390220174333,159.75766734165518 69.60942111938493,158.19136369491753 70.54185511654941,157.9267830461613 72.69010991393588,156.78378690462705 74.43613828124944,154.8575983024857 75.39599680778338,154.360170171778 76.59353458846454,153.39705787518324 77.39798744878499,153.3547230639524 78.01961011363892,153.0266276923503 78.97946864011465,152.84670398434537 79.55538375605829,152.91020650507562 80.42382718477165,153.3018045256904 81.6122234557406,152.73028259550483 83.77876127272611,152.0 84.17184619308682,152.2010928208838 85.07685566094005,154.6882613337948 85.97272361902287,155.09043618401483 86.19211985368747,155.39735804910742 88.99856335500954,159.97991121742962 89.56533696112456,161.038208869526 89.66589356871555,161.54618791569374 89.71160111756762,162.35048299580376 89.60190300026443,162.59388685926388 88.58719541504979,163.3452604082995 88.148402945837,163.41933919650182 87.8101670840988,164.16012417546153 87.51763877121266,165.7051730035746 87.7096104765078,167.36660400022083 86.28353495144984,170.7528779745553 85.14998773916159,172.34015593943332 85.24140283692395,173.93799128701357" stroke="#4dd2ff" stroke-linecap="round" stroke-linejoin="round" stroke-width="0.5"><title>2022-09-17 12.6km</title><desc>1663372606000</desc></polyline><polyline fill="none" points="141.33333333331393,164.53748044371605 140.77638481371105,164.55971154335566 140.68035920686089,163.7149265774642 138.99030852667056,163.95947026581416 138.81746243441012,162.75897781526874 138.81746243441012,160.32460539562453 137.0217835867079,160.30237343404588 136.77211700892076,159.93554541403137 135.32213034579763,159.95777745029773 134.94763047923334,158.20143264051876 134.8323997510015,158.44598867373134 135.03405352536356,160.2245615327629 133.53605405881535,163.63711710726784 132.28772117005428,165.57122178913414 132.59500311192824,169.80612452742207 131.99004178890027,171.02876931826904 130.97217035648646,172.0624492399147 130.6072730505257,173.60739347142226 129.70463234634371,174.96336968751712 129.83906819589902,177.66415742222307 126.98710767307784,178.2309809405706 126.47817195690004,178.2309809405706 125.63314661680488,177.93089826770301 124.5672623810242,177.98646919521707 121.82093002571492,178.60886165263946 120.56299457629211,178.69777457143937 117.88388014578959,180.19816916540003 114.56139414949575,181.79856735948852 110.94122877204791,176.05258429609967 106.27438428014284,172.0624492399147 105.42935894010589,170.73978178441757 105.33333333331393,170.13957446373388 105.61180759308627,169.39486820421735 107.55152485100552,167.42748545606446 108.45416555524571,166.74945268344163 107.42669156211196,163.6482327492413 106.93696096731583,161.3028072265879 107.37867875874508,163.4259196944986 108.34853738773381,166.74945268344163 105.64061527512968,169.40598326034524 105.37174357601907,170.03953958969942 105.42935894010589,170.72866686397174 106.33199964428786,172.12913793128973 110.86440828663763,175.94144044573477 111.86307459761156,177.4529871244231 112.79452298383694,179.1201099478567 112.84253578720381,179.53132966699923 114.12927891872823,181.631860307818" stroke="#4dd2ff" stroke-linecap="round" stroke-linejoin="round" stroke-width="0.5"><title>2022-09-01 10.0km</title><desc>1661987212000</desc></polyline><polyline fill="none" points="188.0,181.3030314129137 187.81750591419404,180.83828698348952 186.69820885441732,180.81012060432113 186.15072659688303,179.8383770109067 185.4085839811014,179.79612713470124 184.3379520108574,180.04962619862636 184.16762419743463,179.92287672466773 183.75397093623178,177.50053113618924 184.05812774592778,175.40206957682676 179.6052720514126,175.35981834611448 179.24028387968428,172.7120488203509 179.05778979387833,172.52895650157006 179.16728624538518,171.4022292069276 179.87293004395906,169.89521710781264 180.72456911124755,169.58536211849423 181.77086853672517,168.8107216093049 182.050692801713,168.1910060793307 182.02636025688844,167.50086506314983 177.2450152078527,159.27524586918298 175.82156133832177,158.28926553655765 174.55626900988864,154.8946223538078 173.9722879351466,154.79602151419385 169.3247718824423,156.58491153044451 168.24197363981511,156.03556981367 166.6603582291864,156.23276965532568 165.77222034474835,156.65533979788597 164.30010138568468,156.73985367148998 163.65528894902673,157.35962050015223 161.83034809061792,158.4160348301375 159.31192970601842,160.97956672839064 157.40182494092733,162.0922938108124 156.1973639743519,162.41625064627442 155.2118959108484,162.96556702484668 154.5914160189568,163.58530596159108 152.57181480235886,165.9515563656896 152.0,166.38818148164137 152.71781007101526,167.40227320841223 152.72997634345666,168.83889043108502 153.75194322416792,169.24733770238527 156.06353497807868,169.4445187121164 159.06860425823834,168.69804626487894 162.19533626234625,165.41633660180378 168.74079080781667,156.76802495121956 173.2909766813973,154.8946223538078 173.92362284561386,154.6692489029374 174.45893883070676,154.76784983287507 175.61473470774945,157.92304248016444 176.01622169656912,158.44420576850825 176.98952348774765,158.8526837300451 181.43021290982142,166.13465738853847 181.80736735393293,166.96565129279043 181.9046975329984,168.1346681662253 181.50321054417873,169.00790324133413 179.82426495442633,169.9374700071494 179.27678269695025,171.05012504576007 178.97262588719605,172.59937665286998 179.14295370061882,175.20489705656655 177.4761743833078,179.37362766293518 175.82156133832177,181.83818973174493 175.955390334595,185.33075109707715" stroke="#4dd2ff" stroke-linecap="round" stroke-linejoin="round" stroke-width="0.5"><title>2022-08-12 10.3km</title><desc>1660255617000</desc></polyline><polyline fill="none" points="38.44705743010854,212.59521596156264 38.178185575583484,212.6263390835229 37.90931372100022,212.40847703019244 37.27298366528703,212.41885142426327 36.84278869803529,212.6367134553875 35.964473973202985,212.43960020918166 34.31539326539496,212.59521596156264 33.849348717485555,212.19061451136076 33.49085291143274,212.0868702911539 31.366765260579996,212.3358562423091 30.228541076357942,212.28398421929887 29.968631616968196,212.0142492741652 30.040330778167117,211.81713482451596 31.51912597817136,209.65922539925668 31.34884047030937,210.18833241773245 30.04929317336064,212.02462370833382 29.968631616968196,212.55371845080663 30.318165027885698,216.2261827570983 29.789383713970892,217.2532041914019 28.66012192488415,218.2490938853516 28.418137255765032,219.64954731184844 27.66529606305994,220.62466648763075 27.53086013579741,221.33006603653484 27.77284480491653,223.238769764248 27.710108038852923,224.43169145390857 26.231312838906888,228.0 26.29404960491229,227.47098539399303 27.548784926126245,224.61840836852207 27.611521692189854,223.79892603449844 25.28129895281745,224.17236183874775 23.4440079468186,223.77817956085346 22.61946759291459,223.8715386591066 21.947287956543732,224.130869039167 21.642566521419212,224.14124224063562 21.552942569891457,224.01676375317038 23.390233575948514,223.61220761959703 24.680818477703724,223.96489767185994 25.577057992864866,223.72631335820915 25.845929847331718,223.86116543017124 27.611521692189854,223.42548886285658 27.369537023070734,221.61014979823085 27.50397295039147,220.82176391160465 28.328513304295484,219.62879999401775 28.364362884894945,218.92338867678336 28.6870091103483,218.12460820552224 29.628060601186007,217.22208248171955 30.21957868122263,215.97720630608092 29.84315808484098,212.09724471793015 31.563937953906134,209.53472923109075 31.985170526022557,208.0926375362469 32.37951591273304,207.3145220332517 32.23611759021878,204.89713864769874 32.71112453332171,203.4757319520213 32.89037243631901,203.18522303445206 33.97482224961277,202.69758120428742 34.458791587734595,201.97130181307875 34.431904402328655,201.30727041213686 34.225769313867204,200.7988684466327 33.15028189570876,199.22176866283553 30.97241987392772,195.49681109380617 29.80730850424152,194.55258016208973 28.99173054547282,192.22828213025787 28.642197134613525,192.09338820599805 28.229926957632415,192.17639987286384 25.361960509209894,193.31780343404535 28.203039772168268,192.10376466804155 28.695971505483612,192.0 28.96484336006688,192.10376466804155 29.8521204800345,194.6252136213152 30.73939760000212,195.0817656080908 31.035156639991328,195.4760588596546 34.189919733209535,200.61210790402401 34.36916763626505,201.2450172464669 31.680449090898037,209.26498701184755 31.017231849662494,210.59294181429868 29.986556407238822,211.97275152696966 30.103067544230726,213.705268104859 30.300240237556864,213.7675136616017" stroke="#4dd2ff" stroke-linecap="round" stroke-linejoin="round" stroke-width="0.5"><title>2022-07-30 11.6km</title><desc>1659134586000</desc></polyline><polyline fill="none" points="84.43525154516101,218.9940003927186 82.49310532561503,219.50431038986426 81.68288481672062,219.20088305555691 79.50243844749639,219.40776540263323 79.02583814819809,218.74574078046135 78.59689787880052,218.63540302908223 77.25050203333376,218.95262382223154 75.15346071636304,219.06296131541603 74.66494540963322,218.8284940350859 73.9977049906156,218.84228623926174 74.10494005790679,218.3733505095006 75.55857097083936,216.30449703912018 76.84539177891565,213.02185139220092 77.1194369510049,212.51151698642934 77.08369192859391,212.856337741483 76.86922179383691,213.1046081418026 76.70241168909706,212.93909459210408 77.13135195849463,211.91842323546007 76.85730678634718,209.76671248809726 77.13135195849463,208.1253204208042 77.72710233263206,206.77357084836694 78.78753799857805,206.34597378851322 79.57392849231837,205.6562982679461 79.89563369442476,205.06317451267387 79.91946370934602,204.30452406479162 79.82414364948636,203.78036309225718 78.21561763936188,201.531965390619 75.28452579875011,196.5384579017409 73.89046992326621,195.57284129447362 73.60450974368723,195.14520888368133 72.55598908523098,192.11035944260948 71.93640869611409,192.0 67.48019589774776,193.8071245555766 69.12446693028323,192.91046271298546 71.99598373356275,192.01379493522109 72.59173410770018,192.0 73.89046992326621,195.5314575717639 75.02239563409239,196.0694449806615 79.53818346990738,203.42172546908841 79.77648361952743,203.97347526541853 79.87180367944529,205.5459498588898 79.56201348488685,206.05631049739895 78.62072789377999,206.7459839820367 77.76284735504305,206.98047216716805 77.41731213807361,207.8356609332841 77.17901198839536,209.32533170157694 77.27433204825502,212.5528955233458 75.89219118031906,216.0700249868387 75.08197067154106,216.82860957171943 74.04536502051633,218.6767796963395 74.31941019260557,222.09720718032622 74.24792014772538,224.24872218293604 73.50918968382757,225.7933785616624 71.66236352402484,227.46213933486433 71.78151359886397,227.3104346588807 71.9721537186415,227.43455667913076 71.8649186512921,228.0 72.03172875603195,226.7725712578831 72.55598908523098,226.0967911392363 73.17556947434787,225.83475304405147 74.04536502051633,223.9315137839585 73.68791479611536,218.62161080384976 74.78409548447235,217.09066507799434 75.02239563409239,217.1596269691072 75.36793085106183,216.59413842612412 74.83175551437307,217.75269778423535 74.18834511033492,218.4974807135004 74.17643010278698,218.8009096224705 76.86922179383691,219.03537695053092 78.51349282643059,218.64919525290316 79.08541318558855,218.7595329930773 79.46669342502719,219.24225955024303 80.45563904609298,219.6008553083375 81.58756475686096,219.22846738672524 83.4343909167219,219.40776540263323 84.23269641795196,219.09054567466956 84.26844144042116,217.5182282372698 85.5314322335762,217.44926652860886 85.85313743562438,218.60781857717666 85.71015734586399,218.8560784420406 85.5314322335762,218.64919525290316 85.59100727096666,219.21467522185412" stroke="#4dd2ff" stroke-linecap="round" stroke-linejoin="round" stroke-width="0.5"><title>2022-07-26 10.3km</title><desc>1658787051000</desc></polyline><polyline fill="none" points="139.31433159578592,211.5046394062083 139.20421274472028,211.04787308625964 139.34186130855232,210.82480043615215 140.27787154266844,210.8354229540928 140.3145778264152,209.1145609472369 140.98446750373114,209.02957937225437 140.571521812235,208.93397501776053 140.27787154266844,208.4771974485193 139.19503617379814,208.21162817539152 139.13080017728498,207.5636363130834 138.46091049996903,207.44678489339276 137.20372028351994,207.63799623931845 135.51523123361403,207.55301346213673 135.29499353154097,207.28744183751405 134.6709867087775,207.37242483093723 134.07450959872222,207.17059010860248 133.67991704907035,206.11891866131919 133.8175656129024,204.40860206093203 134.23051130445674,203.44188897547428 135.7079392230371,202.5920239213592 135.91900035424624,202.0502313369143 135.89147064147983,201.39157774008345 132.19331255950965,195.33601921491208 131.16553661617218,194.76231649867987 130.6700017863186,193.63615014108655 130.32129209121922,192.3293569612215 130.12858410185436,192.11686871815618 129.1099847293808,192.29748375236522 126.0083037574077,193.52990740440146 121.35578229941893,199.72367826521076 118.60281102254521,202.52828376331308 117.90539163240464,202.85760749423207 116.32702143362258,203.16568359202938 114.29899925971404,203.07007386589976 113.7116987205809,202.67701073820353 113.60157986951526,201.44469511973148 113.32628274179297,201.1684844502597 111.42673256073613,201.65716436800722 110.42648633010685,202.16708879895305 108.5452892909525,202.15646539870067 106.87515338289086,201.39157774008345 106.66409225173993,201.13661394134397 106.60903282620711,200.67980224407074 106.04008542891825,200.47795457804023 106.37044198217336,201.49781247234932 106.42550140770618,204.32361665421195 106.93021280848188,208.55155672390538 108.18740302493097,213.48039628118568 108.76552699308377,213.57599647181632 107.84786990075372,214.1708401352589 106.24196998926345,215.7960207210199 105.68219916295493,217.69734367246565 106.6549156808178,218.9613325070386 110.82107887981692,222.44518890611653 114.23476326320088,227.9893792281946 114.5192369617871,228.0 119.00658014317742,225.63154115554062 121.40166515408782,224.96241524814104 123.98945815436309,224.41011761839036 124.90711524663493,224.39949648148468 126.07253975386266,224.6650245797282 128.97233616554877,224.11272537705372 128.74292189243715,221.88225656920258 129.6330492720008,220.3102785012452 130.00011210888624,218.79138531889475 130.88106291752774,217.94164522847132 131.5784823076683,216.56080283081974 131.18388975801645,212.95990481851914 131.26647889631568,212.43941076062765 132.5603753963951,210.56985968084336 132.57872853829758,210.25118286111683 132.76225995679852,210.10246667892352 133.23026507382747,208.71089784993092 133.70744676183676,207.8185844110776 133.83591875474667,207.17059010860248 133.588151339849,206.15078764871578 133.6156810526154,205.300944653638 134.1479221660993,203.6012379026215 135.61617351387395,202.75137414617348 135.89147064147983,202.16708879895305 135.81805807410274,201.49781247234932 132.47778625815408,195.66536564527632 132.083193708444,195.15540944075474 131.624365162279,194.99604761570663 131.15636004525004,194.57108155889728 130.23870295292,192.08499544438382 129.7339915521443,192.09561987007328 127.43067225051345,192.87120002219308 125.97159747371916,193.572404512066 124.67770097358152,195.26165052224678 125.97159747371916,193.51928312477685 128.3758590555517,192.47809847386088 129.91752297064522,192.0 130.28458580753068,192.07437101763207 131.00953491049586,194.44359140434972 131.28483203815995,194.81543725308438 131.99142799922265,195.04916825111286 132.27590169780888,195.33601921491208 135.57029065914685,200.92414363321586 135.82723464502487,202.36893319782394 135.68958608119283,202.7301274636484 135.3041701024631,203.07007386589976 134.74439927615458,203.4100191608668 134.28557072998956,203.47375878037565 133.93686103494838,204.35548618983012 133.85427189659094,207.61675055151863 132.62461139290826,210.75044278017594 131.8996622900013,211.86580205816426 131.3765977473813,212.38629897617648 131.28483203815995,212.694346949982 131.63354173325934,215.88099678768776 131.58765887859045,216.78386322417646 131.101300619659,217.6867218527259 130.07352467632154,218.54708575121185 129.6330492720008,220.08722564185882 128.76127503433963,221.54237142471538 128.66033275413793,222.1053055940356 128.8805704563274,224.0383771843699 125.99912718648557,224.72875122283585 124.3198147076182,224.34639078086184 123.6866313139326,224.4313598889421 124.4941695551388,224.19769467529113 125.76053634251002,224.50570780181442 126.37536659435136,224.45260215516464 127.39396596682491,223.98527130010189 128.12809164065402,223.9215442032655 128.2473870626418,224.25080045157665 128.83468760171672,224.08086187242588 128.6786858960404,221.71231413524947 128.853040743561,221.22372809692024 129.56881327554584,220.33152160586906 129.78905097773531,219.2374960978559 130.15611381462077,218.86573724774644 130.69753149908502,218.6214378540535 131.83542629354633,216.51831508281612 132.5328456836869,215.85975277749822 132.55119882553117,214.46826069593226 133.4872090597055,214.13897359638213 134.3222770136781,214.13897359638213" stroke="#ff0000" stroke-linecap="round" stroke-linejoin="round" stroke-width="0.5"><title>2022-07-09 23.0km</title><desc>1657313021000</desc></polyline><polyline fill="none" points="187.4339615572826,212.95563267991383 186.50097935431404,212.93445680890727 186.03448825288797,212.74387377602397 185.28444373677485,213.05092404607421 184.31487399642356,212.79681354237982 182.69587546773255,213.02974819447263 182.35744074708782,212.90269299432111 182.00071225775173,212.50035050374572 180.8939392522443,212.7015219435052 180.11645408306504,212.58505431526282 179.21091253316263,212.72269786190736 178.4608680170495,212.542702418119 178.47001490136608,212.24623865546891 179.35726268263534,210.92272941201372 180.4365950350766,208.29683723585913 180.97626121132635,207.41799561648804 180.7384422183968,205.4802824426588 180.92137990525225,204.34728588740109 181.73545261175605,203.08720980434737 182.68672858335776,202.46246054019866 182.75990365812322,201.36119846344081 181.7171588431229,199.39160452187934 179.13773745839717,195.18756150444096 178.38769294228405,194.80633005631535 178.1590208337293,194.45686666785332 177.20774486212758,192.03177019802388 176.7961350666592,192.0 176.0826780879288,192.2329812268872 172.9452967583784,193.5567282897391 168.24379820621107,199.79399771343014 167.08214389462955,200.87409805667266 166.25892430380918,201.9859543418279 165.4357047129306,202.67424037215096 163.37765573582146,203.09779874257947 161.20984414656414,202.94955350911914 160.70676550769713,202.54717252474802 160.7159123920719,201.43532223840884 160.33174324966967,201.09647026449966 160.0116022976581,201.29766375715553 158.32857557857642,201.721227732829 157.58767794683808,202.14478998380218 155.61195092881098,202.12361191221135 153.99295240011998,201.41414402236842 153.81001471326454,201.8588856535789 153.97465863148682,202.19773514389817 153.81916159763932,201.9859543418279 153.80086782894796,201.53062415723252 153.55390195170185,201.49885686064954 153.5264612986939,203.79666628337145 154.24906516174087,209.23920132660714 155.25522243941668,213.04033612080093 155.42901324195554,213.389737085643 155.63939158187713,213.46385229098087 153.10570461890893,215.7402221734519 152.5660384426592,216.57664324787766 152.6117728643585,217.29659524447197 153.24290788400685,218.52473715512315 157.76146874937695,222.37846767951123 161.25557856832165,228.0 167.03640947293025,224.96165770938387 168.19806378445355,224.9298975654965 171.30800446099602,224.2205851603576 172.85382791492157,224.61229559365893 175.7259495985345,224.05119640830526 175.5247181429877,222.16672794889746 175.64362763945246,221.43622257156676 176.56746295810444,220.11283020665724 176.54916918941308,219.51994496890984 176.75954752933467,218.85294503906334 177.68338284787023,217.92125544125884 178.38769294228405,216.6401686243844 178.0584051059559,212.56387836887006 179.21091253316263,210.82743609676254 180.10730719874846,208.84743302217248 179.13773745839717,208.3391908613703 177.189451093378,210.52037926505" stroke="#4dd2ff" stroke-linecap="round" stroke-linejoin="round" stroke-width="0.5"><title>2022-06-11 13.9km</title><desc>1654897939000</desc></polyline><polyline fill="none" points="46.53218073153403,252.8447364111562 45.99044306803262,252.9829079315823 45.21915554709267,252.82347923793714 43.713308482430875,252.8447364111562 43.033840904477984,252.4833638782511 41.821817657211795,252.727821904984 40.15987668954767,252.7703362860193 39.379407174303196,252.64279309099948 39.36104318569414,252.4195921250066 39.93032683210913,251.7181002695943 40.44451851275517,250.68711126493872 41.729997714282945,247.7322616530073 42.00545754318591,247.5090501926752 43.391938682005275,247.59408318621718 43.21748079039389,247.25395079667942 42.10645948041929,247.24332164167572 41.98709355463507,247.09451335776976 41.62899577699136,244.78795784217073 42.207461417710874,243.37423734438926 43.37357469345443,242.76835127201048 43.7592184538953,242.26875835730607 43.685762499517296,241.32271416162985 43.21748079039389,240.3660315393863 40.11396671802504,235.1679027511127 39.15903931116918,234.62575171584467 38.14901993848616,232.0 37.61646426928928,232.02126141271583 33.87939259049017,233.4989189882035 29.270031453459524,239.61130906345352 26.304247295542154,242.55575883451093 24.284208550176118,243.00220245336823 22.245805816317443,242.91716572073346 21.740796129975934,242.68331434892752 21.63979419268435,241.37586293915228 21.199058466416318,241.0038209281338 20.657320802973118,241.29082488208223 19.362659607082605,241.53530910956033 18.444460177386645,242.0561649026713 16.77333721535979,242.13057266103715 15.891865762881935,241.86483042342297 14.597204566991422,241.06759965272067 14.441110663930885,242.24749903132033 14.57884057838237,245.3300561144133 15.469494025222957,250.59145197536418 16.37851146061439,253.47182107461413 16.79170120396884,253.48244959578005 17.7466286108247,253.13170782603265 15.763317842734978,254.16267270137178 13.697369125904515,256.18205895100255 13.467819268465973,256.88352082854544 13.532093228539452,257.38304383958166 14.174832829332445,258.53087489973404 18.820921943581197,262.5694394932725 21.593884221219923,267.1179516403863 22.355989747855347,268.0 25.744145643373486,266.33154080044915 27.451996582676657,265.3113233235781 28.26919407508103,265.0031306683595 30.307596808939707,264.75870136438607" stroke="#4dd2ff" stroke-linecap="round" stroke-linejoin="round" stroke-width="0.5"><title>2022-05-28 11.2km</title><desc>1653692382000</desc></polyline><polyline fill="none" points="88.09405255876482,255.84213880979223 86.00276625168044,256.1385564651864 88.07271290244535,255.54572079250647 94.09049594937824,254.95288367194007 94.66666666662786,258.26287240390957 94.34657182369847,259.00390847434755 91.18830270692706,257.6947432179586 90.61213198967744,257.05250862418325 90.48409405257553,255.94094473509176 85.53329381532967,255.66922834367142 85.27721794100944,254.13773026733543 84.6156885989476,253.8660118575208 81.96957123093307,254.65646456880495 79.94230389245786,254.0636252766708 76.82671408809256,254.31064182434056 75.9517881841166,254.08832694277226 75.16222090495285,253.22376713434642 74.20193637604825,253.520187986971 72.55878284922801,253.32257412542822 71.27840347762685,253.91541522738407 66.92511361383367,253.84131016886386 66.83975498902146,252.3098005602369 67.8640584864188,250.97589722200064 63.74550484085921,249.46907167116296 64.59909108863212,247.6658091267309 70.44615688594058,240.9960915256379 67.56530329969246,245.12145699726534 65.17526180588175,247.4187858170917 63.510768622742034,249.76549710873223 62.486465125344694,250.2842407535063 61.355463347164914,251.44523441760975 60.11776328785345,253.19906538029318 59.242837383877486,255.15049620631908 58.92274254094809,258.53458589239744 58.66666666662786,257.6453406172659 58.9654218533542,255.47161623157444 59.733649476314895,253.520187986971 61.142066785134375,251.3958305449196 63.510768622742034,249.37026311151567 70.38213791744784,241.21841839843546 67.71468089299742,245.07205183764745 65.30329974310007,247.24586935082334 63.55344793514814,249.69139078326407 62.61450306256302,250.18543252564268 61.07804781652521,251.8651669286337 59.733649476314895,254.0636252766708 58.83738391613588,257.9911586113012 59.15747875906527,254.9281820939068 60.97134953562636,251.7416574419476 63.617466903757304,249.24675235533505 70.23276032402646,241.63836860276933 69.14443785813637,243.36756767022598 68.73898439027835,243.29345939145423 68.86702232749667,243.5651896364143 67.73602054920048,245.07205183764745 64.79114799434319,248.06104589923052 63.66014621616341,249.83960341160127 62.05967200151645,251.0500031552947 59.904366725939326,254.01422193700273 59.093459790572524,258.6086895181943 58.880063228541985,257.5465353856125 59.370875320979394,254.95288367194007 61.248765066149645,251.64284980738012 62.67852203117218,250.21013458633388 63.766844497062266,249.6419865537173 65.83679114794359,246.75182162546844 70.85161035356577,241.3913391588285 65.04722386877984,247.83872529394284 63.702825528453104,249.81490131311875 62.955937561695464,250.13602839664964 61.05670816032216,252.16158944019116 59.626951195299625,254.63176296054735 59.072120134253055,258.28757364269404 59.370875320979394,254.82937575627875 60.73661331750918,252.2850987132406 62.33708753203973,250.48185708842357 63.83086346567143,249.41966739637428 64.51373246393632,248.08574817609042 70.33945860492531,241.66307153327216 67.92807745502796,244.94853889437218 60.693934005103074,252.6309243433061" stroke="#4dd2ff" stroke-linecap="round" stroke-linejoin="round" stroke-width="0.5"><title>2022-05-21 11.1km</title><desc>1653089162000</desc></polyline><polyline fill="none" points="122.19887135527097,255.2758044708171 117.62190406420268,255.7739114939177 117.58278468577191,258.4002847591473 126.11080921068788,257.90218067582464 126.77583864610642,260.8455149002257 127.7147037317045,261.8417159206292 131.47016407293268,264.10580085549736 134.44323684298433,264.9661501106457 134.99090814287774,265.8264977026265 134.36499808588997,267.4566254206875 134.7561918713618,268.0 136.1253701208625,258.6719776605314 135.6559375782963,257.53992281036335 132.99581983638927,257.04181776414043 132.05695475125685,249.16262741354876 131.86135785840452,238.92852821099223 130.80513463751413,232.90569609196973 123.45069146901369,232.0 117.03511338611133,232.72455702116713 115.74417389370501,237.25301167130237 115.86153202946298,245.40411390425288 113.82732434454374,246.85318311388255 109.56331208208576,247.4871494092513 109.36771518923342,253.73619742004666 108.82004388934001,254.732414355356 110.69777406007051,255.41165189608 115.97889016498812,254.91354446759215 117.15247152163647,255.9097587671422 117.66102344286628,258.4002847591473 126.22816734644584,258.2191560661304 127.24527118890546,261.8417159206292 130.64865712309256,263.834111271397 132.9567004579585,264.4680533761857 132.13519350835122,246.58148299646564 134.0520430575125,245.9022319772339 137.69014526321553,246.03808226407273 132.9567004579585,246.12864909879863 131.9004772368353,242.9587989122374 131.1180896658916,233.22268928866833 131.97871599416249,235.16992825645139 133.4652523791883,263.834111271397 132.4090291580651,256.6795591983828 132.6828648080118,253.19280542450724 131.9004772368353,246.98903311038157 132.33079040120356,243.54748708289117 131.3919253158383,233.0415503468248 132.21343226521276,235.12464372607064 132.80022294376977,241.41914924545563 132.64374542958103,245.5399643429555 132.13519350835122,245.3588304152945 133.19141672947444,251.15507953145425 133.58261051471345,263.6982664173411 135.14738565706648,265.418964839977 135.26474379259162,267.9094376162102 135.92977322801016,267.7283127932751 134.87355000688694,265.87177910868195 136.32096701371484,257.85689845879097 133.19141672947444,257.4493582980649 132.56550667225383,255.32108695051284 132.76110356510617,245.9022319772339 131.78311910131015,233.26797401261865 132.9175810792949,241.192729727627 132.76110356510617,248.43809715894167 133.34789424343035,254.00789316906594 132.52638729382306,246.94374978286214 133.97380430041812,246.03808226407273 132.64374542958103,245.7663816489221 131.66576096555218,233.35854344675317 132.9175810792949,245.72109819707111 125.836973560974,246.1739325093804 126.61936113191769,257.7210517800413 132.9567004579585,257.22294693632284 133.66084927204065,264.0152376793558 132.52638729382306,246.71733307585237 135.26474379259162,245.63053127928288 137.33807085617445,245.94751541080768 137.80750339874066,247.03431643321528 137.69014526321553,256.49842980501126 134.247639950132,254.95882698407513 134.40411746455356,247.12488306532032 133.97380430041812,246.26449931657407 132.64374542958103,245.9022319772339 131.6266415871214,233.5396822594339 132.99581983638927,244.90599527335144 132.83934232220054,245.72109819707111 131.54840283002704,245.8569485389453 132.76110356510617,246.12864909879863 133.54349113628268,264.15108243675786 132.56550667225383,241.5097170205263 131.54840283002704,233.44911286234856 132.29167102253996,235.93976456747623 132.9567004579585,245.0418458644417 133.5043717578519,263.0643232160364 132.6828648080118,246.98903311038157 136.75128017785028,245.40411390425288 137.80750339874066,246.26449931657407 137.84662277740426,256.49842980501126 136.98599644913338,256.6342768568429 135.26474379259162,255.41165189608 132.76110356510617,254.86826194633613 132.7219841866754,241.78142023461987 131.6266415871214,233.5396822594339 132.4481485367287,236.7548839157971 133.34789424343035,260.48325943088275 132.6828648080118,246.98903311038157 134.13028181460686,246.03808226407273 132.60462605091743,245.5399643429555 131.66576096555218,233.44911286234856 132.21343226521276,235.12464372607064 132.7219841866754,245.67581474035978 130.80513463751413,245.811665096262 132.6828648080118,246.58148299646564 133.26965548633598,254.5060016112693 132.52638729382306,249.88715648872312 132.4481485367287,238.0228443783999 131.54840283002704,233.35854344675317 132.09607412968762,233.9925289688981 133.4652523791883,253.46450150531018 132.4090291580651,248.16639800925623 132.76110356510617,245.22297992103267 131.6266415871214,233.40382815676276 132.09607412968762,233.947244318726 133.38701362209395,253.73619742004666 132.36990977963433,249.7060243304877 132.87846170086414,245.94751541080768 131.74399972264655,233.5396822594339 132.76110356510617,243.95503997561173 133.03493921505287,253.32865348554333 132.4090291580651,250.7022502879554 132.6828648080118,246.03808226407273 131.47016407293268,233.0415503468248 132.4481485367287,244.2267416966206 133.15229735081084,245.67581474035978 132.7219841866754,254.68713181573548 127.24527118890546,255.68334662224515 122.1597519768402,255.1852394977759 121.29912564856932,250.4305525207892 121.18176751281135,253.41921883661416 120.59497683448717,253.73619742004666 121.10352875571698,253.55506682861596" stroke="#ff1900" stroke-linecap="round" stroke-linejoin="round" stroke-width="0.5"><title>2022-04-11 21.7km</title><desc>1649628036000</desc></polyline><polyline fill="none" points="185.52418772564852,243.17585846716975 187.49314079422038,238.23981674020615 187.99350180508918,236.73943530832912 188.0,236.45435942067706 187.54512635379797,236.13177223233652 183.89314079421456,234.88642254091246 181.23537906137062,233.79860005424416 181.02743682308937,233.94864547949692 180.54657039712765,235.94422089936415 178.8895306859049,239.09502063828404 178.50613718412933,240.0177296257316 177.609386281576,242.79328941344284 177.43393501805258,244.63860438733536 177.1610108303139,245.1486833931922 175.41949458484305,244.66110794649285 173.119133574015,244.53358768807811 170.15595667867456,245.0886742795701 161.61732851987472,245.8087804543029 160.20722021660185,246.04881429985835 159.9992779783206,246.64139454632095 159.9407942238031,247.59401367601095 159.68086642597336,247.6990260634193 157.71841155231232,247.65402077264298 156.44476534295245,247.2264691550372 156.33429602888646,246.82141799197416 156.30830324906856,245.93629853101447 156.2108303248824,245.77127509611455 153.3971119133057,245.02116396898782 153.1176895306562,245.05866970463103 153.04620938625885,245.186189064676 152.57833935017698,251.0368427263238 152.48736462090164,253.39947655038122 152.9487364621018,260.65941931849375 152.79277978336904,261.76184881533845 152.0,263.61419365859183 152.07148014439736,263.8691686990569 152.38339350177557,264.15413977168646 153.35162454872625,264.6790836344153 156.10685920575634,265.8714423971469 157.5169675090001,266.11891069542617 158.81660649817786,266.20139994575584 161.29891696749837,265.8864404992055 162.3971119133348,265.2490185025963 162.74151624547085,264.9340550347988 165.89314079421456,263.5092036827118 168.12202166064526,262.74427225487307 170.20144404331222,262.33930538182176 171.68303249095334,262.36930300337553 174.02238267147914,261.994331866772 175.47148014439153,262.0543273752992 176.81660649817786,262.3018083379138 179.4158844765625,263.05924496933585 181.40433212995413,263.9891566518054 181.9826714801311,263.70418494888145 182.3985559566936,263.1792342249828 182.44404332130216,262.81176651993883 182.21660649820114,262.1968165146827 182.32057761732722,261.03439716654975 182.3725631769048,260.80941068394895 182.80794223828707,260.2394418903932 182.86642599277548,259.56447321180895 182.77545126352925,259.0994912350361 182.32707581226714,258.4020128338525 181.87870036103413,258.04952126790886 181.6772563176928,258.0195219087691 181.0339350180293,257.0595360439838 181.31985559567693,253.52698164329922 181.2548736461904,252.76944818465563 181.94368231049157,251.26935921798577 183.4057761732838,248.7866456608681 183.70469314078218,247.78153569261485 183.56173285195837,247.56401010959962 180.63104693140485,246.52137867432612 180.40361010830384,246.28884737240878 180.7025270758313,245.19369019672013 181.65776173287304,242.95081808516989 182.14512635377469,241.28549813781137 182.69097472925205,240.20527070573735 182.80794223828707,239.5976358937478 183.041877256328,239.4250967105836 183.26931407942902,238.9299820538581 183.38628158843494,238.29983136905503 183.57472924186732,238.10478364852315 183.61371841153596,237.5346412302024 184.19855595668196,235.99673532018642 184.1270758122555,236.48436746021616 183.07436823102762,239.6726528053041 184.97833935020026,240.20527070573735 185.28375451263855,240.39281131375174 185.97906137182144,240.58785304542107 186.23898916965118,240.92542406697612" stroke="#ff1f00" stroke-linecap="round" stroke-linejoin="round" stroke-width="0.5"><title>2018-11-18 21.4km</title><desc>1542497571000</desc></polyline></svg>