<?xml version="1.0" encoding="utf-8" ?>
<svg baseProfile="full" height="200mm" version="1.1" viewBox="0,0,200,200" width="200mm" xmlns="http://www.w3.org/2000/svg" xmlns:ev="http://www.w3.org/2001/xml-events" xmlns:xlink="http://www.w3.org/1999/xlink"><defs /><rect fill="#1a1a1a" height="200" width="200" x="0" y="0" /><text alignment-baseline="middle" fill="#e1ed5e" style="dominant-baseline: central; font-size:9.0px; font-family:Arial;" text-anchor="middle" x="100.0" y="100.0">2024</text><line stroke="#e1ed5e" stroke-width="0.3" x1="100.0" x2="100.0" y1="15.0" y2="10.0" /><path d="M 100.0 14.0 a86.0,86.0 0 0,1 42.35913384403234,11.155469271406648" fill="none" id="id73" stroke="none" /><text fill="#e1ed5e" style="font-size:6.75px; font-family:Arial;" text-anchor="middle"><textPath startOffset="22.145653131862478" xlink:href="#id73">January</textPath></text><path d="M 100.0 79.0 l 0.0 -12.994103165207306 a33.99410316520731,33.99410316520731 0 0,0 0.5835539846494902,0.005009109116945313 l -0.2230610598006354 12.992188454284795" fill="#ff820b" stroke="none" /><path d="M 109.06512990194946 81.05736502329252 l 7.270682334030502 -15.192929718030562 a37.84303817662952,37.84303817662952 0 0,0 0.5835752404897993,0.28545589345178934 l -7.5304178237823685 15.065880074481553" fill="#ffb711" stroke="none" /><line stroke="#e1ed5e" stroke-width="0.3" x1="143.13028292997686" x2="145.6673583964461" y1="26.7553504044142" y2="22.446841604673864" /><path d="M 143.63769802327073 25.89364864446614 a86.0,86.0 0 0,1 29.32050498858742,28.57503671076992" fill="none" id="id74" stroke="none" /><text fill="#e1ed5e" style="font-size:6.75px; font-family:Arial;" text-anchor="middle"><textPath startOffset="20.669276256404974" xlink:href="#id74">February</textPath></text><path d="M 115.41159269507618 85.73525988315684 l 15.449546468657276 -14.299869563052882 a42.05171621525254,42.05171621525254 0 0,0 0.48580204939834126,0.5339815522819052 l -15.692746218897495 14.032550435213306" fill="#ffef16" stroke="none" /><path d="M 117.21940702142032 87.97951657250589 l 4.820969162982691 -3.365410891095462 a26.879433147535057,26.879433147535057 0 0,0 0.26087163543114567,0.38061951233731794 l -4.8780305352291595 3.282156643688096" fill="#ff1902" stroke="none" /><path d="M 117.42321728460499 88.27688183743584 l 11.966452454900793 -8.051563257462321 a35.42302517658201,35.42302517658201 0 0,0 0.33512806676584467,0.507426606819908 l -12.102904960587363 7.844956772303356" fill="#ff960d" stroke="none" /><path d="M 117.81537515405839 88.88188828441811 l 13.665734921821683 -8.528429304601573 a37.10858210262727,37.10858210262727 0 0,0 0.3326201878738741,0.5433100795144096 l -13.810123074150958 8.29258210896261" fill="#ffad10" stroke="none" /><line stroke="#e1ed5e" stroke-width="0.3" x1="172.87174338648825" x2="177.1583165268699" y1="56.24261187166439" y2="53.66864786411523" /><path d="M 173.72905801456457 55.72781907015455 a86.0,86.0 0 0,1 12.242430191666344,42.057860355516425" fill="none" id="id75" stroke="none" /><text fill="#e1ed5e" style="font-size:6.75px; font-family:Arial;" text-anchor="middle"><textPath startOffset="22.145653131862474" xlink:href="#id75">March</textPath></text><path d="M 118.18653347947321 89.5 l 14.635552505461495 -8.449840178767099 a37.899680357534194,37.899680357534194 0 0,0 0.32046279561203395,0.5662270536944641 l -14.778448666094908 8.197356354973516" fill="#ffb811" stroke="none" /><path d="M 118.36410011445183 89.81374322990088 l 13.895100542964062 -7.707378041660203 a36.889540439425744,36.889540439425744 0 0,0 0.3024145684381026,0.5564087442633955 l -14.025360461017504 7.467714463922205" fill="#ffaa0f" stroke="none" /><path d="M 118.53625476483649 90.13048839642627 l 23.81988113578868 -12.682745044666898 a47.98589926593376,47.98589926593376 0 0,0 0.38089820050534706,0.7304225227792775 l -24.034087405268973 12.271976278783123" fill="#c5ff1e" stroke="none" /><path d="M 118.8641267826498 90.77261029715802 l 24.136728603078886 -11.80648346666044 a47.8695872597108,47.8695872597108 0 0,0 0.35473812811947325,0.741266252769595 l -24.335845989158273 11.39040471182574" fill="#c6ff1e" stroke="none" /><path d="M 119.0197475246899 91.09779779509293 l 8.902752638937654 -4.1669377613562855 a30.829668094962734,30.829668094962734 0 0,0 0.2202347217908087,0.4812526131520577 l -8.972971825583516 4.013496165989543" fill="#ff5407" stroke="none" /><path d="M 119.16976305983485 91.42560881287824 l 25.998003392169156 -11.628576236064198 a49.48016793590227,49.48016793590227 0 0,0 0.34015522676450427,0.7783417268137781 l -26.193792500950632 11.180572439474572" fill="#b3ff20" stroke="none" /><path d="M 119.4528033332814 92.08871423366111 l 7.777060244121134 -3.162862696915825 a29.395615908331628,29.395615908331628 0 0,0 0.18609010138287993,0.4690686185363174 l -7.830209020470138 3.028893061165942" fill="#ff3f05" stroke="none" /><path d="M 119.71291397450082 92.76114493625339 l 24.402025604543162 -8.960761805261958 a46.995270834046366,46.995270834046366 0 0,0 0.27158752748374765,0.759678650646199 l -24.552253302070856 8.540548198234841" fill="#d1ff1d" stroke="none" /><path d="M 119.83427380445688 93.10060997987247 l 21.28101574852734 -7.402641968196161 a43.531771776723815,43.531771776723815 0 0,0 0.23945496499982247,0.707906055663054 l -21.40495613509953 7.036234238058945" fill="#fcff18" stroke="none" /><path d="M 120.86939407059847 97.66154086499901 l 15.926449109287562 -1.784591842089537 a37.02612084297317,37.02612084297317 0 0,0 0.06535570073017777,0.632257118652185 l -15.954737202499405 1.5109302011544208" fill="#ffac0f" stroke="none" /><line stroke="#e1ed5e" stroke-width="0.3" x1="184.99686870605535" x2="189.99668451229388" y1="99.2704041080226" y2="99.22748670261217" /><path d="M 185.99683186730306 99.26182062694052 a86.0,86.0 0 0,1 -10.086455211305974,41.156179273409016" fill="none" id="id76" stroke="none" /><text fill="#e1ed5e" style="font-size:6.75px; font-family:Arial;" text-anchor="middle"><textPath startOffset="21.40746469413373" xlink:href="#id76">April</textPath></text><path d="M 120.96210409425399 101.26102812881392 l 21.020484916260354 1.2645401740934459 a42.05848636456631,42.05848636456631 0 0,0 -0.0495409691453548,0.7203148186252937 l -20.995679985949934 -1.6251984168730829" fill="#ffef16" stroke="none" /><path d="M 119.4528033332814 107.91128576633889 l 13.594693168816129 5.528843361110421 a35.67595963696925,35.67595963696925 0 0,0 -0.23558731300034008,0.5653237886508818 l -13.497780011279303 -5.7613996592025805" fill="#ff990e" stroke="none" /><path d="M 119.0197475246899 108.90220220490707 l 11.725180930445934 5.487976714541166 a33.94595520890749,33.94595520890749 0 0,0 -0.25155689232713213,0.5256571542568902 l -11.62924478015889 -5.68844637086316" fill="#ff810b" stroke="none" /><path d="M 118.8641267826498 109.22738970284198 l 20.311723712367773 9.93548190117424 a43.61149974628229,43.61149974628229 0 0,0 -0.33472882447963304,0.6696818749094725 l -20.13817497467641 -10.282695632247458" fill="#fbff18" stroke="none" /><line stroke="#e1ed5e" stroke-width="0.3" x1="174.33088141563837" x2="178.70328620479359" y1="141.23008692659167" y2="143.65538615756765" /><path d="M 175.20536237346943 141.71514677278685 a86.0,86.0 0 0,1 -30.301960400862466,31.63118572779886" fill="none" id="id77" stroke="none" /><text fill="#e1ed5e" style="font-size:6.75px; font-family:Arial;" text-anchor="middle"><textPath startOffset="22.145653131862474" xlink:href="#id77">May</textPath></text><path d="M 117.21940702142032 112.02048342749411 l 20.986238933716947 14.650024649186124 a46.59385564554153,46.59385564554153 0 0,0 -0.46346442598229426,0.6519207563842879 l -20.731659409204696 -15.008122632279916" fill="#d6ff1c" stroke="none" /><path d="M 117.01052211995028 112.31430620078461 l 17.41193842669193 12.604900650522708 a42.49556047616481,42.49556047616481 0 0,0 -0.4328435505954691,0.5872354063936092 l -17.192992856512628 -12.901942366185198" fill="#fff517" stroke="none" /><path d="M 112.7482090630111 116.68781488649013 l 3.0332630606735025 3.970638715473958 a25.996664547882624,25.996664547882624 0 0,0 -0.3569552628891142,0.26786588394104477 l -2.9646548088736218 -4.022123626679018" fill="#ff0c01" stroke="none" /><line stroke="#e1ed5e" stroke-width="0.3" x1="143.1302829299769" x2="145.6673583964461" y1="173.24464959558577" y2="177.55315839532614" /><path d="M 143.63769802327073 174.10635135553383 a86.0,86.0 0 0,1 -40.685524379131806,11.842963189579606" fill="none" id="id78" stroke="none" /><text fill="#e1ed5e" style="font-size:6.75px; font-family:Arial;" text-anchor="middle"><textPath startOffset="21.407464694133747" xlink:href="#id78">June</textPath></text><path d="M 110.65571695917076 118.09573695890943 l 13.023429829650205 22.11663104445904 a46.666224757150246,46.666224757150246 0 0,0 -0.6937879459857972,0.4005586573754221 l -12.641849415804007 -22.336936599110633" fill="#d5ff1c" stroke="none" /><path d="M 109.71004243097381 118.62028667847754 l 10.309346305236716 19.76953087855448 a43.296120119864284,43.296120119864284 0 0,0 -0.6619621702812997,0.33800260081283223 l -9.968456913241834 -19.943591431040147" fill="#ffff18" stroke="none" /><path d="M 108.73861861582097 119.09545874513695 l 2.6463204273935026 5.782687718653621 a27.359440938943262,27.359440938943262 0 0,0 -0.42874406277948995,0.19177176587694916 l -2.546662961758386 -5.827263235440421" fill="#ff2003" stroke="none" /><path d="M 108.4095320186766 119.2426549942271 l 8.451105913582326 19.337784201733605 a42.1038169295368,42.1038169295368 0 0,0 -0.6647689950133236,0.28375035436329116 l -8.117901843398572 -19.480009205756296" fill="#fff016" stroke="none" /><path d="M 107.06938296918513 119.77432235084164 l 4.2588448514341595 11.912747024962602 a33.651138334131936,33.651138334131936 0 0,0 -0.5456199222326868,0.18979493191170374 l -4.053719157156451 -11.984100389442895" fill="#ff7d0b" stroke="none" /><path d="M 106.0420521117495 120.11202640906438 l 6.062218851730814 20.179154927585465 a42.0700923348185,42.0700923348185 0 0,0 -0.6934352971370825,0.20184890876229789 l -5.714923542212126 -20.280247530650282" fill="#ffef16" stroke="none" /><path d="M 105.3480935250658 120.30758222061773 l 13.941666351066164 52.938777975692204 a75.74380580672195,75.74380580672195 0 0,0 -1.2602135628491458,0.32034135964944477 l -13.030847494991622 -53.17030456717691" fill="#42ffd8" stroke="none" /><line stroke="#e1ed5e" stroke-width="0.3" x1="101.45913802915013" x2="101.54496967792366" y1="184.9874750549273" y2="189.98673829345242" /><path d="M 101.47630435890484 185.9873277026323 a86.0,86.0 0 0,1 -42.54439059252881,-10.42667462771756" fill="none" id="id79" stroke="none" /><text fill="#e1ed5e" style="font-size:6.75px; font-family:Arial;" text-anchor="middle"><textPath startOffset="22.145653131862474" xlink:href="#id79">July</textPath></text><path d="M 90.93487009805054 118.94263497670748 l -7.274512429182775 15.200933143814883 a37.85191085678608,37.85191085678608 0 0,0 -0.5837120655626653,-0.2855228214513221 l 7.53438474400751 -15.073816572266338" fill="#ffb711" stroke="none" /><line stroke="#e1ed5e" stroke-width="0.3" x1="58.13341422392154" x2="55.670673884152215" y1="173.97424548756322" y2="178.32567169271397" /><path d="M 57.64086615596767 174.84453072859336 a86.0,86.0 0 0,1 -31.369924170532244,-30.572349798747886" fill="none" id="id80" stroke="none" /><text fill="#e1ed5e" style="font-size:6.75px; font-family:Arial;" text-anchor="middle"><textPath startOffset="22.145653131862474" xlink:href="#id80">August</textPath></text><path d="M 88.72937992617639 117.7192867562869 l -24.119758251387584 37.92026615654177 a65.94117625839745,65.94117625839745 0 0,0 -0.9499120592399137,-0.6157215202874049 l 24.767155942884507 -37.500630794550474" fill="#35ff68" stroke="none" /><path d="M 88.1277618465304 117.32195027204791 l -11.903329941518336 17.367314120000376 a42.05499616336729,42.05499616336729 0 0,0 -0.5919839669790397,-0.4132507847431594 l 12.199708999671142 -17.16041851945209" fill="#ffef16" stroke="none" /><path d="M 87.83215693770417 117.11559508785305 l -12.202023676058019 17.163674401665098 a42.05899097196858,42.05899097196858 0 0,0 -0.5848582880154886,-0.4233922975381556 l 12.49486297444746 -16.951681332753875" fill="#ffef16" stroke="none" /><path d="M 87.2517909369889 116.68781488649013 l -12.7701076850855 16.71648088574072 a42.03607338578221,42.03607338578221 0 0,0 -0.5696689739132078,-0.4429780397268937 l 13.055186603633937 -16.494801794393034" fill="#ffef16" stroke="none" /><path d="M 86.13680546590413 115.77377054828092 l -37.48306384357038 42.648845982857324 a77.77943411809119,77.77943411809119 0 0,0 -0.995335911496125,-0.890035509605641 l 38.20966478188987 -41.9991149433683" fill="#45ffee" stroke="none" /><path d="M 84.83555147118756 114.52719865689866 l -15.204313998371484 14.565388874942826 a42.05520641645157,42.05520641645157 0 0,0 -0.49493804413541465,-0.5256070513235709 l 15.452107876243153 -14.302240363674764" fill="#ffef16" stroke="none" /><path d="M 84.58840730492382 114.26474011684316 l -15.446120971765334 14.29669897426939 a42.04704859678155,42.04704859678155 0 0,0 -0.48574812678059115,-0.5339222818791507 l 15.689266799387804 -14.029439116832567" fill="#ffef16" stroke="none" /><path d="M 84.1078160697243 113.72728997021213 l -22.218176741895945 19.19153189288171 a50.35919403065455,50.35919403065455 0 0,0 -0.5594797021310368,-0.6590656823186604 l 22.544351007534097 -18.80729942811349" fill="#a8ff21" stroke="none" /><path d="M 83.87451063323141 113.45245675266167 l -19.384531215851823 16.171265375006904 a46.244204766386105,46.244204766386105 0 0,0 -0.5032980995779888,-0.6139418463588632 l 19.65927613466844 -15.836121246949547" fill="#daff1c" stroke="none" /><path d="M 83.64595745247003 113.17365903436017 l -10.165840313830014 8.188881354743474 a34.05381504114245,34.05381504114245 0 0,0 -0.3628086471155655,-0.45839687360710296 l 10.304915391587143 -8.013164537221689" fill="#ff820c" stroke="none" /><path d="M 83.4222238831116 112.89097897827486 l -39.19523338373812 30.478450549444478 a70.65080329562284,70.65080329562284 0 0,0 -0.7362756475989307,-0.9638084574728145 l 39.71266100869135 -29.801121178730796" fill="#3cffa0" stroke="none" /><path d="M 83.20337586046588 112.60449989151573 l -3.388228691823135 2.5425899766368016 a25.236137091429814,25.236137091429814 0 0,0 -0.25704565511249644,-0.34873179820754946 l 3.4313763665194617 -2.4840518691603726" fill="#ff0000" stroke="none" /><path d="M 82.98947788004972 112.3143062007846 l -13.72039615930512 9.932508732556538 a37.9382407731909,37.9382407731909 0 0,0 -0.3773678898026005,-0.5308151960829296 l 13.888879147637681 -9.695516309764106" fill="#ffb811" stroke="none" /><path d="M 82.78059297857968 112.02048342749411 l -17.33853156613122 12.103641611380692 a42.14527883775655,42.14527883775655 0 0,0 -0.4090304939007035,-0.5967877146255262 l 17.543751796847246 -11.804219161685113" fill="#fff016" stroke="none" /><path d="M 82.576782715395 111.72311816256416 l -20.387298412757342 13.717484228322848 a45.57257231396632,45.57257231396632 0 0,0 -0.43115030353823375,-0.6528165118042517 l 20.619773155216304 -13.365487838179535" fill="#e2ff1b" stroke="none" /><path d="M 82.37810715431573 111.42229804090323 l -9.244753170158967 5.992337312957952 a32.01696726188439,32.01696726188439 0 0,0 -0.2949865110937001,-0.4637677913964667 l 9.346257372878558 -5.832755846882811" fill="#ff6509" stroke="none" /><path d="M 81.99639281039703 110.81064883170646 l -46.964101645677225 28.20059364998731 a75.78047394462014,75.78047394462014 0 0,0 -0.6601067115855711,-1.1210055093836586 l 47.441282067392564 -27.390236972310095" fill="#42ffd9" stroke="none" /><line stroke="#e1ed5e" stroke-width="0.3" x1="26.387840678322732" x2="22.057713659400548" y1="142.50000000000003" y2="145.00000000000006" /><path d="M 25.521815274538298 143.00000000000003 a86.0,86.0 0 0,1 -11.493303480769221,-40.785679425670985" fill="none" id="id81" stroke="none" /><text fill="#e1ed5e" style="font-size:6.75px; font-family:Arial;" text-anchor="middle"><textPath startOffset="21.40746469413373" xlink:href="#id81">September</textPath></text><path d="M 81.63589988554817 110.18625677009913 l -21.246394079699407 11.785016645831567 a45.296005406906154,45.296005406906154 0 0,0 -0.3713294273641937,-0.6832043226450738 l 21.44556885667893 -11.418557489711906" fill="#e6ff1a" stroke="none" /><path d="M 81.4637452351635 109.86951160357371 l -15.310654445525588 8.152061116201171 a38.34566919990611,38.34566919990611 0 0,0 -0.3043768402561982,-0.583682724781995 l 15.448339354756737 -7.8880321483146725" fill="#ffbe11" stroke="none" /><path d="M 81.1358732173502 109.22738970284198 l -23.86320908012692 11.672691361746551 a47.56509874305843,47.56509874305843 0 0,0 -0.3524817124573719,-0.7365512118705457 l 24.060070050544205 -11.261327647810903" fill="#caff1d" stroke="none" /><path d="M 80.83023694016515 108.57439118712176 l -47.05841175487778 21.04862901912402 a72.5513229750346,72.5513229750346 0 0,0 -0.49875965963994784,-1.1412597079331768 l 47.4128052965347 -20.237707241414995" fill="#3effb5" stroke="none" /><path d="M 80.68587082218212 108.24405325689762 l -7.756194814092704 3.310658354283495 a29.433209159800654,29.433209159800654 0 0,0 -0.19436311537220638,-0.46640072148555983 l 7.811883774001396 -3.1770251233566538" fill="#ff3f05" stroke="none" /><path d="M 80.5471966667186 107.91128576633889 l -12.622088339307924 5.133293444107144 a34.62599778469843,34.62599778469843 0 0,0 -0.2192012393389452,-0.5525303159817992 l 12.708348253612993 -4.915862110911779" fill="#ff8a0c" stroke="none" /><path d="M 80.05021161711548 106.5578916946017 l -25.156481046410747 8.269434991159969 a47.48078725626268,47.48078725626268 0 0,0 -0.24788426695047353,-0.7764939356434165 l 25.294730029138478 -7.83637202182516" fill="#cbff1d" stroke="none" /><path d="M 79.94057633289273 106.21446072829308 l -47.2455409002079 14.636789340700284 a70.46086065928549,70.46086065928549 0 0,0 -0.34802189349012225,-1.158451695442144 l 47.48983911370165 -13.823600041667417" fill="#3bff9e" stroke="none" /><path d="M 79.34024301695615 103.76489593502545 l -8.798052681212248 1.603298277071776 a29.942946737325865,29.942946737325865 0 0,0 -0.08781151617326287,-0.506473490285036 l 8.824279014877744 -1.4520317538661474" fill="#ff4706" stroke="none" /><path d="M 79.2786578344484 103.40968896794605 l -25.348843203281927 4.171142502733904 a46.68973105197261,46.68973105197261 0 0,0 -0.12334650529662082,-0.7919730468168937 l 25.416711200716815 -3.73538127398556" fill="#d4ff1c" stroke="none" /><path d="M 79.17382384314188 102.69636545807758 l -17.588133950786965 2.2771360666382665 a38.734931760139645,38.734931760139645 0 0,0 -0.07971633045464858,-0.6601655714711725 l 17.624632367501274 -1.9748768182436949" fill="#ffc312" stroke="none" /><path d="M 79.0935383218832 101.97986365728391 l -32.63689136216561 3.090747544445094 a53.78291320443157,53.78291320443157 0 0,0 -0.07915404799575337,-0.9198900206596855 l 32.68513903285911 -2.530036476409746" fill="#81ff25" stroke="none" /><path d="M 79.06263194458094 101.62068470465958 l -8.375649155379078 0.6483282159337325 a29.40070403297117,29.40070403297117 0 0,0 -0.034631283653998715,-0.5035312638071429 l 8.385544400198143 -0.5044535279722463" fill="#ff3f05" stroke="none" /><path d="M 79.00696218219943 100.54070618675478 l -27.773631641731406 0.7153502312370694 a48.78284255658364,48.78284255658364 0 0,0 -0.014375997998710649,-0.8373298117769872 l 27.78181907132878 -0.2384735034910299" fill="#bbff1f" stroke="none" /><line stroke="#e1ed5e" stroke-width="0.3" x1="15.003131293944662" x2="10.003315487706104" y1="100.72959589197737" y2="100.7725132973878" /><path d="M 14.003168132696942 100.73817937305945 a86.0,86.0 0 0,1 10.791469493833604,-42.453326145846276" fill="none" id="id82" stroke="none" /><text fill="#e1ed5e" style="font-size:6.75px; font-family:Arial;" text-anchor="middle"><textPath startOffset="22.145653131862435" xlink:href="#id82">October</textPath></text><path d="M 79.00077361379809 100.18025310272382 l -51.678009937838006 0.44359356209467427 a72.67991376137944,72.67991376137944 0 0,0 0.0,-1.2476933296369646 l 51.678009937838006 0.4435935620946553" fill="#3effb7" stroke="none" /><path d="M 79.01933749520258 99.09900007780938 l -28.511372715248704 -1.22440102127914 a49.537651129144066,49.537651129144066 0 0,0 0.04377809842913559,-0.8492834141121827 l 28.486153027363 1.7136562287680348" fill="#b2ff20" stroke="none" /><path d="M 79.03789590574601 98.7389718711861 l -36.67924327353409 -2.206532192739834 a57.745553083831695,57.745553083831695 0 0,0 0.06801886874412064,-0.9889794234497897 l 36.6359604436249 2.835855040343948" fill="#55ff2b" stroke="none" /><path d="M 79.13060592940154 97.66154086499901 l -35.08967219955164 -3.9318709600119606 a56.30927221450724,56.30927221450724 0 0,0 0.11588425092130616,-0.9596878368291238 l 35.01700586237067 4.533652473764521" fill="#65ff29" stroke="none" /><path d="M 79.17382384314186 97.30363454192245 l -25.635850385300426 -3.319074079982063 a46.849817750342396,46.849817750342396 0 0,0 0.11010930496993107,-0.7966960798734907 l 25.575096563775286 3.7586584680556205" fill="#d2ff1c" stroke="none" /><path d="M 79.2786578344484 96.59031103205396 l -30.220824777492396 -4.972825216763804 a51.62723038193921,51.62723038193921 0 0,0 0.1514034478781996,-0.873254853460879 l 30.131006512121964 5.490873103145275" fill="#99ff23" stroke="none" /><path d="M 79.407916724674 95.88100663000787 l -20.720809273443592 -4.144742174797486 a42.13127598234359,42.13127598234359 0 0,0 0.14794555889659,-0.7079730562153913 l 20.646606003722635 4.499831682298287" fill="#fff016" stroke="none" /><path d="M 79.48165901384962 95.52812308129327 l -20.55243657571871 -4.479307893760859 a42.03489596851024,42.03489596851024 0 0,0 0.15971086351622618,-0.7037155332844668 l 20.47251485064482 4.831457760984334" fill="#ffef16" stroke="none" /><path d="M 79.64726062577567 94.8264132398404 l -29.930049358286503 -7.608101506328834 a51.881888917617545,51.881888917617545 0 0,0 0.22682395992181043,-0.861287521268907 l 29.795035917559968 8.120769531970526" fill="#96ff23" stroke="none" /><path d="M 79.73907114497095 94.47779374421319 l -19.558725466976327 -5.330817599813275 a41.272181879980934,41.272181879980934 0 0,0 0.19217410379031652,-0.6819580988374774 l 19.464332871111427 5.665783622553766" fill="#ffe515" stroke="none" /><path d="M 79.83685265289637 94.1308016681162 l -20.998053987033586 -6.11222748670766 a42.86955866247972,42.86955866247972 0 0,0 0.21174230401394153,-0.7048212646102765 l 20.89003536301602 6.47178635490866" fill="#fff917" stroke="none" /><path d="M 80.16572619554312 93.10060997987247 l -32.530434914627996 -11.315773907989469 a55.442356697409416,55.442356697409416 0 0,0 0.3204035705314596,-0.8962258111728856 l 32.33139117405259 11.872534675543276" fill="#6eff28" stroke="none" /><path d="M 80.28708602549916 92.7611449362534 l -22.733487416762657 -8.348051471046865 a45.21779125955449,45.21779125955449 0 0,0 0.2738245520904342,-0.7263521567336989 l 22.586832180857787 8.737071907974709" fill="#e7ff1a" stroke="none" /><path d="M 80.41425534168474 92.42381321644754 l -31.6393703418002 -12.238788139295965 a54.92399874342878,54.92399874342878 0 0,0 0.3476985318623788,-0.876427433785021 l 31.424613134971686 12.780116590294568" fill="#74ff27" stroke="none" /><path d="M 80.9802524753101 91.09779779509293 l -10.647175414291919 -4.98341570129161 a32.755712498805934,32.755712498805934 0 0,0 0.24273658500553308,-0.5072261043124787 l 10.560059571326482 5.165454307669176" fill="#ff700a" stroke="none" /><path d="M 81.1358732173502 90.77261029715801 l -47.20910703377584 -23.092339928741616 a73.55431428827758,73.55431428827758 0 0,0 0.5645471790778686,-1.1294725333184545 l 46.80573994148622 23.89934431822384" fill="#3fffc1" stroke="none" /><path d="M 81.29705330413844 90.45014215332179 l -4.567108779435458 -2.331998284718179 a26.12803067493994,26.12803067493994 0 0,0 0.20739675652798772,-0.3977106269297985 l 4.5264039539325305 2.410055154752464" fill="#ff0e01" stroke="none" /><line stroke="#e1ed5e" stroke-width="0.3" x1="26.387840678322718" x2="22.05771365940052" y1="57.5" y2="55.0" /><path d="M 25.521815274538284 57.0 a86.0,86.0 0 0,1 29.574782752854787,-30.346332500585742" fill="none" id="id83" stroke="none" /><text fill="#e1ed5e" style="font-size:6.75px; font-family:Arial;" text-anchor="middle"><textPath startOffset="21.40746469413373" xlink:href="#id83">November</textPath></text><path d="M 81.99639281039701 89.18935116829357 l -53.54694283995716 -32.15340064676222 a83.45891658247723,83.45891658247723 0 0,0 0.7480781786984402,-1.2219294846461828 l 52.987096696803334 33.067867247532945" fill="#4cd7ff" stroke="none" /><path d="M 82.576782715395 88.27688183743585 l -21.733224273433876 -14.623083214148695 a47.19480101102684,47.19480101102684 0 0,0 0.45803737214315693,-0.6682902145695657 l 21.478997164475405 14.994008163788298" fill="#ceff1d" stroke="none" /><path d="M 82.78059297857968 87.97951657250589 l -22.14888079103584 -15.461638960911715 a48.01176039530004,48.01176039530004 0 0,0 0.4775681828368965,-0.6717594566621516 l 21.88019750966897 15.839575644283386" fill="#c4ff1e" stroke="none" /><path d="M 82.98947788004972 87.6856937992154 l -17.072237650395785 -12.358983485461144 a42.07618967426258,42.07618967426258 0 0,0 0.42857199975871163,-0.5814402273084571 l 16.857563631053253 12.650230022038464" fill="#ffef16" stroke="none" /><path d="M 83.42222388311158 87.10902102172516 l -6.669874255101553 -5.186534563140734 a29.449104292972123,29.449104292972123 0 0,0 0.31375015323216643,-0.3964130691999896 l 6.579857671227823 5.300267576255404" fill="#ff4006" stroke="none" /><path d="M 83.64595745247001 86.82634096563983 l -21.369874736719222 -17.214058393840084 a48.440760788462235,48.440760788462235 0 0,0 0.5272042836525624,-0.6431035038386796 l 21.07122363382803 17.57836417937726" fill="#bfff1e" stroke="none" /><path d="M 83.8745106332314 86.54754324733833 l -22.64800141456573 -18.89376828411373 a50.49417651076146,50.49417651076146 0 0,0 0.5609793281520004,-0.6608322380006051 l 22.320327522906613 19.27976730456389" fill="#a7ff21" stroke="none" /><path d="M 84.10781606972428 86.27271002978789 l -36.59593246101793 -31.610694843875738 a69.35802209772457,69.35802209772457 0 0,0 0.7860210421416143,-0.8943476580645879 l 36.04790035491772 32.23425477975162" fill="#3aff91" stroke="none" /><path d="M 84.58840730492382 85.73525988315684 l -15.799147154716305 -14.62345473883393 a42.52808582561638,42.52808582561638 0 0,0 0.5005032530554402,-0.5315171103402812 l 15.545788067924592 14.89251330911872" fill="#fff517" stroke="none" /><path d="M 85.08716467003674 85.21462403516908 l -44.73850598988975 -44.35612789449276 a84.0,84.0 0 0,0 1.024032319480094,-1.0152799590853063 l 43.97048175027968 45.11758786380673" fill="#4dd2ff" stroke="none" /><path d="M 85.34317274990677 84.96080404539775 l -23.539752375420083 -24.153859676179543 a54.72727203840636,54.72727203840636 0 0,0 0.678429270720561,-0.6499198946593233 l 23.12165061883422 24.554391701144436" fill="#76ff27" stroke="none" /><line stroke="#e1ed5e" stroke-width="0.3" x1="56.869717070023135" x2="54.33264160355391" y1="26.7553504044142" y2="22.446841604673864" /><path d="M 56.362301976729285 25.89364864446614 a86.0,86.0 0 0,1 42.16139366436587,-11.88097634709845" fill="none" id="id84" stroke="none" /><text fill="#e1ed5e" style="font-size:6.75px; font-family:Arial;" text-anchor="middle"><textPath startOffset="22.145653131862474" xlink:href="#id84">December</textPath></text></svg>