<?xml version="1.0" encoding="utf-8" ?>
<svg baseProfile="full" height="200mm" version="1.1" viewBox="0,0,200,200" width="200mm" xmlns="http://www.w3.org/2000/svg" xmlns:ev="http://www.w3.org/2001/xml-events" xmlns:xlink="http://www.w3.org/1999/xlink"><defs /><rect fill="#1a1a1a" height="200" width="200" x="0" y="0" /><text alignment-baseline="middle" fill="#e1ed5e" style="dominant-baseline: central; font-size:9.0px; font-family:Arial;" text-anchor="middle" x="100.0" y="100.0">2022</text><line stroke="#e1ed5e" stroke-width="0.3" x1="100.0" x2="100.0" y1="15.0" y2="10.0" /><path d="M 100.0 14.0 a86.0,86.0 0 0,1 42.46469731375804,11.215312516191453" fill="none" id="id49" stroke="none" /><text fill="#e1ed5e" style="font-size:6.75px; font-family:Arial;" text-anchor="middle"><textPath startOffset="22.20632615414155" xlink:href="#id49">January</textPath></text><line stroke="#e1ed5e" stroke-width="0.3" x1="143.23703022742887" x2="145.7803849466894" y1="26.81831364943548" y2="22.513508569990506" /><path d="M 143.74570117128098 25.957352633546492 a86.0,86.0 0 0,1 28.547481713284135,27.462654790039103" fill="none" id="id50" stroke="none" /><text fill="#e1ed5e" style="font-size:6.75px; font-family:Arial;" text-anchor="middle"><textPath startOffset="19.985693538727396" xlink:href="#id50">February</textPath></text><path d="M 115.9244219780498 86.31012108654704 l 10.496929659239747 -9.023981918847875 a34.842607483516986,34.842607483516986 0 0,0 0.3870671678256598,0.4581654394361491 l -10.650707440552523 8.84195752978262" fill="#ff8f0d" stroke="none" /><path d="M 116.38621287248628 86.86637796730983 l 8.594400695172187 -6.8884501383115815 a32.01428475286439,32.01428475286439 0 0,0 0.3409459117943331,0.4329666843793695 l -8.711700687560484 6.739491059979174" fill="#ff6709" stroke="none" /><path d="M 117.04232023915458 87.72973835380427 l 7.796824295205726 -5.6136179093613725 a30.607454143664334,30.607454143664334 0 0,0 0.3041614009387632,0.43021473121521714 l -7.8922983159483735 5.478576677814361" fill="#ff5307" stroke="none" /><path d="M 117.2510076193507 88.02491185347247 l 11.042620608960817 -7.665427903042369 a34.44240509916982,34.44240509916982 0 0,0 0.333887191510358,0.4899382540259772 l -11.172932266139908 7.474211625745988" fill="#ff8a0c" stroke="none" /><path d="M 117.45458315368197 88.32363383020206 l 7.24109097624511 -4.843978739739892 a29.711918764388844,29.711918764388844 0 0,0 0.2807116501346073,0.42754310167433796 l -7.323399261737642 4.71861757408788" fill="#ff4606" stroke="none" /><line stroke="#e1ed5e" stroke-width="0.3" x1="172.23445277983987" x2="176.4835382374775" y1="55.19839476539836" y2="52.563006222186495" /><path d="M 173.08426987136738 54.67131705675599 a86.0,86.0 0 0,1 12.851231095245387,41.99856678651699" fill="none" id="id51" stroke="none" /><text fill="#e1ed5e" style="font-size:6.75px; font-family:Arial;" text-anchor="middle"><textPath startOffset="22.20632615414155" xlink:href="#id51">March</textPath></text><path d="M 118.03404312379186 89.2402003453031 l 7.009513211930337 -4.18214358918885 a29.16232812798036,29.16232812798036 0 0,0 0.2534905176040317,0.4332974647438536 l -7.080463404004696 4.0608667120911" fill="#ff3e05" stroke="none" /><path d="M 118.21658344932153 89.55222093294921 l 12.17206943760779 -6.981061658829545 a35.031909929810894,35.031909929810894 0 0,0 0.2955064359522733,0.5256729760648805 l -12.290433514852497 6.770505172829872" fill="#ff920d" stroke="none" /><path d="M 118.56541770881063 90.18545643968196 l 16.863036737966794 -8.914585775545222 a40.07437672836444,40.07437672836444 0 0,0 0.3171420659162823,0.612617527058106 l -17.013988237043193 8.62299552622677" fill="#ffd714" stroke="none" /><path d="M 118.89224826269711 90.83032412892265 l 15.736586512750337 -7.63802145899216 a38.49227048959913,38.49227048959913 0 0,0 0.28418624475424364,0.5985687079806861 l -15.865730951346338 7.366010335370934" fill="#ffc112" stroke="none" /><path d="M 119.196687751892 91.48605970444005 l 14.735967693184762 -6.535562319843949 a37.12024561509995,37.12024561509995 0 0,0 0.2540249594195884,0.5863246296992409 l -14.84628336244703 6.280938545558105" fill="#ffaf10" stroke="none" /><path d="M 119.34039704204932 91.81776055985345 l 25.762894477590624 -10.899371446644267 a48.97361309869345,48.97361309869345 0 0,0 0.321776024878369,0.7792061672883186 l -25.94669218935519 10.454290708902645" fill="#b8ff1f" stroke="none" /><path d="M 119.61058180528143 92.48833698450437 l 35.41981881117443 -13.567253925521017 a58.92932827899792,58.92932827899792 0 0,0 0.3546855570069883,0.9503809542142674 l -35.648108956683046 12.955549834277416" fill="#48ff2c" stroke="none" /><path d="M 119.85752413597 93.16781622104841 l 15.473596369934059 -5.3238487032332875 a37.363848863716484,37.363848863716484 0 0,0 0.2040114298007765,0.609968208039407 l -15.562945093506606 5.056707392271567" fill="#ffb210" stroke="none" /><path d="M 120.08093135843002 93.85539295169968 l 15.752235176132524 -4.820060064052501 a37.47318706459866,37.47318706459866 0 0,0 0.18342964984146579,0.6184335915019029 l -15.832870723085692 4.548197085804068" fill="#ffb410" stroke="none" /><path d="M 120.18372546131832 94.20196356495316 l 10.810999895980105 -3.1055996781322723 a32.24822066425162,32.24822066425162 0 0,0 0.14866925647594012,0.5348424162957247 l -10.862855923022408 2.9190459584175956" fill="#ff6b09" stroke="none" /><path d="M 120.67395015179393 96.31383870115 l 17.069257706822466 -3.0434453356523252 a38.33845777954377,38.33845777954377 0 0,0 0.11024705226153202,0.6506843431753643 l -17.11911662060422 2.7491752041611237" fill="#ffbf11" stroke="none" /><path d="M 120.83666639777658 97.38593545837742 l 18.462589298631077 -2.3162246354936062 a39.60731308308629,39.60731308308629 0 0,0 0.07904421475183242,0.6772025605052435 l -18.499723866386496 1.99807833666351" fill="#ffd013" stroke="none" /><path d="M 120.96714384426684 98.82574320788733 l 21.529188410555765 -1.2057338809492215 a42.56292530731574,42.56292530731574 0 0,0 0.034671336906446214,0.7318571237193598 l -21.546753355695706 0.834965650606862" fill="#fff717" stroke="none" /><line stroke="#e1ed5e" stroke-width="0.3" x1="184.98032266829074" x2="189.97916517819016" y1="98.17113171792111" y2="98.06355123074" /><path d="M 185.9800911702706 98.14961562048488 a86.0,86.0 0 0,1 -9.607161424134198,41.387399972396054" fill="none" id="id52" stroke="none" /><text fill="#e1ed5e" style="font-size:6.75px; font-family:Arial;" text-anchor="middle"><textPath startOffset="21.466115282336823" xlink:href="#id52">April</textPath></text><path d="M 120.99513854157772 99.54816195383933 l 27.081170435478267 -0.582816022531996 a48.087441124468405,48.087441124468405 0 0,0 0.010686845021674597,0.8277079242451211 l -27.08719028761766 0.11657184022641225" fill="#c2ff1e" stroke="none" /><path d="M 120.9904718944345 100.63252640178507 l 24.466701675014445 0.7372790307848661 a45.4778077291123,45.4778077291123 0 0,0 -0.03031391956241136,0.7822675670322692 l -24.45038562260083 -1.1583238448311415" fill="#e2ff1b" stroke="none" /><path d="M 120.95626037817324 101.35467743843564 l 24.735107892058206 1.5989538206703426 a45.78673467305438,45.78673467305438 0 0,0 -0.057611576075475644,0.786064182939566 l -24.703919757318392 -2.0244911401066785" fill="#deff1b" stroke="none" /><path d="M 120.89721153311464 102.0752229133903 l 13.538974845255984 1.344504302795008 a34.60556987710212,34.60556987710212 0 0,0 -0.06396707513683958,0.592255671290637 l -13.513825468618093 -1.5773562959704361" fill="#ff8c0c" stroke="none" /><path d="M 120.76222939487914 103.15116336523771 l 58.83176544486345 8.929123190780075 a80.50551122640285,80.50551122640285 0 0,0 -0.21973498417833384,1.3682899562319066 l -58.669348706323824 -9.940492376705187" fill="#48f4ff" stroke="none" /><path d="M 120.5718875245553 104.21870165774334 l 12.965230413095755 2.6587953570844625 a34.23504410327057,34.23504410327057 0 0,0 -0.12335369149452638,0.5762673801040056 l -12.917542682876785 -2.881576556604637" fill="#ff870c" stroke="none" /><path d="M 120.41448212921028 104.9243191809786 l 15.942468774581192 3.845593744770616 a37.39972261589553,37.39972261589553 0 0,0 -0.15634630924660747,0.6245257874121019 l -15.873911151039524 -4.119447371580114" fill="#ffb310" stroke="none" /><path d="M 120.23288151984713 105.62410040840565 l 9.122576206485613 2.535787328081736 a30.468453623290202,30.468453623290202 0 0,0 -0.14480838163327453,0.5040969735403578 l -9.07757518796624 -2.692441777126676" fill="#ff5107" stroke="none" /><path d="M 120.13307415673323 105.97154293290107 l 19.792035119318424 5.870389515501247 a41.64427589497972,41.64427589497972 0 0,0 -0.20975473657414592,0.6854906154521443 l -19.688053610238143 -6.210207103505448" fill="#ffeb16" stroke="none" /><path d="M 119.9155931802556 106.66101706037122 l 12.901335515608153 4.315011618947729 a34.603815029540286,34.603815029540286 0 0,0 -0.19379647294373215,0.5632632644926475 l -12.82514821172119 -4.536447586529677" fill="#ff8c0c" stroke="none" /><path d="M 119.67450827220406 107.3425965602758 l 18.47206374136042 6.893839978716468 a40.71654555232817,40.71654555232817 0 0,0 -0.25070867881464726,0.6545212484967008 l -18.350660782952264 -7.2107847940463135" fill="#ffdf14" stroke="none" /><path d="M 119.41010516605496 108.01547362559984 l 12.096553336272333 4.995315759397264 a34.08739019642052,34.08739019642052 0 0,0 -0.22862740299431708,0.5404076452355177 l -12.008774952085705 -5.202797930298945" fill="#ff850c" stroke="none" /><path d="M 119.26925614724726 108.34839909993367 l 12.826851841826784 5.557229482705632 a34.97894587211882,34.97894587211882 0 0,0 -0.24411792210767877,0.5504214691035191 l -12.729292834987831 -5.777199288301839" fill="#ff910d" stroke="none" /><path d="M 118.81262510543309 109.33194174019688 l 30.996328795120995 15.3756284864529 a55.600322977230554,55.600322977230554 0 0,0 -0.4326799400596232,0.853718570094186 l -30.727070185275103 -15.906901268249781" fill="#6cff28" stroke="none" /><line stroke="#e1ed5e" stroke-width="0.3" x1="174.80103733775053" x2="179.2010983576182" y1="140.37084112569926" y2="142.7455964860345" /><path d="M 175.68104954172406 140.8457921977663 a86.0,86.0 0 0,1 -30.038265399797805,32.042727171017184" fill="none" id="id53" stroke="none" /><text fill="#e1ed5e" style="font-size:6.75px; font-family:Arial;" text-anchor="middle"><textPath startOffset="22.206326154141568" xlink:href="#id53">May</textPath></text><path d="M 118.12598468904814 110.60418214915192 l 17.506708636108485 10.241889221146325 a41.28253293077146,41.28253293077146 0 0,0 -0.3641102189712615,0.6102696705765069 l -17.327817541438993 -10.541720985608936" fill="#ffe615" stroke="none" /><path d="M 117.75023020441432 111.22182372390056 l 15.080107035097239 9.533752573154159 a38.84102200873349,38.84102200873349 0 0,0 -0.36213729575118897,0.5620451250204512 l -14.913764875969 -9.791919298096065" fill="#ffc612" stroke="none" /><path d="M 117.35343817320211 111.8261652097733 l 20.899112801283163 14.24250101097151 a46.29074437275982,46.29074437275982 0 0,0 -0.4543967643709547,0.6545924295884853 l -20.65085512975007 -14.600134702747013" fill="#d8ff1c" stroke="none" /><path d="M 116.93607887273984 112.41649034213513 l 10.211102076815953 7.486151385573375 a33.66132173948981,33.66132173948981 0 0,0 -0.3466134083007769,0.464345303172538 l -10.080727401820086 -7.660809568255227" fill="#ff7f0b" stroke="none" /><path d="M 116.498646956653 112.99209946851258 l 14.09621725081226 11.100271260636049 a38.94211143767087,38.94211143767087 0 0,0 -0.4192435172771992,0.5230707494409966 l -13.903055821480207 -11.341269843655299" fill="#ffc712" stroke="none" /><path d="M 115.80600337817218 113.82643327865902 l 19.850060849166677 17.364006279243437 a47.37297157662036,47.37297157662036 0 0,0 -0.5421749754429342,0.6091393324675883 l -19.54822702407541 -17.703119781451893" fill="#cbff1d" stroke="none" /><path d="M 115.32070863581623 114.36230785411682 l 9.264116499369278 8.684591315136378 a33.69826684334631,33.69826684334631 0 0,0 -0.4003569908237355,0.4197727042725265 l -9.11325295716658 -8.842771135991413" fill="#ff7f0b" stroke="none" /><path d="M 114.55890576462653 115.13401014063108 l 16.31750486883185 16.962077243106123 a44.53663165249968,44.53663165249968 0 0,0 -0.5570560567641797,0.5267312713564846 l -16.023112977676863 -17.240443151208527" fill="#eeff19" stroke="none" /><path d="M 114.0293411484842 115.62618273729858 l 20.430316036154625 22.755726614874334 a51.58138170698075,51.58138170698075 0 0,0 -0.6657870456819706,0.5874796580819043 l -20.035586637566066 -23.104029414728526" fill="#99ff23" stroke="none" /><path d="M 113.48314897796784 116.09983520530334 l 8.222906923081995 9.818733486257251 a33.807174768067284,33.807174768067284 0 0,0 -0.44936154034656106,0.3697939553273092 l -8.052675254190742 -9.958822560441739" fill="#ff810b" stroke="none" /><path d="M 113.20401910651253 116.32954008644616 l 16.480246013213343 20.38128207301125 a47.210592660138076,47.210592660138076 0 0,0 -0.6363145008012049,0.5055267232849322 l -16.12697401969479 -20.661942710301307" fill="#cdff1d" stroke="none" /><path d="M 112.63410532772338 116.77436683061366 l 14.70147576804644 19.519225231045837 a45.43631607625734,45.43631607625734 0 0,0 -0.6287845876463328,0.4651598058243153 l -14.363306209981541 -19.76939498560992" fill="#e3ff1b" stroke="none" /><path d="M 112.04921762599082 117.19931262002967 l 17.65670202420015 25.203556561039118 a51.7730139846082,51.7730139846082 0 0,0 -0.7342969417923209,0.5050561322417513 l -17.220248197784947 -25.503753482645962" fill="#97ff23" stroke="none" /><path d="M 111.45004920935366 117.60387380957326 l 9.490330327760338 14.590904759132435 a38.405771210149844,38.405771210149844 0 0,0 -0.5572827330549875,0.35568420715562427 l -9.23776579265842 -14.752103395111869" fill="#ffc011" stroke="none" /><path d="M 111.1453310114006 117.79835938074945 l 9.337601121100386 14.911533837571376 a38.593880643161455,38.593880643161455 0 0,0 -0.5660818092106464,0.347733682263579 l -9.079540111957431 -15.070055986663334" fill="#ffc312" stroke="none" /><line stroke="#e1ed5e" stroke-width="0.3" x1="143.8653032363475" x2="146.44561519142675" y1="172.8068346515853" y2="177.08958963109032" /><path d="M 144.38136562736335 173.6633856474863 a86.0,86.0 0 0,1 -40.68145358897372,12.25698825130547" fill="none" id="id54" stroke="none" /><text fill="#e1ed5e" style="font-size:6.75px; font-family:Arial;" text-anchor="middle"><textPath startOffset="21.466115282336833" xlink:href="#id54">June</textPath></text><path d="M 110.8373102113329 117.98757091392108 l 7.128598708735077 11.831918833159204 a34.8134435541847,34.8134435541847 0 0,0 -0.515955340676293,0.30483550971973555 l -6.923875497030402 -11.952872915172689" fill="#ff8f0d" stroke="none" /><path d="M 110.21172684928248 118.3499491758327 l 2.0504207098213194 3.6845008067308114 a25.216606607458676,25.216606607458676 0 0,0 -0.38110360472807897,0.20780807163414586 l -1.9866942932245908 -3.7192495301247277" fill="#ff0200" stroke="none" /><path d="M 109.89434966115114 118.52300852407294 l 10.684273093179037 20.001807936455467 a43.67655203633221,43.67655203633221 0 0,0 -0.6661903315958153,0.34851929539140486 l -10.338391859056726 -20.18275665079159" fill="#f9ff18" stroke="none" /><path d="M 109.2508944713604 118.85261126421891 l 7.797753076902081 15.891220892025101 a38.701295277110965,38.701295277110965 0 0,0 -0.6005838982282327,0.28831676857294214 l -7.523056510673616 -16.023091937097604" fill="#ffc412" stroke="none" /><path d="M 108.92500713936063 119.00905698771935 l 5.817532275183348 12.390556200135324 a34.6883002860659,34.6883002860659 0 0,0 -0.5426769912572775,0.24911639006062122 l -5.603387288158651 -12.488859660530018" fill="#ff8d0d" stroke="none" /><path d="M 108.2653958097858 119.30500536409082 l 5.2270046470001414 12.208411438566111 a34.28031955312345,34.28031955312345 0 0,0 -0.5444507118339937,0.22758044170287037 l -5.016082475668686 -12.296576923288956" fill="#ff880c" stroke="none" /><path d="M 107.59598834532513 119.57807347666477 l 13.767974131066135 35.48589030270493 a59.063178036644736,59.063178036644736 0 0,0 -0.9510009214632034,0.35958717458326833 l -13.155102988842657 -35.71762572739483" fill="#46ff2c" stroke="none" /><path d="M 106.91757812671514 119.82793768551818 l 4.159280384291888 11.921795571465289 a33.626512699988254,33.626512699988254 0 0,0 -0.5481606225227004,0.18596584504804609 l -3.9534500288319605 -11.991624403411459" fill="#ff7e0b" stroke="none" /><path d="M 106.57524785965236 119.94407469862006 l 4.293422077505303 13.022829322056536 a34.71231405296077,34.71231405296077 0 0,0 -0.5690813709968658,0.1822018839958157 l -4.068619361417497 -13.094804052712057" fill="#ff8e0d" stroke="none" /><path d="M 105.88484417918355 120.15858648285463 l 4.020590218113266 13.772567829519016 a35.3474307916327,35.3474307916327 0 0,0 -0.5855366409518381,0.16547850350040946 l -3.7829224090568223 -13.839735126357944" fill="#ff960d" stroke="none" /><path d="M 105.18746579009965 120.34920634021253 l 3.847488360645821 15.092790528232818 a36.575477283679604,36.575477283679604 0 0,0 -0.6114143409230974,0.1502707693618885 l -3.587120734979513 -15.156782555908737" fill="#ffa70f" stroke="none" /><path d="M 104.48393922423573 120.51570834832081 l 3.044221216618664 13.928456989415151 a35.257250678924706,35.257250678924706 0 0,0 -0.5940150636537342,0.12448163208892202 l -2.804014691535552 -13.978794602230614" fill="#ff950d" stroke="none" /><path d="M 104.13013068566511 120.58985236759428 l 2.749366290561244 13.706357095085512 a34.979386246100916,34.979386246100916 0 0,0 -0.5913721399890925,0.11333787810646508 l -2.5130265360004476 -13.751652171540444" fill="#ff910d" stroke="none" /><path d="M 102.70371172650421 120.8252237178851 l 1.2618446406680683 9.719304274018707 a30.800873811458906,30.800873811458906 0 0,0 -0.5263613789041672,0.06373503267972057 l -1.094355838712521 -9.739584835423779" fill="#ff5607" stroke="none" /><path d="M 101.62511606390274 120.93702456842531 l 1.7160073018769233 22.108012982600588 a43.17451057180138,43.17451057180138 0 0,0 -0.7414445855873975,0.05113435964856419 l -1.3351999555105958 -22.134275686765438" fill="#ffff18" stroke="none" /><path d="M 100.90346689309514 120.98055641714683 l 1.0486440431982988 24.351900083969063 a45.3744680358146,45.3744680358146 0 0,0 -0.7806129454728015,0.026885888194209787 l -0.6293107460508451 -24.366342770589366" fill="#e3ff1b" stroke="none" /><line stroke="#e1ed5e" stroke-width="0.3" x1="102.19456741930631" x2="102.32365962044197" y1="184.97166512339345" y2="189.96999836594603" /><path d="M 102.22038585953345 185.97133177190398 a86.0,86.0 0 0,1 -42.740103519485714,-10.115201625700543" fill="none" id="id55" stroke="none" /><text fill="#e1ed5e" style="font-size:6.75px; font-family:Arial;" text-anchor="middle"><textPath startOffset="22.20632615414155" xlink:href="#id55">July</textPath></text><path d="M 100.18074693466247 120.99922214144158 l 0.19032267029553726 22.111733399804905 a43.112552468289955,43.112552468289955 0 0,0 -0.7421392099159702,0.0 l 0.190322670295522 -22.111733399804905" fill="#fffe18" stroke="none" /><path d="M 99.09653310690486 120.98055641714683 l -0.9408179539909188 21.847933015396695 a42.86818043340169,42.86818043340169 0 0,0 -0.7369487915172107,-0.03809183479238435 l 1.3167548139216183 -21.82850137384211" fill="#fffb17" stroke="none" /><path d="M 97.65516085044442 120.86867818915974 l -7.034517448666748 62.60603456747922 a84.0,84.0 0 0,0 -1.4354903077944439,-0.17381788509860563 l 8.111135179512582 -62.47567115365527" fill="#4dd2ff" stroke="none" /><path d="M 94.11515582081647 120.15858648285463 l -6.355260812393349 21.7700028763553 a43.678676443524225,43.678676443524225 0 0,0 -0.7199182381157645,-0.21690545956492205 l 6.7290540249493604 -21.657382047684653" fill="#f9ff18" stroke="none" /><path d="M 93.42475214034765 119.94407469862007 l -3.0441958419843185 9.233670055591476 a30.722540358357033,30.722540358357033 0 0,0 -0.500821687891582,-0.16990590819625975 l 3.2026872628131264 -9.179901160497094" fill="#ff5507" stroke="none" /><path d="M 91.7346041902142 119.30500536409082 l -11.112895726578701 25.955745683489972 a49.234680543895294,49.234680543895294 0 0,0 -0.7762183246625871,-0.34027130257824695 l 11.558034725899033 -25.760609827617273" fill="#b4ff20" stroke="none" /><path d="M 91.07499286063937 119.00905698771935 l -10.349846560317815 22.043772067315842 a45.3525606616203,45.3525606616203 0 0,0 -0.7038011901606008,-0.33786734120498446 l 10.727760418478656 -21.862350449611295" fill="#e4ff1b" stroke="none" /><path d="M 90.42595943632237 118.69057910512821 l -14.481963486028917 28.271896524034382 a52.76519163292396,52.76519163292396 0 0,0 -0.8048176623789705,-0.4210425629248779 l 14.966472050934383 -28.018424542164787" fill="#8bff24" stroke="none" /><line stroke="#e1ed5e" stroke-width="0.3" x1="58.666819895761336" x2="56.23545636021788" y1="174.27360380694188" y2="178.64263932499728" /><path d="M 58.180547188652646 175.14741091055294 a86.0,86.0 0 0,1 -31.652253787137756,-30.449443065178592" fill="none" id="id56" stroke="none" /><text fill="#e1ed5e" style="font-size:6.75px; font-family:Arial;" text-anchor="middle"><textPath startOffset="22.20632615414155" xlink:href="#id56">August</textPath></text><path d="M 89.4739219176387 118.17145234162733 l -11.928722743954502 20.592875631569466 a44.79833929246797,44.79833929246797 0 0,0 -0.6639372624946519,-0.39226583752228716 l 12.281427877477535 -20.38449122175343" fill="#ebff1a" stroke="none" /><path d="M 88.8546689885994 117.79835938074946 l -5.277513146570175 8.42784081721785 a30.943874790673114,30.943874790673114 0 0,0 -0.44900770304283544,-0.2865779601461308 l 5.421802651659934 -8.335748428247914" fill="#ff5808" stroke="none" /><path d="M 88.24862548938628 117.40417183066458 l -11.843176770712109 17.540133994729114 a42.16405293358025,42.16405293358025 0 0,0 -0.5980129944125193,-0.41131879053053544 l 12.143346649747519 -17.333674414833474" fill="#fff216" stroke="none" /><path d="M 87.95078237400918 117.19931262002967 l -9.194618191307864 13.124595936668685 a37.02485638577612,37.02485638577612 0 0,0 -0.5188287345073115,-0.3701705263136897 l 9.419174253664064 -12.964381148510778" fill="#ffae10" stroke="none" /><path d="M 87.36589467227662 116.77436683061367 l -10.476780298690189 13.910075258620909 a38.41416432469616,38.41416432469616 0 0,0 -0.5247581030326537,-0.40236213657199305 l 10.71466713021633 -13.727673780221549" fill="#ffc011" stroke="none" /><path d="M 87.07902340077011 116.55440617244103 l -8.922205661135983 11.431165077514434 a35.50094096564056,35.50094096564056 0 0,0 -0.47848930199085515,-0.3801408401942148 l 9.117652455844196 -11.275890323315087" fill="#ff990e" stroke="none" /><path d="M 86.51685102203217 116.09983520530335 l -18.148223655588236 21.670264906321307 a49.26585224194369,49.26585224194369 0 0,0 -0.6454636560767775,-0.5500781307436057 l 18.51855278824207 -21.35466238535475" fill="#b4ff20" stroke="none" /><path d="M 85.97065885151581 115.62618273729859 l -12.505419015310487 13.928805399449823 a39.71889752640982,39.71889752640982 0 0,0 -0.504809125927553,-0.4611311676259608 l 12.743327690704895 -13.711481465237284" fill="#ffd213" stroke="none" /><path d="M 85.70375840098266 115.38237550388516 l -7.467313225678411 8.034630308039045 a31.96886735252329,31.96886735252329 0 0,0 -0.3998607556486277,-0.37809330251574647 l 7.604509815717855 -7.90490236877737" fill="#ff6709" stroke="none" /><path d="M 85.18274418774928 114.88116024355367 l -11.184208827694135 11.23244451409675 a36.85100428565123,36.85100428565123 0 0,0 -0.44565038164094123,-0.4514414837544266 l 11.375899834390612 -11.038262536361657" fill="#ffab0f" stroke="none" /><path d="M 84.9287848128048 114.62390073753433 l -8.015926974196713 7.778013845198934 a32.16926965525324,32.16926965525324 0 0,0 -0.38219152504330406,-0.4007262860263227 l 8.148625050618975 -7.638880442590112" fill="#ff6a09" stroke="none" /><path d="M 84.4343377721795 114.09645910891817 l -14.0092949179009 12.686993336011534 a39.90026835800818,39.90026835800818 0 0,0 -0.45665125697637077,-0.5130525281396853 l 14.225605024525608 -12.443966638130982" fill="#ffd413" stroke="none" /><path d="M 84.19399662182784 113.82643327865904 l -12.74522109505932 11.14898844928463 a37.93341679060157,37.93341679060157 0 0,0 -0.42568065734661187,-0.49516277377878587 l 12.93524426197671 -10.927948576344315" fill="#ffba11" stroke="none" /><path d="M 83.95833913139862 113.55231037782056 l -8.282843518323672 6.997508991787362 a31.842999070330194,31.842999070330194 0 0,0 -0.35012742193931284,-0.4217510348166304 l 8.402066940156523 -6.853896699856969" fill="#ff6509" stroke="none" /><path d="M 83.72743513129215 113.27417163493433 l -11.414881415160007 9.311568048417184 a35.731083369612335,35.731083369612335 0 0,0 -0.3846741872735179,-0.47994019498392637 l 11.573473514488382 -9.113700019855" fill="#ff9c0e" stroke="none" /><path d="M 83.50135304334701 112.99209946851258 l -14.10843007973953 11.109888430373191 a38.95765631284437,38.95765631284437 0 0,0 -0.4103413330267931,-0.5304214875054746 l 14.297578229984392 -10.865388948754463" fill="#ffc812" stroke="none" /><path d="M 83.28015986056508 112.70617746262583 l -13.070498800738353 9.932874710656925 a37.41645329898363,37.41645329898363 0 0,0 -0.38528030791117746,-0.5161459340550963 l 13.239540375344616 -9.706415897092521" fill="#ffb310" stroke="none" /><path d="M 82.85270091963577 112.12312394758628 l -15.362742971966439 10.861444496371561 a39.81448506259112,39.81448506259112 0 0,0 -0.39082484917187166,-0.5630123443267191 l 15.547428728300444 -10.59539088985783" fill="#ffd313" stroke="none" /><path d="M 82.6465618267979 111.8261652097733 l -12.823804077393701 8.739272536275635 a36.518532001406605,36.518532001406605 0 0,0 -0.34952912034483774,-0.5224986101817195 l 12.97233630314927 -8.517237011888096" fill="#ffa70f" stroke="none" /><path d="M 82.44556493220864 111.52570212397912 l -6.139331819993708 4.0308964386637385 a28.34435302087388,28.34435302087388 0 0,0 -0.26427078439101187,-0.41015412605927704 l 6.207807467761765 -3.924620712683013" fill="#ff3204" stroke="none" /><path d="M 82.24976979558568 111.22182372390057 l -16.27142379784392 10.286911634017873 a40.250448913600266,40.250448913600266 0 0,0 -0.36519684701330285,-0.5888135985930009 l 16.44608528452518 -10.005301704059608" fill="#ffd914" stroke="none" /><path d="M 82.05923443525364 110.91462005526583 l -7.3639188430614775 4.47998587349943 a29.619604060161368,29.619604060161368 0 0,0 -0.2612436726756278,-0.4378594221123303 l 7.439943391435337 -4.352564357500989" fill="#ff4406" stroke="none" /><line stroke="#e1ed5e" stroke-width="0.3" x1="26.63291911575756" x2="22.317208475507996" y1="142.92168965132927" y2="145.44649492493687" /><path d="M 25.769776987707644 143.4266507060508 a86.0,86.0 0 0,1 -11.730757126820373,-40.83630448921669" fill="none" id="id57" stroke="none" /><text fill="#e1ed5e" style="font-size:6.75px; font-family:Arial;" text-anchor="middle"><textPath startOffset="21.46611528233685" xlink:href="#id57">September</textPath></text><path d="M 81.87401531095188 110.60418214915194 l -23.70637393814406 13.868857976465021 a48.465203200895374,48.465203200895374 0 0,0 -0.4150652405595453,-0.7237012328688186 l 23.941591174855986 -13.458736897737895" fill="#beff1f" stroke="none" /><path d="M 81.35079622478065 109.6543875284942 l -15.25434049813887 7.896922379942391 a38.1772025402274,38.1772025402274 0 0,0 -0.2970937725220514,-0.5861941984795181 l 15.388012940447187 -7.633173969760188" fill="#ffbd11" stroke="none" /><path d="M 81.18737489456691 109.33194174019688 l -9.839265172917989 4.880735614802711 a31.98329273417587,31.98329273417587 0 0,0 -0.24040279051560867,-0.4953009534166313 l 9.921821220048317 -4.710645705420794" fill="#ff6709" stroke="none" /><path d="M 81.02952815118164 109.00673069616217 l -17.08407257743953 8.111113003668978 a39.91178706493676,39.91178706493676 0 0,0 -0.28931367040796413,-0.6231559075063471 l 17.22116086468732 -7.815837028883804" fill="#ffd413" stroke="none" /><path d="M 80.87730276802145 108.67885076344099 l -24.878917103864868 11.291315554553831 a48.321316278933,48.321316278933 0 0,0 -0.3372342713427276,-0.760374254630285 l 25.069592459938875 -10.86139296343085" fill="#bfff1e" stroke="none" /><path d="M 80.58989483394504 108.01547362559985 l -13.787527829879702 5.693609835555888 a35.91687355377279,35.91687355377279 0 0,0 -0.23106074862679377,-0.573473828937621 l 13.883491192763882 -5.455436638775462" fill="#ff9e0e" stroke="none" /><path d="M 80.20201598880116 107.00284435728193 l -20.967590041170034 7.416551580330179 a43.24061756063151,43.24061756063151 0 0,0 -0.24216633813369123,-0.7038487341666763 l 21.092147210246953 -7.0545301430742064" fill="#feff18" stroke="none" /><path d="M 80.0844068197444 106.66101706037122 l -19.996271610003614 6.688000961482853 a42.08507138147348,42.08507138147348 0 0,0 -0.22386802808785095,-0.6889949445458666 l 20.108431889107717 -6.342807116959182" fill="#fff116" stroke="none" /><path d="M 79.86692584326677 105.97154293290107 l -23.257896459562037 6.89837657955451 a45.259376479148315,45.259376479148315 0 0,0 -0.21510566774108936,-0.7488110486192001 l 23.373194764189233 -6.497008055430714" fill="#e5ff1a" stroke="none" /><path d="M 79.76711848015287 105.62410040840567 l -14.087991176809886 3.916015464895119 a35.622129548023125,35.622129548023125 0 0,0 -0.15913240465250633,-0.5921908764195436 l 14.153311657804165 -3.6729336553000365" fill="#ff9a0e" stroke="none" /><path d="M 79.67330655649465 105.27499134158121 l -46.19184431826301 11.987270802687181 a68.72191470194383,68.72191470194383 0 0,0 -0.28728602718145635,-1.1475648718704183 l 46.391341659739524 -11.19037809141937" fill="#39ff8a" stroke="none" /><path d="M 79.58551787078972 104.9243191809786 l -16.742687299156504 4.038620019186966 a38.22289260422634,38.22289260422634 0 0,0 -0.14877702904602996,-0.6409275472736892 l 16.80972489413309 -3.749823814564702" fill="#ffbe11" stroke="none" /><path d="M 79.4281124754447 104.21870165774334 l -16.496699787401074 3.3829980188902278 a37.84000532872403,37.84000532872403 0 0,0 -0.12535865271049856,-0.6392010694304912 l 16.55248837308724 -3.098533222391782" fill="#ffb911" stroke="none" /><path d="M 79.35854240842038 103.8639653848113 l -18.932505088188705 3.544059036720701 a40.26136296761091,40.26136296761091 0 0,0 -0.12165365316991195,-0.682298292861757 l 18.990705183697806 -3.21764199312573" fill="#ffd914" stroke="none" /><path d="M 79.23777060512086 103.15116336523772 l -18.83046938290251 2.857972722537603 a40.04611732777045,40.04611732777045 0 0,0 -0.09757131410361873,-0.6824135435879438 l 18.87687474802273 -2.533413706969259" fill="#ffd614" stroke="none" /><path d="M 79.18660465613746 102.79330883721812 l -29.64169498833177 3.978130775546283 a50.90745068120386,50.90745068120386 0 0,0 -0.1090837356545089,-0.8695047016112948 l 29.705780233233128 -3.4673083196475796" fill="#a1ff22" stroke="none" /><path d="M 79.10278846688536 102.07522291339032 l -8.614547055042811 0.8554780339364916 a29.656919985196502,29.656919985196502 0 0,0 -0.046074713699786135,-0.5084306263331777 l 8.627996365019673 -0.707066019054748" fill="#ff4506" stroke="none" /><path d="M 79.07016306316243 101.71520430193888 l -18.98006805047508 1.5554203537042204 a40.04369490612004,40.04369490612004 0 0,0 -0.05038534396262459,-0.6874679870278138 l 19.00402995310204 -1.2284792301796457" fill="#ffd614" stroke="none" /><path d="M 79.04373962182676 101.35467743843564 l -23.336442484733155 1.508539766014051 a44.38514999030163,44.38514999030163 0 0,0 -0.04272313560515409,-0.7628502860092258 l 23.35895197122584 -1.1066177636693877" fill="#f0ff19" stroke="none" /><line stroke="#e1ed5e" stroke-width="0.3" x1="15.007084014347285" x2="10.007500721073583" y1="101.09737516637583" y2="101.16192664675087" /><path d="M 14.007167355692545 101.11028546245083 a86.0,86.0 0 0,1 10.666146001902534,-42.60595125391555" fill="none" id="id58" stroke="none" /><text fill="#e1ed5e" style="font-size:6.75px; font-family:Arial;" text-anchor="middle"><textPath startOffset="22.20632615414155" xlink:href="#id58">October</textPath></text><path d="M 79.00175016825051 100.2711162175752 l -12.907472279402445 0.16665317780709693 a33.908548095166076,33.908548095166076 0 0,0 -0.0025119819133651096,-0.583696130679874 l 12.908428558605312 0.055552431076452434" fill="#ff820c" stroke="none" /><path d="M 79.00019446554 99.90962569577889 l -14.629524739509428 -0.06295930299208022 a35.62966021402246,35.62966021402246 0 0,0 0.007918255743669344,-0.6132776335711658 l 14.626273476648043 0.314773194623718" fill="#ff9a0e" stroke="none" /><path d="M 79.03285615573316 98.82574320788736 l -16.531473215629603 -0.9258387719026069 a37.557378539812305,37.557378539812305 0 0,0 0.04170551766533136,-0.6451658989836067 l 16.51308710695986 1.2102637351392256" fill="#ffb510" stroke="none" /><path d="M 79.08570108090925 98.10471618934814 l -14.301132711495189 -1.2959891893549955 a35.359734844721984,35.359734844721984 0 0,0 0.060150064941320136,-0.6057029453071271 l 14.276705520871639 1.541967665366553" fill="#ff970d" stroke="none" /><path d="M 79.21141760316559 97.0276538004421 l -20.03134493184394 -2.8640765802898747 a41.235061513034125,41.235061513034125 0 0,0 0.10651233670237861,-0.7017832183488145 l 19.97907670170226 3.2084589110307804" fill="#ffe615" stroke="none" /><path d="M 79.32604984820605 96.31383870115002 l -21.271827771500032 -3.792762762383932 a42.607306775997934,42.607306775997934 0 0,0 0.13495210315980716,-0.7209195313233125 l 21.203389944430363 4.158360371169817" fill="#fff817" stroke="none" /><path d="M 79.46518482838121 95.60439243477599 l -56.43290290573034 -12.079821165511149 a78.71130400327408,78.71130400327408 0 0,0 0.29500102054507904,-1.3224317312164182 l 56.21660749818322 13.049431066277526" fill="#46fff8" stroke="none" /><path d="M 79.71946130924805 94.55025226153421 l -16.159817185836793 -4.342435302406128 a37.73309403055063,37.73309403055063 0 0,0 0.17395536617241816,-0.6258100065652837 l 16.082675049098015 4.619956612390354" fill="#ffb711" stroke="none" /><path d="M 79.91906864156998 93.8553929516997 l -4.855689013566801 -1.485802645532752 a26.07792529464007,26.07792529464007 0 0,0 0.13503958907116928,-0.4281124002510267 l 4.829393940727428 1.5691652122101931" fill="#ff0f01" stroke="none" /><path d="M 80.14247586403 93.16781622104843 l -16.197253245120294 -5.5728302343808735 a38.12914036102774,38.12914036102774 0 0,0 0.21887382866153524,-0.6187857874929122 l 16.098926335648947 5.850813648300397" fill="#ffbd11" stroke="none" /><path d="M 80.52162464483688 92.15188598940014 l -27.46386746966459 -11.065582172221525 a50.60930808380175,50.60930808380175 0 0,0 0.3325231884409324,-0.805231276312427 l 27.269322594337456 11.536688018987263" fill="#a4ff21" stroke="none" /><path d="M 81.26839172434947 90.50648371742162 l -20.225538873413306 -10.250667203427993 a43.674845111607425,43.674845111607425 0 0,0 0.3456355840829648,-0.6676579348514678 l 20.046093856170227 10.597297860539795" fill="#f9ff18" stroke="none" /><path d="M 81.6062741919709 89.86733742301443 l -9.306301962715528 -5.126618642242281 a31.624945878649406,31.624945878649406 0 0,0 0.2667675003306276,-0.47454961637058873 l 9.21667682109247 5.286051768547655" fill="#ff6209" stroke="none" /><line stroke="#e1ed5e" stroke-width="0.3" x1="26.266209847984243" x2="21.928928074336255" y1="57.71137044288968" y2="55.22380399835378" /><path d="M 25.398753493254645 57.2138571539825 a86.0,86.0 0 0,1 29.58750427330803,-30.4925239686951" fill="none" id="id59" stroke="none" /><text fill="#e1ed5e" style="font-size:6.75px; font-family:Arial;" text-anchor="middle"><textPath startOffset="21.46611528233685" xlink:href="#id59">November</textPath></text><path d="M 82.34701348167596 88.62581576622439 l -3.4230406900087713 -2.2055358965722762 a25.072050608296095,25.072050608296095 0 0,0 0.23687519996011655,-0.360777180612608 l 3.3845688546907344 2.2641311411625535" fill="#ff0000" stroke="none" /><path d="M 82.54541684631803 88.32363383020207 l -15.931435583343534 -10.657445889358126 a40.16746703742623,40.16746703742623 0 0,0 0.3893863602322525,-0.5713764358876415 l 15.74562475744254 10.93010034851618" fill="#ffd814" stroke="none" /><path d="M 82.95767976084542 87.72973835380427 l -11.057306436761866 -7.961125080229264 a34.62510690525072,34.62510690525072 0 0,0 0.3524133281602115,-0.4806913835604648 l 10.91863049608802 8.150278907461232" fill="#ff8c0c" stroke="none" /><path d="M 83.39014120810768 87.1503855733568 l -15.201982328490745 -11.760461897310032 a40.22000860441602,40.22000860441602 0 0,0 0.42833527632633417,-0.5439423028061006 l 14.997292971570438 12.020396594069178" fill="#ffd814" stroke="none" /><path d="M 84.31358615837235 86.03803664274999 l -10.503930236791277 -9.349204385007672 a35.06201170003868,35.06201170003868 0 0,0 0.4051438148480487,-0.4473699194165514 l 10.341442781327183 9.52862709169378" fill="#ff920d" stroke="none" /><path d="M 86.10567301691215 84.25364557470405 l -38.08150962488022 -43.15753820487813 a78.55670663975971,78.55670663975971 0 0,0 1.0216344638668837,-0.8859513397121768 l 37.33298136236657 43.80665453800999" fill="#46fff6" stroke="none" /><path d="M 87.80319425747018 82.90503203632743 l -5.024613676583282 -7.04246764638608 a29.65119027355788,29.65119027355788 0 0,0 0.4180378149657304,-0.29286220442029826 l 4.902644722033892 7.127914693570321" fill="#ff4506" stroke="none" /><path d="M 88.39885842347998 82.49532879139004 l -12.334944806960083 -18.61188847649216 a43.328306161734105,43.328306161734105 0 0,0 0.625233594472342,-0.4066693218487067 l 12.012744186703452 18.8214567225004" fill="#fdff18" stroke="none" /><line stroke="#e1ed5e" stroke-width="0.3" x1="56.76296977257108" x2="54.21961505331056" y1="26.818313649435495" y2="22.513508569990535" /><path d="M 56.25429882871898 25.957352633546506 a86.0,86.0 0 0,1 42.26535254187918,-11.944610805530505" fill="none" id="id60" stroke="none" /><text fill="#e1ed5e" style="font-size:6.75px; font-family:Arial;" text-anchor="middle"><textPath startOffset="22.20632615414155" xlink:href="#id60">December</textPath></text><path d="M 89.63071344664047 81.73862282372117 l -9.855190025516935 -17.356000460953393 a40.9588457191207,40.9588457191207 0 0,0 0.6160910810516571,-0.342854019577589 l 9.554974855393231 17.523069878091164" fill="#ffe215" stroke="none" /><path d="M 90.26544431104013 81.39251694778311 l -12.764113011185433 -24.398444481813996 a48.535552910636696,48.535552910636696 0 0,0 0.743609768003712,-0.3809058051315867 l 12.342242755592956 24.614542812258087" fill="#bdff1f" stroke="none" /><path d="M 92.57280143429618 80.3572730644239 l -7.496723644031323 -19.826600049601627 a42.19657837769675,42.19657837769675 0 0,0 0.6816107227446584,-0.2510429815363727 l 7.154330595514097 19.95270629894432" fill="#fff216" stroke="none" /></svg>