<?xml version="1.0" encoding="utf-8" ?>
<svg baseProfile="full" height="200mm" version="1.1" viewBox="0,0,200,200" width="200mm" xmlns="http://www.w3.org/2000/svg" xmlns:ev="http://www.w3.org/2001/xml-events" xmlns:xlink="http://www.w3.org/1999/xlink"><defs /><rect fill="#1a1a1a" height="200" width="200" x="0" y="0" /><text alignment-baseline="middle" fill="#e1ed5e" style="dominant-baseline: central; font-size:9.0px; font-family:Arial;" text-anchor="middle" x="100.0" y="100.0">2018</text><line stroke="#e1ed5e" stroke-width="0.3" x1="100.0" x2="100.0" y1="15.0" y2="10.0" /><path d="M 100.0 14.0 a86.0,86.0 0 0,1 42.46469731375804,11.215312516191453" fill="none" id="id1" stroke="none" /><text fill="#e1ed5e" style="font-size:6.75px; font-family:Arial;" text-anchor="middle"><textPath startOffset="22.20632615414155" xlink:href="#id1">January</textPath></text><line stroke="#e1ed5e" stroke-width="0.3" x1="143.23703022742887" x2="145.7803849466894" y1="26.81831364943548" y2="22.513508569990506" /><path d="M 143.74570117128098 25.957352633546492 a86.0,86.0 0 0,1 28.547481713284135,27.462654790039103" fill="none" id="id2" stroke="none" /><text fill="#e1ed5e" style="font-size:6.75px; font-family:Arial;" text-anchor="middle"><textPath startOffset="19.985693538727396" xlink:href="#id2">February</textPath></text><line stroke="#e1ed5e" stroke-width="0.3" x1="172.23445277983987" x2="176.4835382374775" y1="55.19839476539836" y2="52.563006222186495" /><path d="M 173.08426987136738 54.67131705675599 a86.0,86.0 0 0,1 12.851231095245387,41.99856678651699" fill="none" id="id3" stroke="none" /><text fill="#e1ed5e" style="font-size:6.75px; font-family:Arial;" text-anchor="middle"><textPath startOffset="22.20632615414155" xlink:href="#id3">March</textPath></text><line stroke="#e1ed5e" stroke-width="0.3" x1="184.98032266829074" x2="189.97916517819016" y1="98.17113171792111" y2="98.06355123074" /><path d="M 185.9800911702706 98.14961562048488 a86.0,86.0 0 0,1 -9.607161424134198,41.387399972396054" fill="none" id="id4" stroke="none" /><text fill="#e1ed5e" style="font-size:6.75px; font-family:Arial;" text-anchor="middle"><textPath startOffset="21.466115282336823" xlink:href="#id4">April</textPath></text><line stroke="#e1ed5e" stroke-width="0.3" x1="174.80103733775053" x2="179.2010983576182" y1="140.37084112569926" y2="142.7455964860345" /><path d="M 175.68104954172406 140.8457921977663 a86.0,86.0 0 0,1 -30.038265399797805,32.042727171017184" fill="none" id="id5" stroke="none" /><text fill="#e1ed5e" style="font-size:6.75px; font-family:Arial;" text-anchor="middle"><textPath startOffset="22.206326154141568" xlink:href="#id5">May</textPath></text><line stroke="#e1ed5e" stroke-width="0.3" x1="143.8653032363475" x2="146.44561519142675" y1="172.8068346515853" y2="177.08958963109032" /><path d="M 144.38136562736335 173.6633856474863 a86.0,86.0 0 0,1 -40.68145358897372,12.25698825130547" fill="none" id="id6" stroke="none" /><text fill="#e1ed5e" style="font-size:6.75px; font-family:Arial;" text-anchor="middle"><textPath startOffset="21.466115282336833" xlink:href="#id6">June</textPath></text><line stroke="#e1ed5e" stroke-width="0.3" x1="102.19456741930631" x2="102.32365962044197" y1="184.97166512339345" y2="189.96999836594603" /><path d="M 102.22038585953345 185.97133177190398 a86.0,86.0 0 0,1 -42.740103519485714,-10.115201625700543" fill="none" id="id7" stroke="none" /><text fill="#e1ed5e" style="font-size:6.75px; font-family:Arial;" text-anchor="middle"><textPath startOffset="22.20632615414155" xlink:href="#id7">July</textPath></text><line stroke="#e1ed5e" stroke-width="0.3" x1="58.666819895761336" x2="56.23545636021788" y1="174.27360380694188" y2="178.64263932499728" /><path d="M 58.180547188652646 175.14741091055294 a86.0,86.0 0 0,1 -31.652253787137756,-30.449443065178592" fill="none" id="id8" stroke="none" /><text fill="#e1ed5e" style="font-size:6.75px; font-family:Arial;" text-anchor="middle"><textPath startOffset="22.20632615414155" xlink:href="#id8">August</textPath></text><line stroke="#e1ed5e" stroke-width="0.3" x1="26.63291911575756" x2="22.317208475507996" y1="142.92168965132927" y2="145.44649492493687" /><path d="M 25.769776987707644 143.4266507060508 a86.0,86.0 0 0,1 -11.730757126820373,-40.83630448921669" fill="none" id="id9" stroke="none" /><text fill="#e1ed5e" style="font-size:6.75px; font-family:Arial;" text-anchor="middle"><textPath startOffset="21.46611528233685" xlink:href="#id9">September</textPath></text><path d="M 79.4281124754447 104.21870165774334 l -8.499789416131208 1.7430620139985034 a29.676674783764838,29.676674783764838 0 0,0 -0.09831467875075567,-0.5013044288480554 l 8.52853402785763 -1.5964938580824937" fill="#ff5b08" stroke="none" /><path d="M 79.29508885075956 103.50808413554451 l -9.250558010040777 1.5673448471257379 a30.38239806056752,30.38239806056752 0 0,0 -0.08292694072041203,-0.5163861390259596 l 9.27616670512248 -1.4078794784065638" fill="#ff6509" stroke="none" /><path d="M 79.23777060512086 103.15116336523772 l -26.766181972408724 4.062406327113588 a48.072710291854236,48.072710291854236 0 0,0 -0.11712789725175378,-0.8191922405768792 l 26.832143920677076 -3.6010686145563087" fill="#b6ff1f" stroke="none" /><path d="M 79.18660465613746 102.79330883721812 l -4.320992980867349 0.5799086443900856 a25.35973329190482,25.35973329190482 0 0,0 -0.054340463049436995,-0.43314695656251373 l 4.330334953163634 -0.5054439335401631" fill="#ff1d02" stroke="none" /><path d="M 79.1416061653843 102.43462659150553 l -4.00330862903376 0.46727287438950216 a25.03048680911331,25.03048680911331 0 0,0 -0.04626789953514564,-0.4283832868671318 l 4.010758830069957 -0.39829326563758827" fill="#ff1802" stroke="none" /><path d="M 79.10278846688536 102.07522291339032 l -18.715122926032297 1.8585279601287525 a39.80717821245601,39.80717821245601 0 0,0 -0.061844060011989894,-0.6824440488499139 l 18.74434158232136 -1.5361025227302727" fill="#ffe315" stroke="none" /><path d="M 79.07016306316243 101.71520430193888 l -2.5449554092269575 0.2085596022234589 a23.553486859694633,23.553486859694633 0 0,0 -0.029636389442261404,-0.4043649877185934 l 2.5481683573335543 -0.16472147800810452" fill="#ff0200" stroke="none" /><path d="M 79.04373962182676 101.35467743843564 l -2.4000037153624456 0.1551436576322321 a23.405012970496635,23.405012970496635 0 0,0 -0.02252860569801857,-0.4022633885994369 l 2.4023186719479956 -0.11380855269735773" fill="#ff0000" stroke="none" /><path d="M 79.0235259727143 100.99374915477108 l -12.539889293541325 0.5940704987010667 a33.5539532917603,33.5539532917603 0 0,0 -0.02236589430928915,-0.5771643515054008 l 12.548257320701815 -0.37812890018166895" fill="#ff910d" stroke="none" /><line stroke="#e1ed5e" stroke-width="0.3" x1="15.007084014347285" x2="10.007500721073583" y1="101.09737516637583" y2="101.16192664675087" /><path d="M 14.007167355692545 101.11028546245083 a86.0,86.0 0 0,1 10.666146001902534,-42.60595125391555" fill="none" id="id10" stroke="none" /><text fill="#e1ed5e" style="font-size:6.75px; font-family:Arial;" text-anchor="middle"><textPath startOffset="22.20632615414155" xlink:href="#id10">October</textPath></text><path d="M 79.00175016825051 100.2711162175752 l -16.99785344170913 0.21946561113135848 a37.99927018375472,37.99927018375472 0 0,0 -0.002815027029608312,-0.6541131431716672 l 16.99911276602824 0.07315701024398416" fill="#ffcc13" stroke="none" /><path d="M 79.01574976396665 99.18683210126434 l -11.407311726518055 -0.4420486604256546 a32.41587350333475,32.41587350333475 0 0,0 0.026405649123875705,-0.557381518627032 l 11.39801246916068 0.6383412856756955" fill="#ff810b" stroke="none" /><path d="M 79.03285615573316 98.82574320788736 l -20.945584461293688 -1.1730493671968798 a41.97840683281427,41.97840683281427 0 0,0 0.04661483990083488,-0.7211109410493894 l 20.92228903038844 1.5334193724992813" fill="#fffe18" stroke="none" /><path d="M 79.05617556472873 98.46500227214037 l -5.536294041075099 -0.40576155515806267 a26.55114349921599,26.55114349921599 0 0,0 0.03733029604747412,-0.45552416595174744 l 5.528489261208128 0.5009996383175882" fill="#ff2e04" stroke="none" /><path d="M 79.08570108090925 98.10471618934814 l -23.90034172160343 -2.165883298753739 a44.998278789805696,44.998278789805696 0 0,0 0.07654608846306019,-0.7708086646131872 l 23.85951850745814 2.576967494071357" fill="#dbff1b" stroke="none" /><path d="M 79.12142395522702 97.74499172005258 l -11.304900077465868 -1.220995302744603 a32.370646212542724,32.370646212542724 0 0,0 0.06460201694349414,-0.5534706293849554 l 11.282207707518786 1.4154096704544201" fill="#ff810b" stroke="none" /><path d="M 79.16333360222342 97.38593545837743 l -22.041718338880003 -2.7652443652045164 a43.21449805261902,43.21449805261902 0 0,0 0.09894885547987475,-0.737283905196946 l 21.990853484342292 3.1442466124661226" fill="#f0ff19" stroke="none" /><path d="M 79.21141760316559 97.0276538004421 l -10.449398043893277 -1.494052262465165 a31.55566727605119,31.55566727605119 0 0,0 0.08150995134838307,-0.5370487377866918 l 10.422132199105592 1.6737001126439484" fill="#ff750a" stroke="none" /><path d="M 79.26566170972629 96.67025291283419 l -12.618661694319993 -2.026442871355222 a33.780340123273916,33.780340123273916 0 0,0 0.09713961225039199,-0.5733234902599933 l 12.581910220549378 2.243352149931044" fill="#ff940d" stroke="none" /><path d="M 79.32604984820605 96.31383870115002 l -21.587674183023857 -3.8490781162467127 a42.92813441625539,42.92813441625539 0 0,0 0.1359682754570182,-0.7263479643680472 l 21.51822018365698 4.220104158077332" fill="#f4ff19" stroke="none" /><path d="M 79.3925641242962 95.95851677861259 l -11.531570647725262 -2.2615452776428215 a32.75124285538799,32.75124285538799 0 0,0 0.11325801503891808,-0.5522863040951107 l 11.490933336771349 2.459707237901335" fill="#ff860c" stroke="none" /><path d="M 79.62865764111835 94.90015583598534 l -9.000089407072775 -2.2531187503340333 a30.277831289606983,30.277831289606983 0 0,0 0.13092086400515698,-0.5044914949934256 l 8.95997221119731 2.407706670876323" fill="#ff6409" stroke="none" /><path d="M 79.71946130924805 94.55025226153421 l -10.619069195347143 -2.8535360531791216 a31.995785491831118,31.995785491831118 0 0,0 0.1475054915109596,-0.5306557345255699 l 10.568376933269823 3.035903091123634" fill="#ff7b0b" stroke="none" /><path d="M 79.81627453868168 94.20196356495316 l -4.792495377916141 -1.3767063404228672 a25.986314500220388,25.986314500220388 0 0,0 0.12720189935348553,-0.4288615691685086 l 4.768087581450948 1.458997296337915" fill="#ff2603" stroke="none" /><path d="M 80.2630227832202 92.82701384747504 l -11.058681488100676 -4.019043458787168 a32.76635655497829,32.76635655497829 0 0,0 0.1972151009556606,-0.5284384213818153 l 10.987861798643388 4.208805017198325" fill="#ff860c" stroke="none" /><path d="M 80.38941819471856 92.48833698450439 l -26.267893313369058 -10.06168836071344 a49.12898490508776,49.12898490508776 0 0,0 0.3092937472484589,-0.7871188504656094 l 26.090806016238908 10.512356216074812" fill="#aaff21" stroke="none" /><path d="M 80.52162464483688 92.15188598940014 l -4.578208513306995 -1.8446252175342808 a25.9358520424016,25.9358520424016 0 0,0 0.17040881495141352,-0.41265846211079993 l 4.545778011469382 1.923158250098392" fill="#ff2503" stroke="none" /><path d="M 80.65960295795068 91.81776055985345 l -26.18244454226989 -11.076868272530055 a49.42916483008288,49.42916483008288 0 0,0 0.33825858051430197,-0.7807474407861206 l 25.98789525191291 11.525914857902773" fill="#a7ff21" stroke="none" /><path d="M 80.803312248108 91.48605970444005 l -9.215841643316411 -4.087326237662938 a31.081565997788875,31.081565997788875 0 0,0 0.22111971167715855,-0.4872079741521285 l 9.144119614675901 4.245356220657139" fill="#ff6f0a" stroke="none" /><path d="M 80.95270993114464 91.15688171328213 l -9.897087036753158 -4.594937707336013 a31.911726918658005,31.911726918658005 0 0,0 0.23560246567131116,-0.49623887882361895 l 9.816526377240095 4.764619001800162" fill="#ff7a0b" stroke="none" /><path d="M 81.26839172434947 90.50648371742162 l -4.705607499816666 -2.3848865917724313 a26.275455051267784,26.275455051267784 0 0,0 0.20793965566410183,-0.40167322887997203 l 4.663858410992449 2.465532542912739" fill="#ff2a04" stroke="none" /><path d="M 81.43458229118936 90.18545643968196 l -12.084357576095728 -6.388353641661691 a34.66904386845965,34.66904386845965 0 0,0 0.28344733524066773,-0.5251848640113215 l 11.972602141636589 6.595419489005486" fill="#ffa00e" stroke="none" /><path d="M 81.6062741919709 89.86733742301443 l -5.579582566710337 -3.073658271247481 a27.37017399975432,27.37017399975432 0 0,0 0.23087700859776514,-0.41070443634651277 l 5.525847916820141 3.1692462175287797" fill="#ff3a05" stroke="none" /><line stroke="#e1ed5e" stroke-width="0.3" x1="26.266209847984243" x2="21.928928074336255" y1="57.71137044288968" y2="55.22380399835378" /><path d="M 25.398753493254645 57.2138571539825 a86.0,86.0 0 0,1 29.58750427330803,-30.4925239686951" fill="none" id="id11" stroke="none" /><text fill="#e1ed5e" style="font-size:6.75px; font-family:Arial;" text-anchor="middle"><textPath startOffset="21.46611528233685" xlink:href="#id11">November</textPath></text><path d="M 81.78341655067845 89.55222093294921 l -12.6036680272261 -7.228596918255515 a35.52945495010513,35.52945495010513 0 0,0 0.3088361082135293,-0.5279010196322749 l 12.477372244542245 7.444477350241681" fill="#ffab0f" stroke="none" /><path d="M 81.96595687620814 89.24020034530311 l -25.604383652634752 -15.276554264245298 a50.81539153557674,50.81539153557674 0 0,0 0.4546385368302459,-0.7473062153945973 l 25.337629317518292 15.71502825284697" fill="#97ff23" stroke="none" /><path d="M 82.34701348167596 88.62581576622439 l -9.356991073194237 -6.028902827849048 a32.13108041707915,32.13108041707915 0 0,0 0.3035673554444639,-0.4623539089010559 l 9.251827082391852 6.189074800727774" fill="#ff7d0b" stroke="none" /><path d="M 82.54541684631803 88.32363383020207 l -8.0661877782739 -5.395933048885633 a30.704611210266563,30.704611210266563 0 0,0 0.2976527444554095,-0.43676867406877384 l 7.97211056814975 5.53397974622482" fill="#ff6a09" stroke="none" /><path d="M 82.7489923806493 88.02491185347247 l -15.212956469176797 -10.560339355674982 a39.51903917162243,39.51903917162243 0 0,0 0.39272022631399045,-0.5554749093244297 l 15.028923623058928 10.820640765331198" fill="#ffdf14" stroke="none" /><path d="M 82.95767976084542 87.72973835380427 l -4.655737615550301 -3.352074007363656 a26.736923643878576,26.736923643878576 0 0,0 0.27212762900309867,-0.37118178013704634 l 4.597347374033569 3.4317182311722054" fill="#ff3104" stroke="none" /><path d="M 83.17141714833178 87.43820079747577 l -9.340051357324544 -6.971938797588302 a32.65523444443642,32.65523444443642 0 0,0 0.3401183547914596,-0.44755588668014706 l 9.218657062308976 7.131679460149475" fill="#ff850c" stroke="none" /><path d="M 83.39014120810768 87.1503855733568 l -6.705070331959586 -5.1871343127408664 a29.477283204832684,29.477283204832684 0 0,0 0.3139273382827001,-0.39865583979869684 l 6.614788913082915 5.301782546492609" fill="#ff5808" stroke="none" /><path d="M 83.84228863543731 86.58626213691792 l -4.972654732398672 -4.1281766680336816 a27.46290474091523,27.46290474091523 0 0,0 0.3050859142318887,-0.3611254933996126 l 4.900858204679659 4.213161111062409" fill="#ff3c05" stroke="none" /><path d="M 84.07557802195018 86.31012108654704 l -9.684070543440596 -8.325184632244595 a33.770666445072294,33.770666445072294 0 0,0 0.3827473041107575,-0.43754633316016317 l 9.539331375751996 8.490646521607701" fill="#ff940d" stroke="none" /><path d="M 84.5562425177563 85.77008943001954 l -8.777886433029922 -8.087962989516823 a32.93593044345369,32.93593044345369 0 0,0 0.3877542041395128,-0.41362914959599745 l 8.63736490691995 8.237861555990873" fill="#ff880c" stroke="none" /><path d="M 84.80347519578584 85.50635884689758 l -6.635921613477964 -6.3289908597519995 a30.17014618002616,30.17014618002616 0 0,0 0.36166209346730976,-0.37272457831359623 l 6.525995256307538 6.442279633615717" fill="#ff6209" stroke="none" /><path d="M 85.05521093208273 85.24692304244772 l -4.14705990781038 -4.093861324469842 a26.8273327022711,26.8273327022711 0 0,0 0.32724772453916895,-0.3258424188110104 l 4.075976383103898 4.164639593930964" fill="#ff3204" stroke="none" /><path d="M 85.57189188830299 84.74124197986013 l -33.13821298295794 -35.04603439427228 a69.2324132349647,69.2324132349647 0 0,0 0.8729617719273958,-0.8113228281956918 l 32.53004332723569 35.61126180854262" fill="#3aff95" stroke="none" /><path d="M 86.10567301691215 84.25364557470405 l -3.6990328658366542 -4.1920909596542115 a26.5907486758532,26.5907486758532 0 0,0 0.3458142077143145,-0.29988667322006246 l 3.626324859475566 4.255142626293955" fill="#ff2f04" stroke="none" /><path d="M 86.37877921826538 84.01681056812373 l -5.2233741426181615 -6.129125996326346 a29.052938774920335,29.052938774920335 0 0,0 0.3834191909836947,-0.32110254590320825 l 5.1170974146753565 6.218129699623369" fill="#ff5207" stroke="none" /><path d="M 86.65592168130627 83.78471172551755 l -3.254349280767192 -3.9545789880121442 a26.12147285589381,26.12147285589381 0 0,0 0.349650344965781,-0.28272626241071824 l 3.1857955372369107 4.010011347686997" fill="#ff2803" stroke="none" /><path d="M 86.93701828274178 83.55741782278169 l -2.4078557136865673 -3.0308061589697917 a24.87085973798874,24.87085973798874 0 0,0 0.33749454050109373,-0.2634198421107989 l 2.3553286180260478 3.0718043903038126" fill="#ff1602" stroke="none" /><path d="M 87.22198572758235 83.33499621200491 l -3.070509989284768 -4.0045393213374325 a26.04622302028311,26.04622302028311 0 0,0 0.35814033700826253,-0.2697438768067761 l 3.0011234985181154 4.056799787650063" fill="#ff2703" stroke="none" /><path d="M 87.51073957382395 83.11751280151077 l -37.467781278528136 -50.64746159546771 a84.0,84.0 0 0,0 1.1698187345848732,-0.8499230607333286 l 36.59041722758948 51.284903891017706" fill="#4dd2ff" stroke="none" /><path d="M 87.80319425747018 82.90503203632743 l -3.016393948601821 -4.2277592187402036 a26.193513306501146,26.193513306501146 0 0,0 0.3692896969026679,-0.25871103243012844 l 2.9431731121154927 4.279055093934275" fill="#ff2904" stroke="none" /><path d="M 88.09926311788651 82.69761687909137 l -5.749603540435847 -8.359301128610987 a31.145730936260303,31.145730936260303 0 0,0 0.4443387989419369,-0.3000195405312568 l 5.604860047087373 8.45703258144091" fill="#ff700a" stroke="none" /><path d="M 88.39885842347998 82.49532879139004 l -2.8495145246672555 -4.2995609121271645 a26.15809626348534,26.15809626348534 0 0,0 0.3774650338354679,-0.24551375787959084 l 2.775082465047498 4.347973594166291" fill="#ff2903" stroke="none" /><path d="M 88.70189139769569 82.29822771554957 l -1.9573409231812553 -3.0667436935527257 a24.638145182851485,24.638145182851485 0 0,0 0.3594598002427521,-0.22509369393510692 l 1.904261970566261 3.099981728810763" fill="#ff1202" stroke="none" /><path d="M 89.00827224532344 82.1063720568725 l -2.9798613576084563 -4.850968987333468 a26.693107572024193,26.693107572024193 0 0,0 0.39358088927769797,-0.23712808198318652 l 2.8959184021131112 4.9015436787752735" fill="#ff3004" stroke="none" /><line stroke="#e1ed5e" stroke-width="0.3" x1="56.76296977257108" x2="54.21961505331056" y1="26.818313649435495" y2="22.513508569990535" /><path d="M 56.25429882871898 25.957352633546506 a86.0,86.0 0 0,1 42.26535254187918,-11.944610805530505" fill="none" id="id12" stroke="none" /><text fill="#e1ed5e" style="font-size:6.75px; font-family:Arial;" text-anchor="middle"><textPath startOffset="22.20632615414155" xlink:href="#id12">December</textPath></text><path d="M 89.94658935756843 81.56283822128135 l -2.4362182268648467 -4.467831980063873 a26.0888782507533,26.0888782507533 0 0,0 0.3961222886082229,-0.21159480799091016 l 2.3589508917283197 4.509105514556532" fill="#ff2803" stroke="none" /><path d="M 90.26544431104013 81.39251694778311 l -4.916231635056866 -9.397316092591748 a31.605606217167303,31.605606217167303 0 0,0 0.48422725398918615,-0.2480400069818442 l 4.753743893478915 9.480548624886097" fill="#ff760a" stroke="none" /><path d="M 90.58718382345135 81.22770947309562 l -4.428419483558899 -8.83174339763353 a30.879807212896793,30.879807212896793 0 0,0 0.4772087957030353,-0.23416428355643248 l 4.275739420845438 8.906662841324792" fill="#ff6c09" stroke="none" /><path d="M 90.91171255644093 81.06846463323043 l -2.2196597661097264 -4.623705799939539 a26.128893136114343,26.128893136114343 0 0,0 0.4071401499409866,-0.1911577595506816 l 2.139741404869131 4.661228542130228" fill="#ff2803" stroke="none" /><path d="M 91.56875222667455 80.76684994638697 l -3.3721183381920037 -7.692391415915696 a29.399051600176314,29.399051600176314 0 0,0 0.46522773106187704,-0.19918623519616632 l 3.2392068493398187 7.749297179074649" fill="#ff5708" stroke="none" /><path d="M 92.23578459929587 80.48803036053334 l -3.8468691104641253 -9.66742799067256 a31.404689611318656,31.404689611318656 0 0,0 0.503995671284482,-0.19554249041583407 l 3.679890274179966 9.732213184978946" fill="#ff730a" stroke="none" /><path d="M 92.91201910852362 80.23233633223022 l -2.3308579140446657 -6.500527584322698 a27.905777109783152,27.905777109783152 0 0,0 0.4535592341984666,-0.15823791094283118 l 2.218616675782912 6.539686348437739" fill="#ff4206" stroke="none" /><path d="M 94.63758080256005 79.69619591428918 l -1.3209322756659587 -5.00146466513058 a26.17295958552218,26.17295958552218 0 0,0 0.4365788142673865,-0.11129366058955062 l 1.234644572713571 5.023461321888994" fill="#ff2904" stroke="none" /><path d="M 95.33964822691252 79.52364482259891 l -1.2979940595861137 -5.70304317706771 a26.84888793346388,26.84888793346388 0 0,0 0.4515181010518813,-0.09868436855238719 l 1.1996332343807115 5.724541043715965" fill="#ff3304" stroke="none" /><path d="M 95.692805502759 79.44645832069477 l -1.6026513273527876 -7.647706848446093 a28.813828211372126,28.813828211372126 0 0,0 0.4863137423787496,-0.09754996171901997 l 1.4707711755069017 7.6741607662423235" fill="#ff4f07" stroke="none" /><path d="M 97.11714578562143 79.19881850522333 l -1.575093794290991 -11.365060266637848 a32.47368795658677,32.47368795658677 0 0,0 0.554349468736578,-0.07197047097829179 l 1.3792295970465558 11.390489060780276" fill="#ff820c" stroke="none" /><path d="M 97.47563105711357 79.15227682838746 l -1.1578222061847552 -9.56197662964651 a30.631819626998865,30.631819626998865 0 0,0 0.5239985496239297,-0.05887734250973412 l 0.9930569530511075 9.580489925626843" fill="#ff6909" stroke="none" /><path d="M 97.83486435360386 79.11191278185805 l -0.5261340167128968 -5.075863605969917 a26.103058724917084,26.103058724917084 0 0,0 0.4473254733897917,-0.04247894373391938 l 0.4386834162328685 5.084168094219017" fill="#ff2803" stroke="none" /><path d="M 98.55514903715128 79.0497635885617 l -0.7176954792658455 -10.406533510137775 a31.431252393580507,31.431252393580507 0 0,0 0.5400756531478234,-0.032578838280507914 l 0.5384577772783994 10.417345617798588" fill="#ff740a" stroke="none" /></svg>