<?xml version="1.0" encoding="utf-8" ?>
<svg baseProfile="full" height="200mm" version="1.1" viewBox="0,0,200,200" width="200mm" xmlns="http://www.w3.org/2000/svg" xmlns:ev="http://www.w3.org/2001/xml-events" xmlns:xlink="http://www.w3.org/1999/xlink"><defs /><rect fill="#1a1a1a" height="200" width="200" x="0" y="0" /><text alignment-baseline="middle" fill="#e1ed5e" style="dominant-baseline: central; font-size:9.0px; font-family:Arial;" text-anchor="middle" x="100.0" y="100.0">2024</text><line stroke="#e1ed5e" stroke-width="0.3" x1="100.0" x2="100.0" y1="15.0" y2="10.0" /><path d="M 100.0 14.0 a86.0,86.0 0 0,1 42.35913384403234,11.155469271406648" fill="none" id="id73" stroke="none" /><text fill="#e1ed5e" style="font-size:6.75px; font-family:Arial;" text-anchor="middle"><textPath startOffset="22.145653131862478" xlink:href="#id73">January</textPath></text><path d="M 100.0 79.0 l 0.0 -14.163430249092002 a35.163430249092,35.163430249092 0 0,0 0.6036270389625652,0.005181412146329915 l -0.24313411411371047 14.161343235140107" fill="#ff8b0c" stroke="none" /><path d="M 109.06512990194946 81.05736502329252 l 8.101852249422679 -16.929755166886952 a39.76850073613262,39.76850073613262 0 0,0 0.61326768407669,0.29997995551746043 l -8.391280182761436 16.788181461272274" fill="#ffcb12" stroke="none" /><line stroke="#e1ed5e" stroke-width="0.3" x1="143.13028292997686" x2="145.6673583964461" y1="26.7553504044142" y2="22.446841604673864" /><path d="M 143.63769802327073 25.89364864446614 a86.0,86.0 0 0,1 29.32050498858742,28.57503671076992" fill="none" id="id74" stroke="none" /><text fill="#e1ed5e" style="font-size:6.75px; font-family:Arial;" text-anchor="middle"><textPath startOffset="20.669276256404974" xlink:href="#id74">February</textPath></text><path d="M 115.41159269507618 85.73525988315684 l 17.767015801250533 -16.444884579492967 a45.209524557800215,45.209524557800215 0 0,0 0.5222826000746634,0.5740800679270468 l -18.046696102167072 16.13746693600825" fill="#ebff1a" stroke="none" /><path d="M 117.21940702142032 87.97951657250589 l 5.246072712485134 -3.662166183853595 a27.397869962951884,27.397869962951884 0 0,0 0.26590319465946616,0.3879607076214068 l -5.3081656439599225 3.5715707411621396" fill="#ff1902" stroke="none" /><path d="M 117.42321728460499 88.27688183743584 l 12.884315151154551 -8.669142242412487 a36.529314348465334,36.529314348465334 0 0,0 0.34559438209631355,0.5232739422141045 l -13.031233972171588 8.446688421859326" fill="#ff9f0e" stroke="none" /><path d="M 117.81537515405839 88.88188828441811 l 14.82545547049128 -9.252180699532332 a38.475610936511444,38.475610936511444 0 0,0 0.34487345549531107,0.5633248713052152 l -14.982096890441994 8.996318712102564" fill="#ffba11" stroke="none" /><line stroke="#e1ed5e" stroke-width="0.3" x1="172.87174338648825" x2="177.1583165268699" y1="56.24261187166439" y2="53.66864786411523" /><path d="M 173.72905801456457 55.72781907015455 a86.0,86.0 0 0,1 12.242430191666344,42.057860355516425" fill="none" id="id75" stroke="none" /><text fill="#e1ed5e" style="font-size:6.75px; font-family:Arial;" text-anchor="middle"><textPath startOffset="22.145653131862474" xlink:href="#id75">March</textPath></text><path d="M 118.18653347947321 89.5 l 15.836483079941411 -9.14319776922113 a39.28639553844226,39.28639553844226 0 0,0 0.33218824077144415,0.5869447917806869 l -15.991104685734234 8.869996207341325" fill="#ffc512" stroke="none" /><path d="M 118.36410011445183 89.81374322990088 l 15.078414639481531 -8.363742423888718 a38.24270209025508,38.24270209025508 0 0,0 0.31350757181488614,0.576818621045668 l -15.219767560911755 8.103668969368448" fill="#ffb610" stroke="none" /><path d="M 118.8641267826498 90.77261029715802 l 26.27990808260537 -12.854819946190133 a50.255426243333986,50.255426243333986 0 0,0 0.37241841540612136,0.7782112532248312 l -26.496705755971405 12.401796190900198" fill="#adff20" stroke="none" /><path d="M 119.0197475246899 91.09779779509293 l 9.51483694268715 -4.453424121459355 a31.505479924854466,31.505479924854466 0 0,0 0.2250624490916894,0.49180206857054176 l -9.589883856633891 4.289433070674129" fill="#ff5708" stroke="none" /><path d="M 119.16976305983485 91.42560881287824 l 28.321344307636718 -12.66777707584944 a52.02533028728499,52.02533028728499 0 0,0 0.3576521414457272,0.8183780917299781 l -28.534630331099414 12.17973691434361" fill="#98ff23" stroke="none" /><path d="M 119.4528033332814 92.08871423366111 l 8.343043379528673 -3.393043110834718 a30.006615034777504,30.006615034777504 0 0,0 0.18995805535736826,0.47881838928657516 l -8.400060109852166 3.2493237043345773" fill="#ff4006" stroke="none" /><path d="M 119.71291397450082 92.76114493625339 l 26.472621888468527 -9.721113441466343 a49.20105948704198,49.20105948704198 0 0,0 0.2843348672859642,0.7953352288035149 l -26.635596925798435 9.265243256281913" fill="#baff1f" stroke="none" /><path d="M 119.83427380445688 93.10060997987247 l 23.202999195221395 -8.07120758051475 a45.56671657876167,45.56671657876167 0 0,0 0.25064857409177055,0.7409979719694081 l -23.338133190885532 7.67170793407118" fill="#e7ff1a" stroke="none" /><path d="M 120.86939407059847 97.66154086499901 l 17.296752022151825 -1.9381371416543363 a38.404999456928266,38.404999456928266 0 0,0 0.06778959269577356,0.655802815570522 l -17.327474007329265 1.6409298038008833" fill="#ffb911" stroke="none" /><line stroke="#e1ed5e" stroke-width="0.3" x1="184.99686870605535" x2="189.99668451229388" y1="99.2704041080226" y2="99.22748670261217" /><path d="M 185.99683186730306 99.26182062694052 a86.0,86.0 0 0,1 -10.086455211305974,41.156179273409016" fill="none" id="id76" stroke="none" /><text fill="#e1ed5e" style="font-size:6.75px; font-family:Arial;" text-anchor="middle"><textPath startOffset="21.40746469413373" xlink:href="#id76">April</textPath></text><path d="M 120.96210409425399 101.26102812881392 l 23.243416927376938 1.3982662438550824 a44.28543705728062,44.28543705728062 0 0,0 -0.052164109089091186,0.7584546977071385 l -23.21598885712278 -1.7970643657165641" fill="#f7ff18" stroke="none" /><path d="M 119.4528033332814 107.91128576633889 l 14.706149924485823 5.9808631476872485 a36.87581713149965,36.87581713149965 0 0,0 -0.24351060941608157,0.5843368156738799 l -14.601313470533256 -6.232432472802406" fill="#ffa40f" stroke="none" /><path d="M 119.0197475246899 108.90220220490707 l 12.655860847945892 5.923581908715054 a34.973533426869025,34.973533426869025 0 0,0 -0.25917177255491336,0.5415693251917145 l -12.552309817431068 -6.139963735971872" fill="#ff890c" stroke="none" /><path d="M 118.8641267826498 109.22738970284198 l 22.155695722189837 10.83746101379399 a45.6642537726112,45.6642537726112 0 0,0 -0.3504842088662358,0.7012031977962667 l -21.96639160011187 -11.216196067754002" fill="#e6ff1a" stroke="none" /><line stroke="#e1ed5e" stroke-width="0.3" x1="174.33088141563837" x2="178.70328620479359" y1="141.23008692659167" y2="143.65538615756765" /><path d="M 175.20536237346943 141.71514677278685 a86.0,86.0 0 0,1 -30.301960400862466,31.63118572779886" fill="none" id="id77" stroke="none" /><text fill="#e1ed5e" style="font-size:6.75px; font-family:Arial;" text-anchor="middle"><textPath startOffset="22.145653131862474" xlink:href="#id77">May</textPath></text><path d="M 117.21940702142032 112.02048342749411 l 22.817301423170093 15.928248474303777 a48.82693557858933,48.82693557858933 0 0,0 -0.4856766489246472,0.6831650296655954 l -22.540509675715487 -16.317590730678877" fill="#beff1e" stroke="none" /><path d="M 117.01052211995028 112.31430620078461 l 19.132497553147 13.850452772339894 a44.6196423474191,44.6196423474191 0 0,0 -0.4544786373811782,0.6165875567571495 l -18.891916896181993 -14.176846638365923" fill="#f3ff19" stroke="none" /><path d="M 112.7482090630111 116.68781488649013 l 2.9083902051345083 3.8071761391009002 a25.790962715306975,25.790962715306975 0 0,0 -0.3541308100986968,0.2657463619112213 l -2.842606406125045 -3.856541528276136" fill="#ff0000" stroke="none" /><line stroke="#e1ed5e" stroke-width="0.3" x1="143.1302829299769" x2="145.6673583964461" y1="173.24464959558577" y2="177.55315839532614" /><path d="M 143.63769802327073 174.10635135553383 a86.0,86.0 0 0,1 -40.685524379131806,11.842963189579606" fill="none" id="id78" stroke="none" /><text fill="#e1ed5e" style="font-size:6.75px; font-family:Arial;" text-anchor="middle"><textPath startOffset="21.407464694133747" xlink:href="#id78">June</textPath></text><path d="M 110.65571695917076 118.09573695890943 l 14.358992157532859 24.384707859017563 a49.298315023155055,49.298315023155055 0 0,0 -0.7329192986676079,0.4231511543800199 l -13.938280391004849 -24.627605910673754" fill="#b9ff1f" stroke="none" /><path d="M 109.71004243097381 118.62028667847754 l 10.940740781932565 20.980313040101112 a44.6616428871302,44.6616428871302 0 0,0 -0.6828398935527008,0.3486629150748775 l -10.57897366666628 -21.165033906848826" fill="#f2ff19" stroke="none" /><path d="M 108.73861861582097 119.09545874513695 l 2.9002176585996735 6.337498989993954 a27.969587930102307,27.969587930102307 0 0,0 -0.43830554835465224,0.19604849675753258 l -2.7909987073893943 -6.386351237661337" fill="#ff2203" stroke="none" /><path d="M 108.4095320186766 119.2426549942271 l 9.260220807963227 21.189197422907398 a44.124311380864526,44.124311380864526 0 0,0 -0.6966701898168017,0.29736707746259555 l -8.895115542975995 -21.345039150029393" fill="#f9ff18" stroke="none" /><path d="M 107.06938296918513 119.77432235084164 l 4.590842234375436 12.841402792875167 a34.63735524615339,34.63735524615339 0 0,0 -0.5616104539495863,0.19535726890633162 l -4.3697260083808285 -12.918318494350089" fill="#ff840c" stroke="none" /><path d="M 106.0420521117495 120.11202640906438 l 6.5696000941589014 21.868062066822773 a43.83356704406006,43.83356704406006 0 0,0 -0.7225023978048075,0.21030991813820837 l -6.193237683972487 -21.9776156792635" fill="#fdff18" stroke="none" /><path d="M 105.3480935250658 120.30758222061773 l 15.493854291529498 58.832688408461344 a81.83867804426924,81.83867804426924 0 0,0 -1.3616190913380268,0.3461182484480834 l -14.481629906966074 -59.0899918887447" fill="#4ae7ff" stroke="none" /><line stroke="#e1ed5e" stroke-width="0.3" x1="101.45913802915013" x2="101.54496967792366" y1="184.9874750549273" y2="189.98673829345242" /><path d="M 101.47630435890484 185.9873277026323 a86.0,86.0 0 0,1 -42.54439059252881,-10.42667462771756" fill="none" id="id79" stroke="none" /><text fill="#e1ed5e" style="font-size:6.75px; font-family:Arial;" text-anchor="middle"><textPath startOffset="22.145653131862474" xlink:href="#id79">July</textPath></text><path d="M 90.93487009805054 118.94263497670748 l -8.044937165474336 16.810824531411956 a39.63665301019344,39.63665301019344 0 0,0 -0.6112344681384233,-0.2989854077163064 l 8.33233188287483 -16.67024537359843" fill="#ffc912" stroke="none" /><line stroke="#e1ed5e" stroke-width="0.3" x1="58.13341422392154" x2="55.670673884152215" y1="173.97424548756322" y2="178.32567169271397" /><path d="M 57.64086615596767 174.84453072859336 a86.0,86.0 0 0,1 -31.369924170532244,-30.572349798747886" fill="none" id="id80" stroke="none" /><text fill="#e1ed5e" style="font-size:6.75px; font-family:Arial;" text-anchor="middle"><textPath startOffset="22.145653131862474" xlink:href="#id80">August</textPath></text><path d="M 88.72937992617639 117.7192867562869 l -13.675379960392847 21.499968717974255 a46.48067251732155,46.48067251732155 0 0,0 -0.6695748218498341,-0.43401030994956885 l 14.042440414499692 -21.262044566320792" fill="#dbff1b" stroke="none" /><path d="M 88.1277618465304 117.32195027204791 l -13.00785150014008 18.97884408305619 a44.008709728679996,44.008709728679996 0 0,0 -0.6194852679479368,-0.4324488286781178 l 13.331731859261781 -18.752750438572946" fill="#fbff18" stroke="none" /><path d="M 87.83215693770417 117.11559508785305 l -13.410966109466417 18.864203334262765 a44.14545699323449,44.14545699323449 0 0,0 -0.6138719879878289,-0.4443959788453897 l 13.732819107828199 -18.63120658404431" fill="#f9ff18" stroke="none" /><path d="M 87.2517909369889 116.68781488649013 l -14.510212123696647 18.99433345398561 a44.90253039399532,44.90253039399532 0 0,0 -0.6085149338497843,-0.4731848931312636 l 14.834137002181661 -18.742447509233553" fill="#efff19" stroke="none" /><path d="M 86.13680546590413 115.77377054828092 l -41.58958360228758 47.321311644842766 a84.0,84.0 0 0,0 -1.0749398927065164,-0.9612178804664802 l 42.39578852181747 -46.60039823449291" fill="#4dd2ff" stroke="none" /><path d="M 84.83555147118756 114.52719865689866 l -16.690961128581023 15.989563196364955 a44.113941996257395,44.113941996257395 0 0,0 -0.5191668292986824,-0.5513371815443409 l 16.962983791615958 -15.700684554876123" fill="#f9ff18" stroke="none" /><path d="M 84.58840730492382 114.26474011684316 l -16.781247089690336 15.532471776745188 a43.86630563472434,43.86630563472434 0 0,0 -0.5067650763122346,-0.5570235910420837 l 17.04540986684445 -15.242110610145433" fill="#fdff18" stroke="none" /><path d="M 84.1078160697243 113.72728997021213 l -17.438985437057735 15.06338027114973 a44.043950144607905,44.043950144607905 0 0,0 -0.4893187149218397,-0.5764162158035192 l 17.694998715486687 -14.761797272896654" fill="#faff18" stroke="none" /><path d="M 83.87451063323141 113.45245675266167 l -21.28409337953244 17.755947692218754 a48.717978090716954,48.717978090716954 0 0,0 -0.5302213739474387,-0.6467838634264144 l 21.585761572718503 -17.38796154709385" fill="#c0ff1e" stroke="none" /><path d="M 83.64595745247003 113.17365903436017 l -10.982814441983976 8.846977881820168 a35.102880227402736,35.102880227402736 0 0,0 -0.3739853660970745,-0.47251829292563685 l 11.133066238722611 -8.657139644979848" fill="#ff8b0c" stroke="none" /><path d="M 83.4222238831116 112.89097897827486 l -33.45346680253423 26.013618127135643 a63.3773851148546,63.3773851148546 0 0,0 -0.6604769244210054,-0.8645854956612072 l 33.89509570430953 -25.435511718233567" fill="#32ff46" stroke="none" /><path d="M 82.98947788004972 112.3143062007846 l -13.009317290452406 9.417742468345862 a37.06039257190649,37.06039257190649 0 0,0 -0.3686360214677936,-0.5185327297481934 l 13.16906841045016 -9.193032511888164" fill="#ffa60f" stroke="none" /><path d="M 82.78059297857968 112.02048342749411 l -18.86854692888516 13.171711161564197 a44.01121548574122,44.01121548574122 0 0,0 -0.4271398767250697,-0.6232098453717386 l 19.09187654242555 -12.845866581122406" fill="#fbff18" stroke="none" /><path d="M 82.576782715395 111.72311816256416 l -19.790966322699415 13.316245384676273 a44.85382022090245,44.85382022090245 0 0,0 -0.42435037613983545,-0.64252055503856 l 20.01664113775998 -12.974544951298652" fill="#f0ff19" stroke="none" /><path d="M 82.37810715431573 111.42229804090323 l -10.123174875417524 6.561719649516591 a33.06378192430287,33.06378192430287 0 0,0 -0.3046312785853474,-0.4789309678466363 l 10.234323845628762 -6.38697500699128" fill="#ff6d0a" stroke="none" /><path d="M 81.99639281039703 110.81064883170646 l -40.684845402974055 24.430080693930005 a68.45614278653323,68.45614278653323 0 0,0 -0.5963061056555824,-1.012658132369811 l 41.09822521875941 -23.72807139326664" fill="#38ff85" stroke="none" /><line stroke="#e1ed5e" stroke-width="0.3" x1="26.387840678322732" x2="22.057713659400548" y1="142.50000000000003" y2="145.00000000000006" /><path d="M 25.521815274538298 143.00000000000003 a86.0,86.0 0 0,1 -11.493303480769221,-40.785679425670985" fill="none" id="id81" stroke="none" /><text fill="#e1ed5e" style="font-size:6.75px; font-family:Arial;" text-anchor="middle"><textPath startOffset="21.40746469413373" xlink:href="#id81">September</textPath></text><path d="M 81.63589988554817 110.18625677009913 l -23.13007234951181 12.829861228957384 a47.45005833732611,47.45005833732611 0 0,0 -0.3889880097045043,-0.7156941252236656 l 23.346905708831642 -12.430912270259133" fill="#cfff1d" stroke="none" /><path d="M 81.4637452351635 109.86951160357371 l -16.1588863486875 8.603696827782942 a39.30664379765449,39.30664379765449 0 0,0 -0.3120047788926124,-0.5983103028987287 l 16.30419919655506 -8.325040281779708" fill="#ffc512" stroke="none" /><path d="M 81.1358732173502 109.22738970284198 l -25.97498766941654 12.705668092342718 a49.915981499840484,49.915981499840484 0 0,0 -0.3699029562221182,-0.772954910995129 l 26.18926988359857 -12.257900679282486" fill="#b1ff20" stroke="none" /><path d="M 80.83023694016515 108.57439118712176 l -51.41880896536099 22.998979229359726 a77.32802997628097,77.32802997628097 0 0,0 -0.5315974999500578,-1.2163991128893163 l 51.806040347328015 -22.11291804669456" fill="#44ffe9" stroke="none" /><path d="M 80.68587082218212 108.24405325689762 l -5.7713554401607805 2.4634484513966997 a27.27511927291922,27.27511927291922 0 0,0 -0.1801121014447,-0.43220347595900344 l 5.8127933861419665 -2.364012465996415" fill="#ff1702" stroke="none" /><path d="M 80.5471966667186 107.91128576633889 l -13.381741577978373 5.442237802998835 a35.44607074481448,35.44607074481448 0 0,0 -0.22439274343143473,-0.5656162976363491 l 13.473192996375932 -5.21172048814892" fill="#ff8f0d" stroke="none" /><path d="M 80.05021161711548 106.5578916946017 l -27.288897947615 8.970402781767362 a49.72546043603976,49.72546043603976 0 0,0 -0.2596030946672368,-0.813202996556648 l 27.438865758059492 -8.500630751519322" fill="#b4ff20" stroke="none" /><path d="M 79.94057633289273 106.21446072829308 l -36.88390596242313 11.426728350395727 a59.61337384687603,59.61337384687603 0 0,0 -0.29444373868558865,-0.98010744344831 l 37.074626021112344 -10.791883303356695" fill="#44ff2d" stroke="none" /><path d="M 79.34024301695615 103.76489593502545 l -9.736371131179164 1.7742911556878802 a30.89671823935648,30.89671823935648 0 0,0 -0.09060857293627532,-0.522606170405182 l 9.765394521607673 -1.6068919523621055" fill="#ff4e07" stroke="none" /><path d="M 79.2786578344484 103.40968896794605 l -27.70751397524906 4.5592608806816015 a49.0801209126089,49.0801209126089 0 0,0 -0.12966151780499777,-0.8325199572049833 l 27.781696985192326 -4.082952741545168" fill="#bbff1f" stroke="none" /><path d="M 79.17382384314188 102.69636545807758 l -18.917296727892232 2.4492227989003927 a40.07518827717765,40.07518827717765 0 0,0 -0.08247457286147121,-0.6830077753755784 l 18.956553387013365 -2.1241213466014153" fill="#ffcf13" stroke="none" /><path d="M 79.0935383218832 101.97986365728391 l -16.018158513871818 1.5169362652802756 a37.08982590982409,37.08982590982409 0 0,0 -0.05458629303067298,-0.6343754677766495 l 16.041838429600233 -1.2417397501279637" fill="#ffa70f" stroke="none" /><path d="M 79.06263194458094 101.62068470465958 l -9.018148906061656 0.6980617600889796 a30.045125754393887,30.045125754393887 0 0,0 -0.035390352260055255,-0.5145679547465456 l 9.028803219486779 -0.5431503811880907" fill="#ff4106" stroke="none" /><path d="M 79.00696218219943 100.54070618675478 l -30.23183338016181 0.7786647881771618 a51.24185953902658,51.24185953902658 0 0,0 -0.01510065489375303,-0.8795374429677506 l 30.24074546665423 -0.25958042924035885" fill="#a2ff22" stroke="none" /><line stroke="#e1ed5e" stroke-width="0.3" x1="15.003131293944662" x2="10.003315487706104" y1="100.72959589197737" y2="100.7725132973878" /><path d="M 14.003168132696942 100.73817937305945 a86.0,86.0 0 0,1 10.791469493833604,-42.453326145846276" fill="none" id="id82" stroke="none" /><text fill="#e1ed5e" style="font-size:6.75px; font-family:Arial;" text-anchor="middle"><textPath startOffset="22.145653131862435" xlink:href="#id82">October</textPath></text><path d="M 79.00077361379809 100.18025310272382 l -56.67971840482113 0.4865272137212941 a77.68180649184984,77.68180649184984 0 0,0 0.0,-1.3335606328902025 l 56.67971840482113 0.4865272137212733" fill="#45ffec" stroke="none" /><path d="M 79.01933749520258 99.09900007780938 l -29.69804779987481 -1.275361955361617 a50.72541995062194,50.72541995062194 0 0,0 0.04482776992531045,-0.8696467607159796 l 29.671778440492933 1.7849805094543085" fill="#a8ff21" stroke="none" /><path d="M 79.03789590574601 98.7389718711861 l -38.86883477709185 -2.338252580358515 a59.93910299504109,59.93910299504109 0 0,0 0.07060266568650381,-1.0265472639265592 l 38.82296815024028 3.0051432684393986" fill="#40ff2d" stroke="none" /><path d="M 79.13060592940154 97.66154086499901 l -38.32492406134336 -4.2943876792153395 a59.564771098077735,59.564771098077735 0 0,0 0.12258405425139643,-1.0151718194576274 l 38.2455579208323 4.9516531755964035" fill="#44ff2d" stroke="none" /><path d="M 79.17382384314186 97.30363454192245 l -28.099574274931037 -3.638052462965386 a49.33410489420223,49.33410489420223 0 0,0 0.11594802844616363,-0.8389421743906625 l 28.032981729929666 4.119882945556116" fill="#b8ff1f" stroke="none" /><path d="M 79.2786578344484 96.59031103205396 l -33.31891023744188 -5.482614000238707 a54.766978480259716,54.766978480259716 0 0,0 0.16061116024312713,-0.9263624915274392 l 33.21988425970652 6.0537695246867385" fill="#79ff26" stroke="none" /><path d="M 79.407916724674 95.88100663000787 l -22.471737277577862 -4.494976813223036 a43.916888812050715,43.916888812050715 0 0,0 0.15421580545106542,-0.7379784558333605 l 22.39126376130243 4.880071720341805" fill="#fcff18" stroke="none" /><path d="M 79.48165901384962 95.52812308129327 l -22.313505928303538 -4.863124762550671 a43.837305648183865,43.837305648183865 0 0,0 0.16655908806200187,-0.7338900742153828 l 22.226735978683877 5.2454491707050614" fill="#fdff18" stroke="none" /><path d="M 79.64726062577567 94.8264132398404 l -32.64220835668622 -8.297521717906779 a54.680300370698156,54.680300370698156 0 0,0 0.23905841746606438,-0.9077437493322587 l 32.49496045841543 8.85664597161182" fill="#7aff26" stroke="none" /><path d="M 79.73907114497095 94.47779374421319 l -21.222260592350427 -5.784221495646104 a42.99639886345773,42.99639886345773 0 0,0 0.20020251029674396,-0.7104480812535868 l 21.1198395899791 6.147677500802704" fill="#fff617" stroke="none" /><path d="M 79.83685265289637 94.1308016681162 l -22.74186446078941 -6.619825301051827 a44.68574436595486,44.68574436595486 0 0,0 0.22071284995304832,-0.7346812945296144 l 22.624875290832737 7.009244199172165" fill="#f2ff19" stroke="none" /><path d="M 80.16572619554312 93.10060997987247 l -35.6334770155514 -12.395173028633641 a58.72777489632269,58.72777489632269 0 0,0 0.3393901321483477,-0.9493346031824575 l 35.41544671335911 13.00504258819702" fill="#4dff2c" stroke="none" /><path d="M 80.28708602549916 92.7611449362534 l -24.472464219787526 -8.986627840456158 a47.070308493219684,47.070308493219684 0 0,0 0.28504280684410926,-0.756109910276664 l 24.31459072912898 9.405406030926967" fill="#d4ff1c" stroke="none" /><path d="M 80.41425534168474 92.42381321644754 l -33.44437926314764 -12.937004366081139 a56.859344476234675,56.859344476234675 0 0,0 0.35995031405846734,-0.9073099283756537 l 33.21737027412304 13.509215311670376" fill="#62ff29" stroke="none" /><path d="M 80.9802524753101 91.09779779509293 l -11.614733790596537 -5.436281876288625 a33.82400879853446,33.82400879853446 0 0,0 0.25065320704755406,-0.5237687995868522 l 11.519701325589077 5.634863177940565" fill="#ff780b" stroke="none" /><path d="M 81.1358732173502 90.77261029715801 l -37.838617291393085 -18.508763834513125 a63.12285955637737,63.12285955637737 0 0,0 0.4844832372199905,-0.969291016894287 l 37.51531414096135 19.15558670757118" fill="#31ff43" stroke="none" /><path d="M 81.29705330413844 90.45014215332179 l -5.11718747492942 -2.612872386103278 a26.74566878262536,26.74566878262536 0 0,0 0.21229938933011852,-0.40711207176424996 l 5.071580016624361 2.7003307009720148" fill="#ff0f01" stroke="none" /><line stroke="#e1ed5e" stroke-width="0.3" x1="26.387840678322718" x2="22.05771365940052" y1="57.5" y2="55.0" /><path d="M 25.521815274538284 57.0 a86.0,86.0 0 0,1 29.574782752854787,-30.346332500585742" fill="none" id="id83" stroke="none" /><text fill="#e1ed5e" style="font-size:6.75px; font-family:Arial;" text-anchor="middle"><textPath startOffset="21.40746469413373" xlink:href="#id83">November</textPath></text><path d="M 81.99639281039701 89.18935116829357 l -19.73057311029526 -11.847642247320957 a44.01438989157025,44.01438989157025 0 0,0 0.3945199144068686,-0.6444186308610025 l 19.524285231432998 12.1845979943065" fill="#fbff18" stroke="none" /><path d="M 82.576782715395 88.27688183743585 l -23.589604227017634 -15.872138494524895 a49.43227405566968,49.43227405566968 0 0,0 0.4797526088144569,-0.6999733938407023 l 23.313661881387866 16.274746623435636" fill="#b7ff1f" stroke="none" /><path d="M 82.78059297857968 87.97951657250589 l -24.05395593508623 -16.79152936705067 a50.335102771451055,50.335102771451055 0 0,0 0.5006782372808701,-0.7042666423890084 l 23.76216259927539 17.2019732361492" fill="#acff20" stroke="none" /><path d="M 82.98947788004972 87.6856937992154 l -18.677213716237233 -13.520862384905529 a44.057580788832844,44.057580788832844 0 0,0 0.44875369298829004,-0.6088205701807917 l 18.442358003665124 13.839489264355185" fill="#faff18" stroke="none" /><path d="M 83.42222388311158 87.10902102172516 l -5.832753308477457 -4.535584251765058 a28.388676177937015,28.388676177937015 0 0,0 0.3024523738405072,-0.38213869400796224 l 5.754034503995386 4.635042889687701" fill="#ff2803" stroke="none" /><path d="M 83.64595745247001 86.82634096563983 l -23.27134811454234 -18.7457507487764 a50.88241647195662,50.88241647195662 0 0,0 0.553778006166216,-0.6755191244784956 l 22.946123289137496 19.14247215495339" fill="#a6ff21" stroke="none" /><path d="M 83.8745106332314 86.54754324733833 l -24.94624090947842 -20.811041410490013 a53.48714176567192,53.48714176567192 0 0,0 0.5942305217331874,-0.7000020604303067 l 24.585315824238116 21.236210253369876" fill="#87ff25" stroke="none" /><line stroke="#e1ed5e" stroke-width="0.3" x1="56.869717070023135" x2="54.33264160355391" y1="26.7553504044142" y2="22.446841604673864" /><path d="M 56.362301976729285 25.89364864446614 a86.0,86.0 0 0,1 42.16139366436587,-11.88097634709845" fill="none" id="id84" stroke="none" /><text fill="#e1ed5e" style="font-size:6.75px; font-family:Arial;" text-anchor="middle"><textPath startOffset="22.145653131862474" xlink:href="#id84">December</textPath></text></svg>