<?xml version="1.0" encoding="utf-8" ?>
<svg baseProfile="full" height="200mm" version="1.1" viewBox="0,0,200,200" width="200mm" xmlns="http://www.w3.org/2000/svg" xmlns:ev="http://www.w3.org/2001/xml-events" xmlns:xlink="http://www.w3.org/1999/xlink"><defs /><rect fill="#1a1a1a" height="200" width="200" x="0" y="0" /><text alignment-baseline="middle" fill="#e1ed5e" style="dominant-baseline: central; font-size:9.0px; font-family:Arial;" text-anchor="middle" x="100.0" y="100.0">2022</text><line stroke="#e1ed5e" stroke-width="0.3" x1="100.0" x2="100.0" y1="15.0" y2="10.0" /><path d="M 100.0 14.0 a86.0,86.0 0 0,1 42.46469731375804,11.215312516191453" fill="none" id="id49" stroke="none" /><text fill="#e1ed5e" style="font-size:6.75px; font-family:Arial;" text-anchor="middle"><textPath startOffset="22.20632615414155" xlink:href="#id49">January</textPath></text><line stroke="#e1ed5e" stroke-width="0.3" x1="143.23703022742887" x2="145.7803849466894" y1="26.81831364943548" y2="22.513508569990506" /><path d="M 143.74570117128098 25.957352633546492 a86.0,86.0 0 0,1 28.547481713284135,27.462654790039103" fill="none" id="id50" stroke="none" /><text fill="#e1ed5e" style="font-size:6.75px; font-family:Arial;" text-anchor="middle"><textPath startOffset="19.985693538727396" xlink:href="#id50">February</textPath></text><path d="M 115.9244219780498 86.31012108654704 l 10.890046884744851 -9.361936239788104 a35.36102264150429,35.36102264150429 0 0,0 0.3928262513573664,0.46498237782923524 l -11.049583749589337 9.173094912329763" fill="#ffa00e" stroke="none" /><path d="M 116.38621287248628 86.86637796730983 l 9.004232882490182 -7.216932447613385 a32.53951141753984,32.53951141753984 0 0,0 0.34653947371423344,0.44006993998253646 l -9.12712643679838 7.060870113677811" fill="#ff790b" stroke="none" /><path d="M 117.04232023915458 87.72973835380427 l 8.184823551293189 -5.892972617166033 a31.08555714040986,31.08555714040986 0 0,0 0.30891254674136964,0.436934890012895 l -8.285048717838444 5.751211226821345" fill="#ff6509" stroke="none" /><path d="M 117.2510076193507 88.02491185347247 l 14.13280380043046 -9.81053252088843 a38.20414751171563,38.20414751171563 0 0,0 0.37035379730324425,0.5434484982842269 l -14.299582063402436 9.565805999333799" fill="#ffc612" stroke="none" /><path d="M 117.45458315368197 88.32363383020206 l 7.581572647580789 -5.071746348603216 a30.121559890452687,30.121559890452687 0 0,0 0.28458184907302797,0.43343768017663975 l -7.667751132011743 4.940490604448902" fill="#ff5708" stroke="none" /><path d="M 117.65298651832404 88.62581576622439 l 2.70903254292256 -1.7454856834853685 a24.222666223775875,24.222666223775875 0 0,0 0.2228166980846993,0.35244250682420786 l -2.7386768372532146 1.6985955289469543" fill="#ff0000" stroke="none" /><line stroke="#e1ed5e" stroke-width="0.3" x1="172.23445277983987" x2="176.4835382374775" y1="55.19839476539836" y2="52.563006222186495" /><path d="M 173.08426987136738 54.67131705675599 a86.0,86.0 0 0,1 12.851231095245387,41.99856678651699" fill="none" id="id51" stroke="none" /><text fill="#e1ed5e" style="font-size:6.75px; font-family:Arial;" text-anchor="middle"><textPath startOffset="22.20632615414155" xlink:href="#id51">March</textPath></text><path d="M 118.03404312379186 89.2402003453031 l 7.396529754694672 -4.41305245608093 a29.612995088365345,29.612995088365345 0 0,0 0.25740789349232424,0.4399935299729968 l -7.471397322657324 4.285079513754036" fill="#ff5007" stroke="none" /><path d="M 118.21658344932153 89.55222093294921 l 12.814137013342727 -7.34930744959803 a35.772082703039445,35.772082703039445 0 0,0 0.3017500526618365,0.5367796735097191 l -12.938744707296996 7.127644266153518" fill="#ffa60f" stroke="none" /><path d="M 118.56541770881063 90.18545643968196 l 34.48456110415041 -18.23014340014092 a60.006705615004,60.006705615004 0 0,0 0.4748832581119783,0.9173233023671246 l -34.7932537954225 17.63384737551345" fill="#39ff2e" stroke="none" /><path d="M 118.89224826269711 90.83032412892265 l 16.53901539751758 -8.027494044816375 a39.38422396944962,39.38422396944962 0 0,0 0.29077148658877466,0.612438906730257 l -16.67474507794811 7.741612722445579" fill="#ffd614" stroke="none" /><path d="M 119.196687751892 91.48605970444005 l 18.332001006952208 -8.130442297575687 a41.05408569028029,41.05408569028029 0 0,0 0.2809454053622828,0.6484607305562324 l -18.46923712215717 7.813682422432851" fill="#ffeb16" stroke="none" /><path d="M 119.34039704204932 91.81776055985345 l 40.509536463136655 -17.138155242112326 a64.98566709237159,64.98566709237159 0 0,0 0.42698155818955164,1.0339697110293953 l -40.79853970821241 16.43831096062963" fill="#35ff61" stroke="none" /><path d="M 119.61058180528143 92.48833698450437 l 37.800512477348455 -14.47915795473284 a61.478695120128066,61.478695120128066 0 0,0 0.37002976038531954,0.9914957906102386 l -38.044146826235405 13.826339027093267" fill="#30ff36" stroke="none" /><path d="M 119.85752413597 93.16781622104841 l 16.284313405170263 -5.60278417069306 a38.221209409944954,38.221209409944954 0 0,0 0.2086927288695322,0.6239646964079943 l -16.378343427811565 5.321646371362752" fill="#ffc712" stroke="none" /><path d="M 120.08093135843002 93.85539295169968 l 16.63959608244273 -5.09158552181026 a38.40116090704156,38.40116090704156 0 0,0 0.1879720421575479,0.6337482802475511 l -16.72477402171198 4.804407854816179" fill="#ffc912" stroke="none" /><path d="M 120.18372546131832 94.20196356495316 l 11.45971871551902 -3.2919525572870967 a32.923175108931595,32.923175108931595 0 0,0 0.15178090026213326,0.5460366545713996 l -11.514686386347517 3.094204599296745" fill="#ff7f0b" stroke="none" /><path d="M 120.37134235888165 94.90015583598534 l 18.26409075225353 -4.5723062816871485 a39.827718814028124,39.827718814028124 0 0,0 0.16076591408879246,0.6664785038364764 l -18.34008946660314 4.257242546191265" fill="#ffdc14" stroke="none" /><path d="M 120.53481517161879 95.60439243477599 l 12.596941273355883 -2.6964552588900066 a33.88230571006497,33.88230571006497 0 0,0 0.11716937603277328,0.5713594893927363 l -12.641489945303652 2.4792201133338594" fill="#ff8c0c" stroke="none" /><path d="M 120.67395015179393 96.31383870115 l 17.993073184098808 -3.208161455920188 a39.27684279451972,39.27684279451972 0 0,0 0.11294549627256607,0.6666107124786445 l -18.045630541891597 2.897964955125706" fill="#ffd413" stroke="none" /><path d="M 120.83666639777658 97.38593545837742 l 23.791795509111072 -2.984800343520352 a44.978293655680275,44.978293655680275 0 0,0 0.08976306712430841,0.7690351417397883 l -23.83964892923897 2.574821463455711" fill="#e1ff1b" stroke="none" /><path d="M 120.96714384426684 98.82574320788733 l 25.784066779353402 -1.4440267004807703 a46.8244712006627,46.8244712006627 0 0,0 0.038142749934185614,0.8051331661338339 l -25.805103137521087 0.9999824277239365" fill="#cbff1d" stroke="none" /><line stroke="#e1ed5e" stroke-width="0.3" x1="184.98032266829074" x2="189.97916517819016" y1="98.17113171792111" y2="98.06355123074" /><path d="M 185.9800911702706 98.14961562048488 a86.0,86.0 0 0,1 -9.607161424134198,41.387399972396054" fill="none" id="id52" stroke="none" /><text fill="#e1ed5e" style="font-size:6.75px; font-family:Arial;" text-anchor="middle"><textPath startOffset="21.466115282336823" xlink:href="#id52">April</textPath></text><path d="M 120.99513854157772 99.54816195383933 l 28.67941994279959 -0.617212077277489 a49.68606070905847,49.68606070905847 0 0,0 0.011042118651329947,0.8552242583872045 l -28.685795068568634 0.1234515608298217" fill="#a9ff21" stroke="none" /><path d="M 120.99824983174949 100.27111621757518 l 3.5494091875433433 0.04582774284828037 a24.54970502473539,24.54970502473539 0 0,0 -0.009092669846854732,0.4225006388232362 l -3.548094455011481 -0.1069181974616314" fill="#ff0500" stroke="none" /><path d="M 120.9904718944345 100.63252640178507 l 25.97871741134729 0.782842078531239 a46.990509807592424,46.990509807592424 0 0,0 -0.03132223397813867,0.8082876817578037 l -25.961393044517948 -1.229907007303049" fill="#c9ff1d" stroke="none" /><path d="M 120.95626037817324 101.35467743843564 l 26.038448219717093 1.6832057675645393 a47.09279531493034,47.09279531493034 0 0,0 -0.059254938777924544,0.8084865613567354 l -26.00561672227483 -2.1311654654180447" fill="#c8ff1d" stroke="none" /><path d="M 120.89721153311464 102.0752229133903 l 14.293179804668272 1.4194015401936333 a35.363484593262214,35.363484593262214 0 0,0 -0.06536805156254522,0.6052269730375696 l -14.266629451604675 -1.6652248351159942" fill="#ffa00e" stroke="none" /><path d="M 120.81339534386255 102.79330883721812 l 6.868243699901083 0.9217681933264501 a27.929821651634278,27.929821651634278 0 0,0 -0.06805027760680679,0.4759434830865204 l -6.851359371277676 -1.0398571483933798" fill="#ff3705" stroke="none" /><path d="M 120.76222939487914 103.15116336523771 l 62.28668818463745 9.453490095713112 a84.0,84.0 0 0,0 -0.2292729825548463,1.4276830812271801 l -62.114733447721314 -10.524252406633499" fill="#4dd2ff" stroke="none" /><path d="M 120.64145759157962 103.86396538481128 l 3.6705931519509374 0.6871145033211956 a24.734351406579655,24.734351406579655 0 0,0 -0.08194145167424872,0.4178176967315143 l -3.6582217673010247 -0.7501959271206549" fill="#ff0801" stroke="none" /><path d="M 120.5718875245553 104.21870165774334 l 13.539349467004454 2.776530640323574 a34.82111089552245,34.82111089552245 0 0,0 -0.12546537279011785,0.5861324521021073 l -13.489550055489893 -3.00917691184185" fill="#ff990e" stroke="none" /><path d="M 120.41448212921028 104.9243191809786 l 17.995478431359583 4.340814479130691 a39.51161565924916,39.51161565924916 0 0,0 -0.16517489565734172,0.6597916015299315 l -17.918092221407182 -4.649933920058018" fill="#ffd714" stroke="none" /><path d="M 120.23288151984713 105.62410040840565 l 9.600798061700145 2.6687178614109737 a30.964806994887518,30.964806994887518 0 0,0 -0.14716741597574226,0.5123090815627189 l -9.553438008838302 -2.8335844184782744" fill="#ff6309" stroke="none" /><path d="M 120.13307415673323 105.97154293290107 l 20.828644943394778 6.177851755045464 a42.72552191514218,42.72552191514218 0 0,0 -0.21520077853926414,0.7032885957000299 l -20.719217392349382 -6.535467323297551" fill="#fdff18" stroke="none" /><path d="M 119.9155931802556 106.66101706037122 l 13.577686845375588 4.541225706854089 a35.31699378332189,35.31699378332189 0 0,0 -0.1977905853542653,0.5748720247602336 l -13.49750542907809 -4.774270434703623" fill="#ffa00e" stroke="none" /><path d="M 119.67450827220406 107.3425965602758 l 21.58507923295502 8.0556284475526 a44.03928807880063,44.03928807880063 0 0,0 -0.2711681843437336,0.7079345613737673 l -21.44321676901778 -8.425986575759513" fill="#edff1a" stroke="none" /><path d="M 119.41010516605496 108.01547362559984 l 12.774645191162291 5.275336260682844 a34.82102501348439,34.82102501348439 0 0,0 -0.23354796223939345,0.552038393781175 l -12.681946247730586 -5.494449180130182" fill="#ff990e" stroke="none" /><path d="M 119.26925614724726 108.34839909993367 l 13.613303887287946 5.897959581381855 a35.83603619405342,35.83603619405342 0 0,0 -0.250099552006253,0.5639084654206289 l -13.50976325055042 -6.131416383295171" fill="#ffa70f" stroke="none" /><path d="M 118.81262510543309 109.33194174019688 l 35.13956854040728 17.430869140109124 a60.22530402923079,60.22530402923079 0 0,0 -0.4686713950944413,0.9247331253881058 l -34.83431847552657 -18.033156477199924" fill="#37ff2e" stroke="none" /><line stroke="#e1ed5e" stroke-width="0.3" x1="174.80103733775053" x2="179.2010983576182" y1="140.37084112569926" y2="142.7455964860345" /><path d="M 175.68104954172406 140.8457921977663 a86.0,86.0 0 0,1 -30.038265399797805,32.042727171017184" fill="none" id="id53" stroke="none" /><text fill="#e1ed5e" style="font-size:6.75px; font-family:Arial;" text-anchor="middle"><textPath startOffset="22.206326154141568" xlink:href="#id53">May</textPath></text><path d="M 118.12598468904814 110.60418214915192 l 18.547816496505884 10.850964952918204 a42.48871650884517,42.48871650884517 0 0,0 -0.3747487078321181,0.6281003898320389 l -18.358286912975537 -11.168627436636347" fill="#fffe18" stroke="none" /><path d="M 117.94076556474637 110.91462005526583 l 6.712070422341398 4.083420976638777 a28.856603351762377,28.856603351762377 0 0,0 -0.26181920559937055,0.42213592447612447 l -6.640786577074067 -4.198353232480173" fill="#ff4506" stroke="none" /><path d="M 117.75023020441432 111.22182372390056 l 16.274602020066222 10.288920929059291 a40.25420901506935,40.25420901506935 0 0,0 -0.3753132549406798,0.5824945062822193 l -16.09508390174849 -10.567537035262964" fill="#ffe115" stroke="none" /><path d="M 117.35343817320211 111.8261652097733 l 22.8425735713461 15.566946801833282 a48.6425939465432,48.6425939465432 0 0,0 -0.4774828661628984,0.6878496810626146 l -22.571229798021065 -15.957837745082914" fill="#b5ff1f" stroke="none" /><path d="M 117.14729908036423 112.12312394758627 l 6.644223575803363 4.69745967381984 a29.1370654607435,29.1370654607435 0 0,0 -0.2930636674373283,0.4070398019977442 l -6.5623801159904325 -4.811133081268718" fill="#ff4906" stroke="none" /><path d="M 116.93607887273984 112.41649034213513 l 11.146541122638707 8.171957702690234 a34.82122540490654,34.82122540490654 0 0,0 -0.35855703208008344,0.48034573902402206 l -11.004222823863534 -8.36261632122357" fill="#ff990e" stroke="none" /><path d="M 116.498646956653 112.99209946851258 l 14.953255531423443 11.775158517710997 a40.032976885008495,40.032976885008495 0 0,0 -0.4309875714677376,0.5377232627745753 l -14.748350047900852 -12.030809614063825" fill="#ffde14" stroke="none" /><path d="M 115.80600337817218 113.82643327865902 l 20.805728131061308 18.19998420443869 a48.642679828581265,48.642679828581265 0 0,0 -0.5567065536280431,0.6254657146067607 l -20.489362727784926 -18.555424088786314" fill="#b5ff1f" stroke="none" /><path d="M 115.32070863581623 114.36230785411682 l 10.083483827364365 9.452702379056731 a34.82136854163666,34.82136854163666 0 0,0 -0.41370015824557377,0.43376296196904346 l -9.91927711773983 -9.624872457608282" fill="#ff990e" stroke="none" /><path d="M 114.55890576462653 115.13401014063108 l 17.249371263852066 17.93075412720374 a45.880770739035384,45.880770739035384 0 0,0 -0.5738683030321609,0.5426282995703628 l -16.938167126429096 -18.225017063520024" fill="#d6ff1c" stroke="none" /><path d="M 114.0293411484842 115.62618273729858 l 21.544347673887238 23.996559078929334 a53.248934312964145,53.248934312964145 0 0,0 -0.687310992623987,0.6064720387118347 l -21.128094328356664 -24.363854259413458" fill="#81ff25" stroke="none" /><path d="M 113.48314897796784 116.09983520530334 l 8.874166717149592 10.596383824280025 a34.82151167836677,34.82151167836677 0 0,0 -0.462844003745812,0.3808891048234578 l -8.690452584859088 -10.747568047960662" fill="#ff990e" stroke="none" /><path d="M 113.20401910651253 116.32954008644616 l 17.360817381022255 21.470293330388188 a48.61107523857258,48.61107523857258 0 0,0 -0.6551905055824321,0.5205229630904835 l -16.98866938272247 -21.765950207483797" fill="#b6ff1f" stroke="none" /><path d="M 112.63410532772338 116.77436683061366 l 15.533764292938955 20.624258999825816 a46.81971906122298,46.81971906122298 0 0,0 -0.6479292399986584,0.47932256195056866 l -15.176450082521733 -20.888591510516154" fill="#cbff1d" stroke="none" /><path d="M 112.04921762599082 117.19931262002967 l 18.50323209227926 26.41191180327007 a53.24839039338971,53.24839039338971 0 0,0 -0.755222213504006,0.5194487249318629 l -18.04585299415237 -26.726501317567024" fill="#81ff25" stroke="none" /><path d="M 111.45004920935366 117.60387380957326 l 10.049202226505633 15.450142147666256 a39.430772034082,39.430772034082 0 0,0 -0.5721558951487503,0.3651769629031724 l -9.781764529309953 -15.620833539393239" fill="#ffd614" stroke="none" /><path d="M 111.1453310114006 117.79835938074945 l 9.792931672968853 15.638666732135048 a39.451813133408436,39.451813133408436 0 0,0 -0.5786656688320723,0.3554637166367875 l -9.522286804204473 -15.804918915600213" fill="#ffd714" stroke="none" /><line stroke="#e1ed5e" stroke-width="0.3" x1="143.8653032363475" x2="146.44561519142675" y1="172.8068346515853" y2="177.08958963109032" /><path d="M 144.38136562736335 173.6633856474863 a86.0,86.0 0 0,1 -40.68145358897372,12.25698825130547" fill="none" id="id54" stroke="none" /><text fill="#e1ed5e" style="font-size:6.75px; font-family:Arial;" text-anchor="middle"><textPath startOffset="21.466115282336833" xlink:href="#id54">June</textPath></text><path d="M 110.8373102113329 117.98757091392108 l 7.428394805389304 12.329514956470819 a35.39437349962034,35.39437349962034 0 0,0 -0.5245650579954025,0.30992228247040315 l -7.215061876365519 -12.455555811234971" fill="#ffa10e" stroke="none" /><path d="M 110.21172684928248 118.3499491758327 l 2.1483394132701177 3.8604556925369398 a25.417972429593767,25.417972429593767 0 0,0 -0.3841468865573644,0.2094675115358867 l -2.0815697148441035 -3.896863855832597" fill="#ff1202" stroke="none" /><path d="M 109.89434966115114 118.52300852407294 l 11.046156875329737 20.67928312290661 a44.44462267113132,44.44462267113132 0 0,0 -0.6779055702543108,0.3546481545611566 l -10.688560402548932 -20.866360696412485" fill="#e8ff1a" stroke="none" /><path d="M 109.57404056367764 118.69057910512821 l 1.8734630219386883 3.6574013426392895 a25.109312384780612,25.109312384780612 0 0,0 -0.38637981799593907,0.19373886185660968 l -1.8102292962599889 -3.6891080454052014" fill="#ff0d01" stroke="none" /><path d="M 109.2508944713604 118.85261126421891 l 9.66288783719723 19.692222049273813 a42.93524585210204,42.93524585210204 0 0,0 -0.6662882247378862,0.31985883814292226 l -9.322486944459111 -19.855635163916293" fill="#fbff18" stroke="none" /><path d="M 108.92500713936063 119.00905698771935 l 8.677716292645682 18.48236096111174 a41.418139649646726,41.418139649646726 0 0,0 -0.6479611633658738,0.29744718961313116 l -8.35828713351239 -18.628995221058943" fill="#fff016" stroke="none" /><path d="M 108.2653958097858 119.30500536409082 l 8.27806792964178 19.33460289909386 a42.03219622182649,42.03219622182649 0 0,0 -0.6675684314277176,0.2790436584781898 l -7.944028038716601 -19.47423160059202" fill="#fff817" stroke="none" /><path d="M 107.59598834532513 119.57807347666477 l 16.285675471467528 41.97507111681347 a66.02365845667705,66.02365845667705 0 0,0 -1.063074526597868,0.40196382228801425 l -15.560730724109385 -42.24918318920811" fill="#36ff6d" stroke="none" /><path d="M 106.91757812671514 119.82793768551818 l 6.877327356656529 19.712566417438964 a41.87780894472786,41.87780894472786 0 0,0 -0.6826686438120225,0.23159826886151236 l -6.53698897990728 -19.828027673198598" fill="#fff617" stroke="none" /><path d="M 106.57524785965236 119.94407469862006 l 4.5130120766759685 13.688890805974683 a35.4136397034934,35.4136397034934 0 0,0 -0.5805790591691798,0.18588308066356526 l -4.276711672415849 -13.764546733297955" fill="#ffa10e" stroke="none" /><path d="M 105.88484417918355 120.15858648285463 l 4.203696593666947 14.399800360198027 a36.000843825104184,36.000843825104184 0 0,0 -0.5963605470803596,0.16853744748940563 l -3.9552048784819824 -14.470026601025952" fill="#ffa90f" stroke="none" /><path d="M 105.18746579009965 120.34920634021253 l 4.106118405913088 16.107335273176773 a37.62246846788716,37.62246846788716 0 0,0 -0.6289163797859011,0.1545723446918757 l -3.828248741383977 -16.175628876182678" fill="#ffbf11" stroke="none" /><path d="M 104.83641907484287 120.43548508189849 l 1.0228244639491704 4.321774798870837 a25.441160579871884,25.441160579871884 0 0,0 -0.4270236419269254,0.09718919063295119 l -0.9482806726293824 -4.338740723081472" fill="#ff1202" stroke="none" /><path d="M 104.48393922423573 120.51570834832081 l 4.4151222437216076 20.200844780588042 a41.67770379603152,41.67770379603152 0 0,0 -0.7021870224311036,0.1471501177869747 l -4.066743759861126 -20.27385087910156" fill="#fff316" stroke="none" /><path d="M 104.13013068566511 120.58985236759428 l 2.9661759444769893 14.78721363589386 a36.08177333230941,36.08177333230941 0 0,0 -0.6100094312691854,0.11690975933742197 l -2.7111988986361 -14.83608059357975" fill="#ffaa0f" stroke="none" /><path d="M 103.7750983002368 120.6578951692458 l 0.8511366754147434 4.657545530487301 a25.73467675863921,25.73467675863921 0 0,0 -0.43644912363922317,0.07588227458082691 l -0.7708385803034703 -4.671506383589135" fill="#ff1702" stroke="none" /><path d="M 102.70371172650421 120.8252237178851 l 2.255184341215957 17.370460752344012 a38.51624283805147,38.51624283805147 0 0,0 -0.6582106343652546,0.07970014133397695 l -1.9558462837993222 -17.406706422403342" fill="#ffca12" stroke="none" /><path d="M 101.62511606390274 120.93702456842531 l 2.066131150857378 26.618799498667027 a47.698864857569866,47.698864857569866 0 0,0 -0.8191422350577576,0.05649284446198812 l -1.6076261550206903 -26.6504206876453" fill="#c1ff1e" stroke="none" /><path d="M 100.90346689309514 120.98055641714683 l 1.104170031256376 25.641339834306024 a46.66510276535618,46.66510276535618 0 0,0 -0.8028167579111473,0.027650632389351205 l -0.6626329216705765 -25.656547265121468" fill="#cdff1d" stroke="none" /><line stroke="#e1ed5e" stroke-width="0.3" x1="102.19456741930631" x2="102.32365962044197" y1="184.97166512339345" y2="189.96999836594603" /><path d="M 102.22038585953345 185.97133177190398 a86.0,86.0 0 0,1 -42.740103519485714,-10.115201625700543" fill="none" id="id55" stroke="none" /><text fill="#e1ed5e" style="font-size:6.75px; font-family:Arial;" text-anchor="middle"><textPath startOffset="22.20632615414155" xlink:href="#id55">July</textPath></text><path d="M 100.18074693466247 120.99922214144158 l 0.20080221247432412 23.329249119028077 a44.330113287041854,44.330113287041854 0 0,0 -0.763098294273543,0.0 l 0.20080221247430802 -23.329249119028077" fill="#e9ff1a" stroke="none" /><path d="M 99.09653310690486 120.98055641714683 l -0.9893123266384162 22.97408266074714 a43.99537373000233,43.99537373000233 0 0,0 -0.7563264214827898,-0.03909343692242809 l 1.3846268165346949 -22.95364941706251" fill="#eeff19" stroke="none" /><path d="M 97.65516085044442 120.86867818915974 l -6.7497028135899315 60.0712317158177 a81.44924621471509,81.44924621471509 0 0,0 -1.3919000418855572,-0.16853971095139747 l 7.782730278526878 -59.94614647614096" fill="#4aeaff" stroke="none" /><path d="M 94.11515582081647 120.15858648285463 l -6.674793497024976 22.86456495159771 a44.818925220373764,44.818925220373764 0 0,0 -0.7387119827363133,-0.22256786065165546 l 7.067380454201535 -22.74628172184033" fill="#e3ff1b" stroke="none" /><path d="M 93.42475214034765 119.94407469862007 l -3.1877340432914223 9.66905084580336 a31.18097208470241,31.18097208470241 0 0,0 -0.5082947857634802,-0.17244118873954017 l 3.353698561992128 -9.612746670165697" fill="#ff6609" stroke="none" /><path d="M 91.7346041902142 119.30500536409082 l -11.697185394742966 27.320437155946667 a50.719192999659654,50.719192999659654 0 0,0 -0.7996226762014746,-0.35053108250240456 l 12.165728745602186 -27.11504152014981" fill="#9dff22" stroke="none" /><path d="M 91.07499286063937 119.00905698771935 l -10.834008445129772 23.074971338752107 a46.49176418519076,46.49176418519076 0 0,0 -0.7214798566797008,-0.34635417546494773 l 11.229600969809715 -22.885062886787598" fill="#cfff1d" stroke="none" /><path d="M 90.42595943632237 118.69057910512821 l -14.380553109428567 28.07392173446428 a52.5427549412844,52.5427549412844 0 0,0 -0.8014248768578247,-0.41926761789316097 l 14.861668888812886 -27.822224697626403" fill="#89ff24" stroke="none" /><line stroke="#e1ed5e" stroke-width="0.3" x1="58.666819895761336" x2="56.23545636021788" y1="174.27360380694188" y2="178.64263932499728" /><path d="M 58.180547188652646 175.14741091055294 a86.0,86.0 0 0,1 -31.652253787137756,-30.449443065178592" fill="none" id="id56" stroke="none" /><text fill="#e1ed5e" style="font-size:6.75px; font-family:Arial;" text-anchor="middle"><textPath startOffset="22.20632615414155" xlink:href="#id56">August</textPath></text><path d="M 89.4739219176387 118.17145234162733 l -12.504084968562106 21.58613894976104 a45.94621285204252,45.94621285204252 0 0,0 -0.6809494116249669,-0.4023169150918502 l 12.873802251215455 -21.367703462375438" fill="#d6ff1c" stroke="none" /><path d="M 88.8546689885994 117.79835938074946 l -5.795793139147935 9.255499821541303 a31.920416432460136,31.920416432460136 0 0,0 -0.46317770348623927,-0.2956219248594779 l 5.954252644681097 -9.15436346785802" fill="#ff710a" stroke="none" /><path d="M 88.24862548938628 117.40417183066458 l -22.17066424757103 32.83548233580605 a60.6195312113048,60.6195312113048 0 0,0 -0.8597671442226171,-0.5913556815716845 l 22.732588276416536 -32.44898586486926" fill="#33ff2f" stroke="none" /><path d="M 87.95078237400918 117.19931262002967 l -18.54845170645218 26.476459253972568 a53.32720147698929,53.32720147698929 0 0,0 -0.7472732417606868,-0.5331596166611167 l 19.001452276061755 -26.153255375467236" fill="#80ff25" stroke="none" /><path d="M 87.36589467227662 116.77436683061367 l -10.982389008580576 14.581374551483696 a39.25457071931432,39.25457071931432 0 0,0 -0.536238505461526,-0.4111648196049788 l 11.231756242535589 -14.39017039005135" fill="#ffd413" stroke="none" /><path d="M 87.07902340077011 116.55440617244103 l -9.361100302200414 11.993478622414852 a36.21426068970092,36.21426068970092 0 0,0 -0.4881035783333412,-0.38777900278528116 l 9.566161373251113 -11.83056570562444" fill="#ffac0f" stroke="none" /><path d="M 86.51685102203217 116.09983520530335 l -18.539587935066713 22.137581585469615 a49.87540197565039,49.87540197565039 0 0,0 -0.6534497596713477,-0.556884061481716 l 18.917903171315118 -21.815173133764947" fill="#a7ff21" stroke="none" /><path d="M 85.97065885151581 115.62618273729859 l -23.54494560761012 26.224868203737657 a56.24355509832584,56.24355509832584 0 0,0 -0.7148300093013787,-0.6529802650408654 l 23.992875166378354 -25.815695172110214" fill="#60ff29" stroke="none" /><path d="M 85.70375840098266 115.38237550388516 l -15.712718255388621 16.906466690360947 a44.0806874014945,44.0806874014945 0 0,0 -0.5513531893234657,-0.5213388542362551 l 16.001407279102903 -16.633493199378762" fill="#edff1a" stroke="none" /><path d="M 85.18274418774928 114.88116024355367 l -23.474526978287724 23.575768821963837 a54.26966023873764,54.26966023873764 0 0,0 -0.6562994758418221,-0.6648279040406992 l 23.876867079185082 -23.168200423942473" fill="#76ff27" stroke="none" /><path d="M 84.9287848128048 114.62390073753433 l -21.567690434138363 20.927560261675612 a51.05208893186774,51.05208893186774 0 0,0 -0.6065315108057066,-0.6359458641987578 l 21.924728496323027 -20.553207280894355" fill="#9aff23" stroke="none" /><path d="M 84.4343377721795 114.09645910891817 l -22.875930725348535 20.71673002591374 a51.86245469040888,51.86245469040888 0 0,0 -0.5935562866835202,-0.6668667803359215 l 23.229145861680394 -20.319889075836954" fill="#90ff24" stroke="none" /><path d="M 84.19399662182784 113.82643327865904 l -26.66718823634926 23.327345316685783 a56.43026909235642,56.43026909235642 0 0,0 -0.6332483618357315,-0.7366109075567767 l 27.064779107755772 -22.86485730996748" fill="#5eff29" stroke="none" /><path d="M 83.95833913139862 113.55231037782056 l -17.41315813330322 14.710978221868539 a43.795415249995216,43.795415249995216 0 0,0 -0.48154936035940055,-0.5800572258006849 l 17.66380349355616 -14.40905973895409" fill="#f0ff19" stroke="none" /><path d="M 83.72743513129215 113.27417163493433 l -24.43029834699632 19.928755913230074 a52.52768290839582,52.52768290839582 0 0,0 -0.5655032488976401,-0.7055522530993121 l 24.769719507948817 -19.505275826552506" fill="#89ff24" stroke="none" /><path d="M 83.50135304334701 112.99209946851258 l -43.01009873113038 33.868927696526235 a75.74461486003993,75.74461486003993 0 0,0 -0.7978186875944677,-1.031288200757226 l 43.58672423594292 -33.12356150165576" fill="#42ffda" stroke="none" /><path d="M 83.28015986056508 112.70617746262583 l -31.808063262277507 24.172413921571536 a60.95070066084991,60.95070066084991 0 0,0 -0.6276143954737727,-0.8407920460157966 l 32.219438924446365 -23.621308996046434" fill="#30ff2f" stroke="none" /><path d="M 82.85270091963577 112.12312394758628 l -32.05085500843097 22.65992364583355 a60.25212664820177,60.25212664820177 0 0,0 -0.591443748991073,-0.8520188323808696 l 32.43615966458418 -22.10486355126567" fill="#37ff2e" stroke="none" /><path d="M 82.6465618267979 111.8261652097733 l -41.96038839605444 28.595514069614975 a71.7777275904829,71.7777275904829 0 0,0 -0.6870047783981714,-1.02697892967288 l 42.44639627986334 -27.868998225736274" fill="#3dffaf" stroke="none" /><path d="M 82.44556493220864 111.52570212397912 l -15.907547632595678 10.444406489201526 a40.02986333621383,40.02986333621383 0 0,0 -0.37322155051962747,-0.5792481345700826 l 16.084974046492352 -10.169036754709996" fill="#ffde14" stroke="none" /><path d="M 82.24976979558568 111.22182372390057 l -47.97166968386878 30.32803601610094 a77.75447877350413,77.75447877350413 0 0,0 -0.7054751252638041,-1.137450530095341 l 48.48660944880054 -29.497789154640333" fill="#45ffef" stroke="none" /><path d="M 82.05923443525364 110.91462005526583 l -7.816694216978813 4.755440739617263 a30.149586062208584,30.149586062208584 0 0,0 -0.2659180918334794,-0.4456940174929772 l 7.897393184510523 -4.620184628238174" fill="#ff5708" stroke="none" /><line stroke="#e1ed5e" stroke-width="0.3" x1="26.63291911575756" x2="22.317208475507996" y1="142.92168965132927" y2="145.44649492493687" /><path d="M 25.769776987707644 143.4266507060508 a86.0,86.0 0 0,1 -11.730757126820373,-40.83630448921669" fill="none" id="id57" stroke="none" /><text fill="#e1ed5e" style="font-size:6.75px; font-family:Arial;" text-anchor="middle"><textPath startOffset="21.46611528233685" xlink:href="#id57">September</textPath></text><path d="M 81.87401531095188 110.60418214915194 l -34.28559812200618 20.05798492139561 a60.72184534598874,60.72184534598874 0 0,0 -0.5200334607342924,-0.9067221725411012 l 34.62578357889285 -19.464842902996203" fill="#32ff2f" stroke="none" /><path d="M 81.35079622478065 109.6543875284942 l -15.927794359562483 8.245558420339131 a38.935547575241074,38.935547575241074 0 0,0 -0.30299518939742826,-0.597838253842201 l 16.06736821874618 -7.970165954794245" fill="#ffd013" stroke="none" /><path d="M 81.18737489456691 109.33194174019688 l -10.381863150059957 5.149889583622043 a32.58897947146649,32.58897947146649 0 0,0 -0.24495544189622678,-0.5046807637115008 l 10.468971848570902 -4.970419863945257" fill="#ff7a0b" stroke="none" /><path d="M 81.02952815118164 109.00673069616217 l -18.156886263021832 8.620459530745416 a41.09937415168767,41.09937415168767 0 0,0 -0.29792228466114185,-0.6416980967494149 l 18.3025831645228 -8.306641366717175" fill="#ffec16" stroke="none" /><path d="M 80.87730276802145 108.67885076344099 l -26.09574791616015 11.843575149325167 a49.657605127112234,49.657605127112234 0 0,0 -0.34656022582248186,-0.781401820002051 l 26.29574922671391 -11.39262499283042" fill="#aaff21" stroke="none" /><path d="M 80.58989483394504 108.01547362559985 l -14.527460790548684 5.999167846716302 a36.717414923390045,36.717414923390045 0 0,0 -0.2362107984465129,-0.5862558302376522 l 14.628574203252583 -5.748212648635845" fill="#ffb310" stroke="none" /><path d="M 80.20201598880116 107.00284435728193 l -22.43501873674513 7.935603154202997 a44.79713981005074,44.79713981005074 0 0,0 -0.25088354234190896,-0.7291850100285974 l 22.568293110030268 -7.548245441085104" fill="#e4ff1b" stroke="none" /><path d="M 80.0844068197444 106.66101706037122 l -42.033694026152936 14.05869011705908 a65.32243451449547,65.32243451449547 0 0,0 -0.347477243702512,-1.0694249924862556 l 42.269463520871696 -13.33306622459502" fill="#35ff65" stroke="none" /><path d="M 79.86692584326677 105.97154293290107 l -24.69720453079044 7.325280582097858 a46.76066084637884,46.76066084637884 0 0,0 -0.22224086935906043,-0.7736496215018696 l 24.819638037035606 -6.899073485091392" fill="#ccff1d" stroke="none" /><path d="M 79.76711848015287 105.62410040840567 l -18.34281527709148 5.0987218399912555 a40.03827294402264,40.03827294402264 0 0,0 -0.17886035261104402,-0.6656059097500386 l 18.427863706044295 -4.782224997065678" fill="#ffde14" stroke="none" /><path d="M 79.67330655649465 105.27499134158121 l -48.8399986406094 12.674494780378023 a71.45778716068074,71.45778716068074 0 0,0 -0.298723105629497,-1.1932503150246299 l 49.050933060533964 -11.831916625956001" fill="#3dffac" stroke="none" /><path d="M 79.58551787078972 104.9243191809786 l -37.627756971927894 9.07645289365142 a59.706977302149824,59.706977302149824 0 0,0 -0.2324006921273769,-1.0011760991935343 l 37.778418229985824 -8.42740813710931" fill="#3cff2e" stroke="none" /><path d="M 79.4281124754447 104.21870165774334 l -21.966914028860746 4.504781416797271 a43.42405778543395,43.42405778543395 0 0,0 -0.14385783860005585,-0.7335280197328868 l 22.04120180043647 -4.1259896699964305" fill="#f5ff19" stroke="none" /><path d="M 79.35854240842038 103.8639653848113 l -19.936323572968323 3.7319682413208857 a41.28261779357685,41.28261779357685 0 0,0 -0.12473947469304583,-0.6996052187324472 l 19.997609490000556 -3.388244271855225" fill="#ffee16" stroke="none" /><path d="M 79.23777060512086 103.15116336523772 l -19.917368978391785 3.0229356521853337 a41.14546417878368,41.14546417878368 0 0,0 -0.10024984386047613,-0.7011471744688569 l 19.96645287326886 -2.679643005736077" fill="#ffed16" stroke="none" /><path d="M 79.18660465613746 102.79330883721812 l -31.12573871982975 4.17730022394836 a52.40479976080262,52.40479976080262 0 0,0 -0.11229223321225011,-0.8950795840153979 l 31.19303246228885 -3.640902885645554" fill="#8aff24" stroke="none" /><path d="M 79.10278846688536 102.07522291339032 l -9.19057671655017 0.9126813574736187 a30.235783001081934,30.235783001081934 0 0,0 -0.0469740298709067,-0.5183545053426853 l 9.204925342698154 -0.7543454635823674" fill="#ff5908" stroke="none" /><path d="M 79.07016306316243 101.71520430193888 l -25.359659051327533 2.078229105740587 a46.44467220098396,46.44467220098396 0 0,0 -0.05843943196461308,-0.7973596188122298 l 25.391675041956482 -1.641396350431596" fill="#d0ff1d" stroke="none" /><path d="M 79.04373962182676 101.35467743843564 l -36.83521799489966 2.3811423344177256 a57.912099961239484,57.912099961239484 0 0,0 -0.055743565142032755,-0.9953388020200356 l 36.870747910929225 -1.7467318160622525" fill="#4fff2b" stroke="none" /><path d="M 79.0235259727143 100.99374915477108 l -19.14133411090514 0.9068103900188298 a40.16280189921993,40.16280189921993 0 0,0 -0.026771122157562773,-0.6908437080794141 l 19.154107365913905 -0.5771894349254187" fill="#ffe015" stroke="none" /><path d="M 79.0095281055655 100.63252640178507 l -42.96351312598471 1.2946615255863023 a63.9830153501647,63.9830153501647 0 0,0 -0.02369789917227556,-1.101148255428859 l 42.979433087842 -0.5549234543673144" fill="#33ff55" stroke="none" /><line stroke="#e1ed5e" stroke-width="0.3" x1="15.007084014347285" x2="10.007500721073583" y1="101.09737516637583" y2="101.16192664675087" /><path d="M 14.007167355692545 101.11028546245083 a86.0,86.0 0 0,1 10.666146001902534,-42.60595125391555" fill="none" id="id58" stroke="none" /><text fill="#e1ed5e" style="font-size:6.75px; font-family:Arial;" text-anchor="middle"><textPath startOffset="22.20632615414155" xlink:href="#id58">October</textPath></text><path d="M 79.00175016825051 100.2711162175752 l -20.76211299356437 0.26806736698470796 a41.76384348021282,41.76384348021282 0 0,0 -0.0030939106906161425,-0.718915884375341 l 20.763651201544487 0.08935799559430846" fill="#fff417" stroke="none" /><path d="M 79.00019446554 99.90962569577889 l -27.8832348548197 -0.11999768023105263 a48.88349306332141,48.88349306332141 0 0,0 0.010863757818462964,-0.8414100153211008 l 27.877038089883523 0.5999439536126254" fill="#b3ff20" stroke="none" /><path d="M 79.03285615573316 98.82574320788736 l -30.407552501039387 -1.7029632324304715 a51.455202065894696,51.455202065894696 0 0,0 0.05713832866310297,-0.8839046543952955 l 30.37373358137187 2.226126951078779" fill="#95ff23" stroke="none" /><path d="M 79.08570108090925 98.10471618934814 l -30.242974719872244 -2.7406618120106265 a51.36690216460423,51.36690216460423 0 0,0 0.08737968524378155,-0.8799015057390329 l 30.191317908946232 3.26083884845409" fill="#96ff23" stroke="none" /><path d="M 79.21141760316559 97.0276538004421 l -21.185264233233337 -3.029063667172892 a42.40071604717241,42.40071604717241 0 0,0 0.10952328378631945,-0.7216215976414433 l 21.129985056007715 3.3932843772064265" fill="#fffc17" stroke="none" /><path d="M 79.32604984820605 96.31383870115002 l -22.286029253217055 -3.97359468969789 a43.637503277376716,43.637503277376716 0 0,0 0.13821509242265492,-0.7383505504405146 l 22.21432843688454 4.3566233176009765" fill="#f2ff19" stroke="none" /><path d="M 79.46518482838121 95.60439243477599 l -59.10568825067068 -12.651947838395806 a81.44463721200549,81.44463721200549 0 0,0 0.3052452427222644,-1.3683545705466325 l 58.87914862094638 13.667480578492397" fill="#4aeaff" stroke="none" /><path d="M 79.62865764111835 94.90015583598534 l -13.501835789252048 -3.380104130608768 a34.91850112669054,34.91850112669054 0 0,0 0.15098704704258606,-0.5818146837478594 l 13.441652410339154 3.612015239905491" fill="#ff9a0e" stroke="none" /><path d="M 79.71946130924805 94.55025226153421 l -17.313471789994207 -4.652443170828502 a38.92767505508492,38.92767505508492 0 0,0 0.17946256840124244,-0.6456223431364986 l 17.230822451026604 4.949776817383944" fill="#ffd013" stroke="none" /><path d="M 79.91906864156998 93.8553929516997 l -17.27794123782865 -5.286914118428657 a39.06872198893713,39.06872198893713 0 0,0 0.20230996535626214,-0.6413778763627979 l 17.184375788704184 5.58354216121787" fill="#ffd213" stroke="none" /><path d="M 80.14247586403 93.16781622104843 l -17.079925276358527 -5.876522552348966 a39.06259573688834,39.06259573688834 0 0,0 0.22423217007875032,-0.6339345402413947 l 16.976240025469966 6.169654719016973" fill="#ffd213" stroke="none" /><path d="M 80.52162464483688 92.15188598940014 l -32.7034350432043 -13.176678345983362 a56.25818367214327,56.25818367214327 0 0,0 0.3696385372346985,-0.8951090373795895 l 32.47177481908341 13.737661953816263" fill="#60ff29" stroke="none" /><path d="M 81.26839172434947 90.50648371742162 l -33.41525435534321 -16.93545245238329 a58.46183088690699,58.46183088690699 0 0,0 0.46265737207583935,-0.8937067819666851 l 33.11878755010725 17.50813195661031" fill="#49ff2c" stroke="none" /><path d="M 81.6062741919709 89.86733742301443 l -10.049816457996082 -5.536202952697044 a32.473811658418505,32.473811658418505 0 0,0 0.2739279806379818,-0.48728731184950824 l 9.95303083606567 5.7083737744813385" fill="#ff780b" stroke="none" /><line stroke="#e1ed5e" stroke-width="0.3" x1="26.266209847984243" x2="21.928928074336255" y1="57.71137044288968" y2="55.22380399835378" /><path d="M 25.398753493254645 57.2138571539825 a86.0,86.0 0 0,1 29.58750427330803,-30.4925239686951" fill="none" id="id59" stroke="none" /><text fill="#e1ed5e" style="font-size:6.75px; font-family:Arial;" text-anchor="middle"><textPath startOffset="21.46611528233685" xlink:href="#id59">November</textPath></text><path d="M 82.34701348167596 88.62581576622439 l -3.605417583663435 -2.3230451002562313 a25.289006235763008,25.289006235763008 0 0,0 0.23892494883951984,-0.3638990887811266 l 3.5648959994659952 2.384762253015027" fill="#ff1001" stroke="none" /><path d="M 82.54541684631803 88.32363383020207 l -29.026198797964085 -19.417279845544954 a55.92207000249467,55.92207000249467 0 0,0 0.542112632460379,-0.795483394950263 l 28.687661699834965 19.914041263765633" fill="#64ff29" stroke="none" /><path d="M 82.95767976084542 87.72973835380427 l -11.641218744853308 -8.381534783730498 a35.34461917223348,35.34461917223348 0 0,0 0.35973650302732046,-0.490680185849252 l 11.495219629312356 8.580677413251253" fill="#ffa00e" stroke="none" /><path d="M 83.39014120810768 87.1503855733568 l -15.870047124030759 -12.277285980058625 a41.06464918096255,41.06464918096255 0 0,0 0.43733053434106683,-0.5553653670020576 l 15.65636250909572 12.548643741013727" fill="#ffec16" stroke="none" /><path d="M 83.84228863543731 86.58626213691792 l -10.206615050684242 -8.473282859819923 a34.265425481882296,34.265425481882296 0 0,0 0.38065524234623727,-0.45057574209391593 l 10.05924919485088 8.647717551542954" fill="#ff910d" stroke="none" /><path d="M 84.31358615837235 86.03803664274999 l -11.150597331454332 -9.924781592850103 a35.92772958336306,35.92772958336306 0 0,0 0.4151472410300047,-0.4584159524569165 l 10.978106449808282 10.115250332576574" fill="#ffa80f" stroke="none" /><path d="M 86.10567301691215 84.25364557470405 l -39.98436613496188 -45.314033662678895 a81.43269960871417,81.43269960871417 0 0,0 1.059036916955919,-0.918386378461095 l 39.19843541935919 45.99558503455967" fill="#4aeaff" stroke="none" /><path d="M 87.80319425747018 82.90503203632743 l -5.2931489829886935 -7.418845081349091 a30.113544233566426,30.113544233566426 0 0,0 0.42455632020614525,-0.2974288339114357 l 5.164661523198888 7.50885875802447" fill="#ff5708" stroke="none" /><path d="M 88.39885842347998 82.49532879139004 l -13.01154376642783 -19.63279165636036 a44.553063057864044,44.553063057864044 0 0,0 0.6429070099449828,-0.4181646028901467 l 12.671669730698557 19.853855183410044" fill="#e7ff1a" stroke="none" /><line stroke="#e1ed5e" stroke-width="0.3" x1="56.76296977257108" x2="54.21961505331056" y1="26.818313649435495" y2="22.513508569990535" /><path d="M 56.25429882871898 25.957352633546506 a86.0,86.0 0 0,1 42.26535254187918,-11.944610805530505" fill="none" id="id60" stroke="none" /><text fill="#e1ed5e" style="font-size:6.75px; font-family:Arial;" text-anchor="middle"><textPath startOffset="22.20632615414155" xlink:href="#id60">December</textPath></text><path d="M 89.63071344664047 81.73862282372117 l -10.381353544467853 -18.282628385306374 a42.02443821105443,42.02443821105443 0 0,0 0.6321194143405883,-0.351773769699371 l 10.065110041055219 18.45861755256593" fill="#fff817" stroke="none" /><path d="M 90.26544431104013 81.39251694778311 l -16.231594961007502 -31.026493432045662 a56.015824560717924,56.015824560717924 0 0,0 0.858214480070413,-0.43961078992331754 l 15.695119993348325 31.301296747281484" fill="#63ff29" stroke="none" /><path d="M 92.57280143429618 80.3572730644239 l -7.886517263585159 -20.85748801663153 a43.29869863720201,43.29869863720201 0 0,0 0.6994135166088634,-0.2575999007605172 l 7.526321421203727 20.99015118519837" fill="#f6ff19" stroke="none" /></svg>