<?xml version="1.0" encoding="utf-8" ?>
<svg baseProfile="full" height="200mm" version="1.1" viewBox="0,0,200,200" width="200mm" xmlns="http://www.w3.org/2000/svg" xmlns:ev="http://www.w3.org/2001/xml-events" xmlns:xlink="http://www.w3.org/1999/xlink"><defs /><rect fill="#1a1a1a" height="200" width="200" x="0" y="0" /><text alignment-baseline="middle" fill="#e1ed5e" style="dominant-baseline: central; font-size:9.0px; font-family:Arial;" text-anchor="middle" x="100.0" y="100.0">2024</text><line stroke="#e1ed5e" stroke-width="0.3" x1="100.0" x2="100.0" y1="15.0" y2="10.0" /><path d="M 100.0 14.0 a86.0,86.0 0 0,1 42.35913384403234,11.155469271406648" fill="none" id="id73" stroke="none" /><text fill="#e1ed5e" style="font-size:6.75px; font-family:Arial;" text-anchor="middle"><textPath startOffset="22.145653131862478" xlink:href="#id73">January</textPath></text><path d="M 100.0 79.0 l 0.0 -13.106671460223907 a34.10667146022391,34.10667146022391 0 0,0 0.5854863691216703,0.005025696313557217 l -0.22499344427281556 13.104740162104784" fill="#ff830c" stroke="none" /><path d="M 109.06512990194946 81.05736502329252 l 7.333668467320608 -15.324546511657772 a37.98894990800005,37.98894990800005 0 0,0 0.5858253366191694,0.2865565282224192 l -7.595654053201844 15.196396233338131" fill="#ffb911" stroke="none" /><line stroke="#e1ed5e" stroke-width="0.3" x1="143.13028292997686" x2="145.6673583964461" y1="26.7553504044142" y2="22.446841604673864" /><path d="M 143.63769802327073 25.89364864446614 a86.0,86.0 0 0,1 29.32050498858742,28.57503671076992" fill="none" id="id74" stroke="none" /><text fill="#e1ed5e" style="font-size:6.75px; font-family:Arial;" text-anchor="middle"><textPath startOffset="20.669276256404974" xlink:href="#id74">February</textPath></text><path d="M 115.41159269507618 85.73525988315684 l 15.583386340685783 -14.423749750489197 a42.234087847322506,42.234087847322506 0 0,0 0.4879088959336457,0.5362973456893948 l -15.828692937461305 14.15411482924213" fill="#fff116" stroke="none" /><path d="M 117.21940702142032 87.97951657250589 l 4.862733359565159 -3.3945655438809887 a26.930366848512147,26.930366848512147 0 0,0 0.2613659597645319,0.38134074631279014 l -4.920289056145013 3.3105900624981497" fill="#ff1902" stroke="none" /><path d="M 117.42321728460499 88.27688183743584 l 12.070118181817007 -8.121314184985946 a35.54797226469323,35.54797226469323 0 0,0 0.33631015880564075,0.5092164448316603 l -12.207752779543371 7.91291786181523" fill="#ff970d" stroke="none" /><path d="M 117.81537515405839 88.88188828441811 l 13.78412158235069 -8.60231133661123 a37.24813121959003,37.24813121959003 0 0,0 0.3338710266521766,0.5453532306545831 l -13.92976057345827 8.364420989832094" fill="#ffae10" stroke="none" /><line stroke="#e1ed5e" stroke-width="0.3" x1="172.87174338648825" x2="177.1583165268699" y1="56.24261187166439" y2="53.66864786411523" /><path d="M 173.72905801456457 55.72781907015455 a86.0,86.0 0 0,1 12.242430191666344,42.057860355516425" fill="none" id="id75" stroke="none" /><text fill="#e1ed5e" style="font-size:6.75px; font-family:Arial;" text-anchor="middle"><textPath startOffset="22.145653131862474" xlink:href="#id75">March</textPath></text><path d="M 118.18653347947321 89.5 l 14.762340724026448 -8.523041390885647 a38.04608278177129,38.04608278177129 0 0,0 0.3217007092227241,0.5684143284299624 l -14.90647479827055 8.268370292356565" fill="#ffb911" stroke="none" /><path d="M 118.36410011445183 89.81374322990088 l 14.015474204564187 -7.7741472826126055 a37.02719199206639,37.02719199206639 0 0,0 0.30354301391047195,0.5584849568330927 l -14.146862568089997 7.532407492304911" fill="#ffab0f" stroke="none" /><path d="M 118.53625476483649 90.13048839642627 l 24.026233461367678 -12.792616035196755 a48.21967889898992,48.21967889898992 0 0,0 0.3827538756705118,0.733981024588423 l -24.242295406013135 12.378288767503834" fill="#c2ff1e" stroke="none" /><path d="M 118.8641267826498 90.77261029715802 l 24.34582578751576 -11.908763377562048 a48.10235927846191,48.10235927846191 0 0,0 0.35646308784729314,0.7448707551680203 l -24.546668133322964 11.489080120328923" fill="#c3ff1e" stroke="none" /><path d="M 119.0197475246899 91.09779779509293 l 8.979877444919122 -4.20303606481536 a30.914822796596304,30.914822796596304 0 0,0 0.22084303265441194,0.48258188217166276 l -9.050704942428585 4.048265200429013" fill="#ff5507" stroke="none" /><path d="M 119.16976305983485 91.42560881287824 l 26.223224854434328 -11.729314931434061 a49.72689246206391,49.72689246206391 0 0,0 0.34185135352894036,0.7822227967808147 l -26.420710089980236 11.277430064877398" fill="#b0ff20" stroke="none" /><path d="M 119.4528033332814 92.08871423366111 l 7.84443314402747 -3.190262668782814 a29.46834737401259,29.46834737401259 0 0,0 0.18655053078379816,0.4702292014013773 l -7.898042349777393 3.0551324501678714" fill="#ff3f06" stroke="none" /><path d="M 119.71291397450082 92.76114493625339 l 24.613421064647714 -9.038389146344574 a47.22046862408075,47.22046862408075 0 0,0 0.2728889544125597,0.763318973389863 l -24.764950189104216 8.614535216573795" fill="#ceff1d" stroke="none" /><path d="M 119.83427380445688 93.10060997987247 l 21.465373809147298 -7.466771271648933 a43.72696517332547,43.72696517332547 0 0,0 0.24052866418650332,0.7110802565246332 l -21.59038789490617 7.0971893406501385" fill="#faff18" stroke="none" /><path d="M 120.86939407059847 97.66154086499901 l 16.06442040281258 -1.800051813309594 a37.16495559563651,37.16495559563651 0 0,0 0.06560076130739823,0.6346278574357584 l -16.092953556601643 1.5240194335909043" fill="#ffad10" stroke="none" /><line stroke="#e1ed5e" stroke-width="0.3" x1="184.99686870605535" x2="189.99668451229388" y1="99.2704041080226" y2="99.22748670261217" /><path d="M 185.99683186730306 99.26182062694052 a86.0,86.0 0 0,1 -10.086455211305974,41.156179273409016" fill="none" id="id76" stroke="none" /><text fill="#e1ed5e" style="font-size:6.75px; font-family:Arial;" text-anchor="middle"><textPath startOffset="21.40746469413373" xlink:href="#id76">April</textPath></text><path d="M 120.96210409425399 101.26102812881392 l 21.20258599067551 1.2754949225334031 a42.2409166466374,42.2409166466374 0 0,0 -0.04975585498068711,0.7234392115100673 l -21.17756617452976 -1.6392775581978134" fill="#fff116" stroke="none" /><path d="M 119.4528033332814 107.91128576633889 l 13.712464392565149 5.576739892534038 a35.80309790369393,35.80309790369393 0 0,0 -0.23642687451296576,0.5673384306495465 l -13.614711673515698 -5.811310832624861" fill="#ff9a0e" stroke="none" /><path d="M 119.0197475246899 108.90220220490707 l 11.8267565151031 5.535519217012659 a34.05810639677323,34.05810639677323 0 0,0 -0.2523879899974342,0.5273938287412944 l -11.729989267145752 -5.737725547819057" fill="#ff820c" stroke="none" /><path d="M 118.8641267826498 109.22738970284198 l 20.487684767784955 10.021553270899716 a43.80738382861148,43.80738382861148 0 0,0 -0.33623228226012153,0.6726897975968896 l -20.3126325723131 -10.37177492466035" fill="#f9ff18" stroke="none" /><line stroke="#e1ed5e" stroke-width="0.3" x1="174.33088141563837" x2="178.70328620479359" y1="141.23008692659167" y2="143.65538615756765" /><path d="M 175.20536237346943 141.71514677278685 a86.0,86.0 0 0,1 -30.301960400862466,31.63118572779886" fill="none" id="id77" stroke="none" /><text fill="#e1ed5e" style="font-size:6.75px; font-family:Arial;" text-anchor="middle"><textPath startOffset="22.145653131862474" xlink:href="#id77">May</textPath></text><path d="M 117.21940702142032 112.02048342749411 l 21.168043334185704 14.776938240354601 a46.81557596408064,46.81557596408064 0 0,0 -0.4656698558342917,0.6550229696646694 l -20.91125837982145 -15.138138436728774" fill="#d3ff1c" stroke="none" /><path d="M 117.01052211995028 112.31430620078461 l 17.562778557534894 12.714097272793826 a42.68177714402283,42.68177714402283 0 0,0 -0.43474028246092905,0.5898086874470078 l -17.341936255490136 -13.013712269509712" fill="#fff717" stroke="none" /><path d="M 112.7482090630111 116.68781488649013 l 3.059540307108727 4.00503647456861 a26.03995079871301,26.03995079871301 0 0,0 -0.3575496181771238,0.26831189922965304 l -2.990337700020837 -4.056967401062278" fill="#ff0c01" stroke="none" /><line stroke="#e1ed5e" stroke-width="0.3" x1="143.1302829299769" x2="145.6673583964461" y1="173.24464959558577" y2="177.55315839532614" /><path d="M 143.63769802327073 174.10635135553383 a86.0,86.0 0 0,1 -40.685524379131806,11.842963189579606" fill="none" id="id78" stroke="none" /><text fill="#e1ed5e" style="font-size:6.75px; font-family:Arial;" text-anchor="middle"><textPath startOffset="21.407464694133747" xlink:href="#id78">June</textPath></text><path d="M 110.65571695917076 118.09573695890943 l 13.136252182416921 22.30822806477917 a46.88857201141566,46.88857201141566 0 0,0 -0.6970935882492363,0.4024671708260633 l -12.751366126307284 -22.530442132881404" fill="#d2ff1c" stroke="none" /><path d="M 109.71004243097381 118.62028667847754 l 10.398656473207645 19.940794901625786 a43.48927205928391,43.48927205928391 0 0,0 -0.6649153050346744,0.33951049245982357 l -10.054813946459387 -20.116363345758444" fill="#fdff18" stroke="none" /><path d="M 108.73861861582097 119.09545874513695 l 2.6692455785018088 5.832783311156323 a27.414532961428694,27.414532961428694 0 0,0 -0.4296073983132772,0.19215792488002753 l -2.5687247773329047 -5.877744986946201" fill="#ff2103" stroke="none" /><path d="M 108.4095320186766 119.2426549942271 l 8.524318090798523 19.505307990740974 a42.286639911615424,42.286639911615424 0 0,0 -0.667655551599515,0.2849824537246717 l -8.188227464028579 -19.648765094125046" fill="#fff216" stroke="none" /><path d="M 107.06938296918513 119.77432235084164 l 4.295739348697337 12.015947500171603 a33.76073551480583,33.76073551480583 0 0,0 -0.5473969321098107,0.19041306819099324 l -4.088836644542504 -12.087919000931187" fill="#ff7e0b" stroke="none" /><path d="M 106.0420521117495 120.11202640906438 l 6.114736030598846 20.353967535750403 a42.25262315974866,42.25262315974866 0 0,0 -0.696443926540954,0.2027246769335301 l -5.7644320916762855 -20.45593590698645" fill="#fff116" stroke="none" /><path d="M 105.3480935250658 120.30758222061773 l 14.062443413621127 53.39738815457261 a76.21805299439113,76.21805299439113 0 0,0 -1.2681040131860197,0.32234708126971207 l -13.14373410720971 -53.63092046767759" fill="#43ffdd" stroke="none" /><line stroke="#e1ed5e" stroke-width="0.3" x1="101.45913802915013" x2="101.54496967792366" y1="184.9874750549273" y2="189.98673829345242" /><path d="M 101.47630435890484 185.9873277026323 a86.0,86.0 0 0,1 -42.54439059252881,-10.42667462771756" fill="none" id="id79" stroke="none" /><text fill="#e1ed5e" style="font-size:6.75px; font-family:Arial;" text-anchor="middle"><textPath startOffset="22.145653131862474" xlink:href="#id79">July</textPath></text><path d="M 90.93487009805054 118.94263497670748 l -7.337531742698988 15.332619271353284 a37.997899452443804,37.997899452443804 0 0,0 -0.5859633470116358,-0.28662403602116554 l 7.599655338972693 -15.204401485234898" fill="#ffb911" stroke="none" /><line stroke="#e1ed5e" stroke-width="0.3" x1="58.13341422392154" x2="55.670673884152215" y1="173.97424548756322" y2="178.32567169271397" /><path d="M 57.64086615596767 174.84453072859336 a86.0,86.0 0 0,1 -31.369924170532244,-30.572349798747886" fill="none" id="id80" stroke="none" /><text fill="#e1ed5e" style="font-size:6.75px; font-family:Arial;" text-anchor="middle"><textPath startOffset="22.145653131862474" xlink:href="#id80">August</textPath></text><path d="M 88.72937992617639 117.7192867562869 l -24.32870842117239 38.2487705291442 a66.33050298015183,66.33050298015183 0 0,0 -0.9555204843388175,-0.6193568336774447 l 24.981714537768216 -37.825499853762864" fill="#36ff6d" stroke="none" /><path d="M 88.1277618465304 117.32195027204791 l -12.006448836258572 17.517767669171885 a42.237396209723514,42.237396209723514 0 0,0 -0.5945515074110889,-0.41504312736996857 l 12.305395434843426 -17.309079725996792" fill="#fff116" stroke="none" /><path d="M 87.83215693770417 117.11559508785305 l -12.30773016333941 17.312363814012453 a42.24142562546833,42.24142562546833 0 0,0 -0.5873951634053826,-0.4252287996821874 l 12.603106337118748 -17.0985342429572" fill="#fff116" stroke="none" /><path d="M 87.2517909369889 116.68781488649013 l -12.880735500719405 16.861296247606088 a42.21830950356386,42.21830950356386 0 0,0 -0.5721386209060145,-0.44489845216602647 l 13.168284066260647 -16.63769674381927" fill="#fff116" stroke="none" /><path d="M 86.13680546590413 115.77377054828092 l -37.807780719773646 43.01831418052184 a78.27131601324152,78.27131601324152 0 0,0 -1.0016304766341866,-0.8956641485663105 l 38.54067622323121 -42.36295450207215" fill="#45fff3" stroke="none" /><path d="M 84.83555147118756 114.52719865689866 l -15.336029414351597 14.691569263928523 a42.2376082842364,42.2376082842364 0 0,0 -0.49708468973249237,-0.5278867145579617 l 15.585969937820343 -14.426141089426071" fill="#fff116" stroke="none" /><path d="M 84.58840730492382 114.26474011684316 l -15.579931168614277 14.420551694802526 a42.22937979313646,42.22937979313646 0 0,0 -0.48785450618268406,-0.5362375618254112 l 15.825183375638842 -14.150976557419444" fill="#fff116" stroke="none" /><path d="M 84.1078160697243 113.72728997021213 l -22.410653455557078 19.35778869386841 a50.613533585533695,50.613533585533695 0 0,0 -0.5623053593152504,-0.6623942993766501 l 22.739653378379444 -18.970227612042205" fill="#a5ff21" stroke="none" /><path d="M 83.87451063323141 113.45245675266167 l -19.552459975607043 16.311357518988014 a46.46289604915282,46.46289604915282 0 0,0 -0.5056782228294705,-0.6168452097230436 l 19.82958501767514 -15.973310027566477" fill="#d8ff1c" stroke="none" /><path d="M 83.64595745247003 113.17365903436017 l -10.253907285208458 8.259821872952141 a34.16690062188326,34.16690062188326 0 0,0 -0.36401345857376133,-0.4599191135264483 l 10.39418717442378 -8.08258281551101" fill="#ff840c" stroke="none" /><path d="M 83.4222238831116 112.89097897827486 l -39.53478283464591 30.742486256216864 a71.0809296538742,71.0809296538742 0 0,0 -0.7407581382175549,-0.9696761815824755 l 40.05669295021776 -30.059289161393522" fill="#3cffa5" stroke="none" /><path d="M 83.20337586046588 112.60449989151573 l -3.4175810158824156 2.5646165078223238 a25.27283487070524,25.27283487070524 0 0,0 -0.25741944467786654,-0.34923891554133857 l 3.461102480144113 -2.5055712830121055" fill="#ff0000" stroke="none" /><path d="M 82.98947788004972 112.3143062007846 l -13.839256351730008 10.018554345635494 a38.0849772474344,38.0849772474344 0 0,0 -0.37882746284852503,-0.5328682683593627 l 14.009198913108493 -9.779508850566627" fill="#ffba11" stroke="none" /><path d="M 82.78059297857968 112.02048342749411 l -17.488735771198403 12.20849581196402 a42.32846100555635,42.32846100555635 0 0,0 -0.41080832274975193,-0.5993816200473465 l 17.69573383076348 -11.906479456846624" fill="#fff216" stroke="none" /><path d="M 82.576782715395 111.72311816256416 l -20.563914174010012 13.836319194604634 a45.78544522519284,45.78544522519284 0 0,0 -0.4331642390180674,-0.6558658668067984 l 20.798402851948808 -13.481273449458774" fill="#e0ff1b" stroke="none" /><path d="M 82.37810715431573 111.42229804090323 l -9.324840736725362 6.04424910601576 a32.11240757085813,32.11240757085813 0 0,0 -0.2958658449647562,-0.4651502502952407 l 9.427224273316009 -5.883285181041845" fill="#ff6609" stroke="none" /><path d="M 81.99639281039703 110.81064883170646 l -47.37095302911058 28.444896215949314 a76.25503878943827,76.25503878943827 0 0,0 -0.6642405395077341,-1.1280256529365968 l 47.85226727874809 -27.62751939471916" fill="#43ffde" stroke="none" /><line stroke="#e1ed5e" stroke-width="0.3" x1="26.387840678322732" x2="22.057713659400548" y1="142.50000000000003" y2="145.00000000000006" /><path d="M 25.521815274538298 143.00000000000003 a86.0,86.0 0 0,1 -11.493303480769221,-40.785679425670985" fill="none" id="id81" stroke="none" /><text fill="#e1ed5e" style="font-size:6.75px; font-family:Arial;" text-anchor="middle"><textPath startOffset="21.40746469413373" xlink:href="#id81">September</textPath></text><path d="M 81.63589988554817 110.18625677009913 l -21.4304522117917 11.88711058903772 a45.50648241094385,45.50648241094385 0 0,0 -0.3730548842710567,-0.6863789690114401 l 21.631352445678086 -11.517476786551693" fill="#e3ff1b" stroke="none" /><path d="M 81.4637452351635 109.86951160357371 l -15.443291091903463 8.222682659608571 a38.49593523850304,38.49593523850304 0 0,0 -0.3055696086438747,-0.5859700154377717 l 15.582168769522287 -7.956366401066296" fill="#ffbf11" stroke="none" /><path d="M 81.1358732173502 109.22738970284198 l -24.069936756952462 11.773812227737915 a47.7952329689018,47.7952329689018 0 0,0 -0.35418712479044656,-0.740114867732031 l 24.26850313970282 -11.358884857940781" fill="#c7ff1e" stroke="none" /><path d="M 80.83023694016515 108.57439118712176 l -47.466080149540055 21.230973906723815 a72.99791359074466,72.99791359074466 0 0,0 -0.5018297812360295,-1.148284746964186 l 47.823543812793055 -20.41302708998378" fill="#3fffba" stroke="none" /><path d="M 80.68587082218212 108.24405325689762 l -7.823386956169646 3.3393386842443986 a29.506266296916436,29.506266296916436 0 0,0 -0.19484555045744986,-0.46755839006581806 l 7.879558351163581 -3.2045477847372994" fill="#ff4006" stroke="none" /><path d="M 80.5471966667186 107.91128576633889 l -12.73143385902869 5.177763315053704 a34.744040201248616,34.744040201248616 0 0,0 -0.21994851149448721,-0.5544139299680669 l 12.818441045489303 -4.958448367872071" fill="#ff8c0c" stroke="none" /><path d="M 80.05021161711548 106.5578916946017 l -25.374412376030666 8.341073347872268 a47.7101910892349,47.7101910892349 0 0,0 -0.24908192192331619,-0.7802455727878236 l 25.513859013731242 -7.904258741393052" fill="#c8ff1d" stroke="none" /><path d="M 79.94057633289273 106.21446072829308 l -47.654830400118435 14.76358827400501 a70.88934153893385,70.88934153893385 0 0,0 -0.35013825604465604,-1.1654963780765701 l 47.90124497616672 -13.943354292337716" fill="#3cffa3" stroke="none" /><path d="M 79.34024301695615 103.76489593502545 l -8.874270468403761 1.6171876968461458 a30.020419745954932,30.020419745954932 0 0,0 -0.08803871566735082,-0.5077839165910192 l 8.900724001563345 -1.464610747334534" fill="#ff4806" stroke="none" /><path d="M 79.2786578344484 103.40968896794605 l -25.568440971881852 4.20727723199027 a46.912281941956216,46.912281941956216 0 0,0 -0.12393444773945848,-0.7957480590613621 l 25.636896911759578 -3.7677409909974577" fill="#d2ff1c" stroke="none" /><path d="M 79.17382384314188 102.69636545807758 l -17.740500468598285 2.2968629628528996 a38.8885699916584,38.8885699916584 0 0,0 -0.08003251730402933,-0.6627840521629282 l 17.777315072161976 -1.9919852337665724" fill="#ffc512" stroke="none" /><path d="M 79.0935383218832 101.97986365728391 l -32.91962570470326 3.1175227806411963 a54.06691253845113,54.06691253845113 0 0,0 -0.07957201897531521,-0.9247474770091689 l 32.96829134637632 -2.551954256256365" fill="#7eff26" stroke="none" /><path d="M 79.06263194458094 101.62068470465958 l -8.448207648496389 0.6539447021929944 a29.47347957722441,29.47347957722441 0 0,0 -0.034717006448707365,-0.5047776544286392 l 8.458188616110162 -0.5088236236100119" fill="#ff4006" stroke="none" /><path d="M 79.00696218219943 100.54070618675478 l -28.014235423352915 0.7215473311712691 a49.02352613262938,49.02352613262938 0 0,0 -0.014446925940302875,-0.8414610087894292 l 28.02249378089188 -0.24053940641278748" fill="#b8ff1f" stroke="none" /><line stroke="#e1ed5e" stroke-width="0.3" x1="15.003131293944662" x2="10.003315487706104" y1="100.72959589197737" y2="100.7725132973878" /><path d="M 14.003168132696942 100.73817937305945 a86.0,86.0 0 0,1 10.791469493833604,-42.453326145846276" fill="none" id="id82" stroke="none" /><text fill="#e1ed5e" style="font-size:6.75px; font-family:Arial;" text-anchor="middle"><textPath startOffset="22.145653131862435" xlink:href="#id82">October</textPath></text><path d="M 79.00077361379809 100.18025310272382 l -52.12569804640482 0.4474364260715468 a73.12761836282516,73.12761836282516 0 0,0 0.0,-1.2553790575907096 l 52.12569804640482 0.4474364260715276" fill="#3fffbc" stroke="none" /><path d="M 79.01933749520258 99.09900007780938 l -28.758367569324676 -1.2350080430666097 a49.784873633886676,49.784873633886676 0 0,0 0.04399657732144932,-0.8535218462559636 l 28.732929402546656 1.7285016826992854" fill="#afff20" stroke="none" /><path d="M 79.03789590574601 98.7389718711861 l -36.99699662867571 -2.225647445533966 a58.0638808827955,58.0638808827955 0 0,0 0.06839382916304484,-0.9944312656484475 l 36.953338838347605 2.8604221353367385" fill="#52ff2b" stroke="none" /><path d="M 79.13060592940154 97.66154086499901 l -35.39365505407995 -3.9659328729094163 a56.61515747037521,56.61515747037521 0 0,0 0.11651376152142717,-0.9649010876486971 l 35.32035920629886 4.57292763748155" fill="#62ff29" stroke="none" /><path d="M 79.17382384314186 97.30363454192245 l -25.857934505495876 -3.3478273156203464 a47.073755476066886,47.073755476066886 0 0,0 0.11063561709920057,-0.8005042122587908 l 25.796654371841466 3.7912198360792044" fill="#d0ff1d" stroke="none" /><path d="M 79.2786578344484 96.59031103205396 l -30.482628664682302 -5.01590494677284 a51.892554972743376,51.892554972743376 0 0,0 0.15218154613288878,-0.8777427174223615 l 30.39203230105718 5.538440697115793" fill="#97ff23" stroke="none" /><path d="M 79.407916724674 95.88100663000787 l -20.90031424901753 -4.180648197242315 a42.3143368429982,42.3143368429982 0 0,0 0.14858838398816776,-0.7110492069838935 l 20.825468154204994 4.538813855511617" fill="#fff216" stroke="none" /><path d="M 79.48165901384962 95.52812308129327 l -20.730482933697477 -4.518112268795004 a42.2171218862917,42.2171218862917 0 0,0 0.16040322775344748,-0.7067662178634389 l 20.64986884438637 4.873312820597452" fill="#fff116" stroke="none" /><path d="M 79.64726062577567 94.8264132398404 l -30.189334249532116 -7.674010711757789 a52.14941962274973,52.14941962274973 0 0,0 0.2279935852998516,-0.865728779339763 l 30.053151183427538 8.191119995470336" fill="#94ff23" stroke="none" /><path d="M 79.73907114497095 94.47779374421319 l -19.72816327661375 -5.376998628286427 a41.44780038334993,41.44780038334993 0 0,0 0.19299182960360345,-0.684859919270099 l 19.632952954935565 5.714866471459539" fill="#ffe715" stroke="none" /><path d="M 79.83685265289637 94.1308016681162 l -21.179960741654096 -6.1651778918402425 a43.05901528754274,43.05901528754274 0 0,0 0.21267807250685722,-0.7079361335809847 l 21.071006349143612 6.52785162901195" fill="#fffc17" stroke="none" /><path d="M 80.16572619554312 93.10060997987247 l -32.81224702185316 -11.413802787660552 a55.7407318388476,55.7407318388476 0 0,0 0.32212789226612876,-0.9010490459539886 l 32.61147895954309 11.975386789995463" fill="#6bff28" stroke="none" /><path d="M 80.28708602549916 92.7611449362534 l -22.930428281842016 -8.42037088461923 a45.427590692150616,45.427590692150616 0 0,0 0.27509503067992797,-0.7297222521342677 l 22.782502567347652 8.812761416947643" fill="#e4ff1a" stroke="none" /><path d="M 80.41425534168474 92.42381321644754 l -31.913463130620887 -12.34481311819554 a55.21788333478083,55.21788333478083 0 0,0 0.349558979813873,-0.8811169779573388 l 31.696845475840885 12.890831113366463" fill="#71ff27" stroke="none" /><path d="M 80.9802524753101 91.09779779509293 l -10.739412205695782 -5.026587176977242 a32.85755257933101,32.85755257933101 0 0,0 0.2434912720960443,-0.508803110073214 l 10.651541675639832 5.210202789115543" fill="#ff710a" stroke="none" /><path d="M 81.1358732173502 90.77261029715801 l -47.61808090603798 -23.29238954360712 a74.00959384701147,74.00959384701147 0 0,0 0.5680415599726137,-1.1364636359009066 l 47.21121943285362 24.106385035671796" fill="#40ffc6" stroke="none" /><path d="M 81.29705330413844 90.45014215332179 l -4.6066737761051 -2.3522004539294605 a26.172454954363584,26.172454954363584 0 0,0 0.2077493836194889,-0.39838683587337687 l 4.565616323510671 2.430933532907324" fill="#ff0e01" stroke="none" /><line stroke="#e1ed5e" stroke-width="0.3" x1="26.387840678322718" x2="22.05771365940052" y1="57.5" y2="55.0" /><path d="M 25.521815274538284 57.0 a86.0,86.0 0 0,1 29.574782752854787,-30.346332500585742" fill="none" id="id83" stroke="none" /><text fill="#e1ed5e" style="font-size:6.75px; font-family:Arial;" text-anchor="middle"><textPath startOffset="21.40746469413373" xlink:href="#id83">November</textPath></text><path d="M 81.99639281039701 89.18935116829357 l -54.01082156880897 -32.431946495119284 a84.0,84.0 0 0,0 0.752928142178428,-1.2298515355018371 l 53.44612546217515 33.35433514674566" fill="#4dd2ff" stroke="none" /><path d="M 82.576782715395 88.27688183743585 l -21.92149982970501 -14.749763410879021 a47.421727336808665,47.421727336808665 0 0,0 0.46023974900892495,-0.6715035482355513 l 21.66507034388077 15.12390169418461" fill="#ccff1d" stroke="none" /><path d="M 82.78059297857968 87.97951657250589 l -22.340757191851928 -15.5955835905536 a48.24576406407478,48.24576406407478 0 0,0 0.4798957939462125,-0.6750335331821299 l 22.069746299375744 15.976794350445248" fill="#c2ff1e" stroke="none" /><path d="M 82.98947788004972 87.6856937992154 l -17.22013494349786 -12.466049720153032 a42.258773320622325,42.258773320622325 0 0,0 0.4304317270545865,-0.5839633045562802 l 17.003601196859456 12.759819333978177" fill="#fff116" stroke="none" /><path d="M 83.42222388311158 87.10902102172516 l -6.727655570466378 -5.231465663455583 a29.522299130090545,29.522299130090545 0 0,0 0.3145299695258385,-0.3973983416124558 l 6.636859170298975 5.346183948982719" fill="#ff4006" stroke="none" /><path d="M 83.64595745247001 86.82634096563983 l -21.555002585347665 -17.363184284182353 a48.67848090016541,48.67848090016541 0 0,0 0.5297915068745009,-0.6462594954928332 l 21.253764259234536 17.730646061373683" fill="#bdff1f" stroke="none" /><path d="M 83.8745106332314 86.54754324733833 l -22.84420171191273 -19.05744555026598 a50.74968542280589,50.74968542280589 0 0,0 0.5638179766402074,-0.664176158782033 l 22.513689171765407 19.446788491497568" fill="#a4ff21" stroke="none" /><path d="M 84.10781606972428 86.27271002978789 l -36.91296409215889 -31.884539216020865 a69.7769490547224,69.7769490547224 0 0,0 0.7907686602737559,-0.8997495759907252 l 36.36018436792654 32.513501069822894" fill="#3aff96" stroke="none" /><line stroke="#e1ed5e" stroke-width="0.3" x1="56.869717070023135" x2="54.33264160355391" y1="26.7553504044142" y2="22.446841604673864" /><path d="M 56.362301976729285 25.89364864446614 a86.0,86.0 0 0,1 42.16139366436587,-11.88097634709845" fill="none" id="id84" stroke="none" /><text fill="#e1ed5e" style="font-size:6.75px; font-family:Arial;" text-anchor="middle"><textPath startOffset="22.145653131862474" xlink:href="#id84">December</textPath></text></svg>