<?xml version="1.0" encoding="utf-8" ?>
<svg baseProfile="full" height="200mm" version="1.1" viewBox="0,0,200,200" width="200mm" xmlns="http://www.w3.org/2000/svg" xmlns:ev="http://www.w3.org/2001/xml-events" xmlns:xlink="http://www.w3.org/1999/xlink"><defs /><rect fill="#1a1a1a" height="200" width="200" x="0" y="0" /><text alignment-baseline="middle" fill="#e1ed5e" style="dominant-baseline: central; font-size:9.0px; font-family:Arial;" text-anchor="middle" x="100.0" y="100.0">2024</text><line stroke="#e1ed5e" stroke-width="0.3" x1="100.0" x2="100.0" y1="15.0" y2="10.0" /><path d="M 100.0 14.0 a86.0,86.0 0 0,1 42.35913384403234,11.155469271406648" fill="none" id="id73" stroke="none" /><text fill="#e1ed5e" style="font-size:6.75px; font-family:Arial;" text-anchor="middle"><textPath startOffset="22.145653131862478" xlink:href="#id73">January</textPath></text><path d="M 100.0 79.0 l 0.0 -9.107291890811236 a30.107291890811236,30.107291890811236 0 0,0 0.5168317006188928,0.004436378555535768 l -0.15633877577003807 9.105949910450136" fill="#ff5a08" stroke="none" /><path d="M 109.06512990194946 81.05736502329252 l 5.095867365335335 -10.648402883945957 a32.8049289783513,32.8049289783513 0 0,0 0.5058828582535656,0.24745265608512512 l -5.277910472850968 10.55935647776361" fill="#ff800b" stroke="none" /><line stroke="#e1ed5e" stroke-width="0.3" x1="143.13028292997686" x2="145.6673583964461" y1="26.7553504044142" y2="22.446841604673864" /><path d="M 143.63769802327073 25.89364864446614 a86.0,86.0 0 0,1 29.32050498858742,28.57503671076992" fill="none" id="id74" stroke="none" /><text fill="#e1ed5e" style="font-size:6.75px; font-family:Arial;" text-anchor="middle"><textPath startOffset="20.669276256404974" xlink:href="#id74">February</textPath></text><path d="M 115.41159269507618 85.73525988315684 l 10.828260133216281 -10.02247592276771 a35.754702339764755,35.754702339764755 0 0,0 0.4130558568257729,0.45402074338740267 l -10.998713690883932 9.835117603822635" fill="#ffa80f" stroke="none" /><path d="M 117.21940702142032 87.97951657250589 l 3.3789152514538174 -2.358745265297617 a25.12077025604087,25.12077025604087 0 0,0 0.2438033712993097,0.3557164048777159 l -3.4189083595684497 2.3003941253498525" fill="#ff1101" stroke="none" /><path d="M 117.42321728460499 88.27688183743584 l 8.387033257986108 -5.643170277374849 a31.108793085725516,31.108793085725516 0 0,0 0.29431223432407655,0.44562623432252724 l -8.482669931230909 5.498364164713265" fill="#ff6809" stroke="none" /><path d="M 117.81537515405839 88.88188828441811 l 9.578024374065905 -5.977395597037008 a32.290164260704,32.290164260704 0 0,0 0.28943063556484444,0.47276319163847447 l -9.679222974086152 5.812095289273981" fill="#ff790b" stroke="none" /><line stroke="#e1ed5e" stroke-width="0.3" x1="172.87174338648825" x2="177.1583165268699" y1="56.24261187166439" y2="53.66864786411523" /><path d="M 173.72905801456457 55.72781907015455 a86.0,86.0 0 0,1 12.242430191666344,42.057860355516425" fill="none" id="id75" stroke="none" /><text fill="#e1ed5e" style="font-size:6.75px; font-family:Arial;" text-anchor="middle"><textPath startOffset="22.145653131862474" xlink:href="#id75">March</textPath></text><path d="M 118.18653347947321 89.5 l 10.257748992437296 -5.9223141420632865 a32.84462828412657,32.84462828412657 0 0,0 0.2777195295969532,0.4907037982264616 l -10.357901887055627 5.745353573737706" fill="#ff810b" stroke="none" /><path d="M 118.36410011445183 89.81374322990088 l 9.73878188344555 -5.401938144232727 a32.13664259494053,32.13664259494053 0 0,0 0.2634510700223235,0.48472029572864916 l -9.830078303083214 5.233963015029475" fill="#ff770a" stroke="none" /><path d="M 118.53625476483649 90.13048839642627 l 16.6948505448929 -8.88906757395892 a39.91384564414965,39.91384564414965 0 0,0 0.3168245716694906,0.6075528910618856 l -16.844983185537338 8.601168439792536" fill="#ffdf14" stroke="none" /><path d="M 118.8641267826498 90.77261029715802 l 16.916922228701196 -8.274914379841169 a39.83232502070912,39.83232502070912 0 0,0 0.2951779036621294,0.6168082909720918 l -17.056479390323236 7.983293586803972" fill="#ffde14" stroke="none" /><path d="M 119.0197475246899 91.09779779509293 l 6.2397508995921305 -2.9205184845021033 a27.889406324733596,27.889406324733596 0 0,0 0.19923067688951543,0.43535498441614967 l -6.288966041336698 2.8129745178712695" fill="#ff3a05" stroke="none" /><path d="M 119.16976305983485 91.42560881287824 l 18.221450334853316 -8.15022296728842 a40.96114692902293,40.96114692902293 0 0,0 0.28159056048931136,0.6443343093400362 l -18.358674777359596 7.836226588172534" fill="#ffed16" stroke="none" /><path d="M 119.4528033332814 92.08871423366111 l 5.450776925127243 -2.2167835228905 a26.884309498561272,26.884309498561272 0 0,0 0.17019217749331153,0.4289954650420746 l -5.488027777586678 2.1228870406348603" fill="#ff2b04" stroke="none" /><path d="M 119.71291397450082 92.76114493625339 l 17.10286328206773 -6.280408296516039 a39.219535142699115,39.219535142699115 0 0,0 0.22665124361302652,0.6339838670445963 l -17.2081546957247 5.985889473090525" fill="#ffd614" stroke="none" /><path d="M 119.83427380445688 93.10060997987247 l 14.915413529556757 -5.188355080021889 a36.79204195771002,36.79204195771002 0 0,0 0.20238177220174916,0.5983057486302076 l -15.00228072333087 4.9315476569175205" fill="#ffb610" stroke="none" /><path d="M 120.86939407059847 97.66154086499901 l 11.162511100481815 -1.2507826515790659 a32.232368909089075,32.232368909089075 0 0,0 0.05689413333848872,0.5503991298527426 l -11.18233762630197 1.058978999443392" fill="#ff780b" stroke="none" /><line stroke="#e1ed5e" stroke-width="0.3" x1="184.99686870605535" x2="189.99668451229388" y1="99.2704041080226" y2="99.22748670261217" /><path d="M 185.99683186730306 99.26182062694052 a86.0,86.0 0 0,1 -10.086455211305974,41.156179273409016" fill="none" id="id76" stroke="none" /><text fill="#e1ed5e" style="font-size:6.75px; font-family:Arial;" text-anchor="middle"><textPath startOffset="21.40746469413373" xlink:href="#id76">April</textPath></text><path d="M 120.96210409425399 101.26102812881392 l 14.732812983305543 0.8862894442736662 a35.75944739412988,35.75944739412988 0 0,0 -0.042121289497951096,0.612434304947888 l -14.715427732642524 -1.1390671733758972" fill="#ffa80f" stroke="none" /><path d="M 119.4528033332814 107.91128576633889 l 9.52823271296929 3.8750492949009274 a31.286069495701955,31.286069495701955 0 0,0 -0.20659853643282336,0.49576127788240604 l -9.46030833199998 -4.038043082224611" fill="#ff6b09" stroke="none" /><path d="M 119.0197475246899 108.90220220490707 l 8.217931152960887 3.8464067272552134 a30.073546007282886,30.073546007282886 0 0,0 -0.22286035930619472,0.4656924371494437 l -8.15069153569478 -3.9869116664697604" fill="#ff5a08" stroke="none" /><path d="M 118.8641267826498 109.22738970284198 l 14.23605725629115 6.963568981978477 a36.84792160414648,36.84792160414648 0 0,0 -0.2828167239106482,0.5658228992339488 l -14.11442061916877 -7.206923737376171" fill="#ffb711" stroke="none" /><line stroke="#e1ed5e" stroke-width="0.3" x1="174.33088141563837" x2="178.70328620479359" y1="141.23008692659167" y2="143.65538615756765" /><path d="M 175.20536237346943 141.71514677278685 a86.0,86.0 0 0,1 -30.301960400862466,31.63118572779886" fill="none" id="id77" stroke="none" /><text fill="#e1ed5e" style="font-size:6.75px; font-family:Arial;" text-anchor="middle"><textPath startOffset="22.145653131862474" xlink:href="#id77">May</textPath></text><path d="M 117.21940702142032 112.02048342749411 l 14.708810698950469 10.267892211673763 a38.93819173295097,38.93819173295097 0 0,0 -0.3873143020742364,0.5448060705663199 l -14.530381298346272 -10.518875508949586" fill="#ffd213" stroke="none" /><path d="M 117.01052211995028 112.31430620078461 l 12.203659122956184 8.834508085664817 a36.06578338836015,36.06578338836015 0 0,0 -0.3673522966141559,0.49838394240844586 l -12.050204806758197 -9.042698337342143" fill="#ffac10" stroke="none" /><path d="M 112.7482090630111 116.68781488649013 l 2.125949880799515 2.7829366378745553 a24.50205642817131,24.50205642817131 0 0,0 -0.3364330826953782,0.2524656573314145 l -2.0778638091933703 -2.8190213224699843" fill="#ff0801" stroke="none" /><line stroke="#e1ed5e" stroke-width="0.3" x1="143.1302829299769" x2="145.6673583964461" y1="173.24464959558577" y2="177.55315839532614" /><path d="M 143.63769802327073 174.10635135553383 a86.0,86.0 0 0,1 -40.685524379131806,11.842963189579606" fill="none" id="id78" stroke="none" /><text fill="#e1ed5e" style="font-size:6.75px; font-family:Arial;" text-anchor="middle"><textPath startOffset="21.407464694133747" xlink:href="#id78">June</textPath></text><path d="M 110.65571695917076 118.09573695890943 l 9.12784632922608 15.501078604839014 a38.98891371159926,38.98891371159926 0 0,0 -0.5796491681286754,0.33466060325463715 l -8.860404693237003 -15.655486105369823" fill="#ffd313" stroke="none" /><path d="M 109.71004243097381 118.62028667847754 l 7.225602630018001 13.856045774477975 a36.62687869893895,36.62687869893895 0 0,0 -0.559994938277521,0.2859374056064102 l -6.986680470026897 -13.978041131757221" fill="#ffb410" stroke="none" /><path d="M 108.73861861582097 119.09545874513695 l 1.8547499786996249 4.052963432536182 a25.457197557766733,25.457197557766733 0 0,0 -0.39893440557702375,0.17843828537381826 l -1.7849021702669743 -4.08420546881985" fill="#ff1602" stroke="none" /><path d="M 108.4095320186766 119.2426549942271 l 5.923201268806249 13.553443666529207 a35.79121862770504,35.79121862770504 0 0,0 -0.5651006054216041,0.2412078454953766 l -5.689665588214213 -13.653126161683986" fill="#ffa90f" stroke="none" /><path d="M 107.06938296918513 119.77432235084164 l 2.9849342187418846 8.349392258807478 a29.86691509949489,29.86691509949489 0 0,0 -0.4842624856285425,0.16845163041547656 l -2.84116596106832 -8.399402321791545" fill="#ff5708" stroke="none" /><path d="M 106.0420521117495 120.11202640906438 l 4.2488808874875685 14.143142600829943 a35.76758177304151,35.76758177304151 0 0,0 -0.5895519196219264,0.1716099715802022 l -4.0054689554840355 -14.213996266712664" fill="#ffa80f" stroke="none" /><path d="M 105.3480935250658 120.30758222061773 l 9.771418872787985 37.103669044156476 a59.36877484785998,59.36877484785998 0 0,0 -0.987768365692164,0.25108685592079705 l -9.133045213870423 -37.26594113191254" fill="#3fff2d" stroke="none" /><line stroke="#e1ed5e" stroke-width="0.3" x1="101.45913802915013" x2="101.54496967792366" y1="184.9874750549273" y2="189.98673829345242" /><path d="M 101.47630435890484 185.9873277026323 a86.0,86.0 0 0,1 -42.54439059252881,-10.42667462771756" fill="none" id="id79" stroke="none" /><text fill="#e1ed5e" style="font-size:6.75px; font-family:Arial;" text-anchor="middle"><textPath startOffset="22.145653131862474" xlink:href="#id79">July</textPath></text><path d="M 90.93487009805054 118.94263497670748 l -5.09855179796434 10.654012315687227 a32.81114765208447,32.81114765208447 0 0,0 -0.5059787560512605,-0.24749956450347946 l 5.280690803277671 -10.564919001086528" fill="#ff800b" stroke="none" /><line stroke="#e1ed5e" stroke-width="0.3" x1="58.13341422392154" x2="55.670673884152215" y1="173.97424548756322" y2="178.32567169271397" /><path d="M 57.64086615596767 174.84453072859336 a86.0,86.0 0 0,1 -31.369924170532244,-30.572349798747886" fill="none" id="id80" stroke="none" /><text fill="#e1ed5e" style="font-size:6.75px; font-family:Arial;" text-anchor="middle"><textPath startOffset="22.145653131862474" xlink:href="#id80">August</textPath></text><path d="M 88.72937992617639 117.7192867562869 l -16.905028068374968 26.57751197401448 a52.49831926819951,52.49831926819951 0 0,0 -0.7562617076661439,-0.4901997020144593 l 17.358775408298122 -26.283398430296124" fill="#88ff25" stroke="none" /><path d="M 88.1277618465304 117.32195027204791 l -8.34279202433214 12.1723828908609 a35.757001185978915,35.757001185978915 0 0,0 -0.5033307178800409,-0.35136393171376107 l 8.550517833385944 -12.027374143342012" fill="#ffa80f" stroke="none" /><path d="M 87.83215693770417 117.11559508785305 l -8.55214014107583 12.029656122274993 a35.75980106277821,35.75980106277821 0 0,0 -0.49726385598004297,-0.35998068383446985 l 8.757385007429827 -11.881074667067455" fill="#ffa80f" stroke="none" /><path d="M 87.2517909369889 116.68781488649013 l -8.950298199614917 11.716227651727948 a35.743738611666465,35.743738611666465 0 0,0 -0.48439583573514694,-0.37666913170966854 l 9.15010397998529 -11.560857468397487" fill="#ffa80f" stroke="none" /><path d="M 86.13680546590413 115.77377054828092 l -26.2710861261553 29.891673494800756 a60.79550364761883,60.79550364761883 0 0,0 -0.7779941924763096,-0.6956872042625755 l 26.78034534545498 -29.436290760654803" fill="#30ff2f" stroke="none" /><path d="M 84.83555147118756 114.52719865689866 l -10.656381885090815 10.208572788806443 a35.75714854791572,35.75714854791572 0 0,0 -0.4208176507544563,-0.44689376211590254 l 10.830055369581524 -10.02413756674605" fill="#ffa80f" stroke="none" /><path d="M 84.58840730492382 114.26474011684316 l -10.825859274944703 10.020253724194264 a35.75143090476769,35.75143090476769 0 0,0 -0.41301806360425297,-0.45397920201655867 l 10.996275039390836 -9.832936946620032" fill="#ffa80f" stroke="none" /><path d="M 84.1078160697243 113.72728997021213 l -15.572249834977475 13.45093851865677 a41.577237714417365,41.577237714417365 0 0,0 -0.4619140758633621,-0.5441336199006174 l 15.800858474347951 -13.181638116306596" fill="#fff417" stroke="none" /><path d="M 83.87451063323141 113.45245675266167 l -13.586207659333144 11.334097639635544 a38.69312883204422,38.69312883204422 0 0,0 -0.4211160794368226,-0.5136931443961995 l 13.778770558008594 -11.09920221354085" fill="#ffcf13" stroke="none" /><path d="M 83.64595745247003 113.17365903436017 l -7.125022317917619 5.739413625448213 a30.14914268086386,30.14914268086386 0 0,0 -0.32120834786126234,-0.40583625447384875 l 7.222497096420443 -5.616257427059681" fill="#ff5b08" stroke="none" /><path d="M 83.4222238831116 112.89097897827486 l -27.47110951912141 21.361700919589286 a55.79919718024461,55.79919718024461 0 0,0 -0.5815020937197236,-0.7612049071471053 l 27.833763590195428 -20.88697509920131" fill="#64ff29" stroke="none" /><path d="M 83.20337586046588 112.60449989151573 l -2.374737778893301 1.782047501199199 a23.96901883036019,23.96901883036019 0 0,0 -0.24413927239862782,-0.33122181131361644 l 2.4049790708757595 -1.741019380616703" fill="#ff0000" stroke="none" /><path d="M 82.98947788004972 112.3143062007846 l -9.616335278523518 6.96148515102087 a32.87165446333661,32.87165446333661 0 0,0 -0.32697106208244037,-0.45992574652687973 l 9.73442143913592 -6.795382177784486" fill="#ff810b" stroke="none" /><path d="M 82.78059297857968 112.02048342749411 l -12.152209808031198 8.483186234180877 a35.82027840164299,35.82027840164299 0 0,0 -0.34764477944701283,-0.5072241227032903 l 12.296044324293534 -8.273327376407536" fill="#ffa90f" stroke="none" /><path d="M 82.576782715395 111.72311816256416 l -14.289025964270268 9.614294367728498 a38.222395861114265,38.222395861114265 0 0,0 -0.36161218778575627,-0.5475269415768078 l 14.451962590976754 -9.36758754781263" fill="#ffc912" stroke="none" /><path d="M 82.37810715431573 111.42229804090323 l -6.479451833549993 4.199902395990935 a28.721559181871545,28.721559181871545 0 0,0 -0.2646244557434344,-0.4160335973824994 l 6.5505939809193166 -4.0880551239297604" fill="#ff4606" stroke="none" /><path d="M 81.99639281039703 110.81064883170646 l -32.91614485731899 19.76519922916087 a59.39447476963878,59.39447476963878 0 0,0 -0.5173719480190954,-0.8786106760479105 l 33.250590515467856 -19.197237384819406" fill="#3eff2d" stroke="none" /><line stroke="#e1ed5e" stroke-width="0.3" x1="26.387840678322732" x2="22.057713659400548" y1="142.50000000000003" y2="145.00000000000006" /><path d="M 25.521815274538298 143.00000000000003 a86.0,86.0 0 0,1 -11.493303480769221,-40.785679425670985" fill="none" id="id81" stroke="none" /><text fill="#e1ed5e" style="font-size:6.75px; font-family:Arial;" text-anchor="middle"><textPath startOffset="21.40746469413373" xlink:href="#id81">September</textPath></text><path d="M 81.63589988554817 110.18625677009913 l -14.89114793463618 8.259868739463323 a38.028555969440944,38.028555969440944 0 0,0 -0.3117520360739512,-0.5735886330124574 l 15.030745320325462 -8.00302527297628" fill="#ffc712" stroke="none" /><path d="M 81.4637452351635 109.86951160357371 l -10.730913653826109 5.713607099547145 a33.15721242447738,33.15721242447738 0 0,0 -0.26319236983066374,-0.5047060723650576 l 10.827414092631722 -5.528554784077583" fill="#ff850c" stroke="none" /><path d="M 81.1358732173502 109.22738970284198 l -16.725218184052007 8.181142325191072 a39.61891546382809,39.61891546382809 0 0,0 -0.29359642968116406,-0.6135036185988778 l 16.863193871693085 -7.89282620452709" fill="#ffdb14" stroke="none" /><path d="M 80.83023694016515 108.57439118712176 l -32.98224481680242 14.752538589338187 a57.13123119941255,57.13123119941255 0 0,0 -0.3927530506595367,-0.8986958412176806 l 33.230631749478924 -14.184180678344656" fill="#56ff2b" stroke="none" /><path d="M 80.68587082218212 108.24405325689762 l -5.4361527868331105 2.320370371072971 a26.91065781286201,26.91065781286201 0 0,0 -0.17770536881744126,-0.4264281937938318 l 5.4751840001870375 -2.226709667837858" fill="#ff2c04" stroke="none" /><path d="M 80.5471966667186 107.91128576633889 l -8.846554572960262 3.5978167298108885 a30.550173455685044,30.550173455685044 0 0,0 -0.1933990732958811,-0.4874920023309141 l 8.907012321222266 -3.445423710266409" fill="#ff6008" stroke="none" /><path d="M 80.05021161711548 106.5578916946017 l -17.631645133369076 5.795871964310384 a39.55982332716927,39.55982332716927 0 0,0 -0.2065310702036045,-0.6469556358213127 l 17.72854091934994 -5.49234729479768" fill="#ffdb14" stroke="none" /><path d="M 79.94057633289273 106.21446072829308 l -33.113399674212104 10.258615864078788 a55.66607040653496,55.66607040653496 0 0,0 -0.2749471273096597,-0.9152095651070368 l 33.28462312152539 -9.688668695381027" fill="#65ff29" stroke="none" /><path d="M 79.34024301695615 103.76489593502545 l -6.1663689151767676 1.1237178289013887 a27.267922092452103,27.267922092452103 0 0,0 -0.07996666469862851,-0.46122647166749897 l 6.1847503973676305 -1.017698324313297" fill="#ff3104" stroke="none" /><path d="M 79.2786578344484 103.40968896794605 l -17.766467697812217 2.9234654987411384 a39.00538877613407,39.00538877613407 0 0,0 -0.10304575085079455,-0.6616276404960624 l 17.814034940801278 -2.6180496763136256" fill="#ffd313" stroke="none" /><path d="M 79.17382384314188 102.69636545807758 l -12.327150836650175 1.595996473961935 a33.4300383142782,33.4300383142782 0 0,0 -0.06879888153346153,-0.5697534330177711 l 12.352731804443296 -1.3841493640207647" fill="#ff890c" stroke="none" /><path d="M 79.0935383218832 101.97986365728391 l -22.874506402242822 2.166239538827032 a43.97685002096296,43.97685002096296 0 0,0 -0.06472214853870221,-0.7521694728689076 l 22.908322173479267 -1.7732490185824619" fill="#ecff1a" stroke="none" /><path d="M 79.06263194458094 101.62068470465958 l -5.870315224009301 0.45439952480654333 a26.887875657431955,26.887875657431955 0 0,0 -0.03167140649767196,-0.4604952995578934 l 5.8772505916720394 -0.35356080109430654" fill="#ff2b04" stroke="none" /><path d="M 79.00696218219943 100.54070618675478 l -19.465950594142708 0.5013738368246492 a40.472406329415406,40.472406329415406 0 0,0 -0.011926964520769962,-0.6946858895043537 l 19.471688990262145 -0.1671410313512431" fill="#ffe615" stroke="none" /><line stroke="#e1ed5e" stroke-width="0.3" x1="15.003131293944662" x2="10.003315487706104" y1="100.72959589197737" y2="100.7725132973878" /><path d="M 14.003168132696942 100.73817937305945 a86.0,86.0 0 0,1 10.791469493833604,-42.453326145846276" fill="none" id="id82" stroke="none" /><text fill="#e1ed5e" style="font-size:6.75px; font-family:Arial;" text-anchor="middle"><textPath startOffset="22.145653131862435" xlink:href="#id82">October</textPath></text><path d="M 79.00077361379809 100.18025310272382 l -36.220023410336374 0.3109053391001336 a57.2213577599625,57.2213577599625 0 0,0 0.0,-0.982316883647889 l 36.220023410336374 0.3109053391001203" fill="#55ff2b" stroke="none" /><path d="M 79.01933749520258 99.09900007780938 l -19.98301769842372 -0.8581567616035322 a41.00143568254543,41.00143568254543 0 0,0 0.0362343560127002,-0.7029368265603295 l 19.96534175295445 1.2010653815405736" fill="#ffed16" stroke="none" /><path d="M 79.03789590574601 98.7389718711861 l -25.707705301323905 -1.5465117130638715 a46.754180443927176,46.754180443927176 0 0,0 0.055072058245552356,-0.8007356402349374 l 25.67736928191329 1.9875907774531334" fill="#caff1d" stroke="none" /><path d="M 79.13060592940154 97.66154086499901 l -24.59360857853423 -2.7557651385832935 a45.747521581224724,45.747521581224724 0 0,0 0.09414821150149201,-0.7796822494762804 l 24.542678280773067 3.17754106498301" fill="#d6ff1c" stroke="none" /><path d="M 79.17382384314186 97.30363454192245 l -17.967624957237426 -2.3262687750978883 a39.11759015481741,39.11759015481741 0 0,0 0.09193655110886924,-0.6652070856820594 l 17.92504388957335 2.634364168980015" fill="#ffd513" stroke="none" /><path d="M 79.2786578344484 96.59031103205396 l -21.18113646862776 -3.4853479455449663 a42.46597755528845,42.46597755528845 0 0,0 0.12453690371967238,-0.7182957662607712 l 21.118184747415853 3.84843674472633" fill="#feff18" stroke="none" /><path d="M 79.407916724674 95.88100663000787 l -14.522776667832348 -2.9049620676483414 a35.81046409665178,35.81046409665178 0 0,0 0.1257497904251869,-0.6017582691210918 l 14.470769166582794 3.1538367880548424" fill="#ffa90f" stroke="none" /><path d="M 79.48165901384962 95.52812308129327 l -14.404767807572588 -3.139452099050978 a35.742913384820355,35.742913384820355 0 0,0 0.1358045840187589,-0.5983800548140337 l 14.348752361996167 3.38626648780402" fill="#ffa80f" stroke="none" /><path d="M 79.64726062577567 94.8264132398404 l -20.9773381315119 -5.332357321787656 a42.644462333146684,42.644462333146684 0 0,0 0.18643858226711996,-0.7079376642797801 l 20.882710068440055 5.691675490440221" fill="#fcff18" stroke="none" /><path d="M 79.73907114497095 94.47779374421319 l -13.708296723158647 -3.73625722998473 a35.20834322286646,35.20834322286646 0 0,0 0.16393928056607393,-0.5817626719446528 l 13.64213895051799 3.971027825832396" fill="#ffa10e" stroke="none" /><path d="M 79.83685265289637 94.1308016681162 l -14.71709161975678 -4.283930881319743 a36.327910801548924,36.327910801548924 0 0,0 0.17943164737698242,-0.5972695971373916 l 14.64138365237617 4.535938082047859" fill="#ffb010" stroke="none" /><path d="M 80.16572619554312 93.10060997987247 l -22.799893331293845 -7.930986435941671 a45.13991884339026,45.13991884339026 0 0,0 0.26086537500304974,-0.7296868818634829 l 22.66038778624685 8.321208274186075" fill="#ddff1b" stroke="none" /><path d="M 80.28708602549916 92.7611449362534 l -15.933420180540692 -5.850972591160506 a37.973737328949476,37.973737328949476 0 0,0 0.22995686710155866,-0.6099879105062059 l 15.830632629624699 6.123628781860856" fill="#ffc612" stroke="none" /><path d="M 80.41425534168474 92.42381321644754 l -22.175365031408337 -8.577907575246547 a44.776612724391164,44.776612724391164 0 0,0 0.2834601060051877,-0.7145046369792774 l 22.02484625043702 8.957313229439407" fill="#e2ff1b" stroke="none" /><path d="M 80.9802524753101 91.09779779509293 l -7.462379902466976 -3.4927705920049448 a29.239330083029664,29.239330083029664 0 0,0 0.21667839258458807,-0.4527745043330211 l 7.401322251922483 3.6203575984030527" fill="#ff4e07" stroke="none" /><path d="M 81.1358732173502 90.77261029715801 l -33.08786394834561 -16.184932311142674 a57.83420658274722,57.83420658274722 0 0,0 0.44389154458748215,-0.8880804403323598 l 32.80515249054638 16.750544607638805" fill="#4eff2b" stroke="none" /><path d="M 81.29705330413844 90.45014215332179 l -3.2009898815315254 -1.6344482414659016 a24.59412816628709,24.59412816628709 0 0,0 0.19522108171029595,-0.374362165043973 l 3.1724607308462898 1.689156649614361" fill="#ff0901" stroke="none" /><line stroke="#e1ed5e" stroke-width="0.3" x1="26.387840678322718" x2="22.05771365940052" y1="57.5" y2="55.0" /><path d="M 25.521815274538284 57.0 a86.0,86.0 0 0,1 29.574782752854787,-30.346332500585742" fill="none" id="id83" stroke="none" /><text fill="#e1ed5e" style="font-size:6.75px; font-family:Arial;" text-anchor="middle"><textPath startOffset="21.40746469413373" xlink:href="#id83">November</textPath></text><path d="M 81.99639281039701 89.18935116829357 l -37.529918925827964 -22.535637992804144 a64.77613270175813,64.77613270175813 0 0,0 0.5806163482456912,-0.9483931698467619 l 37.13753461312688 23.17656827877545" fill="#34ff5f" stroke="none" /><path d="M 82.576782715395 88.27688183743585 l -15.232356913757693 -10.249009530066296 a39.359381620727085,39.359381620727085 0 0,0 0.38199266318604314,-0.5573387115774774 l 15.054174513756335 10.50898297671381" fill="#ffd814" stroke="none" /><path d="M 82.78059297857968 87.97951657250589 l -15.523681769655035 -10.836735505102157 a39.93197116237667,39.93197116237667 0 0,0 0.39719932675033515,-0.5587105957088127 l 15.335367344374728 11.101623327520487" fill="#ffdf14" stroke="none" /><path d="M 82.98947788004972 87.6856937992154 l -11.965570038551505 -8.662149949462446 a35.771855269208864,35.771855269208864 0 0,0 0.36435845703922415,-0.49432222404151327 l 11.81510956192846 8.866278482772822" fill="#ffa90f" stroke="none" /><path d="M 83.42222388311158 87.10902102172516 l -4.6747736988009265 -3.6351323033035343 a26.921798375284467,26.921798375284467 0 0,0 0.28682428781193037,-0.36239311784014644 l 4.611682980347432 3.7148453650583613" fill="#ff2c04" stroke="none" /><path d="M 83.64595745247001 86.82634096563983 l -14.977692913697126 -12.064969196022984 a40.23264845823363,40.23264845823363 0 0,0 0.43787141788492495,-0.5341319329229568 l 14.768374676573574 12.320303410644435" fill="#ffe315" stroke="none" /><path d="M 83.8745106332314 86.54754324733833 l -15.873504850895584 -13.24224230738053 a41.67184407784619,41.67184407784619 0 0,0 0.4629651320021605,-0.5453717613892834 l 15.643845155386309 13.51278085121937" fill="#fff617" stroke="none" /><path d="M 84.10781606972428 86.27271002978789 l -25.64931451608858 -22.155266981824457 a54.89311420010196,54.89311420010196 0 0,0 0.6220930402134163,-0.7078276837185612 l 25.26521041191657 22.59230694335432" fill="#6eff28" stroke="none" /><path d="M 84.58840730492382 85.73525988315684 l -11.07328785484409 -10.24926992385493 a36.08857971739802,36.08857971739802 0 0,0 0.4247181878999253,-0.45103599739545214 l 10.895713833207893 10.43784738119489" fill="#ffad10" stroke="none" /><path d="M 85.08716467003674 85.21462403516908 l -31.356271966479532 -31.088271252374277 a65.15536661717385,65.15536661717385 0 0,0 0.7943000143281003,-0.7875111661103857 l 30.817980032021456 31.621962428713335" fill="#35ff64" stroke="none" /><path d="M 85.34317274990677 84.96080404539775 l -16.498514225621637 -16.92892903526159 a44.638731140523646,44.638731140523646 0 0,0 0.553366186282844,-0.530112288809413 l 16.20547555347349 17.209653454376568" fill="#e4ff1b" stroke="none" /><path d="M 86.13680546590413 84.22622945171909 l -10.123251484575656 -11.518401889803284 a36.3347253876614,36.3347253876614 0 0,0 0.4720408896636103,-0.407737677756469 l 9.924031115149196 11.690483700024464" fill="#ffb010" stroke="none" /><path d="M 86.40962598614128 83.9905735841838 l -9.108588844249743 -10.729894755305333 a35.07469474601562,35.07469474601562 0 0,0 0.4623607489111222,-0.3857177811715352 l 8.923053761176712 10.88467472038875" fill="#ff9f0e" stroke="none" /><path d="M 87.25179093698888 83.31218511350988 l -38.244627189033366 -50.06344465947035 a84.0,84.0 0 0,0 1.1533880443569906,-0.8655238909439871 l 37.37958615576562 50.71258757767834" fill="#4dd2ff" stroke="none" /><path d="M 88.12776184653039 82.6780497279521 l -7.268660970818112 -10.605193582988473 a33.85704333201667,33.85704333201667 0 0,0 0.48222701593653633,-0.3244638574300439 l 7.085537666784586 10.728407114475626" fill="#ff8f0d" stroke="none" /><line stroke="#e1ed5e" stroke-width="0.3" x1="56.869717070023135" x2="54.33264160355391" y1="26.7553504044142" y2="22.446841604673864" /><path d="M 56.362301976729285 25.89364864446614 a86.0,86.0 0 0,1 42.16139366436587,-11.88097634709845" fill="none" id="id84" stroke="none" /><text fill="#e1ed5e" style="font-size:6.75px; font-family:Arial;" text-anchor="middle"><textPath startOffset="22.145653131862474" xlink:href="#id84">December</textPath></text></svg>