<?xml version="1.0" encoding="utf-8" ?>
<svg baseProfile="full" height="200mm" version="1.1" viewBox="0,0,200,200" width="200mm" xmlns="http://www.w3.org/2000/svg" xmlns:ev="http://www.w3.org/2001/xml-events" xmlns:xlink="http://www.w3.org/1999/xlink"><defs /><rect fill="#1a1a1a" height="200" width="200" x="0" y="0" /><text alignment-baseline="middle" fill="#e1ed5e" style="dominant-baseline: central; font-size:9.0px; font-family:Arial;" text-anchor="middle" x="100.0" y="100.0">2020</text><line stroke="#e1ed5e" stroke-width="0.3" x1="100.0" x2="100.0" y1="15.0" y2="10.0" /><path d="M 100.0 14.0 a86.0,86.0 0 0,1 42.35913384403234,11.155469271406648" fill="none" id="id25" stroke="none" /><text fill="#e1ed5e" style="font-size:6.75px; font-family:Arial;" text-anchor="middle"><textPath startOffset="22.145653131862478" xlink:href="#id25">January</textPath></text><line stroke="#e1ed5e" stroke-width="0.3" x1="143.13028292997686" x2="145.6673583964461" y1="26.7553504044142" y2="22.446841604673864" /><path d="M 143.63769802327073 25.89364864446614 a86.0,86.0 0 0,1 29.32050498858742,28.57503671076992" fill="none" id="id26" stroke="none" /><text fill="#e1ed5e" style="font-size:6.75px; font-family:Arial;" text-anchor="middle"><textPath startOffset="20.669276256404974" xlink:href="#id26">February</textPath></text><line stroke="#e1ed5e" stroke-width="0.3" x1="172.87174338648825" x2="177.1583165268699" y1="56.24261187166439" y2="53.66864786411523" /><path d="M 173.72905801456457 55.72781907015455 a86.0,86.0 0 0,1 12.242430191666344,42.057860355516425" fill="none" id="id27" stroke="none" /><text fill="#e1ed5e" style="font-size:6.75px; font-family:Arial;" text-anchor="middle"><textPath startOffset="22.145653131862474" xlink:href="#id27">March</textPath></text><path d="M 120.98066250479742 99.09900007780936 l 62.94198751439227 -2.7029997665719256 a84.0,84.0 0 0,0 0.049501252012607466,1.4411749417435202 l -62.97911345340172 1.6221185602642854" fill="#4dd2ff" stroke="none" /><line stroke="#e1ed5e" stroke-width="0.3" x1="184.99686870605535" x2="189.99668451229388" y1="99.2704041080226" y2="99.22748670261217" /><path d="M 185.99683186730306 99.26182062694052 a86.0,86.0 0 0,1 -10.086455211305974,41.156179273409016" fill="none" id="id28" stroke="none" /><text fill="#e1ed5e" style="font-size:6.75px; font-family:Arial;" text-anchor="middle"><textPath startOffset="21.40746469413373" xlink:href="#id28">April</textPath></text><path d="M 119.31412917781788 108.2440532568976 l 34.59068258314514 14.764705505615106 a58.60999667954574,58.60999667954574 0 0,0 -0.4029189378868834,0.9219573806459883 l -34.33212976324129 -15.35632495603694" fill="#58ff2a" stroke="none" /><line stroke="#e1ed5e" stroke-width="0.3" x1="174.33088141563837" x2="178.70328620479359" y1="141.23008692659167" y2="143.65538615756765" /><path d="M 175.20536237346943 141.71514677278685 a86.0,86.0 0 0,1 -30.301960400862466,31.63118572779886" fill="none" id="id29" stroke="none" /><text fill="#e1ed5e" style="font-size:6.75px; font-family:Arial;" text-anchor="middle"><textPath startOffset="22.145653131862474" xlink:href="#id29">May</textPath></text><line stroke="#e1ed5e" stroke-width="0.3" x1="143.1302829299769" x2="145.6673583964461" y1="173.24464959558577" y2="177.55315839532614" /><path d="M 143.63769802327073 174.10635135553383 a86.0,86.0 0 0,1 -40.685524379131806,11.842963189579606" fill="none" id="id30" stroke="none" /><text fill="#e1ed5e" style="font-size:6.75px; font-family:Arial;" text-anchor="middle"><textPath startOffset="21.407464694133747" xlink:href="#id30">June</textPath></text><line stroke="#e1ed5e" stroke-width="0.3" x1="101.45913802915013" x2="101.54496967792366" y1="184.9874750549273" y2="189.98673829345242" /><path d="M 101.47630435890484 185.9873277026323 a86.0,86.0 0 0,1 -42.54439059252881,-10.42667462771756" fill="none" id="id31" stroke="none" /><text fill="#e1ed5e" style="font-size:6.75px; font-family:Arial;" text-anchor="middle"><textPath startOffset="22.145653131862474" xlink:href="#id31">July</textPath></text><path d="M 98.19965949673042 120.92268563240118 l -0.7232513579908683 8.405277095620757 a29.436336620891947,29.436336620891947 0 0,0 -0.5030816221706563,-0.04764235267155191 l 0.8674325435465399 -8.391622987444022" fill="#ff1a02" stroke="none" /><path d="M 97.84075906011543 120.88869738790638 l -1.3787535117579108 13.338189521899231 a34.409260269242566,34.409260269242566 0 0,0 -0.5870286955687442,-0.06577778976316409 l 1.6075181089274544 -13.312555971629097" fill="#ff6709" stroke="none" /><path d="M 96.76829788921471 120.74984581791261 l -1.2223200158702021 7.84817133510245 a28.942786634822863,28.942786634822863 0 0,0 -0.4902666823972203,-0.08067319602010814 l 1.3568642013204852 -7.826032140586673" fill="#ff1202" stroke="none" /><path d="M 95.70440661134978 120.55596938700252 l -3.364435176977566 16.100040261081805 a37.447818106622506,37.447818106622506 0 0,0 -0.6281204263220408,-0.1368959234342445 l 3.6403180199187433 -16.039912879513842" fill="#ff940d" stroke="none" /><path d="M 95.00130118170881 120.39639698878247 l -4.250691898670251 17.34427349874182 a38.857553158721906,38.857553158721906 0 0,0 -0.6465058758033763,-0.16433926548765856 l 4.5478030676990056 -17.2687490014189" fill="#ffa90f" stroke="none" /><path d="M 94.30408787586889 120.21278271476187 l -5.138199452493812 18.233657193966767 a39.9437944530842,39.9437944530842 0 0,0 -0.6583878341629623,-0.19164710307772986 l 5.450447299038381 -18.14276639658652" fill="#ffb811" stroke="none" /><path d="M 93.27111125876986 119.89276391827306 l -13.359133645963304 39.493904861803934 a62.69214521950063,62.69214521950063 0 0,0 -1.016491123112158,-0.3535883783540573 l 14.035130541120482 -39.25875805088129" fill="#30ff34" stroke="none" /><path d="M 92.93061703081489 119.77432235084164 l -4.549033097739684 12.724455196649402 a34.51315885260989,34.51315885260989 0 0,0 -0.5561727317337082,-0.2042343308876679 l 4.766794981127511 -12.644490016753014" fill="#ff6909" stroke="none" /><path d="M 92.59220618246901 119.65005319985036 l -7.817709344916841 20.737402837135676 a43.162049901379675,43.162049901379675 0 0,0 -0.6910608754515367,-0.2673171923030912 l 8.172542482861907 -20.600145756694545" fill="#ffe515" stroke="none" /><path d="M 90.93487009805054 118.94263497670748 l -3.755286803999634 7.847105108302295 a29.699381447036206,29.699381447036206 0 0,0 -0.4579923945180441,-0.22402703045034147 l 3.8894394477797474 -7.7814843277547325" fill="#ff1e03" stroke="none" /><path d="M 90.28995756902619 118.62028667847754 l -8.361791780146474 16.034838282004237 a39.08412564943502,39.08412564943502 0 0,0 -0.5922383765168326,-0.315333577535998 l 8.635818972449869 -15.888934236745666" fill="#ffac0f" stroke="none" /><line stroke="#e1ed5e" stroke-width="0.3" x1="58.13341422392154" x2="55.670673884152215" y1="173.97424548756322" y2="178.32567169271397" /><path d="M 57.64086615596767 174.84453072859336 a86.0,86.0 0 0,1 -31.369924170532244,-30.572349798747886" fill="none" id="id32" stroke="none" /><text fill="#e1ed5e" style="font-size:6.75px; font-family:Arial;" text-anchor="middle"><textPath startOffset="22.145653131862474" xlink:href="#id32">August</textPath></text><path d="M 89.34428304082925 118.09573695890944 l -9.759712058509992 16.574124752206018 a40.23417767326468,40.23417767326468 0 0,0 -0.5921460183645058,-0.355566670290869 l 10.042790833431924 -16.40414408137923" fill="#ffbc11" stroke="none" /><path d="M 89.03521579738668 117.91015095944536 l -8.523161060381439 13.921943051712354 a37.32374873600805,37.32374873600805 0 0,0 -0.543568629119566,-0.33922702673259375 l 8.760893818290718 -13.773580228138213" fill="#ff930d" stroke="none" /><path d="M 88.4268655584334 117.5232005979908 l -8.876913088613223 13.440777822818003 a37.107578789661375,37.107578789661375 0 0,0 -0.528524502653359,-0.3556148726843052 l 9.106333879363588 -13.286413276076576" fill="#ff8f0d" stroke="none" /><path d="M 86.96720088162412 116.46651593811092 l -9.52295094591782 12.031937429903818 a36.34451410229329,36.34451410229329 0 0,0 -0.4858902064776744,-0.39139875597538465 l 9.728091922750757 -11.866690380135024" fill="#ff840c" stroke="none" /><path d="M 86.68645165197938 116.24036423190432 l -10.611860715478251 12.944744608466928 a37.73851847754586,37.73851847754586 0 0,0 -0.4974757383471594,-0.41501195426695114 l 10.832510787987303 -12.760670470288106" fill="#ff990e" stroke="none" /><path d="M 85.60350026404147 115.28858382429668 l -7.419175577358935 7.878907359565529 a31.82226165957445,31.82226165957445 0 0,0 -0.39448620342764784,-0.3779088592447434 l 7.553334266651896 -7.750386370015203" fill="#ff4006" stroke="none" /><path d="M 85.08716467003676 114.78537596483093 l -11.916562321811071 11.814711973806087 a37.78069952634884,37.78069952634884 0 0,0 -0.45267250774212997,-0.46448187121478357 l 12.117621630704011 -11.608407410523567" fill="#ff990e" stroke="none" /><path d="M 84.83555147118756 114.52719865689866 l -12.080108184997094 11.572470378124812 a37.72875023466517,37.72875023466517 0 0,0 -0.4440209771866416,-0.47153489070043786 l 12.276984995919989 -11.363394027479885" fill="#ff980e" stroke="none" /><path d="M 84.58840730492382 114.26474011684316 l -4.984250620824484 4.6133479640939825 a27.79159286831884,27.79159286831884 0 0,0 -0.32106211081526503,-0.3529035015895248 l 5.062710432481628 -4.527106886946785" fill="#ff0000" stroke="none" /><path d="M 83.20337586046588 112.60449989151573 l -13.42830524346962 10.07685059679186 a37.78875515521798,37.78875515521798 0 0,0 -0.3849018290543925,-0.5221932536489217 l 13.599309092107843 -9.84485103387406" fill="#ff990e" stroke="none" /><path d="M 82.78059297857968 112.02048342749411 l -6.8952612166585485 4.813427842200477 a29.409144715012715,29.409144715012715 0 0,0 -0.2854231202096668,-0.4164408623591888 l 6.976874073683538 -4.694352244771237" fill="#ff1a02" stroke="none" /><line stroke="#e1ed5e" stroke-width="0.3" x1="26.387840678322732" x2="22.057713659400548" y1="142.50000000000003" y2="145.00000000000006" /><path d="M 25.521815274538298 143.00000000000003 a86.0,86.0 0 0,1 -11.493303480769221,-40.785679425670985" fill="none" id="id33" stroke="none" /><text fill="#e1ed5e" style="font-size:6.75px; font-family:Arial;" text-anchor="middle"><textPath startOffset="21.40746469413373" xlink:href="#id33">September</textPath></text><path d="M 81.63589988554817 110.18625677009913 l -8.076262819599018 4.479766844578438 a30.23549306279972,30.23549306279972 0 0,0 -0.24786574940163866,-0.45604506119783345 l 8.151973918615987 -4.340466949906019" fill="#ff2703" stroke="none" /><path d="M 80.83023694016515 108.57439118712176 l -11.727865968135623 5.245725275114263 a33.84758630360296,33.84758630360296 0 0,0 -0.23268783989270492,-0.5324353144102606 l 11.816187690045297 -5.043627890928152" fill="#ff5f08" stroke="none" /><path d="M 80.28708602549918 107.23885506374661 l -15.651289045443797 5.747370130429514 a37.67318542451269,37.67318542451269 0 0,0 -0.21771482747723123,-0.6089871206381825 l 15.747644042964971 -5.477848053410411" fill="#ff980e" stroke="none" /><path d="M 80.16572619554312 106.89939002012753 l -19.602973847525302 6.818931888398446 a41.755105775817626,41.755105775817626 0 0,0 -0.22968206861404195,-0.6790142240283801 l 19.71714133771171 -6.481415989895905" fill="#ffd213" stroke="none" /><path d="M 79.13060592940153 102.33845913500099 l -24.998491171752637 2.801133077657676 a46.15493803178498,46.15493803178498 0 0,0 -0.08146919657120141,-0.7881405739290308 l 25.042892760805504 -2.3715879814457144" fill="#f1ff19" stroke="none" /><path d="M 79.03789590574601 101.26102812881392 l -38.54829832425837 2.3189699033182958 a59.617987067019904,59.617987067019904 0 0,0 -0.05268643236964268,-1.0221027126775448 l 38.58242634608458 -1.6568953972640201" fill="#4dff2c" stroke="none" /><path d="M 79.01933749520258 100.90099992219065 l -22.123074432339774 0.9500600058553076 a43.14346486784694,43.14346486784694 0 0,0 -0.025424470560956758,-0.7402057198515822 l 22.13612358989758 -0.5701480214396054" fill="#ffe515" stroke="none" /><line stroke="#e1ed5e" stroke-width="0.3" x1="15.003131293944662" x2="10.003315487706104" y1="100.72959589197737" y2="100.7725132973878" /><path d="M 14.003168132696942 100.73817937305945 a86.0,86.0 0 0,1 10.791469493833604,-42.453326145846276" fill="none" id="id34" stroke="none" /><text fill="#e1ed5e" style="font-size:6.75px; font-family:Arial;" text-anchor="middle"><textPath startOffset="22.145653131862435" xlink:href="#id34">October</textPath></text><path d="M 79.34024301695615 96.23510406497455 l -23.653024737822978 -4.310369030941329 a45.04256351620941,45.04256351620941 0 0,0 0.14515225134563017,-0.7594979145435125 l 23.57554619419519 4.715769510518156" fill="#ffff18" stroke="none" /><path d="M 79.407916724674 95.88100663000787 l -22.249297324685834 -4.450482592850419 a43.690042458125475,43.690042458125475 0 0,0 0.15341922595441812,-0.7341665345768793 l 22.16962038790705 4.831765578712707" fill="#ffec16" stroke="none" /><path d="M 79.48165901384962 95.52812308129327 l -38.75303463161522 -8.44604352836991 a60.662745044213565,60.662745044213565 0 0,0 0.23048705536309644,-1.0155684936455749 l 38.60233671469447 9.110046355954491" fill="#42ff2d" stroke="none" /><path d="M 79.56144815229197 95.17655741523228 l -23.505521385211626 -5.547239044693474 a45.15121936071992,45.15121936071992 0 0,0 0.18450180067374197,-0.7528303081427283 l 23.406832058021585 5.949925177444319" fill="#feff18" stroke="none" /><path d="M 79.94057633289273 93.78553927170692 l -15.408003503134795 -4.773438871458944 a37.130477073297286,37.130477073297286 0 0,0 0.19384811463128496,-0.6072264581324816 l 15.323790672726252 5.037234363282817" fill="#ff900d" stroke="none" /><path d="M 80.05021161711548 93.44210830539832 l -22.22628453937398 -7.30622119819897 a44.39633716251813,44.39633716251813 0 0,0 0.24421067481234876,-0.7219654666895472 l 22.097588442989263 7.686688339362679" fill="#fff617" stroke="none" /><path d="M 80.5471966667186 92.08871423366112 l -12.632726391156211 -5.1376198471826635 a34.637481943818656,34.637481943818656 0 0,0 0.22872969314009647,-0.5488679974151461 l 12.542670853479637 5.353720354039073" fill="#ff6b09" stroke="none" /><path d="M 80.68587082218212 91.75594674310238 l -6.934580193871026 -2.959959929136142 a28.539878331068742,28.539878331068742 0 0,0 0.1961995924935325,-0.44894306365399217 l 6.882746719360517 3.0785650625660006" fill="#ff0c01" stroke="none" /><path d="M 80.83023694016515 91.42560881287825 l -49.55260335261649 -22.164249195956124 a75.28364801155298,75.28364801155298 0 0,0 0.5377960354341627,-1.1751813941552198 l 49.164822852327276 23.011619572326016" fill="#41ffcf" stroke="none" /><path d="M 81.1358732173502 90.77261029715801 l -45.034032874274956 -22.028402162973645 a71.13296937919176,71.13296937919176 0 0,0 0.5459627703830707,-1.092291266727016 l 44.649250190680135 22.798225285864433" fill="#3bff9f" stroke="none" /><path d="M 81.46374523516351 90.13048839642627 l -23.319748194330696 -12.416452423440484 a47.419291183348406,47.419291183348406 0 0,0 0.3887357854836777,-0.7152300610659589 l 23.103167059231666 12.814937317981064" fill="#e0ff1b" stroke="none" /><line stroke="#e1ed5e" stroke-width="0.3" x1="26.387840678322718" x2="22.05771365940052" y1="57.5" y2="55.0" /><path d="M 25.521815274538284 57.0 a86.0,86.0 0 0,1 29.574782752854787,-30.346332500585742" fill="none" id="id35" stroke="none" /><text fill="#e1ed5e" style="font-size:6.75px; font-family:Arial;" text-anchor="middle"><textPath startOffset="21.40746469413373" xlink:href="#id35">November</textPath></text><path d="M 81.99639281039701 89.18935116829357 l -28.987804021379244 -17.406343427578907 a54.81232872046393,54.81232872046393 0 0,0 0.4913064860949071,-0.8025122219201668 l 28.684729570828942 17.901392765623616" fill="#84ff25" stroke="none" /><path d="M 82.18462484594161 88.88188828441811 l -22.525948132126437 -14.05785764636748 a47.55262135565495,47.55262135565495 0 0,0 0.4381233785300958,-0.6888027214082418 l 22.28130706197045 14.442474042454396" fill="#deff1b" stroke="none" /><path d="M 82.37810715431573 88.57770195909679 l -13.969329685757081 -9.054750729654563 a37.64724249374514,37.64724249374514 0 0,0 0.3561708107396322,-0.5392880031984463 l 13.811834436096722 9.293218611192067" fill="#ff970e" stroke="none" /><path d="M 83.2033758604659 87.39550010848427 l -5.654244887541777 -4.243050774939859 a28.06922662863556,28.06922662863556 0 0,0 0.2925187973747967,-0.3829164957431477 l 5.580574112812674 4.339488183923893" fill="#ff0400" stroke="none" /><path d="M 83.42222388311158 87.10902102172516 l -20.15884693516545 -15.675641306480275 a46.536343515171865,46.536343515171865 0 0,0 0.4957972495018909,-0.6264236283273559 l 19.886783255021996 16.01938487872231" fill="#ecff1a" stroke="none" /><path d="M 83.8745106332314 86.54754324733833 l -23.270779996174156 -19.41331232677928 a51.30521237555381,51.30521237555381 0 0,0 0.569989760363751,-0.6714465044896379 l 22.93409567230329 19.809925613718473" fill="#afff20" stroke="none" /><path d="M 84.10781606972428 86.27271002978789 l -17.92939926879296 -15.48698805867395 a44.6919850850304,44.6919850850304 0 0,0 0.5064856180935636,-0.5762876591079396 l 17.660902586740804 15.79248799559319" fill="#fffa17" stroke="none" /><path d="M 84.34580500576568 86.00192230759919 l -19.464852530890905 -17.40559115935957 a47.11197211349817,47.11197211349817 0 0,0 0.544260607267074,-0.5982377478116824 l 19.163194222781964 17.737166482728913" fill="#e4ff1a" stroke="none" /><path d="M 85.08716467003674 85.21462403516908 l -16.963964330363357 -16.818974053475415 a44.8883648250214,44.8883648250214 0 0,0 0.5472278136837538,-0.542550680987548 l 16.672744596549627 17.107704744691638" fill="#fffd17" stroke="none" /><path d="M 85.34317274990677 84.96080404539775 l -16.653619653529915 -17.088080868337894 a44.860963000836605,44.860963000836605 0 0,0 0.5561210942712631,-0.5327514283437786 l 16.35782607339335 17.37144442698724" fill="#fffc17" stroke="none" /><path d="M 85.86807049272753 84.46653392183569 l -16.131270687008495 -17.731092267717845 a44.97101430861579,44.97101430861579 0 0,0 0.5754897297119392,-0.5146064649541863 l 15.824515930473163 18.005394262555434" fill="#fffe18" stroke="none" /><path d="M 86.13680546590413 84.22622945171909 l -15.760365656320754 -17.932403026473395 a44.87383932099751,44.87383932099751 0 0,0 0.5829763899329944,-0.5035611207061356 l 15.450209786624912 18.20030827964424" fill="#fffc17" stroke="none" /><path d="M 86.96720088162412 83.53348406188908 l -15.013748288709643 -18.969380502323855 a45.19194151610565,45.19194151610565 0 0,0 0.612437006576633,-0.47623472060611316 l 14.685901337497764 19.22431627455077" fill="#fdff18" stroke="none" /><path d="M 87.25179093698888 83.31218511350988 l -14.362414513768249 -18.800861638222287 a44.65906483791951,44.65906483791951 0 0,0 0.6132051363835718,-0.46016056624328444 l 14.037556388473925 19.044641231729575" fill="#fff917" stroke="none" /><line stroke="#e1ed5e" stroke-width="0.3" x1="56.869717070023135" x2="54.33264160355391" y1="26.7553504044142" y2="22.446841604673864" /><path d="M 56.362301976729285 25.89364864446614 a86.0,86.0 0 0,1 42.16139366436587,-11.88097634709845" fill="none" id="id36" stroke="none" /><text fill="#e1ed5e" style="font-size:6.75px; font-family:Arial;" text-anchor="middle"><textPath startOffset="22.145653131862474" xlink:href="#id36">December</textPath></text><path d="M 94.6519064749342 79.69241777938228 l -6.0105321020864935 -22.822969396609768 a44.601153112269714,44.601153112269714 0 0,0 0.7420669911176864,-0.1886305273117225 l 5.617859817743428 22.922785155756753" fill="#fff917" stroke="none" /></svg>