<?xml version="1.0" encoding="utf-8" ?>
<svg baseProfile="full" height="200mm" version="1.1" viewBox="0,0,200,200" width="200mm" xmlns="http://www.w3.org/2000/svg" xmlns:ev="http://www.w3.org/2001/xml-events" xmlns:xlink="http://www.w3.org/1999/xlink"><defs /><rect fill="#1a1a1a" height="200" width="200" x="0" y="0" /><text alignment-baseline="middle" fill="#e1ed5e" style="dominant-baseline: central; font-size:9.0px; font-family:Arial;" text-anchor="middle" x="100.0" y="100.0">2019</text><line stroke="#e1ed5e" stroke-width="0.3" x1="100.0" x2="100.0" y1="15.0" y2="10.0" /><path d="M 100.0 14.0 a86.0,86.0 0 0,1 42.46469731375804,11.215312516191453" fill="none" id="id13" stroke="none" /><text fill="#e1ed5e" style="font-size:6.75px; font-family:Arial;" text-anchor="middle"><textPath startOffset="22.20632615414155" xlink:href="#id13">January</textPath></text><path d="M 100.36148047927253 79.00311137660856 l 0.22587296183817496 -13.120015311189539 a34.12195947108272,34.12195947108272 0 0,0 0.5871793956099767,0.015165111440647383 l -0.4516789926430195 13.11418340760653" fill="#ff5407" stroke="none" /><path d="M 100.72285384407766 79.0124445844662 l 0.47840560930765685 -13.89017201569719 a34.89840820211705,34.89840820211705 0 0,0 0.6001847646292342,0.025845218487124226 l -0.7174312063262226 13.879879070685872" fill="#ff6008" stroke="none" /><path d="M 101.44485096284872 79.0497635885617 l 1.021480152771924 -14.811389714528381 a35.846571556360885,35.846571556360885 0 0,0 0.6152121936493959,0.047752306701506715 l -1.276282535783661 14.79161214563841" fill="#ff6e0a" stroke="none" /><path d="M 102.16513564639614 79.11191278185805 l 1.2087869107187734 -11.661738820507374 a32.72421929653543,32.72421929653543 0 0,0 0.5597918653792896,0.06289913858683897 l -1.4093454796077882 11.639203728449933" fill="#ff3e05" stroke="none" /><path d="M 102.52436894288641 79.15227682838746 l 3.7327277900872446 -30.827061100563416 a52.0522294344989,52.0522294344989 0 0,0 0.8885694095522962,0.11536181147269806 l -4.262811928147387 30.758240965926582" fill="#adff20" stroke="none" /><path d="M 102.88285421437855 79.19881850522331 l 4.13078125845553 -29.80557610016983 a51.09045896074406,51.09045896074406 0 0,0 0.8700729965951818,0.12822614257042197 l -4.643223235479367 29.73005547343844" fill="#baff1f" stroke="none" /><path d="M 103.2404852339499 79.25152402106235 l 2.0965768886374283 -13.424154739586758 a34.5868894572061,34.5868894572061 0 0,0 0.5874349199946984,0.09693179513574644 l -2.327341014771002 13.386076681511387" fill="#ff5b08" stroke="none" /><path d="M 103.59715602781102 79.31037775812273 l 6.0172961352636705 -34.60944785091028 a56.12864548092251,56.12864548092251 0 0,0 0.9504581037572218,0.17369014328632354 l -6.612149360123793 34.50074222627322" fill="#7bff26" stroke="none" /><path d="M 103.95276090670814 79.375362276772 l 1.4881047567546406 -7.764603583837021 a28.90591706136679,28.90591706136679 0 0,0 0.48786799865265296,0.09786173090588127 l -1.621539164874419 7.737837896853931" fill="#ff0000" stroke="none" /><path d="M 104.66035177308747 79.52364482259891 l 2.9954078719523713 -13.161031285551553 a34.49760026147689,34.49760026147689 0 0,0 0.5778780299344288,0.1367650591951519 l -3.2215095888493246 13.107520314215535" fill="#ff5908" stroke="none" /><path d="M 105.01212808612495 79.60689891045804 l 3.8608796788064246 -15.708957997785463 a37.176456758833446,37.176456758833446 0 0,0 0.6201229691811847,0.15808315245816518 l -4.130711536672634 15.640171849158431" fill="#ff820c" stroke="none" /><path d="M 105.36241919743992 79.69619591428918 l 3.3967820286958976 -12.861284113228356 a34.30228390885007,34.30228390885007 0 0,0 0.5695847049268361,0.15568901604338412 l -3.6176646228464446 12.800908556358678" fill="#ff5608" stroke="none" /><path d="M 105.71112130821622 79.79150937346287 l 3.8340331818759115 -13.566516877571173 a35.09787894078925,35.09787894078925 0 0,0 0.5799670156958471,0.16930827562433315 l -4.0669904152951855 13.498510273028137" fill="#ff6309" stroke="none" /><path d="M 106.0581310904928 79.89281104454417 l 3.654735001023919 -12.130217413589895 a33.66883034966799,33.66883034966799 0 0,0 0.5534748914488902,0.17196734295088983 l -3.862995265183527 12.065509935756484" fill="#ff4c07" stroke="none" /><path d="M 107.08798089147638 80.2323363322302 l 9.478834223248677 -26.43551241977134 a49.08352924985952,49.08352924985952 0 0,0 0.7928571730957648,0.29201598804810125 l -9.932473722117019 26.268433163916914" fill="#d4ff1c" stroke="none" /><path d="M 107.4271985657038 80.35727306442388 l 4.526509432414795 -11.971268569929238 a33.79845923598289,33.79845923598289 0 0,0 0.542411893314225,0.21044738773155702 l -4.731904490728687 11.891578478307133" fill="#ff4f07" stroke="none" /><path d="M 107.76421540070413 80.48803036053334 l 9.461761010148543 -23.77801027379596 a46.59137929057192,46.59137929057192 0 0,0 0.7426136279371416,0.302930744753306 l -9.869658507674071 23.611618642859074" fill="#f5ff19" stroke="none" /><path d="M 108.09893153111575 80.62456947434976 l 10.061643225896216 -24.07091213800821 a47.08918311409796,47.08918311409796 0 0,0 0.7451666848190845,0.3190414857771637 l -10.474493668505616 23.89415112426826" fill="#eeff19" stroke="none" /><path d="M 108.43124777332544 80.76684994638697 l 25.2937433199763 -57.69945016083909 a84.0,84.0 0 0,0 1.3192715261328791,0.591918677933875 l -26.283196964575957 57.255511152388685" fill="#4dd2ff" stroke="none" /><path d="M 108.76106565485865 80.91482961587045 l 9.88592672277349 -21.535576075099694 a44.696256751952475,44.696256751952475 0 0,0 0.6964566229803005,0.326995722953005 l -10.255161557053388 21.362215369506686" fill="#ffef16" stroke="none" /><path d="M 109.08828744355905 81.06846463323043 l 19.430817338394288 -40.47574506545266 a65.89813583036114,65.89813583036114 0 0,0 1.0183732632095985,0.49971133751042623 l -20.124661868614318 40.1352785678074" fill="#34ff59" stroke="none" /><path d="M 109.41281617654863 81.2277094730956 l 5.714002686619494 -11.395624486110382 a33.747944310010666,33.747944310010666 0 0,0 0.5170498641516506,0.2648530227441535 l -5.9093130383599 11.295578938053728" fill="#ff4e07" stroke="none" /><path d="M 109.73455568895987 81.39251694778311 l 5.954135957830952 -11.381257395402777 a33.84463915042949,33.84463915042949 0 0,0 0.5138824210274425,0.2744981924376067 l -6.149163425386706 11.277080476463416" fill="#ff4f07" stroke="none" /><path d="M 110.05341064243156 81.56283822128135 l 6.206695816530591 -11.38259034179801 a33.96481530327878,33.96481530327878 0 0,0 0.5108889034963461,0.28430912166803707 l -6.401708809098973 11.274065822569794" fill="#ff5107" stroke="none" /><line stroke="#e1ed5e" stroke-width="0.3" x1="143.23703022742887" x2="145.7803849466894" y1="26.81831364943548" y2="22.513508569990506" /><path d="M 143.74570117128098 25.957352633546492 a86.0,86.0 0 0,1 28.547481713284135,27.462654790039103" fill="none" id="id14" stroke="none" /><text fill="#e1ed5e" style="font-size:6.75px; font-family:Arial;" text-anchor="middle"><textPath startOffset="19.985693538727396" xlink:href="#id14">February</textPath></text><line stroke="#e1ed5e" stroke-width="0.3" x1="172.23445277983987" x2="176.4835382374775" y1="55.19839476539836" y2="52.563006222186495" /><path d="M 173.08426987136738 54.67131705675599 a86.0,86.0 0 0,1 12.851231095245387,41.99856678651699" fill="none" id="id15" stroke="none" /><text fill="#e1ed5e" style="font-size:6.75px; font-family:Arial;" text-anchor="middle"><textPath startOffset="22.20632615414155" xlink:href="#id15">March</textPath></text><path d="M 119.04729006885535 91.15688171328212 l 12.275876547238246 -5.699342425507432 a34.534387650951295,34.534387650951295 0 0,0 0.2456836904829393,0.5413314453718867 l -12.372162554684532 5.487188971293483" fill="#ff5a08" stroke="none" /><path d="M 119.47837535516314 92.15188598940014 l 12.424481324661354 -5.005999945096259 a34.395065197197155,34.395065197197155 0 0,0 0.21653568910994797,0.5510597101081598 l -12.508810563653002 4.791391230092315" fill="#ff5808" stroke="none" /><path d="M 120.37134235888165 94.90015583598534 l 29.0496108325517 -7.272396961444938 a50.94607899354335,50.94607899354335 0 0,0 0.20564554542732194,0.8525335498751254 l -29.17048917823984 6.771278179910407" fill="#bbff1f" stroke="none" /><path d="M 120.45610955862082 95.25157060432595 l 28.612384144351534 -6.6417265493232485 a50.3731349702398,50.3731349702398 0 0,0 0.18879278411722958,0.8463210326527015 l -28.722471315470802 6.148227347120582" fill="#c3ff1e" stroke="none" /><path d="M 120.53481517161879 95.60439243477599 l 18.591064460897687 -3.979535384512896 a40.0122165900203,40.0122165900203 0 0,0 0.1383673971794722,0.6747285688280196 l -18.656811153992155 3.6589311595214653" fill="#ffad10" stroke="none" /><path d="M 120.6074358757038 95.95851677861258 l 14.905218909420771 -2.9231774635559002 a36.189157883872156,36.189157883872156 0 0,0 0.11462360185512215,0.6123238644908707 l -14.953328235185754 2.666175521602466" fill="#ff730a" stroke="none" /><path d="M 120.78858239683441 97.02765380044208 l 13.852359601234781 -1.9806068364675766 a34.99323657924011,34.99323657924011 0 0,0 0.08012451526883536,0.5970207056254091 l -13.884400115561451 1.7418677887775034" fill="#ff6109" stroke="none" /><path d="M 120.83666639777658 97.38593545837742 l 33.106706970959515 -4.153402810725472 a54.36622246178194,54.36622246178194 0 0,0 0.10849853294769697,0.9295491713584212 l -33.1732958569108 3.5829099010421985" fill="#91ff24" stroke="none" /><path d="M 120.87857604477298 97.74499172005257 l 13.473549926848511 -1.4552221655429867 a34.55190832253403,34.55190832253403 0 0,0 0.0587758799259543,0.5918650897367891 l -13.496602932456694 1.2230815451017625" fill="#ff5a08" stroke="none" /><path d="M 120.98425023603335 99.18683210126433 l 61.844586084186226 -2.3965608276963235 a82.8910036412819,82.8910036412819 0 0,0 0.04297821783450071,1.4262378154999165 l -61.87667599647637 1.3316528647714079" fill="#4bddff" stroke="none" /><line stroke="#e1ed5e" stroke-width="0.3" x1="184.98032266829074" x2="189.97916517819016" y1="98.17113171792111" y2="98.06355123074" /><path d="M 185.9800911702706 98.14961562048488 a86.0,86.0 0 0,1 -9.607161424134198,41.387399972396054" fill="none" id="id16" stroke="none" /><text fill="#e1ed5e" style="font-size:6.75px; font-family:Arial;" text-anchor="middle"><textPath startOffset="21.466115282336823" xlink:href="#id16">April</textPath></text><path d="M 120.99980553446 99.90962569577887 l 13.502954192301376 -0.058111018602363854 a34.50307923437733,34.50307923437733 0 0,0 -0.0025560254231149103,0.5939302912387939 l -13.501953869588757 -0.17432875084011476" fill="#ff5a08" stroke="none" /><path d="M 120.99824983174949 100.27111621757518 l 12.636769722393119 0.16315803635804257 a33.637822975561086,33.637822975561086 0 0,0 -0.012458708500796672,0.5789072284770019 l -12.632088951207313 -0.3806550806251593" fill="#ff4c07" stroke="none" /><path d="M 120.81339534386255 102.79330883721812 l 12.975223469223256 1.7413692375832739 a34.09155418190993,34.09155418190993 0 0,0 -0.08306317723982735,0.5809436681534134 l -12.943326240966826 -1.9644583777170965" fill="#ff5307" stroke="none" /><path d="M 120.76222939487914 103.15116336523771 l 15.907462658269045 2.4143367559067457 a37.0896361113341,37.0896361113341 0 0,0 -0.10123394634666072,0.6303838805360042 l -15.863546957561097 -2.687799866135955" fill="#ff810b" stroke="none" /><line stroke="#e1ed5e" stroke-width="0.3" x1="174.80103733775053" x2="179.2010983576182" y1="140.37084112569926" y2="142.7455964860345" /><path d="M 175.68104954172406 140.8457921977663 a86.0,86.0 0 0,1 -30.038265399797805,32.042727171017184" fill="none" id="id17" stroke="none" /><text fill="#e1ed5e" style="font-size:6.75px; font-family:Arial;" text-anchor="middle"><textPath startOffset="22.206326154141568" xlink:href="#id17">May</textPath></text><path d="M 115.80600337817218 113.82643327865902 l 7.2704225832799665 6.359862790754439 a30.65954964046928,30.65954964046928 0 0,0 -0.3508929252311588,0.394231921287567 l -7.159870808400472 -6.484068881782871" fill="#ff1d02" stroke="none" /><path d="M 115.56566222782051 114.09645910891815 l 10.940341504011858 9.907710599891196 a35.759871325848366,35.759871325848366 0 0,0 -0.41711947289891704,0.45270080573535787 l -10.768175623117216 -10.094562660427888" fill="#ff6d0a" stroke="none" /><path d="M 115.32070863581623 114.36230785411682 l 10.90992340907252 10.2274432854644 a35.95416413408718,35.95416413408718 0 0,0 -0.42715849533810674,0.44787397460484146 l -10.73225836235545 -10.413724376651748" fill="#ff700a" stroke="none" /><path d="M 114.0293411484842 115.62618273729858 l 9.79979976390271 10.915228326044694 a35.66895650079705,35.66895650079705 0 0,0 -0.46039730587539623,0.40624709295816824 l -9.610460105120726 -11.082298560775152" fill="#ff6b09" stroke="none" /><path d="M 113.75828350139079 115.86535959552629 l 8.412406885100994 9.700763927601631 a33.84030413890386,33.84030413890386 0 0,0 -0.44336361674976615,0.3778440927624009 l -8.244177791774181 -9.844132410586978" fill="#ff4f07" stroke="none" /><path d="M 113.48314897796784 116.09983520530334 l 17.303325556005902 20.66139671160083 a47.94992373590836,47.94992373590836 0 0,0 -0.6373455261283792,0.5244919777411519 l -16.94510990133283 -20.95618380819916" fill="#e3ff1b" stroke="none" /><path d="M 113.20401910651253 116.32954008644616 l 8.07085579031914 9.98130660799627 a33.83608954436506,33.83608954436506 0 0,0 -0.4560500772036813,0.36231376291492623 l -7.8978482203981075 -10.118754284916323" fill="#ff4f07" stroke="none" /><path d="M 112.34349029814194 116.9893568818739 l 11.235262954637244 15.464012802502236 a40.114571028819796,40.114571028819796 0 0,0 -0.56212485756412,0.4010611605313503 l -10.967410769224239 -15.655118224877805" fill="#ffae10" stroke="none" /><path d="M 112.04921762599082 117.19931262002967 l 16.587313616164394 23.67708852693467 a49.90922852850443,49.90922852850443 0 0,0 -0.7078628624284872,0.486874531416502 l -16.177293869113026 -23.959103847716268" fill="#c9ff1d" stroke="none" /><path d="M 111.7513745106137 117.40417183066458 l 8.931419283400196 13.227725468166547 a36.960669518446736,36.960669518446736 0 0,0 -0.5303421370199327,0.35148184974398095 l -8.7024024476403 -13.379505339001847" fill="#ff7f0b" stroke="none" /><path d="M 111.1453310114006 117.79835938074945 l 7.861850822642763 12.554857832046775 a35.81327625950434,35.81327625950434 0 0,0 -0.5252968574522753,0.322680233759984 l -7.644574765258179 -12.688326532635138" fill="#ff6e0a" stroke="none" /><line stroke="#e1ed5e" stroke-width="0.3" x1="143.8653032363475" x2="146.44561519142675" y1="172.8068346515853" y2="177.08958963109032" /><path d="M 144.38136562736335 173.6633856474863 a86.0,86.0 0 0,1 -40.68145358897372,12.25698825130547" fill="none" id="id18" stroke="none" /><text fill="#e1ed5e" style="font-size:6.75px; font-family:Arial;" text-anchor="middle"><textPath startOffset="21.466115282336833" xlink:href="#id18">June</textPath></text><path d="M 110.21172684928248 118.3499491758327 l 15.461812456050312 27.784083624868554 a52.7965870385449,52.7965870385449 0 0,0 -0.7979253493916889,0.4350925210571014 l -14.981264294789973 -28.046116797685425" fill="#a4ff21" stroke="none" /><path d="M 109.57404056367764 118.69057910512821 l 6.482765272785506 12.655747209873146 a35.21950009748042,35.21950009748042 0 0,0 -0.5419544680889254,0.2717472210899904 l -6.26395689701382 -12.765462271872439" fill="#ff6509" stroke="none" /><path d="M 107.93186726928326 119.44442032107085 l 23.278566166052066 57.06578408812383 a82.63112327663379,82.63112327663379 0 0,0 -1.3216215605527455,0.5259004941044398 l -22.292823529457454 -57.458031426634335" fill="#4be0ff" stroke="none" /><path d="M 107.59598834532513 119.57807347666477 l 4.9557253458608495 12.772999449261373 a34.70068350975377,34.70068350975377 0 0,0 -0.5587302121247912,0.2112639575818094 l -4.735124912975784 -12.856411656949813" fill="#ff5d08" stroke="none" /><path d="M 104.13013068566511 120.58985236759428 l 2.9071886497480586 14.493145534308628 a35.78184742594355,35.78184742594355 0 0,0 -0.6049387926982895,0.11593795938708826 l -2.657282242478065 -14.541040692044183" fill="#ff6d0a" stroke="none" /><path d="M 103.7750983002368 120.6578951692458 l 5.281829006485985 28.90294801357218 a50.38159494528867,50.38159494528867 0 0,0 -0.8544503266020538,0.14855714168529355 l -4.783529708411882 -28.989583733778478" fill="#c3ff1e" stroke="none" /><path d="M 103.06178313531737 120.77559828337769 l 1.8715442172599535 12.699283100382248 a33.836450795325526,33.836450795325526 0 0,0 -0.576945981215223,0.0799594558526763 l -1.6526696448578995 -12.729617121727527" fill="#ff4f07" stroke="none" /><line stroke="#e1ed5e" stroke-width="0.3" x1="102.19456741930631" x2="102.32365962044197" y1="184.97166512339345" y2="189.96999836594603" /><path d="M 102.22038585953345 185.97133177190398 a86.0,86.0 0 0,1 -42.740103519485714,-10.115201625700543" fill="none" id="id19" stroke="none" /><text fill="#e1ed5e" style="font-size:6.75px; font-family:Arial;" text-anchor="middle"><textPath startOffset="22.20632615414155" xlink:href="#id19">July</textPath></text><line stroke="#e1ed5e" stroke-width="0.3" x1="58.666819895761336" x2="56.23545636021788" y1="174.27360380694188" y2="178.64263932499728" /><path d="M 58.180547188652646 175.14741091055294 a86.0,86.0 0 0,1 -31.652253787137756,-30.449443065178592" fill="none" id="id20" stroke="none" /><text fill="#e1ed5e" style="font-size:6.75px; font-family:Arial;" text-anchor="middle"><textPath startOffset="22.20632615414155" xlink:href="#id20">August</textPath></text><line stroke="#e1ed5e" stroke-width="0.3" x1="26.63291911575756" x2="22.317208475507996" y1="142.92168965132927" y2="145.44649492493687" /><path d="M 25.769776987707644 143.4266507060508 a86.0,86.0 0 0,1 -11.730757126820373,-40.83630448921669" fill="none" id="id21" stroke="none" /><text fill="#e1ed5e" style="font-size:6.75px; font-family:Arial;" text-anchor="middle"><textPath startOffset="21.46611528233685" xlink:href="#id21">September</textPath></text><line stroke="#e1ed5e" stroke-width="0.3" x1="15.007084014347285" x2="10.007500721073583" y1="101.09737516637583" y2="101.16192664675087" /><path d="M 14.007167355692545 101.11028546245083 a86.0,86.0 0 0,1 10.666146001902534,-42.60595125391555" fill="none" id="id22" stroke="none" /><text fill="#e1ed5e" style="font-size:6.75px; font-family:Arial;" text-anchor="middle"><textPath startOffset="22.20632615414155" xlink:href="#id22">October</textPath></text><line stroke="#e1ed5e" stroke-width="0.3" x1="26.266209847984243" x2="21.928928074336255" y1="57.71137044288968" y2="55.22380399835378" /><path d="M 25.398753493254645 57.2138571539825 a86.0,86.0 0 0,1 29.58750427330803,-30.4925239686951" fill="none" id="id23" stroke="none" /><text fill="#e1ed5e" style="font-size:6.75px; font-family:Arial;" text-anchor="middle"><textPath startOffset="21.46611528233685" xlink:href="#id23">November</textPath></text><line stroke="#e1ed5e" stroke-width="0.3" x1="56.76296977257108" x2="54.21961505331056" y1="26.818313649435495" y2="22.513508569990535" /><path d="M 56.25429882871898 25.957352633546506 a86.0,86.0 0 0,1 42.26535254187918,-11.944610805530505" fill="none" id="id24" stroke="none" /><text fill="#e1ed5e" style="font-size:6.75px; font-family:Arial;" text-anchor="middle"><textPath startOffset="22.20632615414155" xlink:href="#id24">December</textPath></text></svg>