<?xml version="1.0" encoding="utf-8" ?>
<svg baseProfile="full" height="200mm" version="1.1" viewBox="0,0,200,200" width="200mm" xmlns="http://www.w3.org/2000/svg" xmlns:ev="http://www.w3.org/2001/xml-events" xmlns:xlink="http://www.w3.org/1999/xlink"><defs /><rect fill="#1a1a1a" height="200" width="200" x="0" y="0" /><text alignment-baseline="middle" fill="#e1ed5e" style="dominant-baseline: central; font-size:9.0px; font-family:Arial;" text-anchor="middle" x="100.0" y="100.0">2023</text><line stroke="#e1ed5e" stroke-width="0.3" x1="100.0" x2="100.0" y1="15.0" y2="10.0" /><path d="M 100.0 14.0 a86.0,86.0 0 0,1 42.46469731375804,11.215312516191453" fill="none" id="id61" stroke="none" /><text fill="#e1ed5e" style="font-size:6.75px; font-family:Arial;" text-anchor="middle"><textPath startOffset="22.20632615414155" xlink:href="#id61">January</textPath></text><path d="M 100.36148047927253 79.00311137660856 l 0.8408069908378232 -48.83896020033956 a69.84619729156194,69.84619729156194 0 0,0 1.201931206385469,0.031042337018471644 l -1.6813648324181598 48.817251071178724" fill="#3aff93" stroke="none" /><path d="M 101.08401301168833 79.027996857942 l 0.7460751485587276 -14.43404294143629 a35.45331186138747,35.45331186138747 0 0,0 0.6091857339958733,0.0367477470887091 l -0.9944229313942128 14.419061924967277" fill="#ff850c" stroke="none" /><path d="M 101.80526077348638 79.07773832637324 l 1.3607464258535096 -15.770515379989973 a36.82911198349337,36.82911198349337 0 0,0 0.6311367616399448,0.059934040382162414 l -1.6320083145836988 15.744755795092633" fill="#ff990e" stroke="none" /><path d="M 102.88285421437855 79.19881850522331 l 3.5344723740516404 -25.502920326052944 a46.746678234676,46.746678234676 0 0,0 0.7960981999352734,0.11732418048189541 l -3.9729395544155697 25.438301661410083" fill="#dfff1b" stroke="none" /><path d="M 103.59715602781102 79.31037775812273 l 5.801834896315905 -33.3701878335157 a54.870794561217906,54.870794561217906 0 0,0 0.9291582026156905,0.16979772249825045 l -6.375388220034497 33.26537462966672" fill="#7dff26" stroke="none" /><path d="M 105.36241919743992 79.69619591428918 l 12.023748503946148 -45.525689993898716 a68.08671763360361,68.08671763360361 0 0,0 1.1305705787936555,0.30902764673534056 l -12.805616971963515 45.31197580633708" fill="#38ff7d" stroke="none" /><path d="M 106.74666289553966 80.11325718540242 l 6.2039810184811 -18.28711125062224 a40.31082127643224,40.31082127643224 0 0,0 0.6551813682207335,0.228579914548818 l -6.517844390765107 18.177610482901212" fill="#ffca12" stroke="none" /><path d="M 110.36928655335952 81.73862282372117 l 7.146904876136692 -12.586432529809304 a35.47399506480461,35.47399506480461 0 0,0 0.5283991223228429,0.30608287745278556 l -7.362500730924864 12.461545494966469" fill="#ff860c" stroke="none" /><line stroke="#e1ed5e" stroke-width="0.3" x1="143.23703022742887" x2="145.7803849466894" y1="26.81831364943548" y2="22.513508569990506" /><path d="M 143.74570117128098 25.957352633546492 a86.0,86.0 0 0,1 28.547481713284135,27.462654790039103" fill="none" id="id62" stroke="none" /><text fill="#e1ed5e" style="font-size:6.75px; font-family:Arial;" text-anchor="middle"><textPath startOffset="19.985693538727396" xlink:href="#id62">February</textPath></text><path d="M 111.2981086023043 82.29822771554956 l 20.12737176932819 -31.535380326620086 a58.41111207496145,58.41111207496145 0 0,0 0.842880619967777,0.5482330014768232 l -20.667219415080247 31.184248400983734" fill="#55ff2b" stroke="none" /><path d="M 111.90073688211348 82.69761687909136 l 26.78676009738129 -38.9450494002057 a68.26782615372872,68.26782615372872 0 0,0 0.9624751186874234,0.674275328373331 l -27.453166355652364 38.478189229068434" fill="#38ff80" stroke="none" /><path d="M 112.48926042617603 83.11751280151076 l 27.974909294394124 -37.81537352297101 a68.0382612849518,68.0382612849518 0 0,0 0.9355385541724732,0.7046282432544565 l -28.62169400232498 37.32822869021071" fill="#38ff7d" stroke="none" /><path d="M 113.06298171725822 83.55741782278167 l 29.373338547975848 -36.97268689094657 a68.22046794971409,68.22046794971409 0 0,0 0.9131686518573661,0.738385543178954 l -30.005410598397706 36.461595250503485" fill="#38ff7f" stroke="none" /><path d="M 113.89432698308785 84.25364557470405 l 4.939134850771543 -5.597490832715074 a28.46504900830767,28.46504900830767 0 0,0 0.36460882956078206,0.32734940718747124 l -5.034754667928316 5.511642416758308" fill="#ff1d02" stroke="none" /><path d="M 114.16331599549186 84.49514656593476 l 17.08124983144732 -18.699171521100062 a46.3264310825635,46.3264310825635 0 0,0 0.5841368439325798,0.5428915349022907 l -17.40059455917475 18.40237540012313" fill="#e4ff1a" stroke="none" /><path d="M 114.42810811169701 84.74124197986012 l 17.502956716439805 -18.510630715098262 a46.47541841242857,46.47541841242857 0 0,0 0.5765535836457898,0.5546440906644441 l -17.818993543698014 18.206603537671516" fill="#e2ff1b" stroke="none" /><path d="M 114.68862486808459 84.99185889309783 l 23.022923128525264 -23.52373228327442 a53.9153606985728,53.9153606985728 0 0,0 0.6576754872400041,0.654851219689214 l -23.42443441593259 23.123945212935087" fill="#88ff25" stroke="none" /><path d="M 114.94478906791727 85.2469230424477 l 23.560247531226537 -23.258016114349005 a54.106201493194355,54.106201493194355 0 0,0 0.6485935462436772,0.668432662386404 l -23.957105341173325 22.84901925641249" fill="#85ff25" stroke="none" /><path d="M 115.4437574822437 85.77008943001952 l 46.331272446731084 -42.68973170994141 a84.0,84.0 0 0,0 0.9706254375358574,1.0717888509218132 l -47.05924152488298 41.88589007175005" fill="#4dd2ff" stroke="none" /><path d="M 115.9244219780498 86.31012108654704 l 24.909511562028428 -21.414164831067072 a53.84889985480393,53.84889985480393 0 0,0 0.5982084195962319,0.7080900841534575 l -25.274430595111777 20.982215797284507" fill="#88ff25" stroke="none" /><path d="M 116.15771136456269 86.58626213691792 l 13.891482553887316 -11.532369981314213 a39.05460730480929,39.05460730480929 0 0,0 0.4249541266910771,0.5209435121817186 l -14.087935172654802 11.29154229952439" fill="#ffb811" stroke="none" /><path d="M 116.38621287248628 86.86637796730983 l 20.11094675022649 -16.119012696370337 a46.77348927670046,46.77348927670046 0 0,0 0.49812857205314465,0.6325727007589966 l -20.385429402873598 15.770447601658303" fill="#dfff1b" stroke="none" /><path d="M 117.04232023915458 87.72973835380427 l 38.99945928192969 -28.07913257902569 a69.05617037044664,69.05617037044664 0 0,0 0.6862452990945273,0.9706453086632697 l -39.4770172008281 27.403660770030626" fill="#39ff89" stroke="none" /><path d="M 117.45458315368197 88.32363383020206 l 21.36715636609584 -14.293709539848575 a46.70730447913099,46.70730447913099 0 0,0 0.44128030295340254,0.6721001758994315 l -21.61003330440717 13.92379129997147" fill="#e0ff1b" stroke="none" /><path d="M 117.65298651832404 88.62581576622439 l 12.764808539855977 -8.224630086840303 a36.18502147264003,36.18502147264003 0 0,0 0.3328546465600754,0.5264961156417676 l -12.904490782662009 8.00368632348433" fill="#ff900d" stroke="none" /><line stroke="#e1ed5e" stroke-width="0.3" x1="172.23445277983987" x2="176.4835382374775" y1="55.19839476539836" y2="52.563006222186495" /><path d="M 173.08426987136738 54.67131705675599 a86.0,86.0 0 0,1 12.851231095245387,41.99856678651699" fill="none" id="id63" stroke="none" /><text fill="#e1ed5e" style="font-size:6.75px; font-family:Arial;" text-anchor="middle"><textPath startOffset="22.20632615414155" xlink:href="#id63">March</textPath></text><path d="M 117.84615892207809 88.93136811851018 l 27.843831519923285 -17.26943722791675 a53.76449932287735,53.76449932287735 0 0,0 0.4810238112295078,0.7906766689662178 l -28.136971129439015 16.78759278574345" fill="#89ff24" stroke="none" /><path d="M 118.03404312379186 89.2402003453031 l 20.468122583172985 -12.212064526571455 a44.83439871448283,44.83439871448283 0 0,0 0.38971836839375407,0.6661550206501258 l -20.675300626037064 11.857930093567433" fill="#f8ff18" stroke="none" /><path d="M 118.56541770881063 90.18545643968196 l 41.85278160985613 -22.12532756725817 a68.34116019322705,68.34116019322705 0 0,0 0.5408407690956046,1.0447322197333984 l -42.227431812111845 21.40162262526443" fill="#38ff81" stroke="none" /><path d="M 118.89224826269711 90.83032412892265 l 23.505718778379922 -11.408902705350583 a47.1281816479532,47.1281816479532 0 0,0 0.34794468588821253,0.7328602454385436 l -23.69862165810989 11.0026000442715" fill="#daff1c" stroke="none" /><path d="M 119.04729006885535 91.15688171328212 l 17.184090836638337 -7.97808755832266 a39.945787367383296,39.945787367383296 0 0,0 0.2841813371315175,0.6261559067055876 l -17.3188744907332 7.681109642775009" fill="#ffc512" stroke="none" /><path d="M 119.196687751892 91.48605970444005 l 22.173124328189356 -9.834022365531567 a45.256039214165156,45.256039214165156 0 0,0 0.3097006319428323,0.714831758093373 l -22.33911566997487 9.45089146285159" fill="#f2ff19" stroke="none" /><path d="M 119.61058180528143 92.48833698450437 l 22.140813590024905 -8.480846322080165 a44.70949980001628,44.70949980001628 0 0,0 0.2690988392909315,0.7210511017741508 l -22.28351701781746 8.09847208327668" fill="#f9ff18" stroke="none" /><path d="M 119.85752413597 93.16781622104841 l 33.363365908066164 -11.479006436427596 a56.28288215952685,56.28288215952685 0 0,0 0.307311789654091,0.91882313568284 l -33.55601499149203 10.903010197822443" fill="#6cff28" stroke="none" /><path d="M 119.97218684219823 93.5106431181261 l 28.21213419740292 -9.166678073502148 a50.66399337370976,50.66399337370976 0 0,0 0.2623538785616607,0.8317334897028306 l -28.36574355973279 8.679694417372897" fill="#aeff20" stroke="none" /><path d="M 120.37134235888165 94.90015583598534 l 5.987966752685157 -1.4990517934465466 a27.172754823472104,27.172754823472104 0 0,0 0.10968373026595438,0.4547098734031526 l -6.012883283211931 1.3957566883839878" fill="#ff0801" stroke="none" /><path d="M 120.78858239683441 97.02765380044208 l 28.363978679791746 -4.055474424560022 a49.652437232388124,49.652437232388124 0 0,0 0.11368989707918475,0.8471217872452486 l -28.429584575928768 3.5666342952501098" fill="#bbff1f" stroke="none" /><line stroke="#e1ed5e" stroke-width="0.3" x1="184.98032266829074" x2="189.97916517819016" y1="98.17113171792111" y2="98.06355123074" /><path d="M 185.9800911702706 98.14961562048488 a86.0,86.0 0 0,1 -9.607161424134198,41.387399972396054" fill="none" id="id64" stroke="none" /><text fill="#e1ed5e" style="font-size:6.75px; font-family:Arial;" text-anchor="middle"><textPath startOffset="21.466115282336823" xlink:href="#id64">April</textPath></text><path d="M 120.99980553446 99.90962569577887 l 14.03807772188458 -0.060413964531033426 a35.03820771939148,35.03820771939148 0 0,0 -0.0025956683200006555,0.6031419043471671 l -14.037037756275076 -0.18123741801981835" fill="#ff7f0b" stroke="none" /><path d="M 120.92983693683757 101.71520430193887 l 14.348864805294028 1.1758923261682253 a35.396966484761535,35.396966484761535 0 0,0 -0.0549923962920085,0.6068365106398392 l -14.326497812724943 -1.4227102253566353" fill="#ff850c" stroke="none" /><path d="M 120.49622156327973 104.57218783832717 l 6.766014666905263 1.5093264813935439 a27.93231713788492,27.93231713788492 0 0,0 -0.10872246643328731,0.4683735398632916 l -6.739031634541423 -1.6255686786053998" fill="#ff1402" stroke="none" /><path d="M 120.23288151984713 105.62410040840565 l 8.895155818112274 2.4725716611548267 a30.232410717036075,30.232410717036075 0 0,0 -0.14368653305922854,0.5001916714813973 l -8.851276648166946 -2.625320808140806" fill="#ff3805" stroke="none" /><path d="M 119.9155931802556 106.66101706037122 l 17.89229230017811 5.984298995361656 a39.86653010547778,39.86653010547778 0 0,0 -0.22326997518485311,0.6489270582459284 l -17.786631494050024 -6.291398756696886" fill="#ffc412" stroke="none" /><path d="M 119.41010516605496 108.01547362559984 l 27.68521150595835 11.432708929019405 a50.952925893563865,50.952925893563865 0 0,0 -0.3417461722613975,0.8077870010386462 l -27.48431435250464 -11.907570455724215" fill="#abff21" stroke="none" /><path d="M 119.12269723197855 108.67885076344098 l 28.650785272333223 13.003180807472605 a52.463474185683474,52.463474185683474 0 0,0 -0.38029868856329924,0.8191295422057479 l -28.422711966930095 -13.494430416957183" fill="#99ff23" stroke="none" /><path d="M 118.97047184881838 109.00673069616215 l 14.995818418738663 7.119659391842702 a37.600124093019176,37.600124093019176 0 0,0 -0.282621768522176,0.5822845529583793 l -14.871043393601772 -7.376732900766356" fill="#ffa40f" stroke="none" /><line stroke="#e1ed5e" stroke-width="0.3" x1="174.80103733775053" x2="179.2010983576182" y1="140.37084112569926" y2="142.7455964860345" /><path d="M 175.68104954172406 140.8457921977663 a86.0,86.0 0 0,1 -30.038265399797805,32.042727171017184" fill="none" id="id65" stroke="none" /><text fill="#e1ed5e" style="font-size:6.75px; font-family:Arial;" text-anchor="middle"><textPath startOffset="22.206326154141568" xlink:href="#id65">May</textPath></text><path d="M 116.27256486870786 113.27417163493432 l 18.43145370332655 15.03526222899182 a44.786079876945216,44.786079876945216 0 0,0 -0.4924421425082825,0.5931782836083765 l -18.169915560924725 -15.350301769713964" fill="#f8ff18" stroke="none" /><path d="M 116.0416608686014 113.55231037782055 l 4.3069552817615255 3.6386004691118194 a26.63819804307318,26.63819804307318 0 0,0 -0.2989281381136741,0.34772095812746984 l -4.24368463407707 -3.7121985264008197" fill="#ff0000" stroke="none" /><path d="M 115.56566222782051 114.09645910891815 l 17.658267720226885 15.991548911270517 a44.82318315130797,44.82318315130797 0 0,0 -0.5228380818084961,0.5674374760278655 l -17.380383230422666 -16.293137642099715" fill="#f8ff18" stroke="none" /><path d="M 113.48314897796784 116.09983520530334 l 16.081577776451706 19.202543297950243 a46.04705198001791,46.04705198001791 0 0,0 -0.6120527476227774,0.5036777429546354 l -15.748654900284237 -19.476516159762056" fill="#e8ff1a" stroke="none" /><line stroke="#e1ed5e" stroke-width="0.3" x1="143.8653032363475" x2="146.44561519142675" y1="172.8068346515853" y2="177.08958963109032" /><path d="M 144.38136562736335 173.6633856474863 a86.0,86.0 0 0,1 -40.68145358897372,12.25698825130547" fill="none" id="id66" stroke="none" /><text fill="#e1ed5e" style="font-size:6.75px; font-family:Arial;" text-anchor="middle"><textPath startOffset="21.466115282336833" xlink:href="#id66">June</textPath></text><path d="M 110.5260780823613 118.17145234162733 l 4.796567043369721 8.280442986459457 a30.56936734865718,30.56936734865718 0 0,0 -0.45759611049948834,0.2598350140664933 l -4.653322165949034 -8.36178116632058" fill="#ff3d05" stroke="none" /><path d="M 104.48393922423573 120.51570834832081 l 3.0035135915058713 13.742204294496167 a35.0666013224954,35.0666013224954 0 0,0 -0.590802998407178,0.12380851258618074 l -2.766519131669315 -13.79186878780889" fill="#ff800b" stroke="none" /><path d="M 102.70371172650421 120.8252237178851 l 0.9707224322518877 7.476947938437568 a28.539698436581055,28.539698436581055 0 0,0 -0.48771976777487314,0.05905607170950279 l -0.8418752414256342 -7.492549538872422" fill="#ff1e03" stroke="none" /><line stroke="#e1ed5e" stroke-width="0.3" x1="102.19456741930631" x2="102.32365962044197" y1="184.97166512339345" y2="189.96999836594603" /><path d="M 102.22038585953345 185.97133177190398 a86.0,86.0 0 0,1 -42.740103519485714,-10.115201625700543" fill="none" id="id67" stroke="none" /><text fill="#e1ed5e" style="font-size:6.75px; font-family:Arial;" text-anchor="middle"><textPath startOffset="22.20632615414155" xlink:href="#id67">July</textPath></text><path d="M 100.18074693466247 120.99922214144158 l 0.202544038779265 23.531614916144168 a44.53248658024357,44.53248658024357 0 0,0 -0.7665819468834246,0.0 l 0.20254403877924873 -23.531614916144168" fill="#fcff18" stroke="none" /><path d="M 97.2962882734958 120.8252237178851 l -2.4772227950477084 19.080702428515025 a40.24083776611204,40.24083776611204 0 0,0 -0.6861473081301874,-0.09509376471832875 l 2.8052986943647262 -19.03523409830409" fill="#ffc912" stroke="none" /><path d="M 95.51606077576429 120.51570834832081 l -3.300705889077143 15.10197082910593 a36.45846636278499,36.45846636278499 0 0,0 -0.6119464179485626,-0.1392770123986022 l 3.560172456418568 -15.042917083129641" fill="#ff940d" stroke="none" /><path d="M 94.81253420990036 120.34920634021253 l -2.9652725099058816 11.632065559679702 a33.004073901917224,33.004073901917224 0 0,0 -0.5492971073750472,-0.14507435854146924 l 3.1650600600924177 -11.579299851834651" fill="#ff6209" stroke="none" /><path d="M 90.7491055286396 118.85261126421891 l -4.113562899873599 8.383124734837201 a30.337996575875138,30.337996575875138 0 0,0 -0.46683833534418473,-0.23408243274644042 l 4.257255142900543 -8.311074461181459" fill="#ff3905" stroke="none" /><line stroke="#e1ed5e" stroke-width="0.3" x1="58.666819895761336" x2="56.23545636021788" y1="174.27360380694188" y2="178.64263932499728" /><path d="M 58.180547188652646 175.14741091055294 a86.0,86.0 0 0,1 -31.652253787137756,-30.449443065178592" fill="none" id="id68" stroke="none" /><text fill="#e1ed5e" style="font-size:6.75px; font-family:Arial;" text-anchor="middle"><textPath startOffset="22.20632615414155" xlink:href="#id68">August</textPath></text><path d="M 86.24171649860922 115.8653595955263 l -15.28042094380709 17.62061183141083 a44.323319350666914,44.323319350666914 0 0,0 -0.5721035549791278,-0.5048148699293347 l 15.581466851692806 -17.35497381970921" fill="#feff18" stroke="none" /><line stroke="#e1ed5e" stroke-width="0.3" x1="26.63291911575756" x2="22.317208475507996" y1="142.92168965132927" y2="145.44649492493687" /><path d="M 25.769776987707644 143.4266507060508 a86.0,86.0 0 0,1 -11.730757126820373,-40.83630448921669" fill="none" id="id69" stroke="none" /><text fill="#e1ed5e" style="font-size:6.75px; font-family:Arial;" text-anchor="middle"><textPath startOffset="21.46611528233685" xlink:href="#id69">September</textPath></text><path d="M 81.87401531095188 110.60418214915194 l -10.64974837206038 6.230385466903598 a33.33834848974555,33.33834848974555 0 0,0 -0.2855159727360546,-0.4978211646782786 l 10.75541634094881 -6.046144456367011" fill="#ff6609" stroke="none" /><path d="M 80.45479744820244 107.68017299344265 l -17.458714807095255 6.860299841166829 a39.75820984599012,39.75820984599012 0 0,0 -0.24480780791467585,-0.6391159366146748 l 17.574216894603442 -6.558760337718996" fill="#ffc212" stroke="none" /><line stroke="#e1ed5e" stroke-width="0.3" x1="15.007084014347285" x2="10.007500721073583" y1="101.09737516637583" y2="101.16192664675087" /><path d="M 14.007167355692545 101.11028546245083 a86.0,86.0 0 0,1 10.666146001902534,-42.60595125391555" fill="none" id="id70" stroke="none" /><text fill="#e1ed5e" style="font-size:6.75px; font-family:Arial;" text-anchor="middle"><textPath startOffset="22.20632615414155" xlink:href="#id70">October</textPath></text><line stroke="#e1ed5e" stroke-width="0.3" x1="26.266209847984243" x2="21.928928074336255" y1="57.71137044288968" y2="55.22380399835378" /><path d="M 25.398753493254645 57.2138571539825 a86.0,86.0 0 0,1 29.58750427330803,-30.4925239686951" fill="none" id="id71" stroke="none" /><text fill="#e1ed5e" style="font-size:6.75px; font-family:Arial;" text-anchor="middle"><textPath startOffset="21.46611528233685" xlink:href="#id71">November</textPath></text><line stroke="#e1ed5e" stroke-width="0.3" x1="56.76296977257108" x2="54.21961505331056" y1="26.818313649435495" y2="22.513508569990535" /><path d="M 56.25429882871898 25.957352633546506 a86.0,86.0 0 0,1 42.26535254187918,-11.944610805530505" fill="none" id="id72" stroke="none" /><text fill="#e1ed5e" style="font-size:6.75px; font-family:Arial;" text-anchor="middle"><textPath startOffset="22.20632615414155" xlink:href="#id72">December</textPath></text></svg>