<?xml version="1.0" encoding="utf-8" ?>
<svg baseProfile="full" height="200mm" version="1.1" viewBox="0,0,200,200" width="200mm" xmlns="http://www.w3.org/2000/svg" xmlns:ev="http://www.w3.org/2001/xml-events" xmlns:xlink="http://www.w3.org/1999/xlink"><defs /><rect fill="#1a1a1a" height="200" width="200" x="0" y="0" /><text alignment-baseline="middle" fill="#e1ed5e" style="dominant-baseline: central; font-size:9.0px; font-family:Arial;" text-anchor="middle" x="100.0" y="100.0">2023</text><line stroke="#e1ed5e" stroke-width="0.3" x1="100.0" x2="100.0" y1="15.0" y2="10.0" /><path d="M 100.0 14.0 a86.0,86.0 0 0,1 42.46469731375804,11.215312516191453" fill="none" id="id61" stroke="none" /><text fill="#e1ed5e" style="font-size:6.75px; font-family:Arial;" text-anchor="middle"><textPath startOffset="22.20632615414155" xlink:href="#id61">January</textPath></text><path d="M 100.36148047927253 79.00311137660856 l 1.084441437817585 -62.990665870174325 a84.0,84.0 0 0,0 1.4454934592205289,0.03733283143056143 l -2.1685615322329816 62.9626662466014" fill="#4dd2ff" stroke="none" /><path d="M 101.08401301168833 79.027996857942 l 0.5900725047133589 -11.415916865810281 a32.431156697723566,32.431156697723566 0 0,0 0.5572567684080033,0.03361525007259504 l -0.786491321960974 11.404068346357382" fill="#ff6809" stroke="none" /><path d="M 101.80526077348638 79.07773832637324 l 1.0551825563795998 -12.229150426497661 a33.274588807010836,33.274588807010836 0 0,0 0.5702232580022575,0.05414956923623529 l -1.2655309414721014 12.209175312746249" fill="#ff750a" stroke="none" /><path d="M 102.88285421437855 79.19881850522331 l 2.7421325665892646 -19.785807036606176 a40.974920553097675,40.974920553097675 0 0,0 0.6978048863932929,0.10283830115306325 l -3.082306433411213 19.735674251292146" fill="#ffdf14" stroke="none" /><path d="M 103.59715602781102 79.31037775812273 l 4.526787879306813 -26.036549559669762 a47.42713986562637,47.42713986562637 0 0,0 0.8031105870643738,0.14676332643232995 l -4.9742935874740875 25.95477075188669" fill="#cdff1d" stroke="none" /><path d="M 105.36241919743992 79.69619591428918 l 9.288436287688507 -35.16893844067052 a57.37484405071892,57.37484405071892 0 0,0 0.9527013917117192,0.2604092788583794 l -9.892435568623936 35.00384262098585" fill="#5aff2a" stroke="none" /><path d="M 106.74666289553966 80.11325718540242 l 4.796328971547735 -14.137857810330628 a35.92929318716847,35.92929318716847 0 0,0 0.5839673498127341,0.20373474185017332 l -5.038978325423743 14.053202215308247" fill="#ff9a0e" stroke="none" /><path d="M 110.36928655335952 81.73862282372117 l 5.568808921476326 -9.80724369168466 a32.27801674196323,32.27801674196323 0 0,0 0.480793766972616,0.2785067829208626 l -5.736799420914271 9.709932751373746" fill="#ff6609" stroke="none" /><line stroke="#e1ed5e" stroke-width="0.3" x1="143.23703022742887" x2="145.7803849466894" y1="26.81831364943548" y2="22.513508569990506" /><path d="M 143.74570117128098 25.957352633546492 a86.0,86.0 0 0,1 28.547481713284135,27.462654790039103" fill="none" id="id62" stroke="none" /><text fill="#e1ed5e" style="font-size:6.75px; font-family:Arial;" text-anchor="middle"><textPath startOffset="19.985693538727396" xlink:href="#id62">February</textPath></text><path d="M 111.2981086023043 82.29822771554956 l 15.647140171913437 -24.515794809194592 a50.083624098211004,50.083624098211004 0 0,0 0.7227137890468086,0.47007315198796085 l -16.066820986744524 24.242822733047106" fill="#adff20" stroke="none" /><path d="M 111.90073688211348 82.69761687909136 l 26.056647875547586 -37.883545267431266 a66.97947259962638,66.97947259962638 0 0,0 0.9443112439933076,0.6615503733733415 l -26.704890259124547 37.42941005129399" fill="#37ff74" stroke="none" /><path d="M 112.48926042617603 83.11751280151076 l 21.618465553772396 -29.222984829237884 a57.35025302841111,57.35025302841111 0 0,0 0.7885764830896977,0.5939394581581645 l -22.118288190620476 28.846528781573873" fill="#5bff2a" stroke="none" /><path d="M 113.06298171725822 83.55741782278167 l 22.613183536058063 -28.46357260754063 a57.352868321773244,57.352868321773244 0 0,0 0.7676998270394626,0.6207598701882115 l -23.099786761662017 28.070106640088294" fill="#5aff2a" stroke="none" /><path d="M 113.89432698308785 84.25364557470405 l 3.8122183774932337 -4.320363396636753 a26.761818188445016,26.761818188445016 0 0,0 0.34279214498311883,0.30776217236406567 l -3.8860215100723425 4.2541022155033925" fill="#ff1402" stroke="none" /><path d="M 114.16331599549186 84.49514656593476 l 13.324331758138737 -14.586401311850947 a40.75603502809487,40.75603502809487 0 0,0 0.5138988934866948,0.47761301477121226 l -13.573438535420278 14.354883711005094" fill="#ffdc14" stroke="none" /><path d="M 114.42810811169701 84.74124197986012 l 13.614915696921143 -14.398748780895364 a40.81640471653739,40.81640471653739 0 0,0 0.5063503506740531,0.487108636167582 l -13.860749291207613 14.16225705796548" fill="#ffdd14" stroke="none" /><path d="M 114.68862486808459 84.99185889309783 l 17.872785962389287 -18.261566083005107 a46.552324235993524,46.552324235993524 0 0,0 0.5678589946792686,0.5654204276911216 l -18.184480757235878 17.951209804663865" fill="#d8ff1c" stroke="none" /><path d="M 114.94478906791727 85.2469230424477 l 18.254895810696556 -18.02072157214044 a46.651269501527494,46.651269501527494 0 0,0 0.5592281751024627,0.5763337919874858 l -18.562388249502128 17.703823584602844" fill="#d7ff1c" stroke="none" /><path d="M 115.4437574822437 85.77008943001952 l 35.91163987173147 -33.0890603781899 a69.83166795214382,69.83166795214382 0 0,0 0.8069094435703369,0.8910095613378789 l -36.475892955917836 32.46599802958247" fill="#3aff96" stroke="none" /><path d="M 115.9244219780498 86.31012108654704 l 19.31976210173346 -16.60877890412691 a46.47753411054036,46.47753411054036 0 0,0 0.5163197818704545,0.6111597660920782 l -19.602792497091034 16.273760188405724" fill="#d9ff1c" stroke="none" /><path d="M 116.15771136456269 86.58626213691792 l 10.725547937440831 -8.904088284822862 a34.93987685534779,34.93987685534779 0 0,0 0.38018164514816916,0.46605774376792203 l -10.87722807466541 8.718146371446837" fill="#ff8c0c" stroke="none" /><path d="M 116.38621287248628 86.86637796730983 l 15.548991438969619 -12.462585353804007 a40.927046155163104,40.927046155163104 0 0,0 0.43586508885451053,0.5535044000524466 l -15.761210608418093 12.193088559798523" fill="#ffde14" stroke="none" /><path d="M 117.04232023915458 87.72973835380427 l 30.214696876338184 -21.754211341562847 a58.23135262681685,58.23135262681685 0 0,0 0.5786737345222169,0.8184929592986171 l -30.584683230664286 21.230891881932436" fill="#51ff2b" stroke="none" /><path d="M 117.45458315368197 88.32363383020206 l 16.564979380471186 -11.081259468561605 a40.92969777204416,40.92969777204416 0 0,0 0.3866947500836574,0.588962633979285 l -16.75327076591277 10.794478770604647" fill="#ffde14" stroke="none" /><path d="M 117.65298651832404 88.62581576622439 l 9.872781558192152 -6.36123730260238 a32.744664989509026,32.744664989509026 0 0,0 0.30120788791163605,0.47643854344546477 l -9.980817042349743 6.190351111442708" fill="#ff6d0a" stroke="none" /><line stroke="#e1ed5e" stroke-width="0.3" x1="172.23445277983987" x2="176.4835382374775" y1="55.19839476539836" y2="52.563006222186495" /><path d="M 173.08426987136738 54.67131705675599 a86.0,86.0 0 0,1 12.851231095245387,41.99856678651699" fill="none" id="id63" stroke="none" /><text fill="#e1ed5e" style="font-size:6.75px; font-family:Arial;" text-anchor="middle"><textPath startOffset="22.20632615414155" xlink:href="#id63">March</textPath></text><path d="M 117.84615892207809 88.93136811851018 l 43.03811860600544 -26.693312202461378 a71.64397861032114,71.64397861032114 0 0,0 0.6409891299428112,1.0536175928823668 l -43.49122353423448 25.94852683637193" fill="#3dffab" stroke="none" /><path d="M 118.03404312379186 89.2402003453031 l 15.997342752000131 -9.544626340166312 a39.62833505975152,39.62833505975152 0 0,0 0.3444651991431421,0.5888026853704932 l -16.1592676256136 9.267844242441923" fill="#ffcd13" stroke="none" /><path d="M 118.56541770881063 90.18545643968196 l 32.38571981191929 -17.120598244094108 a57.63263206448343,57.63263206448343 0 0,0 0.45609522815575976,0.881030808601537 l -32.67562447323516 16.560594713232224" fill="#57ff2a" stroke="none" /><path d="M 118.89224826269711 90.83032412892265 l 18.189290232968187 -8.828483166325897 a41.2186150415218,41.2186150415218 0 0,0 0.3043146915894712,0.6409643504096117 l -18.338563118399414 8.514076400275746" fill="#ffe215" stroke="none" /><path d="M 119.04729006885535 91.15688171328212 l 13.346562345415403 -6.196431571887957 a35.71483913147372,35.71483913147372 0 0,0 0.25408162934614104,0.5598351904679717 l -13.451246291724893 5.965774372577923" fill="#ff970d" stroke="none" /><path d="M 119.196687751892 91.48605970444005 l 17.209480111423197 -7.632592042960249 a39.82611662026268,39.82611662026268 0 0,0 0.27254204520097924,0.6290646167016594 l -17.338312866466858 7.335228281671987" fill="#ffcf13" stroke="none" /><path d="M 119.61058180528143 92.48833698450437 l 16.988552297028313 -6.50731738831089 a39.19219856809724,39.19219856809724 0 0,0 0.23589114597812685,0.6320709935222205 l -17.098048031508068 6.213923257759336" fill="#ffc712" stroke="none" /><path d="M 119.85752413597 93.16781622104841 l 41.167749156332256 -14.16418411862108 a64.53628007013108,64.53628007013108 0 0,0 0.35237640584496244,1.0535606021609307 l -41.40546285594899 13.453450413537833" fill="#33ff56" stroke="none" /><path d="M 119.97218684219823 93.5106431181261 l 21.919466209630457 -7.122066302420584 a44.04749069489358,44.04749069489358 0 0,0 0.22809157461145915,0.7231126231618292 l -22.038813268010124 6.743703512832336" fill="#f7ff18" stroke="none" /><path d="M 120.37134235888165 94.90015583598534 l 9.987612055134198 -2.500339160497754 a31.295828790407334,31.295828790407334 0 0,0 0.12632665571807886,0.5237055440194229 l -10.029171511113097 2.328048384818925" fill="#ff5808" stroke="none" /><path d="M 120.78858239683441 97.02765380044208 l 21.976383966067978 -3.142177764440274 a43.19988138093068,43.19988138093068 0 0,0 0.09891538747723978,0.7370345297033187 l -22.027215352603054 2.7634248926722913" fill="#fffc17" stroke="none" /><line stroke="#e1ed5e" stroke-width="0.3" x1="184.98032266829074" x2="189.97916517819016" y1="98.17113171792111" y2="98.06355123074" /><path d="M 185.9800911702706 98.14961562048488 a86.0,86.0 0 0,1 -9.607161424134198,41.387399972396054" fill="none" id="id64" stroke="none" /><text fill="#e1ed5e" style="font-size:6.75px; font-family:Arial;" text-anchor="middle"><textPath startOffset="21.466115282336823" xlink:href="#id64">April</textPath></text><path d="M 120.99980553446 99.90962569577887 l 10.919438815936205 -0.04699265828229067 a31.919539933756674,31.919539933756674 0 0,0 -0.0023646340377505744,0.5494576736262868 l -10.91862988460895 -0.14097449354768085" fill="#ff6108" stroke="none" /><path d="M 120.92983693683757 101.71520430193887 l 22.572514821290223 1.849822081456973 a43.648184631232866,43.648184631232866 0 0,0 -0.0678114116841299,0.7482932773005746 l -22.53732881332902 -2.2380967473061184" fill="#fdff18" stroke="none" /><path d="M 120.49622156327973 104.57218783832717 l 5.259962766353399 1.1733644523759925 a26.389247854898095,26.389247854898095 0 0,0 -0.10271629453227347,0.4424991085098469 l -5.238985905890573 -1.2637322182344037" fill="#ff0e01" stroke="none" /><path d="M 120.23288151984713 105.62410040840565 l 6.9201657383757285 1.9235869550887303 a28.1825399839038,28.1825399839038 0 0,0 -0.13394404769740517,0.46627680184288545 l -6.886029053792224 -2.042421232436198" fill="#ff2a04" stroke="none" /><path d="M 119.9155931802556 106.66101706037122 l 13.777168390957168 4.607944783023282 a35.52733712681649,35.52733712681649 0 0,0 -0.198968599918314,0.5782958864997535 l -13.695808960095624 -4.844413372612336" fill="#ff940d" stroke="none" /><path d="M 119.41010516605496 108.01547362559984 l 21.481964984386675 8.87105568389907 a44.24156725647505,44.24156725647505 0 0,0 -0.2967324446947086,0.7013878459111565 l -21.326081558499656 -9.23951805547639" fill="#f5ff19" stroke="none" /><path d="M 119.12269723197855 108.67885076344098 l 22.2703492999303 10.107415061750654 a45.45666161133629,45.45666161133629 0 0,0 -0.3295075109984664,0.7097298643263764 l -22.093067172092002 -10.48926499335586" fill="#e6ff1a" stroke="none" /><path d="M 118.97047184881838 109.00673069616215 l 22.179332710974954 10.530221827918014 a45.55215614257299,45.55215614257299 0 0,0 -0.34239330958491354,0.7054316312932835 l -21.994786144775325 -10.910442415176574" fill="#e4ff1a" stroke="none" /><line stroke="#e1ed5e" stroke-width="0.3" x1="174.80103733775053" x2="179.2010983576182" y1="140.37084112569926" y2="142.7455964860345" /><path d="M 175.68104954172406 140.8457921977663 a86.0,86.0 0 0,1 -30.038265399797805,32.042727171017184" fill="none" id="id65" stroke="none" /><text fill="#e1ed5e" style="font-size:6.75px; font-family:Arial;" text-anchor="middle"><textPath startOffset="22.206326154141568" xlink:href="#id65">May</textPath></text><path d="M 116.27256486870786 113.27417163493432 l 14.109763598246413 11.509889512970418 a39.20887106328083,39.20887106328083 0 0,0 -0.431118341341421,0.5193098146442516 l -13.90954925701145 -11.751060584728437" fill="#ffc712" stroke="none" /><path d="M 116.0416608686014 113.55231037782055 l 3.406680709397498 2.8780308167625543 a25.459656358736172,25.459656358736172 0 0,0 -0.28570279641381296,0.33233689787654047 l -3.356635403412904 -2.936244813800625" fill="#ff0000" stroke="none" /><path d="M 115.56566222782051 114.09645910891815 l 13.482223329688077 12.209670689408322 a39.18918371602701,39.18918371602701 0 0,0 -0.4571205389979183,0.4961140626793211 l -13.270056382694435 -12.439936006888978" fill="#ffc712" stroke="none" /><path d="M 113.48314897796784 116.09983520530334 l 12.48517159331633 14.908179498037653 a40.44565055893639,40.44565055893639 0 0,0 -0.5375994876877265,0.44240777878021814 l -12.226701977083913 -15.120882395675048" fill="#ffd814" stroke="none" /><line stroke="#e1ed5e" stroke-width="0.3" x1="143.8653032363475" x2="146.44561519142675" y1="172.8068346515853" y2="177.08958963109032" /><path d="M 144.38136562736335 173.6633856474863 a86.0,86.0 0 0,1 -40.68145358897372,12.25698825130547" fill="none" id="id66" stroke="none" /><text fill="#e1ed5e" style="font-size:6.75px; font-family:Arial;" text-anchor="middle"><textPath startOffset="21.466115282336833" xlink:href="#id66">June</textPath></text><path d="M 110.5260780823613 118.17145234162733 l 3.7344468002013214 6.446876179449546 a28.450389612408728,28.450389612408728 0 0,0 -0.4258769074396679,0.24182402274877834 l -3.6229211258404552 -6.510203367992953" fill="#ff2e04" stroke="none" /><path d="M 104.48393922423573 120.51570834832081 l 2.333907935464628 10.678506581227166 a31.930582283507896,31.930582283507896 0 0,0 -0.537967269211282,0.11273627182100819 l -2.149749204823968 -10.717098833774717" fill="#ff6109" stroke="none" /><path d="M 102.70371172650421 120.8252237178851 l 0.7542820179689234 5.809824922012152 a26.858584042843866,26.858584042843866 0 0,0 -0.45899091755459304,0.05557740803654794 l -0.65416367736295 -5.821947858774051" fill="#ff1602" stroke="none" /><path d="M 102.34483914955558 120.86867818915974 l 2.0368996205536605 18.128067630145225 a39.24214340661017,39.24214340661017 0 0,0 -0.6719140765878756,0.06964664132924082 l -1.724552947360182 -18.160443639930225" fill="#ffc812" stroke="none" /><line stroke="#e1ed5e" stroke-width="0.3" x1="102.19456741930631" x2="102.32365962044197" y1="184.97166512339345" y2="189.96999836594603" /><path d="M 102.22038585953345 185.97133177190398 a86.0,86.0 0 0,1 -42.740103519485714,-10.115201625700543" fill="none" id="id67" stroke="none" /><text fill="#e1ed5e" style="font-size:6.75px; font-family:Arial;" text-anchor="middle"><textPath startOffset="22.20632615414155" xlink:href="#id67">July</textPath></text><path d="M 100.18074693466247 120.99922214144158 l 0.15654799492334528 18.187783529118498 a39.18845724564864,39.18845724564864 0 0,0 -0.6745898591715889,0.0 l 0.15654799492333274 -18.187783529118498" fill="#ffc712" stroke="none" /><path d="M 97.2962882734958 120.8252237178851 l -1.9360695471048175 14.912492724945006 a36.03764624410231,36.03764624410231 0 0,0 -0.6144786076636354,-0.08516113588035105 l 2.1924767459552834 -14.876957023572048" fill="#ff9c0e" stroke="none" /><path d="M 95.51606077576429 120.51570834832081 l -2.5766732019546468 11.789248978780668 a33.06754474917546,33.06754474917546 0 0,0 -0.5550306301492484,-0.1263231643973747 l 2.779223981496757 -11.743149080805606" fill="#ff720a" stroke="none" /><path d="M 94.81253420990036 120.34920634021253 l -2.324713771301765 9.119304517523306 a30.41095154603407,30.41095154603407 0 0,0 -0.506138962311221,-0.13367590017183634 l 2.481343176424475 -9.077937268047888" fill="#ff4b07" stroke="none" /><path d="M 90.7491055286396 118.85261126421891 l -3.208111066120301 6.537883553773892 a28.282574955005316,28.282574955005316 0 0,0 -0.4352096941609251,-0.21822317545733377 l 3.3201746679639856 -6.481692537407257" fill="#ff2b04" stroke="none" /><line stroke="#e1ed5e" stroke-width="0.3" x1="58.666819895761336" x2="56.23545636021788" y1="174.27360380694188" y2="178.64263932499728" /><path d="M 58.180547188652646 175.14741091055294 a86.0,86.0 0 0,1 -31.652253787137756,-30.449443065178592" fill="none" id="id68" stroke="none" /><text fill="#e1ed5e" style="font-size:6.75px; font-family:Arial;" text-anchor="middle"><textPath startOffset="22.20632615414155" xlink:href="#id68">August</textPath></text><path d="M 86.24171649860922 115.8653595955263 l -11.912237802975284 13.736592672517647 a39.1822822474325,39.1822822474325 0 0,0 -0.5057455825590015,-0.44626167457772986 l 12.146925738440874 -13.529507856167628" fill="#ffc712" stroke="none" /><line stroke="#e1ed5e" stroke-width="0.3" x1="26.63291911575756" x2="22.317208475507996" y1="142.92168965132927" y2="145.44649492493687" /><path d="M 25.769776987707644 143.4266507060508 a86.0,86.0 0 0,1 -11.730757126820373,-40.83630448921669" fill="none" id="id69" stroke="none" /><text fill="#e1ed5e" style="font-size:6.75px; font-family:Arial;" text-anchor="middle"><textPath startOffset="21.46611528233685" xlink:href="#id69">September</textPath></text><path d="M 81.87401531095188 110.60418214915194 l -8.270094014805656 4.838224506313195 a30.581381496799608,30.581381496799608 0 0,0 -0.26190478176676363,-0.4566530630301098 l 8.352150792724796 -4.695151597424777" fill="#ff4d07" stroke="none" /><path d="M 80.45479744820244 107.68017299344265 l -13.565667201867946 5.330549560983442 a35.575393142345646,35.575393142345646 0 0,0 -0.21905246852453047,-0.5718768726429133 l 13.655413949985986 -5.096249121507371" fill="#ff950d" stroke="none" /><line stroke="#e1ed5e" stroke-width="0.3" x1="15.007084014347285" x2="10.007500721073583" y1="101.09737516637583" y2="101.16192664675087" /><path d="M 14.007167355692545 101.11028546245083 a86.0,86.0 0 0,1 10.666146001902534,-42.60595125391555" fill="none" id="id70" stroke="none" /><text fill="#e1ed5e" style="font-size:6.75px; font-family:Arial;" text-anchor="middle"><textPath startOffset="22.20632615414155" xlink:href="#id70">October</textPath></text><line stroke="#e1ed5e" stroke-width="0.3" x1="26.266209847984243" x2="21.928928074336255" y1="57.71137044288968" y2="55.22380399835378" /><path d="M 25.398753493254645 57.2138571539825 a86.0,86.0 0 0,1 29.58750427330803,-30.4925239686951" fill="none" id="id71" stroke="none" /><text fill="#e1ed5e" style="font-size:6.75px; font-family:Arial;" text-anchor="middle"><textPath startOffset="21.46611528233685" xlink:href="#id71">November</textPath></text><line stroke="#e1ed5e" stroke-width="0.3" x1="56.76296977257108" x2="54.21961505331056" y1="26.818313649435495" y2="22.513508569990535" /><path d="M 56.25429882871898 25.957352633546506 a86.0,86.0 0 0,1 42.26535254187918,-11.944610805530505" fill="none" id="id72" stroke="none" /><text fill="#e1ed5e" style="font-size:6.75px; font-family:Arial;" text-anchor="middle"><textPath startOffset="22.20632615414155" xlink:href="#id72">December</textPath></text></svg>