<?xml version="1.0" encoding="utf-8" ?>
<svg baseProfile="full" height="200mm" version="1.1" viewBox="0,0,200,200" width="200mm" xmlns="http://www.w3.org/2000/svg" xmlns:ev="http://www.w3.org/2001/xml-events" xmlns:xlink="http://www.w3.org/1999/xlink"><defs /><rect fill="#1a1a1a" height="200" width="200" x="0" y="0" /><text alignment-baseline="middle" fill="#e1ed5e" style="dominant-baseline: central; font-size:9.0px; font-family:Arial;" text-anchor="middle" x="100.0" y="100.0">2018</text><line stroke="#e1ed5e" stroke-width="0.3" x1="100.0" x2="100.0" y1="15.0" y2="10.0" /><path d="M 100.0 14.0 a86.0,86.0 0 0,1 42.46469731375804,11.215312516191453" fill="none" id="id1" stroke="none" /><text fill="#e1ed5e" style="font-size:6.75px; font-family:Arial;" text-anchor="middle"><textPath startOffset="22.20632615414155" xlink:href="#id1">January</textPath></text><line stroke="#e1ed5e" stroke-width="0.3" x1="143.23703022742887" x2="145.7803849466894" y1="26.81831364943548" y2="22.513508569990506" /><path d="M 143.74570117128098 25.957352633546492 a86.0,86.0 0 0,1 28.547481713284135,27.462654790039103" fill="none" id="id2" stroke="none" /><text fill="#e1ed5e" style="font-size:6.75px; font-family:Arial;" text-anchor="middle"><textPath startOffset="19.985693538727396" xlink:href="#id2">February</textPath></text><line stroke="#e1ed5e" stroke-width="0.3" x1="172.23445277983987" x2="176.4835382374775" y1="55.19839476539836" y2="52.563006222186495" /><path d="M 173.08426987136738 54.67131705675599 a86.0,86.0 0 0,1 12.851231095245387,41.99856678651699" fill="none" id="id3" stroke="none" /><text fill="#e1ed5e" style="font-size:6.75px; font-family:Arial;" text-anchor="middle"><textPath startOffset="22.20632615414155" xlink:href="#id3">March</textPath></text><line stroke="#e1ed5e" stroke-width="0.3" x1="184.98032266829074" x2="189.97916517819016" y1="98.17113171792111" y2="98.06355123074" /><path d="M 185.9800911702706 98.14961562048488 a86.0,86.0 0 0,1 -9.607161424134198,41.387399972396054" fill="none" id="id4" stroke="none" /><text fill="#e1ed5e" style="font-size:6.75px; font-family:Arial;" text-anchor="middle"><textPath startOffset="21.466115282336823" xlink:href="#id4">April</textPath></text><line stroke="#e1ed5e" stroke-width="0.3" x1="174.80103733775053" x2="179.2010983576182" y1="140.37084112569926" y2="142.7455964860345" /><path d="M 175.68104954172406 140.8457921977663 a86.0,86.0 0 0,1 -30.038265399797805,32.042727171017184" fill="none" id="id5" stroke="none" /><text fill="#e1ed5e" style="font-size:6.75px; font-family:Arial;" text-anchor="middle"><textPath startOffset="22.206326154141568" xlink:href="#id5">May</textPath></text><line stroke="#e1ed5e" stroke-width="0.3" x1="143.8653032363475" x2="146.44561519142675" y1="172.8068346515853" y2="177.08958963109032" /><path d="M 144.38136562736335 173.6633856474863 a86.0,86.0 0 0,1 -40.68145358897372,12.25698825130547" fill="none" id="id6" stroke="none" /><text fill="#e1ed5e" style="font-size:6.75px; font-family:Arial;" text-anchor="middle"><textPath startOffset="21.466115282336833" xlink:href="#id6">June</textPath></text><line stroke="#e1ed5e" stroke-width="0.3" x1="102.19456741930631" x2="102.32365962044197" y1="184.97166512339345" y2="189.96999836594603" /><path d="M 102.22038585953345 185.97133177190398 a86.0,86.0 0 0,1 -42.740103519485714,-10.115201625700543" fill="none" id="id7" stroke="none" /><text fill="#e1ed5e" style="font-size:6.75px; font-family:Arial;" text-anchor="middle"><textPath startOffset="22.20632615414155" xlink:href="#id7">July</textPath></text><line stroke="#e1ed5e" stroke-width="0.3" x1="58.666819895761336" x2="56.23545636021788" y1="174.27360380694188" y2="178.64263932499728" /><path d="M 58.180547188652646 175.14741091055294 a86.0,86.0 0 0,1 -31.652253787137756,-30.449443065178592" fill="none" id="id8" stroke="none" /><text fill="#e1ed5e" style="font-size:6.75px; font-family:Arial;" text-anchor="middle"><textPath startOffset="22.20632615414155" xlink:href="#id8">August</textPath></text><line stroke="#e1ed5e" stroke-width="0.3" x1="26.63291911575756" x2="22.317208475507996" y1="142.92168965132927" y2="145.44649492493687" /><path d="M 25.769776987707644 143.4266507060508 a86.0,86.0 0 0,1 -11.730757126820373,-40.83630448921669" fill="none" id="id9" stroke="none" /><text fill="#e1ed5e" style="font-size:6.75px; font-family:Arial;" text-anchor="middle"><textPath startOffset="21.46611528233685" xlink:href="#id9">September</textPath></text><path d="M 79.4281124754447 104.21870165774334 l -10.894549260302776 2.2341582885841373 a32.12127091854222,32.12127091854222 0 0,0 -0.1064132843195123,-0.5425990441659132 l 10.931392477597957 -2.04629551735027" fill="#ff3d05" stroke="none" /><path d="M 79.29508885075956 103.50808413554451 l -11.79375276050611 1.9982446029083074 a32.961838724418485,32.961838724418485 0 0,0 -0.08996736993855892,-0.5602268984879755 l 11.826401884805959 -1.7949384747271178" fill="#ff4a06" stroke="none" /><path d="M 79.23777060512086 103.15116336523772 l -28.98847403268402 4.39969213558873 a50.32045220714642,50.32045220714642 0 0,0 -0.12260446145012006,-0.85749531782482 l 29.05991254515074 -3.9000513457835106" fill="#bfff1e" stroke="none" /><path d="M 79.10278846688536 102.07522291339032 l -12.61062141396365 1.2523130403727802 a33.67265009370204,33.67265009370204 0 0,0 -0.052313514463228857,-0.5772752728868862 l 12.630309524703954 -1.0350563789373282" fill="#ff5507" stroke="none" /><path d="M 79.0235259727143 100.99374915477108 l -16.070361352946016 0.7613247102722139 a37.088384919833686,37.088384919833686 0 0,0 -0.02472182308911225,-0.6379604049784231 l 16.081085308886326 -0.4845870582797939" fill="#ff890c" stroke="none" /><line stroke="#e1ed5e" stroke-width="0.3" x1="15.007084014347285" x2="10.007500721073583" y1="101.09737516637583" y2="101.16192664675087" /><path d="M 14.007167355692545 101.11028546245083 a86.0,86.0 0 0,1 10.666146001902534,-42.60595125391555" fill="none" id="id10" stroke="none" /><text fill="#e1ed5e" style="font-size:6.75px; font-family:Arial;" text-anchor="middle"><textPath startOffset="22.20632615414155" xlink:href="#id10">October</textPath></text><path d="M 79.00175016825051 100.2711162175752 l -21.692901005131105 0.2800851173725885 a42.694709071370184,42.694709071370184 0 0,0 -0.0031628702202957564,-0.7349396504834229 l 21.694508172640905 0.09336401131450982" fill="#ffd914" stroke="none" /><path d="M 79.03285615573316 98.82574320788736 l -25.76608032725611 -1.443019376178579 a46.80645656324481,46.80645656324481 0 0,0 0.05197613829678451,-0.8040478542678897 l 25.737423597954912 1.8863262946994805" fill="#edff1a" stroke="none" /><path d="M 79.08570108090925 98.10471618934814 l -23.139798317800295 -2.0969617630091024 a44.234618886996955,44.234618886996955 0 0,0 0.07524703480927171,-0.7577273716007976 l 23.100274157308796 2.4949646653143307" fill="#ffef16" stroke="none" /><path d="M 79.16333360222342 97.38593545837743 l -15.706764018007965 -1.9704925010216117 a36.82988555277555,36.82988555277555 0 0,0 0.08432991674378718,-0.6283558313055834 l 15.670518102206344 2.240566674391855" fill="#ff850c" stroke="none" /><path d="M 79.26566170972629 96.67025291283419 l -16.259275689094174 -2.611092531975493 a37.467600011674655,37.467600011674655 0 0,0 0.10774279133380488,-0.6359040534218512 l 16.21192103624015 2.890582373713173" fill="#ff8e0d" stroke="none" /><path d="M 80.38941819471856 92.48833698450439 l -21.048107031378468 -8.062294566457911 a43.53937450952667,43.53937450952667 0 0,0 0.27410410210838604,-0.6975650419022038 l 20.906209379388393 8.423408613255878" fill="#ffe515" stroke="none" /><path d="M 80.65960295795068 91.81776055985345 l -19.674881981484717 -8.323748213603102 a42.36318715240806,42.36318715240806 0 0,0 0.2899039787844871,-0.6691383531662757 l 19.528687292857548 8.661185711355975" fill="#ffd513" stroke="none" /><path d="M 80.95270993114464 91.15688171328213 l -6.629598542207507 -3.0779351755688618 a28.30925863380439,28.30925863380439 0 0,0 0.20900564712314393,-0.4402191959267906 l 6.5756347012426115 3.1915967871361834" fill="#ff0000" stroke="none" /><line stroke="#e1ed5e" stroke-width="0.3" x1="26.266209847984243" x2="21.928928074336255" y1="57.71137044288968" y2="55.22380399835378" /><path d="M 25.398753493254645 57.2138571539825 a86.0,86.0 0 0,1 29.58750427330803,-30.4925239686951" fill="none" id="id11" stroke="none" /><text fill="#e1ed5e" style="font-size:6.75px; font-family:Arial;" text-anchor="middle"><textPath startOffset="21.46611528233685" xlink:href="#id11">November</textPath></text><path d="M 85.57189188830299 84.74124197986013 l -43.28432433509105 -45.7762740604196 a84.0,84.0 0 0,0 1.0591684648205755,-0.9843816557014007 l 42.48994798647562 46.514560302195655" fill="#4dd2ff" stroke="none" /><line stroke="#e1ed5e" stroke-width="0.3" x1="56.76296977257108" x2="54.21961505331056" y1="26.818313649435495" y2="22.513508569990535" /><path d="M 56.25429882871898 25.957352633546506 a86.0,86.0 0 0,1 42.26535254187918,-11.944610805530505" fill="none" id="id12" stroke="none" /><text fill="#e1ed5e" style="font-size:6.75px; font-family:Arial;" text-anchor="middle"><textPath startOffset="22.20632615414155" xlink:href="#id12">December</textPath></text></svg>